<?xml version="1.0" standalone="no"?>
<!DOCTYPE svg PUBLIC "-//W3C//DTD SVG 1.1//EN" "http://www.w3.org/Graphics/SVG/1.1/DTD/svg11.dtd" >
<svg>
<metadata>
Created by FontForge 20120731 at Fri Dec 12 02:56:16 2014
 By Orthosie Webhosting
Copyright (c) 2011, Oriol Esparraguera Font (hi@parqink.com|www.parqink.com),
with Reserved Font Name Afta.
</metadata>
<defs>
<font id="AftaserifRegular" horiz-adv-x="585" >
  <font-face 
    font-family="AftaserifRegular"
    font-weight="400"
    font-stretch="normal"
    units-per-em="1000"
    panose-1="2 0 5 3 0 0 0 2 0 4"
    ascent="800"
    descent="-200"
    x-height="517"
    cap-height="716"
    bbox="-39 -234 1701 985"
    underline-thickness="50"
    underline-position="-150"
    unicode-range="U+0020-FB06"
  />
<missing-glyph horiz-adv-x="282" 
 />
    <glyph glyph-name="ff" unicode="ff" horiz-adv-x="646" 
d="M287 726q-60 0 -94 -44.5t-34 -119.5v-46h98v-43h-98v-646l83 -16v-22h-228v21l80 17l2 646h-86v43h86v46q0 108 50 162t142 54q123 0 158 -83q55 83 182 83q47 0 111 -31l-8 -108h-20l-18 77q-39 10 -65 10q-29 0 -50.5 -4.5t-36 -10.5t-24.5 -20t-15 -23.5t-7 -31.5
t-2.5 -34t-0.5 -40v-46h129v-43h-129v-435q10 -2 39 -8.5t44 -9.5v-20h-228v21l80 19l2 433h-86v43h86q0 121 -34.5 165.5t-107.5 44.5z" />
    <glyph glyph-name="fi" unicode="fi" horiz-adv-x="626" 
d="M562 37l78 -17v-20h-226v20l79 16v438h-318v-437l83 -17v-20h-227v20l80 16v438h-79v43h79v93q0 103 53 156.5t137 53.5q37 0 73 -9.5t49 -15.5t51 -25v35h88v-89h-101q-29 25 -72 43.5t-79 18.5q-49 0 -81.5 -29.5t-43.5 -66t-11 -76.5v-89h388v-480z" />
    <glyph glyph-name="fl" unicode="fl" horiz-adv-x="622" 
d="M185 40l81 -19v-21h-227v21l79 19v435h-88v44h88v89q0 121 49 168t143 47q248 0 248 -188v-595q12 -4 39.5 -10t39.5 -9v-21h-226v21l78 19v595q0 68 -48.5 102t-122.5 34q-75 -2 -104 -44.5t-29 -118.5v-89h127v-44h-127v-435z" />
    <glyph glyph-name="st" unicode="st" horiz-adv-x="852" 
d="M402 381l-18 74q-61 31 -145 31q-49 0 -78 -19t-29 -72q0 -44 26 -62t92 -34q111 -25 161.5 -60.5t50.5 -95.5q0 -74 -54.5 -116t-146.5 -42q-66 0 -121.5 17t-84.5 35v3t0.5 9t1 17.5t2 33t2.5 52.5h22l17 -72q94 -45 160 -45q134 0 134 105q0 42 -51 67.5t-140 44.5
q-142 42 -142 143q0 19 7 39t24.5 42.5t55 37t90.5 14.5q75 0 150 -26q7 55 22 107.5t40.5 104.5t67.5 83.5t95 31.5q126 0 126 -129q0 -20 -3 -43t-9.5 -46.5t-10.5 -38t-11 -34.5l-7 -21h134v-43h-134v-335q0 -67 10 -84.5t48 -17.5q33 0 73 17v-53q-49 -13 -98 -13
q-52 0 -75.5 24t-23.5 92v370h-101v43h97q56 151 56 203q0 36 -18 52.5t-58 16.5q-64 0 -113 -81.5t-67 -219.5q0 -18 -2 -53.5t-3 -53.5h-21z" />
    <glyph glyph-name="ti" unicode="ti" horiz-adv-x="570" 
d="M421 477l-80 19v21h148l2 -477l78 -19v-21q-40 -1 -131 -8t-139 -7q-30 0 -60 5.5t-61.5 17.5t-51.5 36.5t-20 58.5v371h-101v43h100q14 120 20 154h47v-533q0 -102 152 -102q48 0 97 8v433zM489 710h-84v85h84v-85z" />
    <glyph glyph-name="th" unicode="th" horiz-adv-x="933" 
d="M850 40l84 -19v-21h-228v21l79 19l1 279q0 72 -27 117.5t-82 45.5q-80 0 -135.5 -47t-55.5 -97q0 -56 1 -165.5t1 -166.5q-18 -6 -74.5 -13.5t-110.5 -7.5q-31 0 -61.5 5.5t-61.5 17.5t-50.5 36.5t-19.5 58.5v371h-102v43h101l19 154h46v-154h134v-43h-134v-336
q0 -102 154 -102q35 0 65.5 13t30.5 29v678q-54 12 -79 19v21h145v-373q60 55 108 80.5t109 25.5q70 0 109.5 -53.5t33.5 -163.5v-272z" />
    <glyph glyph-name="ck" unicode="ck" horiz-adv-x="1099" 
d="M486 490l-8 -105h-21l-17 72q-72 29 -117 29q-44 0 -77 -9t-63.5 -31.5t-46.5 -68t-16 -112.5q0 -70 15.5 -118t45 -72.5t63.5 -34.5t79 -10q33 0 70.5 11t62 22t66.5 38.5t54.5 36.5t54.5 40v577q-58 13 -80 19v21h149l-1 -395q35 71 96.5 110.5t124.5 39.5
q61 0 99.5 -40.5t38.5 -99.5q0 -104 -153 -210l125 -163l69 -17v-20h-228v21l77 16l-103 132q-38 -18 -58 -26l-2 53q81 35 146.5 89.5t65.5 113.5q0 45 -27.5 72.5t-69.5 27.5q-65 0 -132 -63.5t-69 -137.5v-134q-34 -33 -60.5 -55t-77 -55.5t-111.5 -51.5t-127 -18
q-273 0 -273 279q0 146 69 207.5t204 61.5q94 0 163 -42z" />
    <glyph glyph-name="mm" unicode="mm" horiz-adv-x="1447" 
d="M87 477l-80 19v21h140l11 -105q23 53 73 87t99 34q40 0 72.5 -30.5t43.5 -89.5q31 57 80 88.5t109 31.5q85 0 121 -125q24 58 75.5 91.5t103.5 33.5q87 0 117 -118q27 56 77 87t111 31q123 0 123 -209l1 -283l83 -19v-22h-146v330q0 79 -18 116.5t-74 37.5
q-71 0 -108.5 -49t-37.5 -115v-280l78 -19v-21h-147v320q0 84 -19.5 124t-70.5 40q-70 0 -108.5 -49.5t-38.5 -112.5l2 -281l83 -19v-22h-146v330q0 79 -18.5 116.5t-74.5 37.5q-71 0 -108 -48.5t-37 -115.5v-280l78 -19v-21h-146v320q0 85 -19.5 124.5t-70.5 39.5
q-70 0 -108.5 -50t-38.5 -114v-279l82 -19v-22h-228v21l80 17v439z" />
    <glyph glyph-name="oo" unicode="oo" horiz-adv-x="984" 
d="M703 533q248 0 248 -272q0 -142 -54 -210t-185 -68q-122 0 -204 97q-80 -97 -210 -97q-128 0 -186.5 77.5t-58.5 200.5q0 136 54.5 204t183.5 68q126 0 207 -96q81 96 205 96zM123 261q0 -63 12 -108t28.5 -68.5t42.5 -36.5t45.5 -16t46.5 -3q25 0 41 1.5t44 14t44.5 35
t30 69t13.5 112.5q0 46 -7 83t-17 60t-26.5 40t-30.5 25t-35 12.5t-33 5t-31 0.5h-25.5t-24.5 -2t-26 -5.5t-23.5 -11.5t-22.5 -18.5t-18 -28t-15.5 -39.5t-9 -53t-3.5 -68zM529 261q0 -109 40.5 -170.5t142.5 -61.5q25 0 40 1.5t41 14t41 35t27 69t12 112.5q0 64 -12 109
t-27.5 67.5t-42.5 34.5t-43.5 13.5t-44.5 1.5q-54 0 -90 -18t-53.5 -52t-24 -70t-6.5 -86z" />
    <glyph glyph-name="rt" unicode="rt" horiz-adv-x="717" 
d="M491 104v432l19 135h46v-154h134v-43h-134v-335q0 -67 10 -84.5t49 -17.5q42 0 73 18v-52q-45 -15 -98 -15q-52 0 -75.5 24t-23.5 92zM87 477l-79 19v21h132l15 -113q20 65 60 96.5t84 31.5q54 0 82 -15l-8 -119h-22l-18 79q-19 3 -34 3q-23 0 -39.5 -3t-38 -16
t-35 -36.5t-23 -68.5t-9.5 -107v-211l76 -17v-21h-218v21l75 17v439z" />
    <glyph glyph-name="tt" unicode="tt" horiz-adv-x="653" 
d="M245 474v43h180q14 119 20 155h46v-155h133v-43h-133v-335q0 -67 10 -84.5t49 -17.5q43 0 72 17v-51q-64 -15 -96 -15q-72 0 -93 40q-51 -43 -129 -43q-84 0 -119 14q-75 31 -75 139v335h-101v43h100l21 155h45v-533q0 -29 11 -50t24 -30.5t36 -15t35.5 -6t32.5 -0.5h6
q25 0 66 17.5t41 43.5v377h-182z" />
    <glyph glyph-name="Wh" unicode="Wh" horiz-adv-x="1701" 
d="M200 695l-70 -15l216 -630l168 666h85l166 -671l144 470q30 93 58 152t56.5 87.5t52 37.5t55.5 9q68 0 101 -37t33 -122v-236q27 49 82.5 84.5t116.5 35.5q73 0 115.5 -55t42.5 -162l-1 -270l80 -17v-22h-223v21l78 18l2 277q0 76 -32 118t-92 42q-66 0 -117.5 -46
t-51.5 -104v-287q69 -14 82 -18v-21h-226v22l79 16v580q0 78 -15 112t-54 34q-26 0 -44.5 -18.5t-42 -72t-58.5 -162.5l-168 -511h-102l-151 645h-19l-154 -645h-95l-249 679l-71 17v20h223v-21z" />
    <glyph glyph-name="wh" unicode="wh" horiz-adv-x="1357" 
d="M204 494l-87 -15l106 -429l146 467h67l127 -468l88 427q-11 2 -36 16.5t-56 40t-54 70t-23 95.5q0 115 161 115q57 0 124.5 -8.5t107.5 -16.5t39 -9l1 -367q26 48 82.5 84.5t117.5 36.5q75 0 118 -55t43 -165v-273l80 -18v-22h-226v21l81 19v280q0 78 -33 120.5t-93 42.5
q-67 0 -118.5 -46t-51.5 -106v-291l82 -19v-21h-228v22l80 16v704q-115 42 -203 42q-124 0 -124 -91q0 -38 19 -75t67.5 -67t117.5 -34l-117 -517h-82l-124 485l-143 -485h-82l-124 480l-77 14v23h227v-23z" />
    <glyph glyph-name="St" unicode="St" horiz-adv-x="943" 
d="M626 517h101q54 149 54 200q0 71 -79 71q-54 0 -105 -41.5t-65 -121.5l-2 -41h-22l-16 72q-84 36 -180 36q-71 0 -120.5 -39t-49.5 -103q0 -62 37.5 -93t119.5 -55q35 -10 59 -18t57.5 -22.5t56.5 -31.5t45 -40t33 -53.5t11 -66.5q0 -55 -27.5 -95t-72.5 -59.5t-87 -27.5
t-84 -8q-141 0 -226 58v116h20l16 -72q91 -54 190 -54q82 0 138.5 41.5t56.5 100.5q0 23 -4.5 40.5t-20.5 43.5t-56 48.5t-102 38.5h1q-122 35 -180.5 82t-58.5 128q0 74 66.5 127t182.5 53q124 0 192 -25q77 122 202 122q124 0 124 -127q0 -17 -2.5 -36.5t-6 -37t-8 -34
t-8.5 -30.5t-7.5 -24t-6.5 -16l-2 -6h133v-42h-133v-337q0 -66 10 -83.5t48 -17.5q34 0 72 16v-52q-49 -13 -97 -13q-51 0 -74.5 24t-23.5 91v372h-99v42z" />
    <glyph glyph-name="ch" unicode="ch" horiz-adv-x="1146" 
d="M326 31q83 0 176 43v-58q-98 -31 -176 -31q-136 0 -203 68t-67 211q0 146 68.5 207.5t201.5 61.5q61 0 119 -28v118q0 102 28.5 143.5t95.5 41.5q69 0 103 -37.5t34 -123.5v-236q32 52 86 86.5t115 34.5q74 0 117 -56t43 -164v-272l80 -18v-22h-226v21l79 19l2 279
q0 78 -32.5 120.5t-92.5 42.5q-68 0 -119.5 -46t-51.5 -106v-290l82 -19v-21h-228v22l80 16v585q0 79 -15.5 113t-55.5 34q-39 0 -56.5 -34t-20.5 -113l-11 -237h-20l-17 72q-67 29 -118 29q-44 0 -77 -8.5t-63.5 -31t-46.5 -68t-16 -113.5q0 -134 54.5 -184.5t148.5 -50.5z
" />
    <glyph glyph-name="Ch" unicode="Ch" horiz-adv-x="1257" 
d="M593 574l-16 85q-60 31 -145 31q-24 0 -56.5 -9.5t-73 -34.5t-74 -61t-57 -96t-24.5 -133q5 -86 33.5 -150.5t63.5 -96.5t78.5 -51t68 -23t41.5 -4q99 0 198 78v-69q-29 -20 -84.5 -39t-113.5 -21q-118 0 -202.5 51.5t-124.5 135t-40 188.5q0 170 96 273.5t271 103.5
q72 0 155 -23q14 50 41 71.5t73 21.5q68 0 101.5 -37t33.5 -122l1 -234q29 49 84 83.5t114 34.5q73 0 115.5 -55t42.5 -162v-270l79 -17v-22h-223v21l78 18v277q0 76 -31.5 118t-90.5 42q-66 0 -117.5 -46t-51.5 -104v-287l81 -18v-21h-225v22l79 16v580q0 78 -15 111.5
t-55 33.5q-33 0 -56 -25.5t-25 -73.5l-7 -91h-20z" />
    <glyph glyph-name=".notdef" horiz-adv-x="282" 
 />
    <glyph glyph-name=".null" horiz-adv-x="0" 
 />
    <glyph glyph-name="nonmarkingreturn" horiz-adv-x="333" 
 />
    <glyph glyph-name="space" unicode=" " horiz-adv-x="282" 
 />
    <glyph glyph-name="exclam" unicode="!" horiz-adv-x="284" 
d="M179 517l-25 -294h-21l-25 294v213h71v-213zM104 -1v84h85v-84h-85z" />
    <glyph glyph-name="quotedbl" unicode="&#x22;" horiz-adv-x="455" 
d="M339 493h-46v237h46v-237zM141 730h46v-237h-46v237z" />
    <glyph glyph-name="numbersign" unicode="#" horiz-adv-x="594" 
d="M424 459h-167q-5 -38 -16.5 -102t-17.5 -102h167q5 36 16.5 102t17.5 102zM212 459h-130v31h135l36 220h47l-38 -220h168l36 220h47l-38 -220h95v-31h-101l-34 -204h103v-31h-106q-9 -40 -19.5 -113.5t-18.5 -109.5h-45l36 223h-168q-18 -126 -36 -223h-46l37 223h-116
v31h122z" />
    <glyph glyph-name="dollar" unicode="$" horiz-adv-x="605" 
d="M339 344v-317q65 16 112 58t47 89q0 19 -4 35t-18 40.5t-49 49t-88 45.5zM308 409v300q-66 -13 -112.5 -52t-46.5 -94q0 -94 159 -154zM339 820v-69q144 -9 214 -47v-50q-100 47 -214 55v-307q54 -19 86.5 -34t72.5 -42t59.5 -65t19.5 -87q0 -45 -21.5 -80.5t-58 -57.5
t-75.5 -35t-83 -20v-100h-31v99q-85 3 -146.5 20.5t-92.5 39.5v65q112 -74 239 -77v322q-121 35 -180 85t-59 129q0 68 63 122t176 65v69h31z" />
    <glyph glyph-name="percent" unicode="%" horiz-adv-x="1020" 
d="M805 383q46 0 77.5 -16t48 -46t24 -62.5t8.5 -75.5q-1 -63 -15 -104t-39.5 -59t-48 -23.5t-54.5 -5.5q-33 0 -56.5 5.5t-49.5 23.5t-40.5 59t-15.5 104q2 100 39.5 150t121.5 50zM805 6q60 0 89.5 40.5t29.5 136.5q0 102 -27.5 142t-91.5 40q-60 0 -90.5 -41.5
t-30.5 -144.5q0 -96 31 -134.5t90 -38.5zM807 740h51l-562 -759h-51zM274 353q58 0 88.5 38.5t30.5 133.5q0 99 -31 138.5t-88 39.5q-59 0 -90 -39.5t-31 -141.5q0 -169 121 -169zM274 726q46 0 78 -16t48 -46.5t23.5 -62.5t9.5 -76q-2 -62 -17.5 -103.5t-41.5 -59.5
t-48.5 -24t-50.5 -6q-160 0 -163 193q3 100 40.5 150.5t121.5 50.5z" />
    <glyph glyph-name="ampersand" unicode="&#x26;" horiz-adv-x="759" 
d="M408 728q77 -1 117.5 -27.5t40.5 -86.5q0 -15 -8 -66q105 -18 151.5 -74.5t46.5 -167.5q0 -158 -125 -250q68 -30 110 -30q83 0 156 41v-53q-54 -30 -159 -30q-86 0 -159 45q-112 -50 -252 -47q-151 0 -216 68.5t-65 203.5q0 115 52.5 171t170.5 74q-22 95 -22 115
q0 114 161 114zM275 471q-47 -11 -73.5 -22.5t-49 -34.5t-31.5 -60.5t-9 -95.5q0 -132 51 -183t166 -51q91 0 208 33q-158 152 -262 414zM548 515q-37 -109 -124 -252q49 -75 76.5 -108t71.5 -69q117 56 117 224q0 68 -16.5 108.5t-44 59.5t-80.5 37zM518 598q0 51 -29 68.5
t-81 17.5q-58 0 -87 -17t-29 -69q0 -49 36.5 -133t79.5 -159q39 75 57 113t35.5 90t17.5 89z" />
    <glyph glyph-name="quotesingle" unicode="'" horiz-adv-x="286" 
d="M175 493h-45v237h45v-237z" />
    <glyph glyph-name="parenleft" unicode="(" horiz-adv-x="315" 
d="M266 753h36q-59 -91 -111.5 -223t-52.5 -261q0 -197 157 -482h-29q-22 25 -48 62t-64.5 103t-63.5 150.5t-25 166.5q0 127 56.5 255t144.5 229z" />
    <glyph glyph-name="parenright" unicode=")" horiz-adv-x="308" 
d="M22 753h36q202 -248 202 -484q0 -226 -201 -482h-31q50 97 78 158t54.5 153t26.5 171q0 70 -18 146t-47 143t-52.5 111.5t-47.5 83.5z" />
    <glyph glyph-name="asterisk" unicode="*" horiz-adv-x="329" 
d="M165 577l-102 -54l-11 21l106 53l-106 53l11 21l102 -54v114h25v-114l100 54l11 -21l-105 -53l105 -53l-11 -21l-100 54v-115h-25v115z" />
    <glyph glyph-name="plus" unicode="+" horiz-adv-x="600" 
d="M286 509h45v-235h236v-42h-236v-231h-45v231h-227v42h227v235z" />
    <glyph glyph-name="comma" unicode="," horiz-adv-x="278" 
d="M106 0v84h87q8 -62 8 -99q0 -156 -109 -172v35q27 3 43 16t22 39t7.5 43.5t1.5 53.5h-60z" />
    <glyph glyph-name="hyphen" unicode="-" horiz-adv-x="398" 
d="M67 304h281v-51h-281v51z" />
    <glyph glyph-name="period" unicode="." horiz-adv-x="271" 
d="M106 -1v84h85v-84h-85z" />
    <glyph glyph-name="slash" unicode="/" horiz-adv-x="347" 
d="M6 -20l304 773h47l-304 -772q-8 0 -24.5 -0.5t-22.5 -0.5z" />
    <glyph glyph-name="zero" unicode="0" horiz-adv-x="670" 
d="M353 678q-105 0 -161.5 -77.5t-56.5 -259.5q0 -316 218 -316q96 0 154 77.5t58 245.5q0 330 -212 330zM353 723q279 0 279 -375q0 -91 -20 -160t-49.5 -106.5t-69.5 -61t-72.5 -30t-67.5 -6.5q-36 0 -69.5 6.5t-75 30t-71.5 61t-50.5 106.5t-20.5 160t17 160t44 109
t66.5 64.5t77 33t82.5 8.5z" />
    <glyph glyph-name="one" unicode="1" horiz-adv-x="433" 
d="M119 21l79 19v633q-46 -5 -85 -22v31q11 9 35 23t36 22h80v-687q12 -4 39.5 -10t39.5 -9v-21h-224v21z" />
    <glyph glyph-name="two" unicode="2" horiz-adv-x="601" 
d="M482 48l19 80h22l10 -128h-490q1 58 16 106.5t37.5 83.5t59 67.5t72 54.5t85.5 48q133 68 133 177q0 58 -40.5 98t-121.5 44q-103 0 -172 -87q-1 -4 -5.5 -28.5t-8.5 -38.5h-21l-9 106q9 9 23 20t43 30.5t68.5 32t79.5 12.5q112 0 170 -53.5t58 -135.5q0 -149 -179 -236
q-195 -98 -205 -253h356z" />
    <glyph glyph-name="three" unicode="3" horiz-adv-x="640" 
d="M80 555l-7 106q134 66 247 66q98 0 165 -41.5t67 -124.5q0 -69 -42.5 -115.5t-105.5 -52.5q87 -12 141 -63.5t54 -127.5q0 -91 -82.5 -155t-219.5 -64q-174 0 -245 37l8 114h21l17 -76q113 -34 193 -34q62 0 108.5 19t70 48.5t34.5 57.5t11 53q0 57 -54 106t-147 49h-85
v48h85q88 0 125.5 39.5t37.5 101.5q0 54 -39.5 93.5t-117.5 39.5q-81 0 -202 -52q-2 -13 -8.5 -37t-8.5 -33q-6 0 -12 -1t-9 -1z" />
    <glyph glyph-name="four" unicode="4" horiz-adv-x="696" 
d="M80 244h355v430q-276 -332 -355 -430zM502 41l82 -20v-21h-230q0 4 -0.5 11.5t-0.5 9.5l81 19l1 161h-388v62q67 78 196.5 232t196.5 232h62v-483h163v-43h-163v-160z" />
    <glyph glyph-name="five" unicode="5" horiz-adv-x="640" 
d="M581 597h-20l-19 79h-365q-4 -33 -14.5 -109t-14.5 -120q79 36 159 36q127 0 208.5 -62.5t81.5 -170.5q0 -118 -79.5 -184t-206.5 -66q-166 0 -257 54l8 111h21l17 -72q123 -55 211 -55q56 0 99 20t67 52.5t36 68t12 71.5q0 81 -52.5 136.5t-161.5 55.5q-71 0 -186 -42
q-8 5 -26.5 15.5t-27.5 16.5q35 225 46 283h476q-2 -22 -6.5 -59.5t-5.5 -58.5z" />
    <glyph glyph-name="six" unicode="6" horiz-adv-x="622" 
d="M143 219q0 -70 49.5 -129.5t130.5 -59.5q119 0 169 91.5t7.5 183.5t-148.5 92q-41 0 -77.5 -18t-59.5 -43t-39.5 -52t-24 -44.5t-7.5 -20.5zM549 554l-17 72q-98 51 -186 51q-53 0 -96.5 -25.5t-69 -67t-39 -90.5t-13.5 -99q0 -55 3 -118q15 69 82.5 118.5t137.5 49.5
q134 0 200 -94q56 -79 34 -176q-22 -101 -114 -151q-63 -34 -147 -34q-129 0 -195.5 82t-66.5 284q0 100 22 173.5t62 116t89.5 62t110.5 19.5q23 0 46.5 -3.5t39 -6.5t40 -12t33.5 -13t37.5 -16.5t34.5 -15.5l-7 -106h-21z" />
    <glyph glyph-name="seven" unicode="7" horiz-adv-x="633" 
d="M134 559l-40 151h491q0 -76 -46 -126l-164 -195q-57 -82 -57 -179v-209h-68v209q0 66 18 110.5t51 89.5q40 53 208 263h-360q-1 -17 -5.5 -56.5t-6.5 -57.5h-21z" />
    <glyph glyph-name="eight" unicode="8" horiz-adv-x="613" 
d="M349 445q13 3 40.5 16.5t59 43.5t31.5 62q0 42 -27.5 69t-62 35.5t-75.5 8.5q-61 0 -112.5 -26t-51.5 -78q0 -71 198 -131zM280 402q-77 -24 -120.5 -77.5t-43.5 -129.5q0 -83 60 -124t140 -41q84 0 143 45t59 120q0 90 -72.5 145t-165.5 62zM224 416q-21 9 -42 20.5
t-46.5 30.5t-41 45.5t-15.5 54.5q0 76 61.5 117.5t175.5 41.5q113 0 173 -47.5t60 -118.5q0 -53 -34.5 -84.5t-106.5 -57.5q181 -85 181 -223q0 -102 -76 -157t-198 -55q-266 0 -266 212q0 44 19.5 83.5t49 66.5t56 44.5t50.5 26.5z" />
    <glyph glyph-name="nine" unicode="9" horiz-adv-x="622" 
d="M506 497q0 70 -49.5 129.5t-130.5 59.5q-114 0 -166 -88q-42 -73 -19 -157q22 -83 95 -111q29 -11 62 -11q41 0 77.5 18t59.5 43t39.5 52t24 44.5t7.5 20.5zM100 162l17 -72q98 -51 186 -51q53 0 96.5 25.5t69 67t39 90.5t13.5 99q0 55 -3 118q-16 -71 -82.5 -119.5
t-137.5 -48.5q-134 0 -200 94q-56 79 -34 176q22 101 114 151q63 34 147 34q129 0 195.5 -82t66.5 -284q0 -100 -22 -173.5t-62 -116t-89.5 -62t-110.5 -19.5q-23 0 -46.5 3.5t-39 6.5t-40 12t-33.5 13t-37.5 16.5t-34.5 15.5l7 106h21z" />
    <glyph glyph-name="colon" unicode=":" horiz-adv-x="301" 
d="M117 -1v84h84v-84h-84zM201 433h-84v84h84v-84z" />
    <glyph glyph-name="semicolon" unicode=";" horiz-adv-x="307" 
d="M176 0h-59v84h86q8 -62 8 -99q0 -82 -31 -123t-77 -48v34q21 2 35.5 12.5t22 22.5t11 35.5t4 38t0.5 43.5zM201 433h-84v84h84v-84z" />
    <glyph glyph-name="less" unicode="&#x3c;" horiz-adv-x="621" 
d="M590 511v-53l-506 -208l515 -201v-51l-540 226v54z" />
    <glyph glyph-name="equal" unicode="=" horiz-adv-x="598" 
d="M59 169h501v-41h-501v41zM59 378h501v-43h-501v43z" />
    <glyph glyph-name="greater" unicode="&#x3e;" horiz-adv-x="618" 
d="M54 458v53l531 -233v-54l-540 -226v51l515 201z" />
    <glyph glyph-name="question" unicode="?" horiz-adv-x="601" 
d="M229 0v84h85v-84h-85zM126 533l-40 184q88 32 192 32q111 0 179 -43.5t68 -132.5q0 -40 -19 -75t-39.5 -54.5t-55.5 -46.5q-4 -3 -18 -15.5t-19 -16.5t-17.5 -16t-17.5 -18l-15 -18t-14.5 -21l-10.5 -21t-9 -24.5t-4 -25.5h-40q5 72 36.5 118t78.5 82q24 20 35 30
t27.5 30t23.5 42.5t7 49.5q0 58 -43.5 91.5t-132.5 33.5q-67 0 -143 -26q10 -111 12 -139h-21z" />
    <glyph glyph-name="at" unicode="@" horiz-adv-x="817" 
d="M497 324l6 71q-18 44 -52 68q-43 23 -75 -11.5t-32 -93.5q0 -84 69 -84q40 0 84 50zM806 441q0 -94 -46 -162.5t-147 -68.5q-51 0 -82 19.5t-37 49.5q-13 -23 -40 -39.5t-60 -16.5q-116 0 -116 142q0 64 36 112.5t84 48.5q74 0 115 -73l16 65l50 -18q-20 -131 -20 -187
q0 -61 60 -61q54 0 82.5 55.5t28.5 141.5q0 82 -44.5 141.5t-110.5 86.5t-143 27q-18 0 -32.5 -1t-48 -7.5t-60 -18t-58.5 -37t-53.5 -59.5t-36.5 -89.5t-15 -124.5q0 -70 15 -125.5t36 -90.5t55.5 -60t61.5 -37t66 -18.5t57.5 -7t46.5 -0.5h7q148 0 316 95v-85
q-152 -56 -353 -56q-193 0 -292 104t-95 280q0 175 108 280.5t278 105.5q162 0 266.5 -80.5t104.5 -230.5z" />
    <glyph glyph-name="A" unicode="A" horiz-adv-x="673" 
d="M350 677l-142 -363h276zM190 0h-229q0 5 0.5 11t0.5 9l70 17l252 639q-38 8 -80 20v20h200l239 -679q13 -2 37.5 -8.5t33.5 -8.5q0 -6 0.5 -11.5t0.5 -8.5h-231q0 4 0.5 11t0.5 10l84 19l-72 232h-298l-94 -231q14 -4 44 -11t40 -10q0 -6 0.5 -11.5t0.5 -8.5z" />
    <glyph glyph-name="B" unicode="B" horiz-adv-x="705" 
d="M169 367v-334l151 -7q150 -4 207.5 41t57.5 136q0 77 -58 120.5t-153 43.5h-205zM169 411h158q102 0 147.5 30t45.5 98q0 134 -184 134h-167v-262zM26 716h309q138 0 199.5 -48.5t61.5 -128.5q0 -126 -163 -149q99 -7 165 -55t66 -140q0 -85 -71.5 -145.5t-218.5 -62.5
q-28 1 -155 5t-193 8v22l77 18l2 637l-79 18v21z" />
    <glyph glyph-name="C" unicode="C" horiz-adv-x="700" 
d="M598 573l-17 85q-9 3 -28 9t-25.5 8t-21 5.5t-23.5 5t-21.5 2.5t-25.5 1q-29 0 -64 -9.5t-75.5 -34t-73 -60.5t-55 -96t-23.5 -133q3 -63 18.5 -114t37 -84t50 -58t54.5 -38t54.5 -20.5t45.5 -9.5t31 -2q98 0 199 78v-69q-29 -20 -84.5 -39t-114.5 -21
q-118 0 -202.5 51.5t-124.5 135t-40 188.5q0 170 96 273.5t271 103.5q96 0 192 -32q-2 -23 -6 -64t-5 -62h-19z" />
    <glyph glyph-name="D" unicode="D" horiz-adv-x="702" 
d="M168 664v-590q0 -24 3 -27.5t23 -3.5h89q38 0 75.5 9t76.5 32t68.5 57t48.5 89t19 124q0 66 -19 121t-49 90.5t-68.5 60t-76.5 35.5t-75 11q-100 0 -110 -4q-3 -2 -5 -4zM102 677l-78 17v21h257q95 0 169.5 -35.5t116 -91.5t62.5 -116t21 -118q0 -47 -10 -93t-37 -94
t-67 -84.5t-105.5 -59.5t-148.5 -23h-258v21l78 18v638z" />
    <glyph glyph-name="E" unicode="E" horiz-adv-x="588" 
d="M491 575l-17 98h-305v-288h260v-43h-260v-299h338l17 77h19v-120h-516v21l78 18l1 637l-79 18v21h494l-11 -140h-19z" />
    <glyph glyph-name="F" unicode="F" horiz-adv-x="599" 
d="M170 38l79 -18v-20h-220v22l77 18v635l-77 18v22h538q-1 -24 -3 -70t-4 -71h-22l-17 97h-351v-285h247v-50h-247v-298z" />
    <glyph glyph-name="G" unicode="G" horiz-adv-x="814" 
d="M752 301v-264q-171 -57 -306 -57q-383 -4 -383 379q0 170 99 271.5t274 101.5q150 0 261 -37l-10 -121h-21l-17 81q-73 32 -215 32q-84 -5 -148 -41q-148 -88 -148 -293q0 -67 14.5 -120t34.5 -86t52 -57t57 -35t59.5 -17.5t50 -7t36.5 -0.5h4q147 0 241 61v174
q-25 5 -42 8.5t-25 5.5t-11 3v19h143z" />
    <glyph glyph-name="H" unicode="H" horiz-adv-x="770" 
d="M769 716v-21l-77 -17l-1 -638q64 -14 78 -18v-22h-223v21l78 18l2 298h-452v-299l78 -17v-21h-225v21l75 18v638q-11 2 -37.5 8.5t-37.5 8.5v22h225v-21l-78 -18v-295h452v294l-80 20v20h223z" />
    <glyph glyph-name="I" unicode="I" horiz-adv-x="279" 
d="M254 716v-21l-76 -18v-639l77 -17v-21h-216v21l75 18v638q-11 2 -37 8.5t-37 8.5v22h214z" />
    <glyph glyph-name="J" unicode="J" horiz-adv-x="292" 
d="M130 677l-80 18v21h223v-21l-79 -18l-3 -700q0 -151 -120 -182v37q59 51 59 145v700z" />
    <glyph glyph-name="K" unicode="K" horiz-adv-x="663" 
d="M357 439l266 -402q13 -2 37 -8.5t33 -8.5v-20h-218v20l75 15l-230 351l-150 -168v-179q64 -14 78 -18v-21h-222v21l78 18l1 637q-49 10 -79 19v21h222v-21l-77 -17l-1 -381l317 375l-96 23v21h237v-21l-67 -16z" />
    <glyph glyph-name="L" unicode="L" horiz-adv-x="555" 
d="M532 144l7 -144h-511q0 4 -0.5 11t-0.5 10l78 18l1 638l-79 18v21h222v-21l-77 -17l-1 -610q0 -17 3 -19.5t22 -2.5h298q2 16 8.5 51t8.5 47h21z" />
    <glyph glyph-name="M" unicode="M" horiz-adv-x="896" 
d="M248 0h-225v21l78 18v638l-79 18v21h178l241 -537q11 -23 26 -23t25 23l236 537h169v-21l-78 -18v-637l81 -19l-1 -21h-225v21l79 18l2 604l-251 -559h-74l-264 561v-607l82 -17v-21z" />
    <glyph glyph-name="N" unicode="N" horiz-adv-x="741" 
d="M738 695l-78 -18v-639l79 -17v-21h-155l-417 653l-1 -613q49 -10 79 -19q0 -6 0.5 -12t0.5 -9h-224q0 4 0.5 11t0.5 10l77 18l1 638l-77 18v21h162l409 -639v639h143v-21z" />
    <glyph glyph-name="O" unicode="O" horiz-adv-x="844" 
d="M135 357q0 -70 15 -126t35 -90t53.5 -58.5t56.5 -35t60 -16.5t46.5 -6h32.5q16 0 30.5 1t48 7.5t60.5 18t60 36t55.5 58.5t38 88.5t15.5 122.5q0 69 -15.5 124t-37.5 88.5t-56.5 58t-60 35.5t-61 17t-47.5 6.5t-31 0.5q-17 0 -32 -1t-47.5 -7.5t-58.5 -18t-57.5 -36
t-52.5 -58.5t-35.5 -88t-14.5 -121zM434 731q194 -3 285 -96t91 -279q0 -82 -21 -148.5t-64.5 -118.5t-117.5 -80.5t-173 -28.5q-197 0 -285 98t-90 278q0 182 97.5 277t277.5 98z" />
    <glyph glyph-name="P" unicode="P" horiz-adv-x="636" 
d="M170 672v-324h181q50 0 87.5 18t56 45t26.5 51t8 44q0 29 -8 56t-26.5 53t-55.5 41.5t-88 15.5h-181zM106 677l-78 18v21h323q70 0 121.5 -18.5t79.5 -50t41 -66.5t13 -74q0 -37 -13 -71t-41 -65t-79.5 -49.5t-121.5 -18.5h-181v-263q47 -10 80 -19v-21h-224v21l79 18z
" />
    <glyph glyph-name="Q" unicode="Q" horiz-adv-x="841" 
d="M135 354q0 -70 15 -126t35 -90t53.5 -58.5t56.5 -35t60 -16.5t46.5 -6h32.5q16 0 30.5 1t48 7.5t60.5 18t60 36t55 58.5t37.5 88.5t15.5 122.5q0 54 -9.5 99.5t-24 77.5t-37.5 57.5t-43 41.5t-48.5 27t-46.5 16t-43.5 8t-33.5 3h-22q-17 0 -32 -1t-47.5 -7.5t-58.5 -18
t-57.5 -36t-52.5 -58.5t-35.5 -88t-14.5 -121zM434 728q194 -3 285 -96t91 -279q0 -162 -84.5 -262t-269.5 -114v-33q0 -66 40.5 -100.5t86.5 -39.5v-11q-56 3 -94.5 21t-55 44t-22.5 46.5t-6 40.5v32q-182 15 -263 111.5t-83 264.5q0 182 97.5 277t277.5 98z" />
    <glyph glyph-name="R" unicode="R" horiz-adv-x="682" 
d="M166 397h178q89 0 128 41.5t39 96.5t-41 96t-126 41h-178v-275zM26 716h318q115 0 175 -51.5t60 -130.5q0 -128 -158 -163q30 -4 54 -24t34.5 -39t24.5 -51l88 -220l72 -17q0 -6 0.5 -11.5t0.5 -8.5h-223v21l86 19l-100 243q-18 35 -38 50t-54 15h-200v-310l16 -4
q12 -3 64 -13q0 -6 0.5 -12t0.5 -9h-223v21l78 18l1 638l-77 18v21z" />
    <glyph glyph-name="S" unicode="S" horiz-adv-x="608" 
d="M85 154l18 -72q91 -54 190 -54q82 0 138 41.5t56 100.5q0 23 -4.5 40.5t-20.5 43.5t-56 48.5t-102 38.5q-120 35 -178.5 82t-58.5 128q0 74 66 127t182 53q162 0 225 -41l-7 -106h-22l-17 72q-84 36 -180 36q-71 0 -120 -39t-49 -103q0 -62 37 -93t119 -55q35 -10 59 -18
t57.5 -22.5t56.5 -31.5t45 -40t33 -53.5t11 -66.5q0 -55 -27.5 -95t-72 -59.5t-86.5 -27.5t-84 -8q-141 0 -226 58q0 20 -1 58t-1 58h20z" />
    <glyph glyph-name="T" unicode="T" horiz-adv-x="636" 
d="M600 596l-18 77h-217v-634l78 -18v-21h-223v21l79 18v634h-226l-19 -77h-21l-10 120h609l-11 -120h-21z" />
    <glyph glyph-name="U" unicode="U" horiz-adv-x="737" 
d="M734 716l-1 -21l-77 -17l-3 -375q0 -34 -0.5 -52t-5.5 -57t-14.5 -62t-29.5 -54.5t-48.5 -49t-73.5 -30.5t-102 -13q-46 0 -84 8t-65 19.5t-48.5 31.5t-35.5 37.5t-23.5 45.5t-14 47t-7 49t-3 45.5t-0.5 43.5v365l-80 17v22h225v-21l-79 -17l-2 -375q0 -271 217 -271
q211 0 211 271v374l-79 17v22h223z" />
    <glyph glyph-name="V" unicode="V" horiz-adv-x="703" 
d="M115 679l227 -643l228 646l-66 14v20h212v-20l-72 -17l-254 -679h-95l-248 679l-70 17v20h214v-21z" />
    <glyph glyph-name="W" unicode="W" horiz-adv-x="1069" 
d="M185 695l-70 -15l237 -642l167 678h62l160 -680l236 644l-71 15v21h210v-20l-69 -17l-246 -679h-101l-151 645l-154 -645h-101l-249 679l-71 17v20h211v-21z" />
    <glyph glyph-name="X" unicode="X" horiz-adv-x="708" 
d="M144 39l83 -19v-20h-223v21l68 16l256 332l-241 310l-68 17v20h223v-21l-76 -18l195 -259l199 262l-75 16v20h223v-20l-68 -17l-237 -310l249 -332q13 -2 36.5 -8.5t32.5 -8.5v-20h-223v21l82 20l-219 280z" />
    <glyph glyph-name="Y" unicode="Y" horiz-adv-x="710" 
d="M397 39l77 -18v-21h-222v21l77 18v227l-267 413l-69 16v21h212v-20l-77 -15l234 -372l238 372l-71 15v20h209v-20l-68 -17l-273 -413v-227z" />
    <glyph glyph-name="Z" unicode="Z" horiz-adv-x="675" 
d="M605 50l36 94l11 -144h-607v50l529 623h-480l-18 -76h-19l-12 119h607l1 -46l-525 -620h477z" />
    <glyph glyph-name="bracketleft" unicode="[" horiz-adv-x="324" 
d="M323 750v-45h-158v-874h158v-44h-233v963h233z" />
    <glyph glyph-name="backslash" unicode="\" horiz-adv-x="347" 
d="M53 753l304 -773q-6 0 -22.5 0.5t-24.5 0.5l-304 772h47z" />
    <glyph glyph-name="bracketright" unicode="]" horiz-adv-x="324" 
d="M15 750h232v-962h-232v46h158v871h-158v45z" />
    <glyph glyph-name="asciicircum" unicode="^" horiz-adv-x="602" 
d="M116 287l-52 1l230 427h54l223 -435h-50l-199 415z" />
    <glyph glyph-name="underscore" unicode="_" horiz-adv-x="500" 
d="M10 -120h501v-19h-501v19z" />
    <glyph glyph-name="grave" unicode="`" horiz-adv-x="222" 
d="M4 751h78l50 -112h-42z" />
    <glyph glyph-name="a" unicode="a" horiz-adv-x="510" 
d="M362 99l2 176q-61 -16 -143 -16q-24 0 -37 -2t-32.5 -11t-29 -33.5t-9.5 -64.5q0 -55 32 -83t80 -28q72 0 137 62zM389 0l-31 64q-82 -70 -164 -70q-72 0 -110 39.5t-38 115.5q0 68 37.5 110.5t124.5 42.5q83 0 107.5 4t45.5 23q0 71 -12 104.5t-34.5 43t-70.5 9.5
q-64 0 -118 -17q0 -1 -6 -29.5l-10 -47.5h-23q-1 19 -3 54t-4 54q69 34 170 34q82 0 129.5 -44t47.5 -158v-291l80 -19v-22h-118z" />
    <glyph glyph-name="b" unicode="b" horiz-adv-x="557" 
d="M153 241v-178q77 -34 139 -34q50 0 83.5 22t49 61.5t21 77t5.5 85.5q0 213 -109 213q-45 0 -83 -28.5t-60 -69.5t-34 -80.5t-12 -68.5zM8 795h147v-410q10 48 65.5 98t125.5 50q176 0 176 -258q0 -150 -58.5 -218.5t-185.5 -68.5q-70 0 -191 39v728q-12 2 -40 9t-39 9v22
z" />
    <glyph glyph-name="c" unicode="c" horiz-adv-x="529" 
d="M332 31q91 0 175 43l1 -58q-98 -31 -176 -31q-136 0 -203 68t-67 211q0 146 68.5 207.5t201.5 61.5q89 0 164 -42q-1 -17 -3 -52.5t-4 -52.5h-21l-18 72q-67 29 -118 29q-43 0 -76 -8.5t-63.5 -31t-46.5 -68t-16 -113.5q0 -134 54 -184.5t148 -50.5z" />
    <glyph glyph-name="d" unicode="d" horiz-adv-x="589" 
d="M437 449l-14 7q-88 38 -153 38q-136 0 -136 -229q0 -230 130 -230q173 0 173 190v224zM438 756l-79 18q0 6 -0.5 12.5t-0.5 9.5h149l-1 -758l82 -17v-21h-145l-10 91q-15 -45 -60.5 -72.5t-108.5 -27.5q-90 0 -146.5 65t-56.5 208q0 140 60 208t149 68q77 0 168 -34v250z
" />
    <glyph glyph-name="e" unicode="e" horiz-adv-x="541" 
d="M127 305l307 1q-2 80 -37.5 130t-108.5 50q-81 0 -121 -52t-40 -129zM288 25q54 0 93 25t60 56l44 -35q-74 -87 -197 -87q-127 0 -180 67t-55 196q0 285 235 285q206 0 205 -269l-374 1q0 -49 2 -79.5t11.5 -64.5t27 -52t50 -30.5t78.5 -12.5z" />
    <glyph glyph-name="f" unicode="f" horiz-adv-x="314" 
d="M159 38l82 -17v-21h-228v21l80 19l2 435h-86v43h86v46q0 121 48.5 168.5t150.5 47.5q46 0 110 -31l-7 -108h-20l-17 77q-40 10 -66 10q-40 0 -66.5 -9t-40 -20t-20 -36.5t-7.5 -43t-1 -55.5v-46h129v-43h-129v-437z" />
    <glyph glyph-name="g" unicode="g" horiz-adv-x="587" 
d="M474 517h113v-24l-68 -26v-478q0 -20 -1.5 -37t-14 -54t-35 -62.5t-71 -46t-115.5 -20.5q-124 0 -202 93l40 32q19 -20 47 -40q58 -40 115 -40q41 0 73 10.5t49 27t29 37t14.5 40t5 35.5t-0.5 25v75q-29 -47 -65.5 -64t-93.5 -17q-128 0 -186 77.5t-58 200.5
q0 136 53.5 204t180.5 68q75 0 116.5 -22.5t69.5 -68.5zM587 493l1 1zM118 261q0 -63 11.5 -108t28 -68.5t42.5 -36.5t46 -16t47 -3q25 0 40 1.5t41 14t41 35t27 69t12 112.5q0 46 -6.5 82.5t-15.5 60t-24.5 40t-28.5 25t-33 13t-31.5 5t-31.5 0.5q-21 0 -31 -0.5t-31 -4.5
t-32.5 -12t-27 -24t-23.5 -39.5t-14 -60.5t-6 -85z" />
    <glyph glyph-name="h" unicode="h" horiz-adv-x="600" 
d="M515 40l82 -18v-22h-225v21l79 19l2 279q0 78 -33 120.5t-93 42.5q-68 0 -119.5 -46t-51.5 -106v-290q12 -4 41 -10t41 -9v-21h-227v22l80 16v718q-12 2 -40.5 9t-41.5 9v22h146l1 -385q23 47 81.5 84t119.5 37q75 0 117.5 -55t42.5 -165z" />
    <glyph glyph-name="i" unicode="i" horiz-adv-x="239" 
d="M158 710h-85v85h85v-85zM90 477l-80 19v21h148v-477l80 -19v-21h-228v21l80 19v437z" />
    <glyph glyph-name="j" unicode="j" horiz-adv-x="241" 
d="M158 795v-85h-84v85h84zM158 517v-534q0 -44 -10 -79t-24.5 -55.5t-34 -35t-34 -20t-29.5 -8.5v45q64 61 64 143v504l-80 19v21h148z" />
    <glyph glyph-name="k" unicode="k" horiz-adv-x="557" 
d="M488 37l69 -16v-21h-227v21l78 16l-103 134l-61 -26v52q213 94 213 203q0 45 -27 72.5t-70 27.5q-66 0 -132.5 -63t-68.5 -137v-260q12 -4 39.5 -10t39.5 -9v-21h-228v21l79 19v715q-54 12 -79 19v21h149v-395q81 151 220 151q63 0 101 -40.5t38 -99.5q0 -103 -155 -210z
" />
    <glyph glyph-name="l" unicode="l" horiz-adv-x="239" 
d="M159 40l79 -19v-21h-227v21l79 19v715q-54 12 -79 19v21h148v-755z" />
    <glyph glyph-name="m" unicode="m" horiz-adv-x="843" 
d="M88 477l-80 19v21h140l12 -100q24 48 73.5 82t98.5 34q42 0 74 -27.5t43 -90.5q25 49 78 83.5t109 34.5q64 0 93.5 -50.5t29.5 -158.5l2 -283l82 -21v-20h-145v330q0 79 -18.5 116.5t-74.5 37.5q-71 0 -108 -48.5t-37 -115.5v-280l78 -19v-21h-146v320q0 85 -19.5 124.5
t-70.5 39.5q-70 0 -109 -50t-39 -114v-279l83 -21v-20h-229v21l80 19v437z" />
    <glyph glyph-name="n" unicode="n" horiz-adv-x="595" 
d="M515 40l80 -18v-22h-144v319q0 78 -33 120.5t-93 42.5q-68 0 -119.5 -46t-51.5 -106v-290l83 -19v-21h-228v22l80 16v439q-8 2 -37.5 8.5t-44.5 9.5v22h140l13 -102q31 51 83 84t112 33q75 0 117.5 -55t42.5 -165v-272z" />
    <glyph glyph-name="o" unicode="o" 
d="M131 261q0 -63 11.5 -108t28 -68.5t42.5 -36.5t46 -16t48 -3q25 0 40 1.5t41 14t41 35t27 69t12 112.5q0 64 -12 109t-27.5 67.5t-42.5 34.5t-43.5 13.5t-44.5 1.5q-19 0 -28 -0.5t-28 -2.5t-28.5 -8t-25 -16t-24 -27t-17 -40t-12.5 -56.5t-4 -75.5zM298 533
q247 0 247 -272q0 -142 -53.5 -210t-184.5 -68q-128 0 -187.5 77.5t-59.5 200.5q0 135 55.5 203.5t182.5 68.5z" />
    <glyph glyph-name="p" unicode="p" horiz-adv-x="571" 
d="M154 242v-168q78 -36 141 -36q49 0 84 19t51.5 51t23 64.5t5.5 69.5q0 119 -26 182.5t-89 63.5q-45 0 -83 -28t-60 -68t-34.5 -80t-12.5 -70zM154 -176l78 -15v-22h-221v23l77 15v652q-8 2 -36.5 8.5t-42.5 9.5v22h145v-118q28 59 80.5 96t126.5 37q83 0 123.5 -64
t40.5 -226q0 -72 -17.5 -123t-49 -78.5t-67 -39.5t-78.5 -12q-77 0 -159 31v-196z" />
    <glyph glyph-name="q" unicode="q" horiz-adv-x="566" 
d="M235 29q84 0 135 65.5t51 130.5v223q-73 39 -139 39q-157 0 -157 -228q0 -46 3.5 -81t14 -72t34 -57t58.5 -20zM487 -173l79 -17v-22h-224v22l79 16v278q-22 -41 -73 -80.5t-113 -39.5q-174 0 -174 275q0 141 57.5 204.5t187.5 63.5q78 0 181 -43v-657z" />
    <glyph glyph-name="r" unicode="r" horiz-adv-x="388" 
d="M83 477l-78 19v21h132l25 -109q11 61 50.5 92.5t83.5 31.5q51 0 81 -14l-7 -120h-22l-18 79q-15 3 -34 3q-23 0 -39.5 -3t-38 -16t-35 -36.5t-23 -68.5t-9.5 -107v-211q46 -9 76 -17v-21h-218v21l74 17v439z" />
    <glyph glyph-name="s" unicode="s" horiz-adv-x="492" 
d="M406 381l-18 73q-88 32 -146 32q-49 0 -78 -19t-29 -72q0 -44 26 -62t93 -34q111 -25 161.5 -61t50.5 -95q0 -74 -54.5 -116t-147.5 -42q-66 0 -121.5 17t-84.5 35q0 1 0.5 7t2.5 33.5t4 74.5h21l18 -72q94 -45 159 -45q134 0 134 105q0 42 -50.5 67.5t-139.5 44.5
q-68 14 -105 52t-37 91q0 19 7 39t24.5 42.5t55 37t89.5 14.5q89 0 191 -43q-1 -18 -1.5 -52t-2.5 -52h-22z" />
    <glyph glyph-name="t" unicode="t" horiz-adv-x="352" 
d="M10 517h100q3 18 9.5 72t11.5 82h45v-154h134v-43h-134v-335q0 -67 10.5 -84.5t48.5 -17.5q36 0 72 17v-53q-49 -13 -97 -13q-52 0 -75.5 24t-23.5 92v370h-101v43z" />
    <glyph glyph-name="u" unicode="u" horiz-adv-x="594" 
d="M450 480l-110 17v20h175v-477l80 -19v-21h-140l-12 97q-27 -52 -83.5 -83.5t-112.5 -31.5q-73 0 -118 51t-45 163v281l-76 19v21h143v-330q0 -81 25.5 -120.5t88.5 -39.5q71 0 128 49t57 127v277z" />
    <glyph glyph-name="v" unicode="v" horiz-adv-x="553" 
d="M60 480l-74 14v23h224v-21l-83 -20l155 -440l154 441l-69 18v22h211v-20l-74 -17l-184 -480h-79z" />
    <glyph glyph-name="w" unicode="w" horiz-adv-x="794" 
d="M215 49l141 468h77l143 -468l105 430l-87 15v23h226v-23l-77 -14l-123 -480h-77l-148 482l-147 -482h-77l-123 480l-77 14v23h226v-23l-87 -15z" />
    <glyph glyph-name="x" unicode="x" horiz-adv-x="546" 
d="M219 517v-21l-57 -20l111 -174l116 175l-55 19v21h197v-20l-70 -17l-147 -219l160 -224l73 -17v-20h-197v21l51 20l-126 185l-124 -185l49 -20v-21h-194v20l71 17l161 223l-145 220l-68 17v20h194z" />
    <glyph glyph-name="y" unicode="y" horiz-adv-x="570" 
d="M598 497l-73 -17l-233 -654l89 -18v-22h-228v21l77 16l41 119l-216 538l-73 14v23h224v-20l-83 -18l178 -482l156 479l-83 19v22h224v-20z" />
    <glyph glyph-name="z" unicode="z" horiz-adv-x="478" 
d="M399 53l18 79h21l12 -132h-404v53l327 420h-277l-19 -79h-22l-7 123h409l1 -42l-328 -422h269z" />
    <glyph glyph-name="braceleft" unicode="{" horiz-adv-x="447" 
d="M430 -167v-46h-68q-42 0 -78 11t-66.5 34t-47.5 65.5t-17 99.5v153q0 11 -2 21t-6.5 18t-8 14.5t-11 12.5t-11.5 9.5t-13.5 8t-12.5 5.5t-12 5l-10 4v46q82 32 87 102v155q0 103 60 152.5t149 49.5h68v-47h-58q-150 0 -150 -109v-200q0 -37 -16 -69t-47 -38v-38
q33 -6 48 -35t15 -67v-210q0 -107 150 -107h58z" />
    <glyph glyph-name="bar" unicode="|" horiz-adv-x="229" 
d="M100 -234v1043h47v-1043h-47z" />
    <glyph glyph-name="braceright" unicode="}" horiz-adv-x="444" 
d="M105 -213h-68v46h58q151 0 151 107v210q0 89 63 101v38q-33 5 -48 37.5t-15 70.5v200q0 109 -151 109h-58v47h68q90 0 150 -49.5t60 -152.5v-154q0 -74 89 -103l-2 -47q-34 -14 -59.5 -39t-27.5 -58v-153q0 -111 -59 -160.5t-151 -49.5z" />
    <glyph glyph-name="asciitilde" unicode="~" horiz-adv-x="600" 
d="M207 216q-35 0 -99 -19q0 10 -1 21t-1 19q67 31 103 31q46 0 101.5 -14t108.5 -14q49 0 99 22v-45q-67 -28 -99 -28q-50 0 -106.5 13.5t-105.5 13.5z" />
    <glyph glyph-name="exclamdown" unicode="&#xa1;" horiz-adv-x="284" 
d="M156 292l25 -294v-213h-71v213l25 294h21zM106 432v84h85v-84h-85z" />
    <glyph glyph-name="cent" unicode="&#xa2;" horiz-adv-x="509" 
d="M288 529v75h33v-74q90 -8 167 -38l-8 -47q-85 37 -159 44v-461q104 10 176 45q0 -50 1 -59q-95 -27 -177 -30v-108h-33v110q-235 30 -235 277q0 127 66 196.5t169 69.5zM120 265v-1q0 -105 44.5 -163.5t123.5 -70.5v460q-62 0 -115 -64t-53 -161z" />
    <glyph glyph-name="sterling" unicode="&#xa3;" 
d="M539 195v2q0 84 -52 136q5 6 14 15.5t12 12.5q63 -62 63 -164q0 -101 -68 -151.5t-168 -46.5h-291v43q111 16 111 162v155h-49v45h49v174q0 84 56.5 127t134.5 43q71 0 112 -26v-43q-54 25 -104 25q-71 0 -96 -40t-25 -109v-151h113v-45h-113v-155q0 -65 -81 -161
l177 -10q98 0 148.5 43t56.5 119z" />
    <glyph glyph-name="yen" unicode="&#xa5;" horiz-adv-x="690" 
d="M289 325l-265 406h83l245 -403q133 213 256 403h84l-265 -406h174v-41h-205v-169h205v-40h-205v-75h-75v75h-203v40h203v169h-203v41h171z" />
    <glyph glyph-name="section" unicode="&#xa7;" horiz-adv-x="576" 
d="M245 419q-42 0 -76 -40t-34 -91q0 -55 5 -83.5t24.5 -51.5t57 -30.5t103.5 -7.5q55 0 95 42t40 110q0 41 -9.5 68t-24 43t-44.5 25t-58.5 11.5t-78.5 4.5zM474 595l-18 73q-108 34 -146 34q-50 0 -79.5 -18t-29.5 -70q0 -54 42 -95t130 -60q157 -35 157 -192
q0 -78 -39.5 -123.5t-126.5 -66.5q58 -19 96 -56.5t38 -82.5q0 -71 -57 -111t-148 -40q-111 0 -204 55q1 18 3 56.5t4 56.5h21l17 -72q82 -46 159 -46q62 0 99 21.5t37 79.5q0 49 -57 91t-130 42q-87 0 -131.5 54.5t-44.5 141.5q0 26 7.5 55.5t24.5 62t51.5 55.5t80.5 28
q-44 22 -71.5 57t-27.5 68q0 68 38.5 110t140.5 42q101 0 193 -46l-10 -105q-5 0 -10.5 0.5t-8.5 0.5z" />
    <glyph glyph-name="dieresis" unicode="&#xa8;" horiz-adv-x="222" 
d="M185 715h67v-81h-67v81zM-20 715h66v-81h-66v81zM185 715h67v-81h-67v81zM-20 715h66v-81h-66v81z" />
    <glyph glyph-name="ordfeminine" unicode="&#xaa;" horiz-adv-x="277" 
d="M193 501l1 86q-31 -7 -69 -7q-12 0 -18.5 -1t-16 -5.5t-14 -17t-4.5 -31.5q0 -27 15 -40.5t40 -13.5q36 0 66 30zM207 453l-15 31q-39 -34 -81 -34q-72 0 -72 76q0 75 79 75q40 0 53 2t22 11q0 49 -11.5 63t-45.5 14q-27 0 -58 -9q-2 -4 -8 -37h-11l-3 52q36 17 83 17
q40 0 63 -21.5t23 -77.5v-142l39 -9v-11h-57z" />
    <glyph glyph-name="guillemotleft" unicode="&#xab;" horiz-adv-x="562" 
d="M65 282q0 12 12 20l170 121q0 -39 -12 -45l-135 -96q79 -60 131 -92q16 -12 16 -50l-169 122q-13 7 -13 20zM313 282q0 12 12 20l170 121q0 -39 -12 -45l-135 -96q79 -60 131 -92q16 -12 16 -50l-169 122q-13 7 -13 20z" />
    <glyph glyph-name="degree" unicode="&#xb0;" horiz-adv-x="400" 
d="M96 592q0 -36 10.5 -62t23 -37.5t32 -17.5t26.5 -6.5t19 -0.5q9 0 18.5 1t28.5 7.5t32.5 18.5t24.5 37t11 60t-11 60.5t-24 37t-33 18t-28.5 7t-18.5 0.5t-19 -1t-27.5 -7.5t-31 -18t-23 -36.5t-10.5 -60zM207 731q73 -1 106.5 -35.5t33.5 -104.5q0 -63 -34 -101
t-106 -38q-139 0 -139 139q0 68 36 103.5t103 36.5z" />
    <glyph glyph-name="twosuperior" unicode="&#xb2;" horiz-adv-x="368" 
d="M305 327l12 48h13l6 -76h-290q1 56 24.5 98t54 65.5t81.5 49.5q78 38 78 104q0 35 -24 58.5t-72 25.5q-58 0 -101 -51q0 -2 -3.5 -17t-5.5 -23h-12q-3 24 -5 63q4 6 19 18t45.5 25t61.5 13q66 0 100.5 -31.5t34.5 -80.5q0 -88 -106 -139q-117 -59 -121 -150h210z" />
    <glyph glyph-name="threesuperior" unicode="&#xb3;" horiz-adv-x="361" 
d="M45 628l-4 62q78 38 144 38q57 0 96 -24.5t39 -72.5q0 -40 -24.5 -67.5t-61.5 -30.5q51 -6 82.5 -36t31.5 -75q0 -53 -48 -90.5t-128 -37.5q-99 0 -143 22q2 46 5 66h12l10 -44q69 -20 112 -20q68 0 99.5 34.5t31.5 69.5q0 33 -31.5 61.5t-85.5 28.5h-50v28h50
q95 0 95 83q0 31 -23.5 54t-68.5 23q-44 0 -118 -30l-9 -41q-4 0 -7.5 -0.5t-5.5 -0.5z" />
    <glyph glyph-name="acute" unicode="&#xb4;" horiz-adv-x="222" 
d="M138 751h80q-59 -79 -87 -112h-42q2 5 49 112z" />
    <glyph glyph-name="periodcentered" unicode="&#xb7;" horiz-adv-x="290" 
d="M106 306v85h85v-85h-85z" />
    <glyph glyph-name="cedilla" unicode="&#xb8;" horiz-adv-x="245" 
d="M109 -91q-21 0 -37 -4q3 3 9.5 15.5t18.5 36.5t23 43h7l-41 -78q59 7 88 -16.5t29 -56.5q0 -65 -81 -73q-40 0 -64 8v20q24 -10 48 -10q61 0 61 55q0 60 -61 60z" />
    <glyph glyph-name="onesuperior" unicode="&#xb9;" horiz-adv-x="317" 
d="M116 367l40 9v323q-22 -1 -43 -11v16q6 4 18 11t18 12h41v-351l40 -9v-11h-114v11z" />
    <glyph glyph-name="ordmasculine" unicode="&#xba;" horiz-adv-x="400" 
d="M96 592q0 -36 10.5 -62t23 -37.5t32 -17.5t26.5 -6.5t19 -0.5q9 0 18.5 1t28.5 7.5t32.5 18.5t24.5 37t11 60t-11 60.5t-24 37t-33 18t-28.5 7t-18.5 0.5t-19 -1t-27.5 -7.5t-31 -18t-23 -36.5t-10.5 -60zM207 731q73 -1 106.5 -35.5t33.5 -104.5q0 -63 -34 -101
t-106 -38q-139 0 -139 139q0 68 36 103.5t103 36.5z" />
    <glyph glyph-name="guillemotright" unicode="&#xbb;" horiz-adv-x="555" 
d="M509 282q0 -13 -13 -20l-169 -122q0 38 16 50q52 32 131 92l-135 96q-12 6 -12 45l170 -121q12 -8 12 -20zM261 282q0 -13 -13 -20l-169 -122q0 38 16 50q52 32 131 92l-135 96q-12 6 -12 45l170 -121q12 -8 12 -20z" />
    <glyph glyph-name="questiondown" unicode="&#xbf;" horiz-adv-x="582" 
d="M386 517v-84h-85v84h85zM489 -16l40 -185q-82 -31 -192 -31q-112 0 -179.5 43.5t-67.5 132.5q0 31 9 56.5t29 48.5t33.5 35.5t42.5 35.5q37 29 58 48.5t42 54.5t25 73h40q-9 -123 -115 -200q-30 -24 -46.5 -39.5t-31.5 -46t-15 -66.5q0 -58 43.5 -91.5t132.5 -33.5
q64 0 144 26l-13 139h21z" />
    <glyph glyph-name="Agrave" unicode="&#xc0;" horiz-adv-x="657" 
d="M350 677l-142 -363h276zM190 0h-229q0 5 0.5 11t0.5 9l70 17l252 639q-38 8 -80 20v20h200l239 -679q13 -2 37.5 -8.5t33.5 -8.5q0 -6 0.5 -11.5t0.5 -8.5h-231q0 4 0.5 11t0.5 10l84 19l-72 232h-298l-94 -231q14 -4 44 -11t40 -10q0 -6 0.5 -11.5t0.5 -8.5zM264 950h78
l50 -112h-42z" />
    <glyph glyph-name="Aacute" unicode="&#xc1;" horiz-adv-x="657" 
d="M350 677l-142 -363h276zM190 0h-229q0 5 0.5 11t0.5 9l70 17l252 639q-38 8 -80 20v20h200l239 -679q13 -2 37.5 -8.5t33.5 -8.5q0 -6 0.5 -11.5t0.5 -8.5h-231q0 4 0.5 11t0.5 10l84 19l-72 232h-298l-94 -231q14 -4 44 -11t40 -10q0 -6 0.5 -11.5t0.5 -8.5zM313 950h80
q-59 -79 -87 -112h-42q2 5 49 112z" />
    <glyph glyph-name="Acircumflex" unicode="&#xc2;" horiz-adv-x="657" 
d="M350 677l-142 -363h276zM190 0h-229q0 5 0.5 11t0.5 9l70 17l252 639q-38 8 -80 20v20h200l239 -679q13 -2 37.5 -8.5t33.5 -8.5q0 -6 0.5 -11.5t0.5 -8.5h-231q0 4 0.5 11t0.5 10l84 19l-72 232h-298l-94 -231q14 -4 44 -11t40 -10q0 -6 0.5 -11.5t0.5 -8.5zM351 953
l103 -129h-43l-83 108l-83 -108h-43l103 129h46z" />
    <glyph glyph-name="Atilde" unicode="&#xc3;" horiz-adv-x="657" 
d="M350 677l-142 -363h276zM190 0h-229q0 5 0.5 11t0.5 9l70 17l252 639q-38 8 -80 20v20h200l239 -679q13 -2 37.5 -8.5t33.5 -8.5q0 -6 0.5 -11.5t0.5 -8.5h-231q0 4 0.5 11t0.5 10l84 19l-72 232h-298l-94 -231q14 -4 44 -11t40 -10q0 -6 0.5 -11.5t0.5 -8.5zM190 861
l-1 43q13 20 57 20q26 0 78.5 -14t80.5 -14q40 0 63 10v-38q-29 -23 -62 -23q-30 0 -81 13t-81 13t-54 -10z" />
    <glyph glyph-name="Adieresis" unicode="&#xc4;" horiz-adv-x="657" 
d="M350 677l-142 -363h276zM190 0h-229q0 5 0.5 11t0.5 9l70 17l252 639q-38 8 -80 20v20h200l239 -679q13 -2 37.5 -8.5t33.5 -8.5q0 -6 0.5 -11.5t0.5 -8.5h-231q0 4 0.5 11t0.5 10l84 19l-72 232h-298l-94 -231q14 -4 44 -11t40 -10q0 -6 0.5 -11.5t0.5 -8.5zM397 914h67
v-81h-67v81zM192 914h66v-81h-66v81zM397 914h67v-81h-67v81zM192 914h66v-81h-66v81z" />
    <glyph glyph-name="Aring" unicode="&#xc5;" horiz-adv-x="657" 
d="M350 677l-142 -363h276zM190 0h-229q0 5 0.5 11t0.5 9l70 17l252 639q-38 8 -80 20v20h200l239 -679q13 -2 37.5 -8.5t33.5 -8.5q0 -6 0.5 -11.5t0.5 -8.5h-231q0 4 0.5 11t0.5 10l84 19l-72 232h-298l-94 -231q14 -4 44 -11t40 -10q0 -6 0.5 -11.5t0.5 -8.5zM234 846
q0 -36 10.5 -62t23 -37.5t32 -17.5t26.5 -6.5t19 -0.5q9 0 18.5 1t28.5 7.5t32.5 18.5t24.5 37t11 60t-11 60.5t-24 37t-33 18t-28.5 7t-18.5 0.5t-19 -1t-27.5 -7.5t-31 -18t-23 -36.5t-10.5 -60zM345 985q73 -1 106.5 -35.5t33.5 -104.5q0 -63 -34 -101t-106 -38
q-139 0 -139 139q0 68 36 103.5t103 36.5z" />
    <glyph glyph-name="AE" unicode="&#xc6;" horiz-adv-x="1051" 
d="M975 576l-17 98h-303q0 -50 1 -145t1 -144h255v-43h-255l1 -299h333l17 77h19v-120h-439v273h-295l-174 -231q15 -3 92 -22v-20h-222v20l70 17l497 679h447q-2 -29 -4.5 -76.5t-3.5 -63.5h-20zM588 687l-271 -372h271v372z" />
    <glyph glyph-name="Ccedilla" unicode="&#xc7;" horiz-adv-x="700" 
d="M598 573l-17 85q-9 3 -28 9t-25.5 8t-21 5.5t-23.5 5t-21.5 2.5t-25.5 1q-29 0 -64 -9.5t-75.5 -34t-73 -60.5t-55 -96t-23.5 -133q3 -63 18.5 -114t37 -84t50 -58t54.5 -38t54.5 -20.5t45.5 -9.5t31 -2q98 0 199 78v-69q-29 -20 -84.5 -39t-114.5 -21
q-118 0 -202.5 51.5t-124.5 135t-40 188.5q0 170 96 273.5t271 103.5q96 0 192 -32q-2 -23 -6 -64t-5 -62h-19zM389 -91q-21 0 -37 -4q3 3 9.5 15.5t18.5 36.5t23 43h7l-41 -78q59 7 88 -16.5t29 -56.5q0 -65 -81 -73q-40 0 -64 8v20q24 -10 48 -10q61 0 61 55q0 60 -61 60z
" />
    <glyph glyph-name="Egrave" unicode="&#xc8;" horiz-adv-x="588" 
d="M491 575l-17 98h-305v-288h260v-43h-260v-299h338l17 77h19v-120h-516v21l78 18l1 637l-79 18v21h494l-11 -140h-19zM230 950h78l50 -112h-42z" />
    <glyph glyph-name="Eacute" unicode="&#xc9;" horiz-adv-x="588" 
d="M491 575l-17 98h-305v-288h260v-43h-260v-299h338l17 77h19v-120h-516v21l78 18l1 637l-79 18v21h494l-11 -140h-19zM278 950h80q-59 -79 -87 -112h-42q2 5 49 112z" />
    <glyph glyph-name="Ecircumflex" unicode="&#xca;" horiz-adv-x="588" 
d="M491 575l-17 98h-305v-288h260v-43h-260v-299h338l17 77h19v-120h-516v21l78 18l1 637l-79 18v21h494l-11 -140h-19zM317 953l103 -129h-43l-83 108l-83 -108h-43l103 129h46z" />
    <glyph glyph-name="Edieresis" unicode="&#xcb;" horiz-adv-x="588" 
d="M491 575l-17 98h-305v-288h260v-43h-260v-299h338l17 77h19v-120h-516v21l78 18l1 637l-79 18v21h494l-11 -140h-19zM363 914h67v-81h-67v81zM158 914h66v-81h-66v81zM363 914h67v-81h-67v81zM158 914h66v-81h-66v81z" />
    <glyph glyph-name="Igrave" unicode="&#xcc;" horiz-adv-x="279" 
d="M254 716v-21l-76 -18v-639l77 -17v-21h-216v21l75 18v638q-11 2 -37 8.5t-37 8.5v22h214zM75 950h78l50 -112h-42z" />
    <glyph glyph-name="Iacute" unicode="&#xcd;" horiz-adv-x="279" 
d="M254 716v-21l-76 -18v-639l77 -17v-21h-216v21l75 18v638q-11 2 -37 8.5t-37 8.5v22h214zM128 950h80q-59 -79 -87 -112h-42q2 5 49 112z" />
    <glyph glyph-name="Icircumflex" unicode="&#xce;" horiz-adv-x="279" 
d="M254 716v-21l-76 -18v-639l77 -17v-21h-216v21l75 18v638q-11 2 -37 8.5t-37 8.5v22h214zM162 953l103 -129h-43l-83 108l-83 -108h-43l103 129h46z" />
    <glyph glyph-name="Idieresis" unicode="&#xcf;" horiz-adv-x="279" 
d="M254 716v-21l-76 -18v-639l77 -17v-21h-216v21l75 18v638q-11 2 -37 8.5t-37 8.5v22h214zM208 914h67v-81h-67v81zM3 914h66v-81h-66v81zM208 914h67v-81h-67v81zM3 914h66v-81h-66v81z" />
    <glyph glyph-name="Ntilde" unicode="&#xd1;" horiz-adv-x="741" 
d="M738 695l-78 -18v-639l79 -17v-21h-155l-417 653l-1 -613q49 -10 79 -19q0 -6 0.5 -12t0.5 -9h-224q0 4 0.5 11t0.5 10l77 18l1 638l-77 18v21h162l409 -639v639h143v-21zM232 861l-1 43q12 20 57 20q26 0 78.5 -14t80.5 -14q40 0 63 10v-38q-29 -23 -62 -23
q-30 0 -81 13t-81 13t-54 -10z" />
    <glyph glyph-name="Ograve" unicode="&#xd2;" horiz-adv-x="844" 
d="M135 357q0 -70 15 -126t35 -90t53.5 -58.5t56.5 -35t60 -16.5t46.5 -6h32.5q16 0 30.5 1t48 7.5t60.5 18t60 36t55.5 58.5t38 88.5t15.5 122.5q0 69 -15.5 124t-37.5 88.5t-56.5 58t-60 35.5t-61 17t-47.5 6.5t-31 0.5q-17 0 -32 -1t-47.5 -7.5t-58.5 -18t-57.5 -36
t-52.5 -58.5t-35.5 -88t-14.5 -121zM434 731q194 -3 285 -96t91 -279q0 -82 -21 -148.5t-64.5 -118.5t-117.5 -80.5t-173 -28.5q-197 0 -285 98t-90 278q0 182 97.5 277t277.5 98zM358 950h78l50 -112h-42z" />
    <glyph glyph-name="Oacute" unicode="&#xd3;" horiz-adv-x="844" 
d="M135 357q0 -70 15 -126t35 -90t53.5 -58.5t56.5 -35t60 -16.5t46.5 -6h32.5q16 0 30.5 1t48 7.5t60.5 18t60 36t55.5 58.5t38 88.5t15.5 122.5q0 69 -15.5 124t-37.5 88.5t-56.5 58t-60 35.5t-61 17t-47.5 6.5t-31 0.5q-17 0 -32 -1t-47.5 -7.5t-58.5 -18t-57.5 -36
t-52.5 -58.5t-35.5 -88t-14.5 -121zM434 731q194 -3 285 -96t91 -279q0 -82 -21 -148.5t-64.5 -118.5t-117.5 -80.5t-173 -28.5q-197 0 -285 98t-90 278q0 182 97.5 277t277.5 98zM406 950h80q-59 -79 -87 -112h-42q2 5 49 112z" />
    <glyph glyph-name="Ocircumflex" unicode="&#xd4;" horiz-adv-x="844" 
d="M135 357q0 -70 15 -126t35 -90t53.5 -58.5t56.5 -35t60 -16.5t46.5 -6h32.5q16 0 30.5 1t48 7.5t60.5 18t60 36t55.5 58.5t38 88.5t15.5 122.5q0 69 -15.5 124t-37.5 88.5t-56.5 58t-60 35.5t-61 17t-47.5 6.5t-31 0.5q-17 0 -32 -1t-47.5 -7.5t-58.5 -18t-57.5 -36
t-52.5 -58.5t-35.5 -88t-14.5 -121zM434 731q194 -3 285 -96t91 -279q0 -82 -21 -148.5t-64.5 -118.5t-117.5 -80.5t-173 -28.5q-197 0 -285 98t-90 278q0 182 97.5 277t277.5 98zM445 953l103 -129h-43l-83 108l-83 -108h-43l103 129h46z" />
    <glyph glyph-name="Otilde" unicode="&#xd5;" horiz-adv-x="844" 
d="M135 357q0 -70 15 -126t35 -90t53.5 -58.5t56.5 -35t60 -16.5t46.5 -6h32.5q16 0 30.5 1t48 7.5t60.5 18t60 36t55.5 58.5t38 88.5t15.5 122.5q0 69 -15.5 124t-37.5 88.5t-56.5 58t-60 35.5t-61 17t-47.5 6.5t-31 0.5q-17 0 -32 -1t-47.5 -7.5t-58.5 -18t-57.5 -36
t-52.5 -58.5t-35.5 -88t-14.5 -121zM434 731q194 -3 285 -96t91 -279q0 -82 -21 -148.5t-64.5 -118.5t-117.5 -80.5t-173 -28.5q-197 0 -285 98t-90 278q0 182 97.5 277t277.5 98zM283 861l-1 43q12 20 57 20q26 0 78.5 -14t80.5 -14q40 0 63 10v-38q-29 -23 -62 -23
q-30 0 -81 13t-81 13t-54 -10z" />
    <glyph glyph-name="Odieresis" unicode="&#xd6;" horiz-adv-x="844" 
d="M135 357q0 -70 15 -126t35 -90t53.5 -58.5t56.5 -35t60 -16.5t46.5 -6h32.5q16 0 30.5 1t48 7.5t60.5 18t60 36t55.5 58.5t38 88.5t15.5 122.5q0 69 -15.5 124t-37.5 88.5t-56.5 58t-60 35.5t-61 17t-47.5 6.5t-31 0.5q-17 0 -32 -1t-47.5 -7.5t-58.5 -18t-57.5 -36
t-52.5 -58.5t-35.5 -88t-14.5 -121zM434 731q194 -3 285 -96t91 -279q0 -82 -21 -148.5t-64.5 -118.5t-117.5 -80.5t-173 -28.5q-197 0 -285 98t-90 278q0 182 97.5 277t277.5 98zM491 914h67v-81h-67v81zM286 914h66v-81h-66v81zM491 914h67v-81h-67v81zM286 914h66v-81
h-66v81z" />
    <glyph glyph-name="Oslash" unicode="&#xd8;" horiz-adv-x="824" 
d="M568 736h19l-10 -24q115 -44 168 -130.5t53 -225.5q0 -82 -21 -148.5t-64.5 -118.5t-117 -80.5t-171.5 -28.5q-47 0 -131 14l-4 -14h-17l7 15q-226 75 -231 361q0 174 104.5 274.5t271.5 100.5q63 0 136 -14zM125 357q0 -227 170 -314l129 324l118 302q-71 18 -119 18
q-18 0 -33 -1t-47.5 -7.5t-58.5 -18t-57 -36t-52 -58.5t-35.5 -88t-14.5 -121zM424 25q16 0 30.5 1t48 7.5t60.5 18t60 36t55.5 58.5t38 88.5t15.5 122.5q0 213 -174 307l-246 -626q46 -13 112 -13z" />
    <glyph glyph-name="Ugrave" unicode="&#xd9;" horiz-adv-x="737" 
d="M734 716l-1 -21l-77 -17l-3 -375q0 -34 -0.5 -52t-5.5 -57t-14.5 -62t-29.5 -54.5t-48.5 -49t-73.5 -30.5t-102 -13q-46 0 -84 8t-65 19.5t-48.5 31.5t-35.5 37.5t-23.5 45.5t-14 47t-7 49t-3 45.5t-0.5 43.5v365l-80 17v22h225v-21l-79 -17l-2 -375q0 -271 217 -271
q211 0 211 271v374l-79 17v22h223zM304 950h78l50 -112h-42z" />
    <glyph glyph-name="Uacute" unicode="&#xda;" horiz-adv-x="737" 
d="M734 716l-1 -21l-77 -17l-3 -375q0 -34 -0.5 -52t-5.5 -57t-14.5 -62t-29.5 -54.5t-48.5 -49t-73.5 -30.5t-102 -13q-46 0 -84 8t-65 19.5t-48.5 31.5t-35.5 37.5t-23.5 45.5t-14 47t-7 49t-3 45.5t-0.5 43.5v365l-80 17v22h225v-21l-79 -17l-2 -375q0 -271 217 -271
q211 0 211 271v374l-79 17v22h223zM353 950h80q-59 -79 -87 -112h-42q2 5 49 112z" />
    <glyph glyph-name="Ucircumflex" unicode="&#xdb;" horiz-adv-x="737" 
d="M734 716l-1 -21l-77 -17l-3 -375q0 -34 -0.5 -52t-5.5 -57t-14.5 -62t-29.5 -54.5t-48.5 -49t-73.5 -30.5t-102 -13q-46 0 -84 8t-65 19.5t-48.5 31.5t-35.5 37.5t-23.5 45.5t-14 47t-7 49t-3 45.5t-0.5 43.5v365l-80 17v22h225v-21l-79 -17l-2 -375q0 -271 217 -271
q211 0 211 271v374l-79 17v22h223zM391 953l103 -129h-43l-83 108l-83 -108h-43l103 129h46z" />
    <glyph glyph-name="Udieresis" unicode="&#xdc;" horiz-adv-x="737" 
d="M734 716l-1 -21l-77 -17l-3 -375q0 -34 -0.5 -52t-5.5 -57t-14.5 -62t-29.5 -54.5t-48.5 -49t-73.5 -30.5t-102 -13q-46 0 -84 8t-65 19.5t-48.5 31.5t-35.5 37.5t-23.5 45.5t-14 47t-7 49t-3 45.5t-0.5 43.5v365l-80 17v22h225v-21l-79 -17l-2 -375q0 -271 217 -271
q211 0 211 271v374l-79 17v22h223zM437 914h67v-81h-67v81zM232 914h66v-81h-66v81zM437 914h67v-81h-67v81zM232 914h66v-81h-66v81z" />
    <glyph glyph-name="Yacute" unicode="&#xdd;" horiz-adv-x="710" 
d="M397 39l77 -18v-21h-222v21l77 18v227l-267 413l-69 16v21h212v-20l-77 -15l234 -372l238 372l-71 15v20h209v-20l-68 -17l-273 -413v-227zM339 950h80q-59 -79 -87 -112h-42q2 5 49 112z" />
    <glyph glyph-name="germandbls" unicode="&#xdf;" horiz-adv-x="592" 
d="M159 498v-498h-148v21l78 19v410q0 38 0.5 61.5t3.5 56t8.5 52.5t15 43.5t24.5 37.5t35.5 27t49.5 18.5t65 5.5q35 0 67 -7.5t65.5 -26.5t54 -58.5t20.5 -95.5q0 -57 -37 -109t-104 -60q70 -8 122 -63.5t52 -128.5q0 -211 -251 -211q2 22 4 45.5t4.5 51.5t3.5 44h21
l19 -86q121 42 121 158q0 32 -3.5 50t-18.5 42t-51.5 42t-96.5 33v53q78 3 117.5 36.5t39.5 103.5q0 72 -42 103.5t-107 31.5q-82 0 -107 -43t-25 -159z" />
    <glyph glyph-name="agrave" unicode="&#xe0;" horiz-adv-x="510" 
d="M362 99l2 176q-61 -16 -143 -16q-24 0 -37 -2t-32.5 -11t-29 -33.5t-9.5 -64.5q0 -55 32 -83t80 -28q72 0 137 62zM389 0l-31 64q-82 -70 -164 -70q-72 0 -110 39.5t-38 115.5q0 68 37.5 110.5t124.5 42.5q83 0 107.5 4t45.5 23q0 71 -12 104.5t-34.5 43t-70.5 9.5
q-64 0 -118 -17q0 -1 -6 -29.5l-10 -47.5h-23q-1 19 -3 54t-4 54q69 34 170 34q82 0 129.5 -44t47.5 -158v-291l80 -19v-22h-118zM191 751h78l50 -112h-42z" />
    <glyph glyph-name="aacute" unicode="&#xe1;" horiz-adv-x="510" 
d="M362 99l2 176q-61 -16 -143 -16q-24 0 -37 -2t-32.5 -11t-29 -33.5t-9.5 -64.5q0 -55 32 -83t80 -28q72 0 137 62zM389 0l-31 64q-82 -70 -164 -70q-72 0 -110 39.5t-38 115.5q0 68 37.5 110.5t124.5 42.5q83 0 107.5 4t45.5 23q0 71 -12 104.5t-34.5 43t-70.5 9.5
q-64 0 -118 -17q0 -1 -6 -29.5l-10 -47.5h-23q-1 19 -3 54t-4 54q69 34 170 34q82 0 129.5 -44t47.5 -158v-291l80 -19v-22h-118zM239 751h80q-59 -79 -87 -112h-42q2 5 49 112z" />
    <glyph glyph-name="acircumflex" unicode="&#xe2;" horiz-adv-x="510" 
d="M362 99l2 176q-61 -16 -143 -16q-24 0 -37 -2t-32.5 -11t-29 -33.5t-9.5 -64.5q0 -55 32 -83t80 -28q72 0 137 62zM389 0l-31 64q-82 -70 -164 -70q-72 0 -110 39.5t-38 115.5q0 68 37.5 110.5t124.5 42.5q83 0 107.5 4t45.5 23q0 71 -12 104.5t-34.5 43t-70.5 9.5
q-64 0 -118 -17q0 -1 -6 -29.5l-10 -47.5h-23q-1 19 -3 54t-4 54q69 34 170 34q82 0 129.5 -44t47.5 -158v-291l80 -19v-22h-118zM278 754l103 -129h-43l-83 108l-83 -108h-43l103 129h46z" />
    <glyph glyph-name="atilde" unicode="&#xe3;" horiz-adv-x="510" 
d="M362 99l2 176q-61 -16 -143 -16q-24 0 -37 -2t-32.5 -11t-29 -33.5t-9.5 -64.5q0 -55 32 -83t80 -28q72 0 137 62zM389 0l-31 64q-82 -70 -164 -70q-72 0 -110 39.5t-38 115.5q0 68 37.5 110.5t124.5 42.5q83 0 107.5 4t45.5 23q0 71 -12 104.5t-34.5 43t-70.5 9.5
q-64 0 -118 -17q0 -1 -6 -29.5l-10 -47.5h-23q-1 19 -3 54t-4 54q69 34 170 34q82 0 129.5 -44t47.5 -158v-291l80 -19v-22h-118zM116 662l-1 43q13 20 57 20q26 0 78.5 -14t80.5 -14q40 0 63 10v-38q-29 -23 -62 -23q-30 0 -81 13t-81 13t-54 -10z" />
    <glyph glyph-name="adieresis" unicode="&#xe4;" horiz-adv-x="510" 
d="M362 99l2 176q-61 -16 -143 -16q-24 0 -37 -2t-32.5 -11t-29 -33.5t-9.5 -64.5q0 -55 32 -83t80 -28q72 0 137 62zM389 0l-31 64q-82 -70 -164 -70q-72 0 -110 39.5t-38 115.5q0 68 37.5 110.5t124.5 42.5q83 0 107.5 4t45.5 23q0 71 -12 104.5t-34.5 43t-70.5 9.5
q-64 0 -118 -17q0 -1 -6 -29.5l-10 -47.5h-23q-1 19 -3 54t-4 54q69 34 170 34q82 0 129.5 -44t47.5 -158v-291l80 -19v-22h-118zM324 715h67v-81h-67v81zM119 715h66v-81h-66v81zM324 715h67v-81h-67v81zM119 715h66v-81h-66v81z" />
    <glyph glyph-name="aring" unicode="&#xe5;" horiz-adv-x="510" 
d="M362 99l2 176q-61 -16 -143 -16q-24 0 -37 -2t-32.5 -11t-29 -33.5t-9.5 -64.5q0 -55 32 -83t80 -28q72 0 137 62zM389 0l-31 64q-82 -70 -164 -70q-72 0 -110 39.5t-38 115.5q0 68 37.5 110.5t124.5 42.5q83 0 107.5 4t45.5 23q0 71 -12 104.5t-34.5 43t-70.5 9.5
q-64 0 -118 -17q0 -1 -6 -29.5l-10 -47.5h-23q-1 19 -3 54t-4 54q69 34 170 34q82 0 129.5 -44t47.5 -158v-291l80 -19v-22h-118zM143 592q0 -36 10.5 -62t23 -37.5t32 -17.5t26.5 -6.5t19 -0.5q9 0 18.5 1t28.5 7.5t32.5 18.5t24.5 37t11 60t-11 60.5t-24 37t-33 18
t-28.5 7t-18.5 0.5t-19 -1t-27.5 -7.5t-31 -18t-23 -36.5t-10.5 -60zM254 731q73 -1 106.5 -35.5t33.5 -104.5q0 -63 -34 -101t-106 -38q-139 0 -139 139q0 68 36 103.5t103 36.5z" />
    <glyph glyph-name="ae" unicode="&#xe6;" horiz-adv-x="846" 
d="M245 491q-53 0 -93 -26t-62 -56l-44 34q76 89 199 89q120 0 200 -92q81 92 194 92q213 0 206 -262q-200 0 -368 -16q0 -37 0.5 -57.5t3.5 -49t9.5 -43.5t18 -32.5t29 -26t43 -14.5t59.5 -6q52 0 92 26t62 56q8 -6 21 -18t21 -18q-74 -87 -196 -87q-116 0 -204 90
q-80 -90 -190 -90q-210 0 -206 241l368 35q0 38 -0.5 58.5t-3.5 49t-9.5 43.5t-18 33t-29 26.5t-43 14.5t-59.5 6zM486 304l301 16q-7 72 -42 119t-106 47q-41 0 -72 -18.5t-47.5 -48t-24.5 -58t-9 -57.5zM400 210l-301 -29q3 -54 40.5 -102.5t106.5 -48.5q42 0 73 18
t47 47.5t24 57t10 57.5z" />
    <glyph glyph-name="ccedilla" unicode="&#xe7;" horiz-adv-x="529" 
d="M332 31q91 0 175 43l1 -58q-98 -31 -176 -31q-136 0 -203 68t-67 211q0 146 68.5 207.5t201.5 61.5q89 0 164 -42q-1 -17 -3 -52.5t-4 -52.5h-21l-18 72q-67 29 -118 29q-43 0 -76 -8.5t-63.5 -31t-46.5 -68t-16 -113.5q0 -134 54 -184.5t148 -50.5zM294 -83
q-21 0 -37 -4q3 3 9.5 15.5t18.5 36.5t23 43h7l-41 -78q59 7 88 -16.5t29 -56.5q0 -65 -81 -73q-40 0 -64 8v20q24 -10 48 -10q61 0 61 55q0 60 -61 60z" />
    <glyph glyph-name="egrave" unicode="&#xe8;" horiz-adv-x="541" 
d="M127 305l307 1q-2 80 -37.5 130t-108.5 50q-81 0 -121 -52t-40 -129zM288 25q54 0 93 25t60 56l44 -35q-74 -87 -197 -87q-127 0 -180 67t-55 196q0 285 235 285q206 0 205 -269l-374 1q0 -49 2 -79.5t11.5 -64.5t27 -52t50 -30.5t78.5 -12.5zM206 751h78l50 -112h-42z
" />
    <glyph glyph-name="eacute" unicode="&#xe9;" horiz-adv-x="541" 
d="M127 305l307 1q-2 80 -37.5 130t-108.5 50q-81 0 -121 -52t-40 -129zM288 25q54 0 93 25t60 56l44 -35q-74 -87 -197 -87q-127 0 -180 67t-55 196q0 285 235 285q206 0 205 -269l-374 1q0 -49 2 -79.5t11.5 -64.5t27 -52t50 -30.5t78.5 -12.5zM255 751h80
q-59 -79 -87 -112h-42q2 5 49 112z" />
    <glyph glyph-name="ecircumflex" unicode="&#xea;" horiz-adv-x="541" 
d="M127 305l307 1q-2 80 -37.5 130t-108.5 50q-81 0 -121 -52t-40 -129zM288 25q54 0 93 25t60 56l44 -35q-74 -87 -197 -87q-127 0 -180 67t-55 196q0 285 235 285q206 0 205 -269l-374 1q0 -49 2 -79.5t11.5 -64.5t27 -52t50 -30.5t78.5 -12.5zM293 754l103 -129h-43
l-83 108l-83 -108h-43l103 129h46z" />
    <glyph glyph-name="edieresis" unicode="&#xeb;" horiz-adv-x="541" 
d="M127 305l307 1q-2 80 -37.5 130t-108.5 50q-81 0 -121 -52t-40 -129zM288 25q54 0 93 25t60 56l44 -35q-74 -87 -197 -87q-127 0 -180 67t-55 196q0 285 235 285q206 0 205 -269l-374 1q0 -49 2 -79.5t11.5 -64.5t27 -52t50 -30.5t78.5 -12.5zM339 715h67v-81h-67v81z
M134 715h66v-81h-66v81zM339 715h67v-81h-67v81zM134 715h66v-81h-66v81z" />
    <glyph glyph-name="igrave" unicode="&#xec;" horiz-adv-x="261" 
d="M102 477l-80 19v21h148v-477l80 -19v-21h-228v21l80 19v437zM66 751h78l50 -112h-42z" />
    <glyph glyph-name="iacute" unicode="&#xed;" horiz-adv-x="261" 
d="M102 477l-80 19v21h148v-477l80 -19v-21h-228v21l80 19v437zM118 751h80q-59 -79 -87 -112h-42q2 5 49 112z" />
    <glyph glyph-name="icircumflex" unicode="&#xee;" horiz-adv-x="261" 
d="M102 477l-80 19v21h148v-477l80 -19v-21h-228v21l80 19v437zM153 754l103 -129h-43l-83 108l-83 -108h-43l103 129h46z" />
    <glyph glyph-name="idieresis" unicode="&#xef;" horiz-adv-x="261" 
d="M102 477l-80 19v21h148v-477l80 -19v-21h-228v21l80 19v437zM199 715h67v-81h-67v81zM-6 715h66v-81h-66v81zM199 715h67v-81h-67v81zM-6 715h66v-81h-66v81z" />
    <glyph glyph-name="ntilde" unicode="&#xf1;" horiz-adv-x="595" 
d="M515 40l80 -18v-22h-144v319q0 78 -33 120.5t-93 42.5q-68 0 -119.5 -46t-51.5 -106v-290l83 -19v-21h-228v22l80 16v439q-8 2 -37.5 8.5t-44.5 9.5v22h140l13 -102q31 51 83 84t112 33q75 0 117.5 -55t42.5 -165v-272zM159 662l-1 43q12 20 57 20q26 0 78.5 -14
t80.5 -14q40 0 63 10v-38q-29 -23 -62 -23q-30 0 -81 13t-81 13t-54 -10z" />
    <glyph glyph-name="ograve" unicode="&#xf2;" 
d="M131 261q0 -63 11.5 -108t28 -68.5t42.5 -36.5t46 -16t48 -3q25 0 40 1.5t41 14t41 35t27 69t12 112.5q0 64 -12 109t-27.5 67.5t-42.5 34.5t-43.5 13.5t-44.5 1.5q-19 0 -28 -0.5t-28 -2.5t-28.5 -8t-25 -16t-24 -27t-17 -40t-12.5 -56.5t-4 -75.5zM298 533
q247 0 247 -272q0 -142 -53.5 -210t-184.5 -68q-128 0 -187.5 77.5t-59.5 200.5q0 135 55.5 203.5t182.5 68.5zM228 751h78l50 -112h-42z" />
    <glyph glyph-name="oacute" unicode="&#xf3;" 
d="M131 261q0 -63 11.5 -108t28 -68.5t42.5 -36.5t46 -16t48 -3q25 0 40 1.5t41 14t41 35t27 69t12 112.5q0 64 -12 109t-27.5 67.5t-42.5 34.5t-43.5 13.5t-44.5 1.5q-19 0 -28 -0.5t-28 -2.5t-28.5 -8t-25 -16t-24 -27t-17 -40t-12.5 -56.5t-4 -75.5zM298 533
q247 0 247 -272q0 -142 -53.5 -210t-184.5 -68q-128 0 -187.5 77.5t-59.5 200.5q0 135 55.5 203.5t182.5 68.5zM277 751h80q-59 -79 -87 -112h-42q2 5 49 112z" />
    <glyph glyph-name="ocircumflex" unicode="&#xf4;" 
d="M131 261q0 -63 11.5 -108t28 -68.5t42.5 -36.5t46 -16t48 -3q25 0 40 1.5t41 14t41 35t27 69t12 112.5q0 64 -12 109t-27.5 67.5t-42.5 34.5t-43.5 13.5t-44.5 1.5q-19 0 -28 -0.5t-28 -2.5t-28.5 -8t-25 -16t-24 -27t-17 -40t-12.5 -56.5t-4 -75.5zM298 533
q247 0 247 -272q0 -142 -53.5 -210t-184.5 -68q-128 0 -187.5 77.5t-59.5 200.5q0 135 55.5 203.5t182.5 68.5zM315 754l103 -129h-43l-83 108l-83 -108h-43l103 129h46z" />
    <glyph glyph-name="otilde" unicode="&#xf5;" 
d="M131 261q0 -63 11.5 -108t28 -68.5t42.5 -36.5t46 -16t48 -3q25 0 40 1.5t41 14t41 35t27 69t12 112.5q0 64 -12 109t-27.5 67.5t-42.5 34.5t-43.5 13.5t-44.5 1.5q-19 0 -28 -0.5t-28 -2.5t-28.5 -8t-25 -16t-24 -27t-17 -40t-12.5 -56.5t-4 -75.5zM298 533
q247 0 247 -272q0 -142 -53.5 -210t-184.5 -68q-128 0 -187.5 77.5t-59.5 200.5q0 135 55.5 203.5t182.5 68.5zM154 662l-1 43q12 20 57 20q26 0 78.5 -14t80.5 -14q40 0 63 10v-38q-29 -23 -62 -23q-30 0 -81 13t-81 13t-54 -10z" />
    <glyph glyph-name="odieresis" unicode="&#xf6;" 
d="M131 261q0 -63 11.5 -108t28 -68.5t42.5 -36.5t46 -16t48 -3q25 0 40 1.5t41 14t41 35t27 69t12 112.5q0 64 -12 109t-27.5 67.5t-42.5 34.5t-43.5 13.5t-44.5 1.5q-19 0 -28 -0.5t-28 -2.5t-28.5 -8t-25 -16t-24 -27t-17 -40t-12.5 -56.5t-4 -75.5zM298 533
q247 0 247 -272q0 -142 -53.5 -210t-184.5 -68q-128 0 -187.5 77.5t-59.5 200.5q0 135 55.5 203.5t182.5 68.5zM361 715h67v-81h-67v81zM156 715h66v-81h-66v81zM361 715h67v-81h-67v81zM156 715h66v-81h-66v81z" />
    <glyph glyph-name="oslash" unicode="&#xf8;" 
d="M148 -20l304 553h16l-304 -552q-8 0 -9.5 -0.5t-6.5 -0.5zM131 261q0 -63 11.5 -108t28 -68.5t42.5 -36.5t46 -16t48 -3q25 0 40 1.5t41 14t41 35t27 69t12 112.5q0 64 -12 109t-27.5 67.5t-42.5 34.5t-43.5 13.5t-44.5 1.5q-19 0 -28 -0.5t-28 -2.5t-28.5 -8t-25 -16
t-24 -27t-17 -40t-12.5 -56.5t-4 -75.5zM298 533q247 0 247 -272q0 -142 -53.5 -210t-184.5 -68q-128 0 -187.5 77.5t-59.5 200.5q0 135 55.5 203.5t182.5 68.5z" />
    <glyph glyph-name="ugrave" unicode="&#xf9;" horiz-adv-x="594" 
d="M450 480l-110 17v20h175v-477l80 -19v-21h-140l-12 97q-27 -52 -83.5 -83.5t-112.5 -31.5q-73 0 -118 51t-45 163v281l-76 19v21h143v-330q0 -81 25.5 -120.5t88.5 -39.5q71 0 128 49t57 127v277zM233 751h78l50 -112h-42z" />
    <glyph glyph-name="uacute" unicode="&#xfa;" horiz-adv-x="594" 
d="M450 480l-110 17v20h175v-477l80 -19v-21h-140l-12 97q-27 -52 -83.5 -83.5t-112.5 -31.5q-73 0 -118 51t-45 163v281l-76 19v21h143v-330q0 -81 25.5 -120.5t88.5 -39.5q71 0 128 49t57 127v277zM281 751h80q-59 -79 -87 -112h-42q2 5 49 112z" />
    <glyph glyph-name="ucircumflex" unicode="&#xfb;" horiz-adv-x="594" 
d="M450 480l-110 17v20h175v-477l80 -19v-21h-140l-12 97q-27 -52 -83.5 -83.5t-112.5 -31.5q-73 0 -118 51t-45 163v281l-76 19v21h143v-330q0 -81 25.5 -120.5t88.5 -39.5q71 0 128 49t57 127v277zM320 754l103 -129h-43l-83 108l-83 -108h-43l103 129h46z" />
    <glyph glyph-name="udieresis" unicode="&#xfc;" horiz-adv-x="594" 
d="M450 480l-110 17v20h175v-477l80 -19v-21h-140l-12 97q-27 -52 -83.5 -83.5t-112.5 -31.5q-73 0 -118 51t-45 163v281l-76 19v21h143v-330q0 -81 25.5 -120.5t88.5 -39.5q71 0 128 49t57 127v277zM366 715h67v-81h-67v81zM161 715h66v-81h-66v81zM366 715h67v-81h-67v81z
M161 715h66v-81h-66v81z" />
    <glyph glyph-name="yacute" unicode="&#xfd;" horiz-adv-x="570" 
d="M598 497l-73 -17l-233 -654l89 -18v-22h-228v21l77 16l41 119l-216 538l-73 14v23h224v-20l-83 -18l178 -482l156 479l-83 19v22h224v-20zM269 751h80q-59 -79 -87 -112h-42q2 5 49 112z" />
    <glyph glyph-name="ydieresis" unicode="&#xff;" horiz-adv-x="570" 
d="M598 497l-73 -17l-233 -654l89 -18v-22h-228v21l77 16l41 119l-216 538l-73 14v23h224v-20l-83 -18l178 -482l156 479l-83 19v22h224v-20zM354 715h67v-81h-67v81zM149 715h66v-81h-66v81zM354 715h67v-81h-67v81zM149 715h66v-81h-66v81z" />
    <glyph glyph-name="dotlessi" unicode="&#x131;" horiz-adv-x="261" 
d="M102 477l-80 19v21h148v-477l80 -19v-21h-228v21l80 19v437z" />
    <glyph glyph-name="Scaron" unicode="&#x160;" horiz-adv-x="608" 
d="M85 154l18 -72q91 -54 190 -54q82 0 138 41.5t56 100.5q0 23 -4.5 40.5t-20.5 43.5t-56 48.5t-102 38.5q-120 35 -178.5 82t-58.5 128q0 74 66 127t182 53q162 0 225 -41l-7 -106h-22l-17 72q-84 36 -180 36q-71 0 -120 -39t-49 -103q0 -62 37 -93t119 -55q35 -10 59 -18
t57.5 -22.5t56.5 -31.5t45 -40t33 -53.5t11 -66.5q0 -55 -27.5 -95t-72 -59.5t-86.5 -27.5t-84 -8q-141 0 -226 58q0 20 -1 58t-1 58h20zM430 953l-103 -129h-46l-103 129h43l83 -108l83 108h43z" />
    <glyph glyph-name="scaron" unicode="&#x161;" horiz-adv-x="492" 
d="M406 381l-18 73q-88 32 -146 32q-49 0 -78 -19t-29 -72q0 -44 26 -62t93 -34q111 -25 161.5 -61t50.5 -95q0 -74 -54.5 -116t-147.5 -42q-66 0 -121.5 17t-84.5 35q0 1 0.5 7t2.5 33.5t4 74.5h21l18 -72q94 -45 159 -45q134 0 134 105q0 42 -50.5 67.5t-139.5 44.5
q-68 14 -105 52t-37 91q0 19 7 39t24.5 42.5t55 37t89.5 14.5q89 0 191 -43q-1 -18 -1.5 -52t-2.5 -52h-22zM372 754l-103 -129h-46l-103 129h43l83 -108l83 108h43z" />
    <glyph glyph-name="Ydieresis" unicode="&#x178;" horiz-adv-x="710" 
d="M397 39l77 -18v-21h-222v21l77 18v227l-267 413l-69 16v21h212v-20l-77 -15l234 -372l238 372l-71 15v20h209v-20l-68 -17l-273 -413v-227zM424 914h67v-81h-67v81zM219 914h66v-81h-66v81zM424 914h67v-81h-67v81zM219 914h66v-81h-66v81z" />
    <glyph glyph-name="Zcaron" unicode="&#x17d;" horiz-adv-x="675" 
d="M605 50l36 94l11 -144h-607v50l529 623h-480l-18 -76h-19l-12 119h607l1 -46l-525 -620h477zM463 953l-103 -129h-46l-103 129h43l83 -108l83 108h43z" />
    <glyph glyph-name="zcaron" unicode="&#x17e;" horiz-adv-x="478" 
d="M399 53l18 79h21l12 -132h-404v53l327 420h-277l-19 -79h-22l-7 123h409l1 -42l-328 -422h269zM365 754l-103 -129h-46l-103 129h43l83 -108l83 108h43z" />
    <glyph glyph-name="florin" unicode="&#x192;" horiz-adv-x="322" 
d="M422 748l1 -51q-57 30 -111 30q-39 0 -65.5 -8.5t-40.5 -19.5t-20.5 -35t-7.5 -41t-1 -52v-8v-46h129v-43h-129v-495q-5 -169 -129 -194v45q31 29 43 55.5t22 86.5v502h-86v43h86v46q0 121 48.5 168.5t150.5 47.5q46 0 110 -31z" />
    <glyph glyph-name="circumflex" unicode="&#x2c6;" horiz-adv-x="245" 
d="M148 754l103 -129h-43l-83 108l-83 -108h-43l103 129h46z" />
    <glyph glyph-name="caron" unicode="&#x2c7;" horiz-adv-x="241" 
d="M251 754l-103 -129h-46l-103 129h43l83 -108l83 108h43z" />
    <glyph glyph-name="ring" unicode="&#x2da;" horiz-adv-x="400" 
d="M96 592q0 -36 10.5 -62t23 -37.5t32 -17.5t26.5 -6.5t19 -0.5q9 0 18.5 1t28.5 7.5t32.5 18.5t24.5 37t11 60t-11 60.5t-24 37t-33 18t-28.5 7t-18.5 0.5t-19 -1t-27.5 -7.5t-31 -18t-23 -36.5t-10.5 -60zM207 731q73 -1 106.5 -35.5t33.5 -104.5q0 -63 -34 -101
t-106 -38q-139 0 -139 139q0 68 36 103.5t103 36.5z" />
    <glyph glyph-name="tilde" unicode="&#x2dc;" horiz-adv-x="222" 
d="M-17 662l-1 43q13 20 57 20q26 0 78.5 -14t80.5 -14q40 0 63 10v-38q-29 -23 -62 -23q-30 0 -81 13t-81 13t-54 -10z" />
    <glyph glyph-name="gravecmb" unicode="&#x300;" horiz-adv-x="222" 
d="M4 751h78l50 -112h-42z" />
    <glyph glyph-name="acutecmb" unicode="&#x301;" horiz-adv-x="222" 
d="M138 751h80q-59 -79 -87 -112h-42q2 5 49 112z" />
    <glyph glyph-name="circumflexcmb" unicode="&#x302;" horiz-adv-x="245" 
d="M148 754l103 -129h-43l-83 108l-83 -108h-43l103 129h46z" />
    <glyph glyph-name="tildecmb" unicode="&#x303;" horiz-adv-x="222" 
d="M-17 662l-1 43q13 20 57 20q26 0 78.5 -14t80.5 -14q40 0 63 10v-38q-29 -23 -62 -23q-30 0 -81 13t-81 13t-54 -10z" />
    <glyph glyph-name="dieresiscmb" unicode="&#x308;" horiz-adv-x="0" 
 />
    <glyph glyph-name="ringcmb" unicode="&#x30a;" horiz-adv-x="400" 
d="M96 592q0 -36 10.5 -62t23 -37.5t32 -17.5t26.5 -6.5t19 -0.5q9 0 18.5 1t28.5 7.5t32.5 18.5t24.5 37t11 60t-11 60.5t-24 37t-33 18t-28.5 7t-18.5 0.5t-19 -1t-27.5 -7.5t-31 -18t-23 -36.5t-10.5 -60zM207 731q73 -1 106.5 -35.5t33.5 -104.5q0 -63 -34 -101
t-106 -38q-139 0 -139 139q0 68 36 103.5t103 36.5z" />
    <glyph glyph-name="caroncmb" unicode="&#x30c;" horiz-adv-x="241" 
d="M251 754l-103 -129h-46l-103 129h43l83 -108l83 108h43z" />
    <glyph glyph-name="cedillacmb" unicode="&#x327;" horiz-adv-x="245" 
d="M109 -91q-21 0 -37 -4q3 3 9.5 15.5t18.5 36.5t23 43h7l-41 -78q59 7 88 -16.5t29 -56.5q0 -65 -81 -73q-40 0 -64 8v20q24 -10 48 -10q61 0 61 55q0 60 -61 60z" />
    <glyph glyph-name="soliduslongoverlaycmb" unicode="&#x338;" horiz-adv-x="0" 
 />
    <glyph glyph-name="endash" unicode="&#x2013;" horiz-adv-x="500" 
d="M11 304h500v-51h-500v51z" />
    <glyph glyph-name="emdash" unicode="&#x2014;" horiz-adv-x="1000" 
d="M143 253v51h759v-51h-759z" />
    <glyph glyph-name="quoteleft" unicode="&#x2018;" horiz-adv-x="278" 
d="M125 533h63v-85h-88q-9 51 -9 100q0 157 109 173v-39q-26 -3 -42 -15.5t-22.5 -36t-8.5 -43.5t-2 -54z" />
    <glyph glyph-name="quoteright" unicode="&#x2019;" horiz-adv-x="278" 
d="M103 637v85h87q8 -62 8 -102q0 -148 -109 -171v36q18 2 31.5 8.5t21 19.5t12.5 23.5t6.5 31.5t2 32.5t0.5 36.5h-60z" />
    <glyph glyph-name="quotesinglbase" unicode="&#x201a;" horiz-adv-x="278" 
d="M106 0v84h87q8 -62 8 -99q0 -156 -109 -172v35q27 3 43 16t22 39t7.5 43.5t1.5 53.5h-60z" />
    <glyph glyph-name="quotedblleft" unicode="&#x201c;" horiz-adv-x="440" 
d="M183 721v-38q-26 -4 -42 -16.5t-23 -36.5t-8.5 -43.5t-1.5 -53.5h62v-85h-87q-10 53 -10 100q0 83 31.5 124.5t78.5 48.5zM317 533h60v-85h-87q-7 68 -7 100q0 158 108 173v-38q-25 -4 -41 -16.5t-22.5 -36t-8.5 -43.5t-2 -54z" />
    <glyph glyph-name="quotedblright" unicode="&#x201d;" horiz-adv-x="444" 
d="M290 637v85h88q9 -45 9 -102q0 -151 -109 -171v36q18 2 31.5 8.5t21 19.5t12.5 23.5t6.5 31.5t2 32.5t0.5 36.5h-62zM84 637v85h87q8 -78 8 -102q0 -149 -110 -171v36q21 2 36 12.5t22.5 23t11.5 35t4.5 38t0.5 43.5h-60z" />
    <glyph glyph-name="quotedblbase" unicode="&#x201e;" horiz-adv-x="487" 
d="M102 0v84h86q9 -58 9 -99q0 -156 -109 -172v35q26 3 42 16t22 38.5t7.5 44t1.5 53.5h-59zM328 0v84h87q10 -59 10 -99q0 -85 -31.5 -125t-78.5 -47v35q18 2 31 8t20.5 19.5t12 23t6 32t2 32t0.5 36.5q-8 0 -28.5 0.5t-30.5 0.5z" />
    <glyph glyph-name="bullet" unicode="&#x2022;" horiz-adv-x="500" 
d="M78 364q0 75 53 128t128 53t128 -53t53 -128t-53 -128t-128 -53t-128 53t-53 128z" />
    <glyph glyph-name="ellipsis" unicode="&#x2026;" horiz-adv-x="813" 
d="M93 -1v84h85v-84h-85zM387 -1v84h85v-84h-85zM681 -1v84h84v-84h-84z" />
    <glyph glyph-name="guilsinglleft" unicode="&#x2039;" horiz-adv-x="306" 
d="M69 282q0 12 12 20l170 121q0 -39 -12 -45l-135 -96q79 -60 131 -92q16 -12 16 -50l-169 122q-13 7 -13 20z" />
    <glyph glyph-name="guilsinglright" unicode="&#x203a;" horiz-adv-x="311" 
d="M257 282q0 -13 -13 -20l-169 -122q0 38 16 50q52 32 131 92l-135 96q-12 6 -12 45l170 -121q12 -8 12 -20z" />
    <glyph glyph-name="fraction" unicode="&#x2044;" horiz-adv-x="347" 
d="M-11 -20l351 773h17l-351 -772q-8 0 -9.5 -0.5t-7.5 -0.5z" />
    <glyph glyph-name="Euro" unicode="&#x20ac;" horiz-adv-x="615" 
d="M53 481h61q55 288 288 288q75 0 195 -35v-62q-118 53 -195 53q-31 0 -56 -7.5t-56 -30t-56 -75t-39 -131.5h251l-7 -21h-244q-5 -112 1 -167h195q-2 -14 -5 -21h-187q16 -63 42 -108t49 -65.5t51.5 -32t39 -12.5t21.5 -1q108 0 203 77v-70q-87 -60 -203 -60
q-102 0 -179.5 72t-109.5 200h-73l14 21h58q-6 114 1 167h-73z" />
    <glyph glyph-name="notequal" unicode="&#x2260;" horiz-adv-x="598" 
d="M59 169h501v-41h-501v41zM59 378h501v-43h-501v43z" />
    <glyph glyph-name="middot" horiz-adv-x="290" 
d="M106 306v85h85v-85h-85z" />
    </font>
</defs>
</svg>
