<?xml version="1.0" standalone="no"?>
<!DOCTYPE svg PUBLIC "-//W3C//DTD SVG 1.1//EN" "http://www.w3.org/Graphics/SVG/1.1/DTD/svg11.dtd" >
<svg>
<metadata>
Created by FontForge 20110222 at Wed Nov  6 21:20:41 2013
 By Orthosie Webhosting
Copyright 1990-1998 Bitstream Inc.  All rights reserved.
</metadata>
<defs>
<font id="AvantGardeBkBTBook" horiz-adv-x="1024" >
  <font-face 
    font-family="AvantGardeBkBTBook"
    font-weight="400"
    font-stretch="normal"
    units-per-em="2048"
    panose-1="2 11 4 2 2 2 2 2 2 4"
    ascent="1556"
    descent="-492"
    x-height="1100"
    cap-height="1456"
    bbox="-342 -483 2605 1972"
    underline-thickness="113"
    underline-position="-122"
    unicode-range="U+0020-F002"
  />
<missing-glyph horiz-adv-x="1229" 
d="M102 -362v1806h1024v-1806h-1024zM217 -248h795v1577h-795v-1577z" />
    <glyph glyph-name=".notdef" horiz-adv-x="1229" 
d="M102 -362v1806h1024v-1806h-1024zM217 -248h795v1577h-795v-1577z" />
    <glyph glyph-name=".null" horiz-adv-x="0" 
 />
    <glyph glyph-name="nonmarkingreturn" horiz-adv-x="578" 
 />
    <glyph glyph-name="space" unicode=" " horiz-adv-x="578" 
 />
    <glyph glyph-name="exclam" unicode="!" horiz-adv-x="588" 
d="M365 379h-142v1077h142v-1077zM365 0h-142v266h142v-266z" />
    <glyph glyph-name="quotedbl" unicode="&#x22;" horiz-adv-x="569" 
d="M473 1434v-553h-102v553h102zM199 1434v-553h-101v553h101z" />
    <glyph glyph-name="numbersign" unicode="#" horiz-adv-x="1575" 
d="M975 864h-266l-97 -276h267zM918 1454l-168 -483h264l172 483h127l-170 -483h315l-37 -107h-317l-98 -276h340l-37 -109h-340l-170 -479h-129l172 479h-269l-172 -479h-127l170 479h-327l39 109h325l101 276h-353l35 107h354l173 483h127z" />
    <glyph glyph-name="dollar" unicode="$" horiz-adv-x="1157" 
d="M152 432h139v-16q0 -141 72.5 -214t211.5 -73q133 0 210 72.5t77 195.5q0 195 -309 297q-20 7 -30 10q-191 63 -263 144t-72 219q0 146 90 252.5t230 124.5v213h143v-213q148 -17 232 -112t92 -253h-144v4q0 110 -66.5 176t-176.5 66q-119 0 -188.5 -68t-69.5 -182
q0 -159 284 -257q59 -20 91 -32q164 -60 233.5 -144.5t69.5 -221.5q0 -172 -98.5 -287t-258.5 -129v-246h-143v246q-160 17 -258 135t-98 293z" />
    <glyph glyph-name="percent" unicode="%" horiz-adv-x="1796" 
d="M219 1124q0 -94 66.5 -160.5t160.5 -66.5t160 66t66 161t-65.5 160.5t-160.5 65.5t-161 -66t-66 -160zM90 1126q0 150 104.5 254.5t254.5 104.5q149 0 254.5 -105t105.5 -254q0 -150 -105 -254t-255 -104q-151 0 -255 104t-104 254zM1229 1485h117l-779 -1514h-116z
M1114 330q0 -95 66.5 -161.5t160.5 -66.5q95 0 161.5 66.5t66.5 161.5q0 93 -66.5 159t-161.5 66t-161 -65.5t-66 -159.5zM987 330q0 149 104.5 253.5t254.5 104.5q149 0 253.5 -104.5t104.5 -253.5q0 -151 -104 -255t-254 -104q-151 0 -255 104t-104 255z" />
    <glyph glyph-name="ampersand" unicode="&#x26;" horiz-adv-x="1421" 
d="M555 883q113 44 169 110t56 154q0 85 -56.5 144t-135.5 59q-89 0 -145 -58t-56 -153q0 -67 36.5 -123.5t131.5 -132.5zM889 371l-387 360q-108 -53 -164.5 -135.5t-56.5 -185.5q0 -131 78.5 -213t201.5 -82q95 0 174.5 62t153.5 194zM993 276q-67 -147 -181 -226
t-259 -79q-175 0 -299.5 128t-124.5 311q0 131 75 244t202 171q-97 86 -132.5 155t-35.5 161q0 142 102.5 242t253.5 100q136 0 236 -102.5t100 -239.5q0 -111 -72 -202.5t-207 -150.5l295 -272l172 453h156l-219 -555l325 -299l-90 -107z" />
    <glyph glyph-name="quotesingle" unicode="'" horiz-adv-x="295" 
d="M199 1434v-553h-101v553h101z" />
    <glyph glyph-name="parenleft" unicode="(" horiz-adv-x="541" 
d="M432 1485v-162q-90 -72 -128 -171t-38 -302v-657q0 -204 38 -303t128 -171v-161q-155 82 -231 233.5t-76 376.5v706q0 225 76 376.5t231 234.5z" />
    <glyph glyph-name="parenright" unicode=")" horiz-adv-x="541" 
d="M109 1485q155 -83 231 -234.5t76 -376.5v-706q0 -225 -76 -376.5t-231 -233.5v161q90 72 127.5 171t37.5 303v657q0 203 -37.5 302t-127.5 171v162z" />
    <glyph glyph-name="asterisk" unicode="*" 
d="M510 981l-182 -264l-107 74l201 251l-297 86l37 119l291 -96v305h114v-305l289 96l41 -119l-301 -86l205 -251l-105 -74z" />
    <glyph glyph-name="plus" unicode="+" horiz-adv-x="1706" 
d="M903 1221v-562h549v-98h-549v-561h-98v561h-551v98h551v562h98z" />
    <glyph glyph-name="comma" unicode="," horiz-adv-x="578" 
d="M248 -162h-144l156 428h143z" />
    <glyph glyph-name="hyphen" unicode="-" horiz-adv-x="659" 
d="M563 616v-133h-469v133h469z" />
    <glyph glyph-name="period" unicode="." horiz-adv-x="578" 
d="M360 0h-143v266h143v-266z" />
    <glyph glyph-name="slash" unicode="/" horiz-adv-x="569" 
d="M72 -190h-121l498 1646h120z" />
    <glyph glyph-name="zero" unicode="0" horiz-adv-x="1157" 
d="M227 481q0 -181 93 -282t258 -101q164 0 257 100t93 279v502q0 178 -93.5 278.5t-256.5 100.5q-165 0 -258 -101.5t-93 -283.5v-492zM86 512v432q0 141 20 212.5t66 133.5q72 95 176.5 146t229.5 51q229 0 361 -142t132 -393v-446q0 -118 -19 -195.5t-61 -136.5
q-69 -97 -177 -150t-236 -53q-125 0 -229 50.5t-179 146.5q-44 56 -64 136.5t-20 207.5z" />
    <glyph glyph-name="one" unicode="1" horiz-adv-x="1157" 
d="M676 0h-152v1331h-254v125h406v-1456z" />
    <glyph glyph-name="two" unicode="2" horiz-adv-x="1157" 
d="M1036 0h-903v141l516 490q153 145 202.5 229t49.5 174q0 137 -89.5 229.5t-227.5 92.5q-142 0 -227 -94.5t-85 -251.5q0 -8 1 -21t1 -20h-141v22q0 220 129.5 358t333.5 138q185 0 314.5 -133.5t129.5 -329.5q0 -113 -54.5 -216.5t-172.5 -213.5l-491 -453h714v-141z" />
    <glyph glyph-name="three" unicode="3" horiz-adv-x="1157" 
d="M254 442v-12q0 -144 89.5 -239t221.5 -95q143 0 235.5 94.5t92.5 241.5q0 167 -98 253.5t-287 86.5q-27 0 -41.5 -0.5t-25.5 -1.5v121q11 -1 24 -1.5t39 -0.5q144 0 216.5 59.5t72.5 177.5q0 102 -62 168t-156 66q-107 0 -168 -64.5t-63 -180.5h-133q9 170 109 270
t262 100q149 0 253.5 -106.5t104.5 -252.5q0 -87 -33.5 -151.5t-107.5 -118.5q119 -63 179 -165.5t60 -244.5q0 -201 -132.5 -338t-332.5 -137q-213 0 -337 126t-127 345h145z" />
    <glyph glyph-name="four" unicode="4" horiz-adv-x="1157" 
d="M774 408l6 880l-542 -880h536zM911 0h-141v281h-682v127l660 1048h163v-1048h158v-127h-158v-281z" />
    <glyph glyph-name="five" unicode="5" horiz-adv-x="1157" 
d="M84 442h145q8 -142 111 -241t240 -99q147 0 248.5 110.5t101.5 272.5q0 164 -101.5 265.5t-265.5 101.5q-93 0 -168 -41.5t-133 -126.5l-110 51l129 721h657v-143h-535l-73 -406q63 45 124.5 65.5t133.5 20.5q213 0 349 -144t136 -368q0 -212 -145.5 -361t-352.5 -149
q-197 0 -336 132.5t-155 338.5z" />
    <glyph glyph-name="six" unicode="6" horiz-adv-x="1157" 
d="M586 825q-150 0 -251.5 -104t-101.5 -256q0 -154 104 -260.5t251 -106.5q143 0 239.5 103t96.5 262q0 158 -95.5 260t-242.5 102zM621 1456h178l-340 -526q47 11 86 16.5t71 5.5q198 0 327.5 -138t129.5 -347q0 -214 -141 -355t-357 -141q-212 0 -351.5 138.5
t-139.5 341.5q0 174 180 452q18 27 27 41z" />
    <glyph glyph-name="seven" unicode="7" horiz-adv-x="1157" 
d="M426 0h-160l576 1313h-637v143h803v-131z" />
    <glyph glyph-name="eight" unicode="8" horiz-adv-x="1157" 
d="M322 1122q0 -108 68.5 -175.5t178.5 -67.5q131 0 201 61.5t70 177.5q0 105 -72.5 171.5t-185.5 66.5q-111 0 -185.5 -67t-74.5 -167zM258 418q0 -139 90.5 -230.5t220.5 -91.5q143 0 235.5 93t92.5 235q0 146 -87 235t-230 89q-149 0 -235.5 -88.5t-86.5 -241.5zM334 813
q-77 51 -116.5 123.5t-39.5 163.5q0 156 116.5 270.5t280.5 114.5q171 0 287.5 -111t116.5 -264q0 -100 -39.5 -172.5t-122.5 -124.5q115 -65 171 -155.5t56 -213.5q0 -206 -132.5 -339.5t-342.5 -133.5q-191 0 -323.5 134.5t-132.5 328.5q0 125 51.5 214t169.5 165z" />
    <glyph glyph-name="nine" unicode="9" horiz-adv-x="1157" 
d="M571 633q150 0 251.5 104t101.5 256q0 154 -103.5 259.5t-251.5 105.5q-143 0 -239.5 -102t-96.5 -261q0 -158 95.5 -260t242.5 -102zM537 0h-179l340 528q-47 -11 -86 -16.5t-71 -5.5q-198 0 -327.5 138t-129.5 347q0 215 140 355.5t356 140.5q212 0 352.5 -138.5
t140.5 -340.5q0 -175 -180 -452q-17 -27 -26 -41z" />
    <glyph glyph-name="colon" unicode=":" horiz-adv-x="588" 
d="M365 834h-142v266h142v-266zM365 0h-142v266h142v-266z" />
    <glyph glyph-name="semicolon" unicode=";" horiz-adv-x="588" 
d="M248 -162h-144l156 428h143zM365 1100v-266h-142v266h142z" />
    <glyph glyph-name="less" unicode="&#x3c;" horiz-adv-x="1706" 
d="M1442 1026l-1022 -416l1022 -413v-109l-1178 481v82l1178 484v-109z" />
    <glyph glyph-name="equal" unicode="=" horiz-adv-x="1706" 
d="M1452 473v-98h-1198v98h1198zM1452 846v-98h-1198v98h1198z" />
    <glyph glyph-name="greater" unicode="&#x3e;" horiz-adv-x="1706" 
d="M1442 651v-82l-1178 -481v109l1022 413l-1022 416v109z" />
    <glyph glyph-name="question" unicode="?" horiz-adv-x="948" 
d="M547 398l-144 -1q0 94 39 183t115 172q18 19 54 53q126 119 126 252q0 130 -70.5 204t-193.5 74q-130 0 -202 -83t-78 -240h-148q3 214 122.5 343.5t313.5 129.5q181 0 294.5 -120t113.5 -310q0 -187 -166 -335q-16 -14 -25 -22q-82 -76 -116 -144.5t-35 -155.5zM403 0
v266h144v-266h-144z" />
    <glyph glyph-name="at" unicode="@" horiz-adv-x="2048" 
d="M1298 836l60 125h94l-139 -562q-10 -44 -13.5 -62.5t-3.5 -29.5q0 -43 28.5 -67.5t78.5 -24.5q52 0 106.5 21t104.5 61q97 77 151 204.5t54 282.5q0 254 -198 417t-509 163q-175 0 -320 -49.5t-262 -149.5q-147 -126 -222 -290.5t-75 -362.5q0 -174 60 -305t184 -232
q102 -82 244 -128t301 -46q171 0 334.5 49.5t300.5 143.5l39 -55q-147 -111 -311 -166.5t-343 -55.5q-191 0 -347 46.5t-275 138.5q-155 118 -229 273.5t-74 361.5q0 204 86 381.5t252 314.5q132 109 298.5 165t360.5 56q162 0 308 -44t249 -124q129 -99 194.5 -228
t65.5 -280q0 -171 -62 -309.5t-181 -232.5q-70 -54 -149 -82.5t-161 -28.5q-97 0 -144.5 37.5t-47.5 113.5q0 4 1 14t1 15q-51 -87 -127 -133.5t-168 -46.5q-153 0 -233 83.5t-80 244.5q0 230 135 388t329 158q94 0 158 -41t96 -122zM1210 469l62 248q-18 93 -75.5 145.5
t-139.5 52.5q-154 0 -254.5 -133.5t-100.5 -337.5q0 -111 55 -173t152 -62q107 0 189.5 71.5t111.5 188.5z" />
    <glyph glyph-name="A" unicode="A" horiz-adv-x="1223" 
d="M100 0h-151l565 1456h172l563 -1456h-153l-174 457h-648zM872 588l-276 731l-272 -731h548z" />
    <glyph glyph-name="B" unicode="B" horiz-adv-x="1042" 
d="M272 688v-549h201q177 0 261.5 67t84.5 206t-86 207.5t-260 68.5h-201zM272 1317v-490h86q212 0 296.5 58.5t84.5 191.5q0 125 -82 182.5t-262 57.5h-123zM135 1456h271q247 0 363 -93.5t116 -291.5q0 -100 -39 -171t-117 -116q118 -49 177 -137.5t59 -216.5
q0 -222 -122.5 -326t-385.5 -104h-322v1456z" />
    <glyph glyph-name="C" unicode="C" horiz-adv-x="1540" 
d="M1296 1079q-98 136 -219 200t-276 64q-243 0 -415.5 -180t-172.5 -428q0 -264 171.5 -445t416.5 -181q151 0 273 63t212 188h170q-100 -186 -268 -287.5t-377 -101.5q-321 0 -535.5 219t-214.5 547q0 153 58 290t170 247q104 104 233.5 157.5t280.5 53.5
q217 0 390.5 -106t274.5 -300h-172z" />
    <glyph glyph-name="D" unicode="D" horiz-adv-x="1366" 
d="M276 1317v-1180h297q278 0 428 156t150 442q0 143 -51 264t-146 203q-71 62 -159 88.5t-256 26.5h-263zM135 1456h414q171 0 287.5 -34t205.5 -109q125 -105 194 -257t69 -325q0 -193 -76 -351.5t-215 -258.5q-92 -65 -199 -93t-330 -28h-350v1456z" />
    <glyph glyph-name="E" unicode="E" horiz-adv-x="1028" 
d="M279 803h612v-144h-612v-518h612v-141h-756v1456h756v-143h-612v-510z" />
    <glyph glyph-name="F" unicode="F" horiz-adv-x="991" 
d="M135 0v1456h719v-143h-578v-510h578v-144h-578v-659h-141z" />
    <glyph glyph-name="G" unicode="G" horiz-adv-x="1612" 
d="M643 698h905q-18 -318 -229 -522.5t-518 -204.5q-315 0 -527.5 220t-212.5 546q0 153 58 290t170 247q108 107 239 159t291 52q212 0 380.5 -102.5t270.5 -292.5h-176q-103 131 -220.5 193.5t-262.5 62.5q-251 0 -424.5 -179.5t-173.5 -431.5q0 -268 173 -447t427 -179
q200 0 358.5 128t206.5 332h-735v129z" />
    <glyph glyph-name="H" unicode="H" horiz-adv-x="1251" 
d="M279 0h-144v1456h144v-653h692v653h143v-1456h-143v664h-692v-664z" />
    <glyph glyph-name="I" unicode="I" horiz-adv-x="412" 
d="M276 0h-143v1456h143v-1456z" />
    <glyph glyph-name="J" unicode="J" horiz-adv-x="915" 
d="M641 1456h143v-981q0 -128 -13.5 -200t-45.5 -125q-50 -86 -138.5 -133.5t-197.5 -47.5q-163 0 -262.5 105.5t-99.5 279.5h143q6 -108 69.5 -174.5t157.5 -66.5q133 0 188.5 84.5t55.5 337.5v921z" />
    <glyph glyph-name="K" unicode="K" horiz-adv-x="1100" 
d="M274 449v-449h-141v1456h141v-809l674 809h170l-588 -704l578 -752h-176l-494 645z" />
    <glyph glyph-name="L" unicode="L" horiz-adv-x="844" 
d="M791 0h-656v1456h144v-1315h512v-141z" />
    <glyph glyph-name="M" unicode="M" horiz-adv-x="1692" 
d="M143 0v1456h211l504 -1266l502 1266h211v-1456h-137v1286l-512 -1286h-129l-512 1286v-1286h-138z" />
    <glyph glyph-name="N" unicode="N" horiz-adv-x="1366" 
d="M1102 174l-17 1282h142v-1456h-172l-799 1284l16 -1284h-141v1456h172z" />
    <glyph glyph-name="O" unicode="O" horiz-adv-x="1612" 
d="M211 735q0 -266 173 -446t427 -180q248 0 419 182t171 448q0 248 -176 427.5t-424 179.5q-101 0 -194.5 -34.5t-172.5 -101.5q-104 -88 -163.5 -215t-59.5 -260zM61 737q0 152 58.5 290t169.5 247q107 105 235.5 158t278.5 53q153 0 283.5 -53.5t238.5 -159.5
q111 -109 167 -244t56 -291q0 -155 -48 -284.5t-144 -235.5q-111 -122 -251 -184t-304 -62q-314 0 -527 220.5t-213 545.5z" />
    <glyph glyph-name="P" unicode="P" horiz-adv-x="1034" 
d="M262 1313v-555h211q176 0 260 67t84 207q0 146 -84.5 213.5t-271.5 67.5h-199zM119 1456h309q133 0 213 -14t133 -45q96 -58 147.5 -150.5t51.5 -208.5q0 -110 -46.5 -203.5t-129.5 -148.5q-58 -39 -138.5 -56.5t-205.5 -17.5h-191v-612h-143v1456z" />
    <glyph glyph-name="Q" unicode="Q" horiz-adv-x="1612" 
d="M1313 174q45 -30 100.5 -43.5t132.5 -13.5h19v-127q-5 -1 -13 -1q-43 -3 -59 -3q-69 0 -146.5 26.5t-146.5 75.5q-89 -58 -188.5 -87.5t-208.5 -29.5q-312 0 -527 220.5t-215 545.5q0 152 58.5 290t169.5 247q107 105 235.5 158t278.5 53q321 0 533 -218t212 -554
q0 -162 -58 -294.5t-177 -244.5zM1202 264q97 97 148 218.5t51 256.5q0 248 -176 427.5t-424 179.5q-240 0 -415 -181t-175 -422q0 -47 6 -93.5t19 -94.5q78 37 153 54.5t158 17.5q171 0 315.5 -77.5t339.5 -285.5zM1085 178q-184 192 -297.5 251.5t-255.5 59.5
q-57 0 -116.5 -15t-130.5 -48q82 -150 222.5 -235t303.5 -85q67 0 134 18t140 54z" />
    <glyph glyph-name="R" unicode="R" horiz-adv-x="1139" 
d="M256 1313v-1313h-141v1456h391q129 0 207.5 -19.5t142.5 -64.5q87 -61 137.5 -163t50.5 -216q0 -169 -100.5 -291t-251.5 -133l352 -569h-170l-432 702h138q138 0 224.5 81t86.5 208q0 77 -26.5 140t-78.5 110q-43 39 -103.5 55.5t-215.5 16.5h-211z" />
    <glyph glyph-name="S" unicode="S" horiz-adv-x="952" 
d="M58 416h138q4 -135 76.5 -215t190.5 -80q127 0 201.5 79.5t74.5 215.5q0 198 -306 299l-36 12q-160 55 -230.5 139.5t-70.5 220.5q0 174 108.5 285t280.5 111q164 0 260 -101t107 -284h-135q-11 119 -71 183.5t-161 64.5q-108 0 -176.5 -70.5t-68.5 -179.5
q0 -57 20.5 -98.5t65.5 -75.5q46 -34 176 -76q75 -24 114 -39q142 -55 204.5 -140.5t62.5 -224.5q0 -212 -115.5 -341.5t-306.5 -129.5q-178 0 -289 122.5t-114 322.5z" />
    <glyph glyph-name="T" unicode="T" horiz-adv-x="750" 
d="M446 0h-143v1313h-291v143h725v-143h-291v-1313z" />
    <glyph glyph-name="U" unicode="U" horiz-adv-x="1157" 
d="M113 1456h143v-921q0 -107 8.5 -160t28.5 -94q39 -83 114.5 -130t170.5 -47q165 0 244 112.5t79 348.5v891h141v-926q0 -283 -112.5 -422t-341.5 -139q-245 0 -360 136t-115 425v926z" />
    <glyph glyph-name="V" unicode="V" horiz-adv-x="1139" 
d="M-41 1456h143l461 -1241l463 1241h143l-548 -1456h-113z" />
    <glyph glyph-name="W" unicode="W" horiz-adv-x="1665" 
d="M899 1456l293 -1194l364 1194h140l-451 -1456h-119l-292 1188l-293 -1188h-119l-453 1456h142l362 -1194l295 1194h131z" />
    <glyph glyph-name="X" unicode="X" horiz-adv-x="1165" 
d="M170 0h-176l506 733l-494 723h178l400 -604l399 604h176l-493 -723l505 -733h-180l-407 618z" />
    <glyph glyph-name="Y" unicode="Y" horiz-adv-x="981" 
d="M557 535v-535h-141v537l-465 919h164l372 -756l377 756h160z" />
    <glyph glyph-name="Z" unicode="Z" horiz-adv-x="938" 
d="M719 1313h-639v143h805v-137l-682 -1178h696v-141h-860v137z" />
    <glyph glyph-name="bracketleft" unicode="[" horiz-adv-x="541" 
d="M465 -293v-117h-332v1866h332v-119h-191v-1630h191z" />
    <glyph glyph-name="backslash" unicode="\" horiz-adv-x="569" 
d="M498 -190l-498 1646h119l499 -1646h-120z" />
    <glyph glyph-name="bracketright" unicode="]" horiz-adv-x="541" 
d="M76 -293h190v1630h-190v119h332v-1866h-332v117z" />
    <glyph glyph-name="asciicircum" unicode="^" horiz-adv-x="2048" 
d="M1094 1458l530 -557h-143l-457 455l-459 -455h-143l532 557h140z" />
    <glyph glyph-name="underscore" unicode="_" 
d="M1024 -383v-100h-1024v100h1024z" />
    <glyph glyph-name="grave" unicode="`" 
d="M545 1247l-269 350h152l209 -350h-92z" />
    <glyph glyph-name="a" unicode="a" horiz-adv-x="1290" 
d="M1042 557q0 175 -125 305.5t-288 130.5q-177 0 -301.5 -130.5t-124.5 -323.5q0 -184 124 -310.5t298 -126.5q168 0 292.5 133.5t124.5 321.5zM1042 174q-66 -95 -178.5 -149t-242.5 -54q-242 0 -403 165.5t-161 408.5q0 247 164.5 413t411.5 166q127 0 233 -51.5
t176 -148.5v176h138v-1100h-138v174z" />
    <glyph glyph-name="b" unicode="b" horiz-adv-x="1290" 
d="M248 1456v-459v-82q89 107 195 158t237 51q232 0 392.5 -167t160.5 -406q0 -247 -164 -413.5t-412 -166.5q-122 0 -223.5 48.5t-185.5 146.5v-166h-139v1456h139zM248 539q0 -176 124.5 -306.5t286.5 -130.5q177 0 301.5 131t124.5 324q0 183 -124 309.5t-297 126.5
t-294.5 -132t-121.5 -322z" />
    <glyph glyph-name="c" unicode="c" horiz-adv-x="1241" 
d="M993 762q-65 120 -158.5 177.5t-222.5 57.5q-170 0 -288.5 -129t-118.5 -319t119 -317.5t294 -127.5q128 0 226 63t149 177h156q-64 -179 -201 -277t-323 -98q-239 0 -403.5 169.5t-164.5 408.5q0 244 166.5 413.5t405.5 169.5q179 0 315.5 -96.5t204.5 -271.5h-156z" />
    <glyph glyph-name="d" unicode="d" horiz-adv-x="1290" 
d="M1042 539q0 188 -124.5 321t-292.5 133q-174 0 -298 -126.5t-124 -309.5q0 -193 124.5 -324t301.5 -131q163 0 288 131t125 306zM1038 926v245v285h142v-1456h-142v166q-74 -92 -184 -143.5t-233 -51.5q-238 0 -401 168t-163 412q0 242 161 407.5t403 165.5
q130 0 236.5 -50.5t180.5 -147.5z" />
    <glyph glyph-name="e" unicode="e" horiz-adv-x="1241" 
d="M1192 506h-993q13 -180 130 -291t292 -111q124 0 223 64.5t153 179.5h160q-76 -183 -213.5 -281t-318.5 -98q-240 0 -406 171t-166 411q0 251 162.5 415t415.5 164q248 0 404.5 -170.5t156.5 -443.5v-10zM1036 625q-40 185 -147 278.5t-279 93.5q-160 0 -271 -100.5
t-136 -271.5h833z" />
    <glyph glyph-name="f" unicode="f" horiz-adv-x="563" 
d="M309 0h-137v977h-147v123h141v30q0 175 88.5 259t271.5 84h13v-127q-127 -2 -179.5 -50.5t-52.5 -165.5v-30h232v-123h-230v-977z" />
    <glyph glyph-name="g" unicode="g" horiz-adv-x="1280" 
d="M301 -90q32 -96 116 -149.5t204 -53.5q188 0 301.5 125t113.5 334v29q-80 -109 -182 -164.5t-225 -55.5q-248 0 -412 165.5t-164 412.5q0 243 162 408t401 165q139 0 240.5 -50t179.5 -156v180h138v-918q0 -288 -144.5 -450t-398.5 -162q-187 0 -321 92.5t-173 247.5h164
zM203 559q0 -193 122.5 -323t295.5 -130q163 0 288 130.5t125 306.5q0 188 -123 321t-290 133q-172 0 -295 -126.5t-123 -311.5z" />
    <glyph glyph-name="h" unicode="h" horiz-adv-x="1143" 
d="M111 1456h139v-485q61 75 146.5 113t191.5 38q232 0 338 -132.5t106 -430.5v-559h-139v561q0 239 -72 332.5t-241 93.5q-96 0 -168.5 -38.5t-114.5 -110.5q-26 -45 -36.5 -102.5t-10.5 -200.5v-535h-139v1456z" />
    <glyph glyph-name="i" unicode="i" horiz-adv-x="371" 
d="M256 1229h-141v227h141v-227zM115 0v1100h141v-1100h-141z" />
    <glyph glyph-name="j" unicode="j" horiz-adv-x="371" 
d="M256 1229h-141v227h141v-227zM256 1100v-1104q0 -200 -55.5 -275t-190.5 -75h-30v131q79 0 107 29.5t28 168.5v1125h141z" />
    <glyph glyph-name="k" unicode="k" horiz-adv-x="848" 
d="M256 0h-141v1456h141v-866l397 510h162l-399 -510l485 -590h-178l-467 573v-573z" />
    <glyph glyph-name="l" unicode="l" horiz-adv-x="371" 
d="M115 0v1456h141v-1456h-141z" />
    <glyph glyph-name="m" unicode="m" horiz-adv-x="1907" 
d="M977 928q67 95 166.5 144.5t222.5 49.5q224 0 326 -134.5t102 -432.5v-555h-135v584q0 218 -72 310.5t-235 92.5q-94 0 -165.5 -38.5t-113.5 -110.5q-25 -45 -36 -102.5t-11 -200.5v-535h-133v616q0 190 -77 280.5t-236 90.5q-96 0 -168.5 -38.5t-114.5 -110.5
q-26 -45 -36.5 -102.5t-10.5 -200.5v-535h-139v1100h139v-125q63 73 148.5 110t193.5 37q125 0 228 -52.5t157 -141.5z" />
    <glyph glyph-name="n" unicode="n" horiz-adv-x="1143" 
d="M113 1100h137v-125q65 75 150.5 111t195.5 36q121 0 215.5 -45t149.5 -129q38 -59 54.5 -138.5t16.5 -234.5v-575h-139v616q0 195 -74.5 283t-238.5 88q-96 0 -168.5 -38.5t-114.5 -110.5q-26 -45 -36.5 -102.5t-10.5 -200.5v-535h-137v1100z" />
    <glyph glyph-name="o" unicode="o" horiz-adv-x="1241" 
d="M201 551q0 -190 121 -318.5t301 -128.5q177 0 297 128.5t120 320.5q0 195 -121.5 320.5t-308.5 125.5q-168 0 -288.5 -129t-120.5 -319zM53 549q0 242 166 414t393 172q239 0 407.5 -169t168.5 -403q0 -246 -165 -420t-400 -174q-239 0 -404.5 170.5t-165.5 409.5z" />
    <glyph glyph-name="p" unicode="p" horiz-adv-x="1290" 
d="M109 1100h139v-180q60 93 171.5 148.5t237.5 55.5q249 0 412.5 -165.5t163.5 -413.5q0 -242 -161.5 -408t-403.5 -166q-134 0 -241.5 52t-178.5 151v-76v-164v-290h-139v1456zM248 557q0 -188 124 -321.5t292 -133.5q173 0 297 126.5t124 310.5q0 193 -124.5 323.5
t-301.5 130.5q-163 0 -287 -131t-124 -305z" />
    <glyph glyph-name="q" unicode="q" horiz-adv-x="1290" 
d="M1038 1100h142v-1456h-142v522q-70 -93 -179 -144t-238 -51q-242 0 -403 165.5t-161 408.5q0 247 164.5 413t411.5 166q125 0 229.5 -51.5t175.5 -148.5v176zM1042 557q0 175 -125 305.5t-288 130.5q-177 0 -301.5 -130.5t-124.5 -323.5q0 -184 124 -310.5t298 -126.5
q168 0 292.5 133.5t124.5 321.5z" />
    <glyph glyph-name="r" unicode="r" horiz-adv-x="512" 
d="M254 0h-143v1100h133v-127q52 73 113.5 107t143.5 36l1 -153q-133 -12 -190.5 -79.5t-57.5 -219.5v-664z" />
    <glyph glyph-name="s" unicode="s" horiz-adv-x="797" 
d="M43 346h145v-4q0 -103 59 -170.5t146 -67.5q83 0 138 52t55 131t-43.5 127t-157.5 90q-183 65 -239 133t-56 182q0 129 93.5 219t226.5 90q141 0 224 -80t89 -223h-151q-5 78 -49.5 121t-121.5 43q-69 0 -115 -46.5t-46 -115.5q0 -49 19 -82.5t63 -60.5q40 -25 116.5 -48
t102.5 -34q103 -44 151.5 -117t48.5 -186q0 -142 -99 -235t-251 -93q-155 0 -249 101.5t-99 273.5z" />
    <glyph glyph-name="t" unicode="t" horiz-adv-x="559" 
d="M209 0v958h-209v142h209v356h141v-356h209v-142h-209v-958h-141z" />
    <glyph glyph-name="u" unicode="u" horiz-adv-x="1143" 
d="M109 1100h139v-584q0 -225 73 -318.5t240 -93.5q95 0 167 38.5t116 111.5q25 43 36 101.5t11 203.5v541h141v-1100h-141v119q-64 -78 -143 -113t-191 -35q-238 0 -343 128.5t-105 426.5v574z" />
    <glyph glyph-name="v" unicode="v" horiz-adv-x="977" 
d="M543 0h-129l-430 1100h149l352 -887l355 887h153z" />
    <glyph glyph-name="w" unicode="w" horiz-adv-x="1421" 
d="M1016 276l266 824h150l-371 -1100h-92l-258 838l-254 -838h-92l-371 1100h147l269 -824l252 824h102z" />
    <glyph glyph-name="x" unicode="x" horiz-adv-x="848" 
d="M172 1100l256 -416l274 416h162l-356 -527l354 -573h-160l-282 459l-295 -459h-156l373 571l-328 529h158z" />
    <glyph glyph-name="y" unicode="y" horiz-adv-x="944" 
d="M-33 1100h162l340 -893l356 893h164l-594 -1456h-151l147 358z" />
    <glyph glyph-name="z" unicode="z" horiz-adv-x="825" 
d="M780 0h-760v133l574 834h-510v133h666v-152l-562 -807h592v-141z" />
    <glyph glyph-name="braceleft" unicode="{" 
d="M854 1370h-37q-131 0 -177 -49.5t-46 -204.5v-242q0 -168 -43.5 -240t-153.5 -104q110 -31 153.5 -103t43.5 -241v-241q0 -155 45 -204.5t170 -49.5q7 0 22 1t23 1v-107h-47q-197 0 -266.5 72.5t-69.5 296.5v244q0 154 -57 217t-195 63q-7 0 -21.5 -1t-23.5 -1v109
q9 0 23.5 -1t21.5 -1q138 0 195 63t57 217v242q0 223 70 297t266 74h47v-107z" />
    <glyph glyph-name="bar" unicode="|" 
d="M567 1565v-2048h-108v2048h108z" />
    <glyph glyph-name="braceright" unicode="}" 
d="M555 1106v-242q0 -154 57 -217t195 -63q7 0 22 1t23 1v-109q-8 0 -23 1t-22 1q-138 0 -195 -63t-57 -217v-244q0 -223 -69.5 -296t-266.5 -73h-47v107h39q130 0 175.5 49t45.5 203v241q0 171 43 242t154 102q-111 32 -154 103t-43 241v242q0 157 -45 206.5t-170 49.5
q-7 0 -22 -1t-23 -1v107h47q196 0 266 -74t70 -297z" />
    <glyph glyph-name="asciitilde" unicode="~" horiz-adv-x="1706" 
d="M1530 637q-102 -72 -198 -107.5t-189 -35.5q-99 0 -260 57q-20 7 -29 10l-16 6q-176 64 -273 64q-83 0 -175 -38t-212 -122v113q106 73 202 109t185 36q104 0 272 -61q11 -4 18 -7q9 -3 31 -11q167 -60 257 -60q85 0 177 38t210 122v-113z" />
    <glyph glyph-name="euro" horiz-adv-x="1157" 
d="M20 643h119v168h-137l27 111h110v22q0 141 20 212.5t66 133.5q72 95 176.5 146t229.5 51q210 0 344 -129.5t143 -284.5h-145q-22 136 -112.5 210.5t-229.5 74.5q-165 0 -257.5 -101.5t-92.5 -283.5v-51h639l-27 -111h-612v-168h591l-26 -111h-565v-51q0 -181 92.5 -282
t257.5 -101q134 0 222.5 69t115.5 195h147q-8 -56 -25 -101t-47 -87q-69 -97 -176.5 -150t-236.5 -53q-125 0 -229 50.5t-179 146.5q-44 56 -64 136.5t-20 207.5v20h-145z" />
    <glyph glyph-name="euro" unicode="&#x20ac;" horiz-adv-x="1157" 
d="M20 643h119v168h-137l27 111h110v22q0 141 20 212.5t66 133.5q72 95 176.5 146t229.5 51q210 0 344 -129.5t143 -284.5h-145q-22 136 -112.5 210.5t-229.5 74.5q-165 0 -257.5 -101.5t-92.5 -283.5v-51h639l-27 -111h-612v-168h591l-26 -111h-565v-51q0 -181 92.5 -282
t257.5 -101q134 0 222.5 69t115.5 195h147q-8 -56 -25 -101t-47 -87q-69 -97 -176.5 -150t-236.5 -53q-125 0 -229 50.5t-179 146.5q-44 56 -64 136.5t-20 207.5v20h-145z" />
    <glyph glyph-name="nonbreakingspace" unicode="&#xa0;" horiz-adv-x="1157" 
 />
    <glyph glyph-name="exclamdown" unicode="&#xa1;" horiz-adv-x="588" 
d="M223 1456h142v-266h-142v266zM223 1075h142v-1075h-142v1075z" />
    <glyph glyph-name="cent" unicode="&#xa2;" horiz-adv-x="1157" 
d="M973 909q-42 134 -134 202.5t-231 68.5q-164 0 -278.5 -131.5t-114.5 -325.5q0 -193 115.5 -323t287.5 -130q129 0 224 74.5t131 204.5h147q-58 -181 -172.5 -283t-277.5 -119v-229h-133v232q-202 28 -334.5 192t-132.5 381q0 222 130 382.5t337 192.5v211h133v-206
q173 -20 287 -120t163 -274h-147z" />
    <glyph glyph-name="sterling" unicode="&#xa3;" horiz-adv-x="1157" 
d="M860 811v-141h-385q42 -75 61 -144t19 -147q0 -74 -17 -133.5t-54 -118.5q30 -3 58.5 -4.5t55.5 -1.5q188 0 278.5 69t90.5 213q0 19 -4 49.5t-13 77.5h142q8 -44 11 -70.5t3 -47.5q0 -91 -31.5 -171t-89.5 -137q-57 -55 -136.5 -79.5t-213.5 -24.5h-514v127h223
q42 52 61 108.5t19 129.5q0 78 -23 147t-82 160h-251v139h145q-22 69 -31.5 120t-9.5 95q0 196 131.5 326.5t333.5 130.5q173 0 287 -99.5t149 -279.5h-131q-26 119 -106.5 185.5t-196.5 66.5q-145 0 -236.5 -91.5t-91.5 -234.5q0 -48 13.5 -102t42.5 -117h493z" />
    <glyph glyph-name="currency" unicode="&#xa4;" horiz-adv-x="1157" 
d="M20 643h119v168h-137l27 111h110v22q0 141 20 212.5t66 133.5q72 95 176.5 146t229.5 51q210 0 344 -129.5t143 -284.5h-145q-22 136 -112.5 210.5t-229.5 74.5q-165 0 -257.5 -101.5t-92.5 -283.5v-51h639l-27 -111h-612v-168h591l-26 -111h-565v-51q0 -181 92.5 -282
t257.5 -101q134 0 222.5 69t115.5 195h147q-8 -56 -25 -101t-47 -87q-69 -97 -176.5 -150t-236.5 -53q-125 0 -229 50.5t-179 146.5q-44 56 -64 136.5t-20 207.5v20h-145z" />
    <glyph glyph-name="yen" unicode="&#xa5;" horiz-adv-x="1157" 
d="M852 946h184v-110h-243l-88 -168h331v-111h-389v-557h-141v557h-391v111h334l-87 168h-247v110h188l-258 500h162l375 -748l368 748h162z" />
    <glyph glyph-name="brokenbar" unicode="&#xa6;" 
d="M567 408v-758h-108v758h108zM567 1432v-758h-108v758h108z" />
    <glyph glyph-name="section" unicode="&#xa7;" 
d="M391 526l248 -157q67 45 97 89.5t30 100.5q0 62 -35 110.5t-121 102.5l-221 137q-68 -27 -104.5 -74t-36.5 -106q0 -54 37 -106.5t106 -96.5zM170 127h137v-12q0 -101 51 -156t144 -55q85 0 133.5 44t48.5 122q0 62 -33.5 108.5t-128.5 104.5l-215 133q-98 61 -148 131.5
t-50 146.5q0 99 48.5 171.5t149.5 125.5q-55 42 -79.5 91t-24.5 116q0 125 87.5 206t225.5 81q146 0 229.5 -83.5t83.5 -230.5v-24h-128q-2 105 -53 162t-144 57q-73 0 -117.5 -45.5t-44.5 -118.5q0 -57 35 -105.5t106 -90.5l203 -121q123 -73 174 -145t51 -169
q0 -88 -49 -159t-145 -121q53 -47 79.5 -104t26.5 -124q0 -123 -92 -202.5t-233 -79.5q-151 0 -240.5 85.5t-89.5 229.5q0 6 1 16t1 15z" />
    <glyph glyph-name="dieresis" unicode="&#xa8;" 
d="M625 1313v164h143v-164h-143zM256 1313v164h141v-164h-141z" />
    <glyph glyph-name="copyright" unicode="&#xa9;" horiz-adv-x="1706" 
d="M1073 915q-18 80 -75 124t-142 44q-122 0 -190 -95t-68 -267q0 -166 69 -260t189 -94q89 0 151 50.5t78 137.5h115q-11 -125 -108.5 -205t-241.5 -80q-177 0 -279 122t-102 335q0 203 107.5 326t283.5 123q135 0 226.5 -72t103.5 -189h-117zM1505 723q0 132 -48.5 251
t-139.5 210q-94 94 -213 143t-252 49q-132 0 -249 -48t-208 -140q-94 -96 -144 -215.5t-50 -249.5q0 -129 49.5 -247t142.5 -212q94 -93 212 -142.5t247 -49.5q130 0 250.5 50t216.5 144q91 89 138.5 206t47.5 251zM852 1456q149 0 283.5 -55.5t238.5 -159.5
q102 -102 156.5 -235.5t54.5 -282.5q0 -150 -53.5 -281t-157.5 -233q-107 -106 -242 -162.5t-280 -56.5t-278 55.5t-238 161.5q-105 104 -160 237t-55 279q0 145 56.5 279.5t162.5 242.5q101 103 232 157t280 54z" />
    <glyph glyph-name="ordfeminine" unicode="&#xaa;" horiz-adv-x="969" 
d="M782 1075q0 123 -94 215t-217 92q-132 0 -225.5 -92t-93.5 -227q0 -128 93.5 -216.5t223.5 -88.5q126 0 219.5 93t93.5 224zM782 809q-49 -67 -134 -105t-183 -38q-181 0 -301.5 116t-120.5 285q0 173 123 289.5t309 116.5q95 0 174.5 -36t132.5 -104v123h103v-770h-103
v123z" />
    <glyph glyph-name="guillemotleft" unicode="&#xab;" horiz-adv-x="934" 
d="M664 229l-246 320l246 321h137l-246 -321l246 -320h-137zM360 229l-245 320l245 321h138l-248 -321l248 -320h-138z" />
    <glyph glyph-name="logicalnot" unicode="&#xac;" horiz-adv-x="1706" 
d="M1452 858v-502h-96v402h-1102v100h1198z" />
    <glyph glyph-name="sfthyphen" unicode="&#xad;" horiz-adv-x="659" 
d="M563 616v-133h-469v133h469z" />
    <glyph glyph-name="registered" unicode="&#xae;" horiz-adv-x="1706" 
d="M850 1071h-158v-303h158q134 0 188 33.5t54 113.5q0 83 -57 119.5t-185 36.5zM874 1157q178 0 263.5 -57t85.5 -176q0 -89 -54 -149t-145 -73l188 -389h-145l-178 371h-197v-371h-127v844h309zM1505 721q0 134 -48 253t-138 210q-94 93 -213.5 142.5t-253.5 49.5
q-130 0 -246.5 -48t-208.5 -140q-95 -97 -145.5 -216.5t-50.5 -248.5t49.5 -247t142.5 -212q94 -93 212 -142.5t247 -49.5q130 0 250.5 50t216.5 144q91 89 138.5 204.5t47.5 250.5zM852 1456q152 0 285.5 -55t236.5 -160q102 -102 156.5 -235.5t54.5 -282.5
q0 -150 -53.5 -281t-157.5 -233q-107 -106 -242 -162.5t-280 -56.5q-147 0 -279.5 55.5t-236.5 161.5q-105 104 -160 237t-55 279q0 144 56.5 279.5t162.5 242.5q101 103 232 157t280 54z" />
    <glyph glyph-name="macron" unicode="&#xaf;" 
d="M256 1346v116h512v-116h-512z" />
    <glyph glyph-name="degree" unicode="&#xb0;" horiz-adv-x="674" 
d="M545 1174q0 86 -60.5 147t-146.5 61t-147.5 -61t-61.5 -147q0 -87 61 -147t148 -60t147 60t60 147zM338 1452q115 0 195.5 -81.5t80.5 -196.5t-81.5 -197t-196.5 -82q-117 0 -197 81t-80 198q0 116 81.5 197t197.5 81z" />
    <glyph glyph-name="plusminus" unicode="&#xb1;" horiz-adv-x="1706" 
d="M1452 150v-99h-1198v99h1198zM903 1169v-348h549v-98h-549v-348h-98v348h-551v98h551v348h98z" />
    <glyph glyph-name="twosuperior" unicode="&#xb2;" horiz-adv-x="764" 
d="M684 582h-596v84l340 295q97 81 131.5 133.5t34.5 107.5q0 83 -59 138t-150 55q-93 0 -149 -56.5t-56 -150.5v-25h-92v13q0 132 85.5 215.5t219.5 83.5q122 0 207.5 -80.5t85.5 -198.5q0 -69 -36 -131t-113 -127l-324 -272h471v-84z" />
    <glyph glyph-name="threesuperior" unicode="&#xb3;" horiz-adv-x="764" 
d="M168 848v-8q0 -87 59 -144t146 -57q94 0 155.5 57t61.5 146q0 99 -65 150.5t-189 51.5h-45v72q8 -1 16.5 -1.5t24.5 -0.5q94 0 142 36t48 107q0 61 -40.5 100.5t-102.5 39.5q-71 0 -110.5 -38.5t-41.5 -109.5h-88q6 104 71.5 164t172.5 60q99 0 168.5 -64t69.5 -152
q0 -52 -22.5 -90.5t-72.5 -70.5q80 -39 120 -100.5t40 -145.5q0 -121 -87.5 -203t-219.5 -82q-142 0 -223.5 75t-83.5 208h96z" />
    <glyph glyph-name="acute" unicode="&#xb4;" 
d="M479 1247h-92l209 350h152z" />
    <glyph glyph-name="mu" unicode="&#xb5;" horiz-adv-x="1110" 
d="M344 1065l-125 -592q-8 -39 -12 -73t-4 -66q0 -117 58 -180.5t167 -63.5q125 0 215 107.5t133 310.5l121 557h139l-164 -770q-12 -55 -17 -85t-5 -48q0 -33 17 -49.5t51 -16.5q7 0 16.5 0.5t19.5 1.5l-20 -110q-19 -5 -41 -8t-45 -3q-70 0 -103.5 36t-33.5 110v14
q-42 -77 -120 -119.5t-179 -42.5q-92 0 -161 40t-108 116l-114 -557h-140l316 1491h139z" />
    <glyph glyph-name="paragraph" unicode="&#xb6;" 
d="M940 1409h-127v-1409h-82v1409h-186v-1409h-84v782q-174 8 -275.5 102.5t-101.5 245.5q0 157 107.5 253t285.5 96h463v-70z" />
    <glyph glyph-name="glyph122" unicode="&#xb7;" horiz-adv-x="578" 
d="M197 729q0 39 27 66.5t65 27.5t66 -28t28 -66t-27.5 -65t-66.5 -27t-65.5 27t-26.5 65z" />
    <glyph glyph-name="cedilla" unicode="&#xb8;" 
d="M512 -111h20q107 0 163.5 -44t56.5 -128t-59 -130t-169 -46q-57 0 -116.5 9t-135.5 30v78q92 -20 145.5 -27.5t92.5 -7.5q64 0 96.5 22.5t32.5 67.5q0 55 -34.5 80t-108.5 25q-19 0 -28.5 -0.5t-18.5 -1.5v184h63v-111z" />
    <glyph glyph-name="onesuperior" unicode="&#xb9;" horiz-adv-x="764" 
d="M446 582h-100v798h-168v76h268v-874z" />
    <glyph glyph-name="ordmasculine" unicode="&#xba;" horiz-adv-x="932" 
d="M152 1071q0 -133 90 -222t225 -89q133 0 223 89.5t90 223.5q0 136 -91 224.5t-230 88.5q-127 0 -217 -90.5t-90 -224.5zM41 1071q0 169 124 289.5t294 120.5q180 0 306 -118t126 -282q0 -173 -123.5 -294t-300.5 -121q-180 0 -303 119t-123 286z" />
    <glyph glyph-name="guillemotright" unicode="&#xbb;" horiz-adv-x="934" 
d="M573 229h-135l246 320l-246 321h135l248 -321zM270 229h-137l248 320l-248 321h137l246 -321z" />
    <glyph glyph-name="onequarter" unicode="&#xbc;" horiz-adv-x="1800" 
d="M1559 227l4 494l-342 -494h338zM1645 0h-89v158h-430v69l416 588h103v-588h100v-69h-100v-158zM508 -29h-121l905 1514h119zM426 641h-96v745h-160v70h256v-815z" />
    <glyph glyph-name="onehalf" unicode="&#xbd;" horiz-adv-x="1800" 
d="M1724 0h-569v80l326 272q96 82 126.5 129.5t30.5 98.5q0 76 -56 128t-142 52q-90 0 -143.5 -53t-53.5 -142v-22h-88v12q0 124 81.5 201.5t209.5 77.5q116 0 198 -75.5t82 -185.5q0 -63 -34 -121t-109 -120l-309 -252h450v-80zM508 -29h-121l905 1514h119zM426 641h-96
v745h-160v70h256v-815z" />
    <glyph glyph-name="threequarters" unicode="&#xbe;" horiz-adv-x="1800" 
d="M1559 227l4 494l-342 -494h338zM1645 0h-89v158h-430v69l416 588h103v-588h100v-69h-100v-158zM508 -29h-121l905 1514h119zM160 889v-6q0 -81 56.5 -135t139.5 -54q90 0 148.5 53t58.5 136q0 93 -62 141.5t-182 48.5h-43l1 68q6 -1 15 -1.5t25 -0.5q91 0 137 33.5
t46 99.5q0 57 -39.5 94t-98.5 37q-67 0 -106 -36.5t-39 -100.5h-84q6 95 69 151t165 56q94 0 159.5 -59.5t65.5 -141.5q0 -49 -21 -85t-67 -67q75 -35 112 -92t37 -137q0 -112 -83.5 -189t-209.5 -77q-134 0 -211.5 70t-80.5 194h92z" />
    <glyph glyph-name="questiondown" unicode="&#xbf;" horiz-adv-x="948" 
d="M387 1058l143 1q0 -94 -38.5 -183t-114.5 -171q-18 -20 -54 -54q-126 -118 -126 -252q0 -130 70.5 -205t193.5 -75q129 0 201.5 84t78.5 241h148q-3 -213 -123 -343t-313 -130q-182 0 -295 119t-113 309q0 188 167 338q15 13 24 21q82 76 116 144.5t35 155.5zM530 1456
v-266h-143v266h143z" />
    <glyph glyph-name="Agrave" unicode="&#xc0;" horiz-adv-x="1223" 
d="M100 0h-151l565 1456h172l563 -1456h-153l-174 457h-648zM872 588l-276 731l-272 -731h548zM631 1597l-269 350h152l209 -350h-92z" />
    <glyph glyph-name="Aacute" unicode="&#xc1;" horiz-adv-x="1223" 
d="M100 0h-151l565 1456h172l563 -1456h-153l-174 457h-648zM872 588l-276 731l-272 -731h548zM565 1597h-92l209 350h152z" />
    <glyph glyph-name="Acircumflex" unicode="&#xc2;" horiz-adv-x="1223" 
d="M100 0h-151l565 1456h172l563 -1456h-153l-174 457h-648zM872 588l-276 731l-272 -731h548zM322 1597l200 350h152l200 -350h-92l-184 264l-184 -264h-92z" />
    <glyph glyph-name="Atilde" unicode="&#xc3;" horiz-adv-x="1223" 
d="M100 0h-151l565 1456h172l563 -1456h-153l-174 457h-648zM872 588l-276 731l-272 -731h548zM887 1849q-26 -91 -74 -137.5t-117 -46.5q-14 0 -30 2.5t-35 7.5l-97 31q-15 4 -27.5 6t-25.5 2q-30 0 -53.5 -19t-38.5 -55h-80q21 90 71.5 137.5t123.5 47.5q16 0 29 -2.5
t24 -6.5l96 -30q13 -5 28 -8t28 -3q33 0 56 17.5t40 56.5h82z" />
    <glyph glyph-name="Adieresis" unicode="&#xc4;" horiz-adv-x="1223" 
d="M100 0h-151l565 1456h172l563 -1456h-153l-174 457h-648zM872 588l-276 731l-272 -731h548zM711 1663v164h143v-164h-143zM342 1663v164h141v-164h-141z" />
    <glyph glyph-name="Aring" unicode="&#xc5;" horiz-adv-x="1223" 
d="M461 1743q0 -59 41 -100t100 -41q60 0 101.5 41t41.5 100t-42.5 102t-100.5 43t-99.5 -42.5t-41.5 -102.5zM371 1743q0 95 67 162t162 67t162 -67t67 -162t-67 -162.5t-162 -67.5q-96 0 -162.5 67t-66.5 163zM872 588l-276 731l-272 -731h548zM100 0h-151l565 1456h172
l563 -1456h-153l-174 457h-648z" />
    <glyph glyph-name="AE" unicode="&#xc6;" horiz-adv-x="1810" 
d="M465 627h473l6 686h-16zM367 483l-330 -483h-172l1001 1456h824v-143h-613v-510h613v-144h-613v-518h613v-141h-756v483h-567z" />
    <glyph glyph-name="Ccedilla" unicode="&#xc7;" horiz-adv-x="1540" 
d="M1296 1079q-98 136 -219 200t-276 64q-243 0 -415.5 -180t-172.5 -428q0 -264 171.5 -445t416.5 -181q151 0 273 63t212 188h170q-100 -186 -268 -287.5t-377 -101.5q-321 0 -535.5 219t-214.5 547q0 153 58 290t170 247q104 104 233.5 157.5t280.5 53.5
q217 0 390.5 -106t274.5 -300h-172zM801 -111h20q107 0 163.5 -44t56.5 -128t-59 -130t-169 -46q-57 0 -116.5 9t-135.5 30v78q92 -20 145.5 -27.5t92.5 -7.5q64 0 96.5 22.5t32.5 67.5q0 55 -34.5 80t-108.5 25q-19 0 -28.5 -0.5t-18.5 -1.5v184h63v-111z" />
    <glyph glyph-name="Egrave" unicode="&#xc8;" horiz-adv-x="1028" 
d="M279 803h612v-144h-612v-518h612v-141h-756v1456h756v-143h-612v-510zM561 1597l-269 350h152l209 -350h-92z" />
    <glyph glyph-name="Eacute" unicode="&#xc9;" horiz-adv-x="1028" 
d="M279 803h612v-144h-612v-518h612v-141h-756v1456h756v-143h-612v-510zM495 1597h-92l209 350h152z" />
    <glyph glyph-name="Ecircumflex" unicode="&#xca;" horiz-adv-x="1028" 
d="M279 803h612v-144h-612v-518h612v-141h-756v1456h756v-143h-612v-510zM252 1597l200 350h152l200 -350h-92l-184 264l-184 -264h-92z" />
    <glyph glyph-name="Edieresis" unicode="&#xcb;" horiz-adv-x="1028" 
d="M279 803h612v-144h-612v-518h612v-141h-756v1456h756v-143h-612v-510zM641 1663v164h143v-164h-143zM272 1663v164h141v-164h-141z" />
    <glyph glyph-name="Igrave" unicode="&#xcc;" horiz-adv-x="412" 
d="M276 0h-143v1456h143v-1456zM240 1597l-269 350h152l209 -350h-92z" />
    <glyph glyph-name="Iacute" unicode="&#xcd;" horiz-adv-x="412" 
d="M276 0h-143v1456h143v-1456zM174 1597h-92l209 350h152z" />
    <glyph glyph-name="Icircumflex" unicode="&#xce;" horiz-adv-x="412" 
d="M276 0h-143v1456h143v-1456zM-69 1597l200 350h152l200 -350h-92l-184 264l-184 -264h-92z" />
    <glyph glyph-name="Idieresis" unicode="&#xcf;" horiz-adv-x="412" 
d="M276 0h-143v1456h143v-1456zM320 1663v164h143v-164h-143zM-49 1663v164h141v-164h-141z" />
    <glyph glyph-name="Eth" unicode="&#xd0;" horiz-adv-x="1380" 
d="M600 1317h-309v-522h358v-127h-358v-531h336q245 0 391.5 163t146.5 435q0 268 -151.5 425t-413.5 157zM150 0v668h-154v127h154v661h438q328 0 529.5 -203t201.5 -530q0 -184 -76 -338.5t-219 -259.5q-91 -68 -194 -96.5t-302 -28.5h-378z" />
    <glyph glyph-name="Ntilde" unicode="&#xd1;" horiz-adv-x="1366" 
d="M1102 174l-17 1282h142v-1456h-172l-799 1284l16 -1284h-141v1456h172zM973 1849q-26 -91 -74 -137.5t-117 -46.5q-14 0 -30 2.5t-35 7.5l-97 31q-15 4 -27.5 6t-25.5 2q-30 0 -53.5 -19t-38.5 -55h-80q21 90 71.5 137.5t123.5 47.5q16 0 29 -2.5t24 -6.5l96 -30
q13 -5 28 -8t28 -3q33 0 56 17.5t40 56.5h82z" />
    <glyph glyph-name="Ograve" unicode="&#xd2;" horiz-adv-x="1612" 
d="M211 735q0 -266 173 -446t427 -180q248 0 419 182t171 448q0 248 -176 427.5t-424 179.5q-101 0 -194.5 -34.5t-172.5 -101.5q-104 -88 -163.5 -215t-59.5 -260zM61 737q0 152 58.5 290t169.5 247q107 105 235.5 158t278.5 53q153 0 283.5 -53.5t238.5 -159.5
q111 -109 167 -244t56 -291q0 -155 -48 -284.5t-144 -235.5q-111 -122 -251 -184t-304 -62q-314 0 -527 220.5t-213 545.5zM840 1597l-269 350h152l209 -350h-92z" />
    <glyph glyph-name="Oacute" unicode="&#xd3;" horiz-adv-x="1612" 
d="M211 735q0 -266 173 -446t427 -180q248 0 419 182t171 448q0 248 -176 427.5t-424 179.5q-101 0 -194.5 -34.5t-172.5 -101.5q-104 -88 -163.5 -215t-59.5 -260zM61 737q0 152 58.5 290t169.5 247q107 105 235.5 158t278.5 53q153 0 283.5 -53.5t238.5 -159.5
q111 -109 167 -244t56 -291q0 -155 -48 -284.5t-144 -235.5q-111 -122 -251 -184t-304 -62q-314 0 -527 220.5t-213 545.5zM774 1597h-92l209 350h152z" />
    <glyph glyph-name="Ocircumflex" unicode="&#xd4;" horiz-adv-x="1612" 
d="M211 735q0 -266 173 -446t427 -180q248 0 419 182t171 448q0 248 -176 427.5t-424 179.5q-101 0 -194.5 -34.5t-172.5 -101.5q-104 -88 -163.5 -215t-59.5 -260zM61 737q0 152 58.5 290t169.5 247q107 105 235.5 158t278.5 53q153 0 283.5 -53.5t238.5 -159.5
q111 -109 167 -244t56 -291q0 -155 -48 -284.5t-144 -235.5q-111 -122 -251 -184t-304 -62q-314 0 -527 220.5t-213 545.5zM531 1597l200 350h152l200 -350h-92l-184 264l-184 -264h-92z" />
    <glyph glyph-name="Otilde" unicode="&#xd5;" horiz-adv-x="1612" 
d="M211 735q0 -266 173 -446t427 -180q248 0 419 182t171 448q0 248 -176 427.5t-424 179.5q-101 0 -194.5 -34.5t-172.5 -101.5q-104 -88 -163.5 -215t-59.5 -260zM61 737q0 152 58.5 290t169.5 247q107 105 235.5 158t278.5 53q153 0 283.5 -53.5t238.5 -159.5
q111 -109 167 -244t56 -291q0 -155 -48 -284.5t-144 -235.5q-111 -122 -251 -184t-304 -62q-314 0 -527 220.5t-213 545.5zM1096 1849q-26 -91 -74 -137.5t-117 -46.5q-14 0 -30 2.5t-35 7.5l-97 31q-15 4 -27.5 6t-25.5 2q-30 0 -53.5 -19t-38.5 -55h-80q21 90 71.5 137.5
t123.5 47.5q16 0 29 -2.5t24 -6.5l96 -30q13 -5 28 -8t28 -3q33 0 56 17.5t40 56.5h82z" />
    <glyph glyph-name="Odieresis" unicode="&#xd6;" horiz-adv-x="1612" 
d="M211 735q0 -266 173 -446t427 -180q248 0 419 182t171 448q0 248 -176 427.5t-424 179.5q-101 0 -194.5 -34.5t-172.5 -101.5q-104 -88 -163.5 -215t-59.5 -260zM61 737q0 152 58.5 290t169.5 247q107 105 235.5 158t278.5 53q153 0 283.5 -53.5t238.5 -159.5
q111 -109 167 -244t56 -291q0 -155 -48 -284.5t-144 -235.5q-111 -122 -251 -184t-304 -62q-314 0 -527 220.5t-213 545.5zM920 1663v164h143v-164h-143zM551 1663v164h141v-164h-141z" />
    <glyph glyph-name="multiply" unicode="&#xd7;" horiz-adv-x="1706" 
d="M856 680l481 481l70 -69l-481 -482l481 -481l-70 -70l-481 482l-481 -482l-70 70l481 481l-481 482l70 69z" />
    <glyph glyph-name="Oslash" unicode="&#xd8;" horiz-adv-x="1612" 
d="M377 303l770 928q-81 60 -159 87.5t-171 27.5q-254 0 -428 -179.5t-174 -431.5q0 -126 42 -238.5t120 -193.5zM1237 1147l-768 -924q85 -58 166 -85t168 -27q253 0 425.5 181t172.5 443q0 119 -41 221t-123 191zM283 188q-110 119 -165 257t-55 294q0 153 58 289t170 246
q107 105 237.5 158t284.5 53q122 0 226.5 -34.5t201.5 -107.5l172 207l96 -75l-178 -213q108 -104 162.5 -235.5t54.5 -289.5q0 -327 -214 -545.5t-531 -218.5q-123 0 -222.5 33t-203.5 107l-207 -250l-94 78z" />
    <glyph glyph-name="Ugrave" unicode="&#xd9;" horiz-adv-x="1157" 
d="M113 1456h143v-921q0 -107 8.5 -160t28.5 -94q39 -83 114.5 -130t170.5 -47q165 0 244 112.5t79 348.5v891h141v-926q0 -283 -112.5 -422t-341.5 -139q-245 0 -360 136t-115 425v926zM613 1597l-269 350h152l209 -350h-92z" />
    <glyph glyph-name="Uacute" unicode="&#xda;" horiz-adv-x="1157" 
d="M113 1456h143v-921q0 -107 8.5 -160t28.5 -94q39 -83 114.5 -130t170.5 -47q165 0 244 112.5t79 348.5v891h141v-926q0 -283 -112.5 -422t-341.5 -139q-245 0 -360 136t-115 425v926zM547 1597h-92l209 350h152z" />
    <glyph glyph-name="Ucircumflex" unicode="&#xdb;" horiz-adv-x="1157" 
d="M113 1456h143v-921q0 -107 8.5 -160t28.5 -94q39 -83 114.5 -130t170.5 -47q165 0 244 112.5t79 348.5v891h141v-926q0 -283 -112.5 -422t-341.5 -139q-245 0 -360 136t-115 425v926zM304 1597l200 350h152l200 -350h-92l-184 264l-184 -264h-92z" />
    <glyph glyph-name="Udieresis" unicode="&#xdc;" horiz-adv-x="1157" 
d="M113 1456h143v-921q0 -107 8.5 -160t28.5 -94q39 -83 114.5 -130t170.5 -47q165 0 244 112.5t79 348.5v891h141v-926q0 -283 -112.5 -422t-341.5 -139q-245 0 -360 136t-115 425v926zM693 1663v164h143v-164h-143zM324 1663v164h141v-164h-141z" />
    <glyph glyph-name="Yacute" unicode="&#xdd;" horiz-adv-x="981" 
d="M557 535v-535h-141v537l-465 919h164l372 -756l377 756h160zM459 1597h-92l209 350h152z" />
    <glyph glyph-name="Thorn" unicode="&#xde;" horiz-adv-x="1034" 
d="M262 1030v-553h211q170 0 256 70t86 209q0 70 -28 129.5t-78 95.5q-37 26 -85 37.5t-163 11.5h-199zM119 1456h143v-282h193q124 0 194 -12.5t119 -41.5q94 -56 149.5 -152t55.5 -206q0 -198 -139 -315t-381 -117h-191v-330h-143v1456z" />
    <glyph glyph-name="germandbls" unicode="&#xdf;" horiz-adv-x="1200" 
d="M256 981v-623h139q40 -128 113 -192t180 -64q122 0 211.5 85.5t89.5 201.5q0 147 -100 222t-295 75h-90v115h6q134 0 211.5 72t77.5 196q0 117 -77.5 191.5t-197.5 74.5q-124 0 -196 -75.5t-72 -206.5v-72zM115 965q0 257 101.5 381t311.5 124q186 0 303 -112.5
t117 -288.5q0 -101 -39.5 -170t-109.5 -90q163 -38 251.5 -140.5t88.5 -254.5q0 -189 -130 -316t-325 -127q-158 0 -262.5 77.5t-165.5 240.5v-289h-141v965z" />
    <glyph glyph-name="agrave" unicode="&#xe0;" horiz-adv-x="1290" 
d="M1042 557q0 175 -125 305.5t-288 130.5q-177 0 -301.5 -130.5t-124.5 -323.5q0 -184 124 -310.5t298 -126.5q168 0 292.5 133.5t124.5 321.5zM1042 174q-66 -95 -178.5 -149t-242.5 -54q-242 0 -403 165.5t-161 408.5q0 247 164.5 413t411.5 166q127 0 233 -51.5
t176 -148.5v176h138v-1100h-138v174zM668 1247l-269 350h152l209 -350h-92z" />
    <glyph glyph-name="aacute" unicode="&#xe1;" horiz-adv-x="1290" 
d="M1042 557q0 175 -125 305.5t-288 130.5q-177 0 -301.5 -130.5t-124.5 -323.5q0 -184 124 -310.5t298 -126.5q168 0 292.5 133.5t124.5 321.5zM1042 174q-66 -95 -178.5 -149t-242.5 -54q-242 0 -403 165.5t-161 408.5q0 247 164.5 413t411.5 166q127 0 233 -51.5
t176 -148.5v176h138v-1100h-138v174zM602 1247h-92l209 350h152z" />
    <glyph glyph-name="acircumflex" unicode="&#xe2;" horiz-adv-x="1290" 
d="M1042 557q0 175 -125 305.5t-288 130.5q-177 0 -301.5 -130.5t-124.5 -323.5q0 -184 124 -310.5t298 -126.5q168 0 292.5 133.5t124.5 321.5zM1042 174q-66 -95 -178.5 -149t-242.5 -54q-242 0 -403 165.5t-161 408.5q0 247 164.5 413t411.5 166q127 0 233 -51.5
t176 -148.5v176h138v-1100h-138v174zM359 1247l200 350h152l200 -350h-92l-184 264l-184 -264h-92z" />
    <glyph glyph-name="atilde" unicode="&#xe3;" horiz-adv-x="1290" 
d="M1042 557q0 175 -125 305.5t-288 130.5q-177 0 -301.5 -130.5t-124.5 -323.5q0 -184 124 -310.5t298 -126.5q168 0 292.5 133.5t124.5 321.5zM1042 174q-66 -95 -178.5 -149t-242.5 -54q-242 0 -403 165.5t-161 408.5q0 247 164.5 413t411.5 166q127 0 233 -51.5
t176 -148.5v176h138v-1100h-138v174zM924 1499q-26 -91 -74 -137.5t-117 -46.5q-14 0 -30 2.5t-35 7.5l-97 31q-15 4 -27.5 6t-25.5 2q-30 0 -53.5 -19t-38.5 -55h-80q21 90 71.5 137.5t123.5 47.5q16 0 29 -2.5t24 -6.5l96 -30q13 -5 28 -8t28 -3q33 0 56 17.5t40 56.5h82z
" />
    <glyph glyph-name="adieresis" unicode="&#xe4;" horiz-adv-x="1290" 
d="M1042 557q0 175 -125 305.5t-288 130.5q-177 0 -301.5 -130.5t-124.5 -323.5q0 -184 124 -310.5t298 -126.5q168 0 292.5 133.5t124.5 321.5zM1042 174q-66 -95 -178.5 -149t-242.5 -54q-242 0 -403 165.5t-161 408.5q0 247 164.5 413t411.5 166q127 0 233 -51.5
t176 -148.5v176h138v-1100h-138v174zM748 1313v164h143v-164h-143zM379 1313v164h141v-164h-141z" />
    <glyph glyph-name="aring" unicode="&#xe5;" horiz-adv-x="1290" 
d="M506 1413q0 -59 41.5 -101t99.5 -42q59 0 101.5 42t42.5 101q0 58 -42.5 100.5t-101.5 42.5q-58 0 -99.5 -41.5t-41.5 -101.5zM416 1411q0 95 67 162t162 67q96 0 164 -67t68 -162t-68 -162t-164 -67t-162.5 66.5t-66.5 162.5zM1042 174q-66 -95 -178.5 -149t-242.5 -54
q-242 0 -403 165.5t-161 408.5q0 247 164.5 413t411.5 166q127 0 233 -51.5t176 -148.5v176h138v-1100h-138v174zM1042 557q0 175 -125 305.5t-288 130.5q-177 0 -301.5 -130.5t-124.5 -323.5q0 -184 124 -310.5t298 -126.5q168 0 292.5 133.5t124.5 321.5z" />
    <glyph glyph-name="ae" unicode="&#xe6;" horiz-adv-x="2228" 
d="M1180 0h-142v154q-88 -95 -189.5 -140t-227.5 -45q-242 0 -403 166.5t-161 409.5q0 247 164.5 413t411.5 166q114 0 212.5 -44t192.5 -138v158h142v-162q91 95 198.5 140.5t237.5 45.5q245 0 402 -169.5t157 -438.5v-14h-987q13 -177 131 -288.5t289 -111.5
q123 0 221.5 63.5t152.5 178.5h158q-75 -181 -211.5 -278t-316.5 -97q-136 0 -241.5 45t-190.5 140v-154zM2023 625q-36 177 -144.5 274.5t-268.5 97.5q-164 0 -276 -99.5t-142 -272.5h831zM1042 557q0 176 -125.5 308t-287.5 132q-176 0 -301 -132.5t-125 -325.5
q0 -184 124 -310.5t298 -126.5q168 0 292.5 133.5t124.5 321.5z" />
    <glyph glyph-name="ccedilla" unicode="&#xe7;" horiz-adv-x="1241" 
d="M993 762q-65 120 -158.5 177.5t-222.5 57.5q-170 0 -288.5 -129t-118.5 -319t119 -317.5t294 -127.5q128 0 226 63t149 177h156q-64 -179 -201 -277t-323 -98q-239 0 -403.5 169.5t-164.5 408.5q0 244 166.5 413.5t405.5 169.5q179 0 315.5 -96.5t204.5 -271.5h-156z
M621 -111h20q107 0 163.5 -44t56.5 -128t-59 -130t-169 -46q-57 0 -116.5 9t-135.5 30v78q92 -20 145.5 -27.5t92.5 -7.5q64 0 96.5 22.5t32.5 67.5q0 55 -34.5 80t-108.5 25q-19 0 -28.5 -0.5t-18.5 -1.5v184h63v-111z" />
    <glyph glyph-name="egrave" unicode="&#xe8;" horiz-adv-x="1241" 
d="M1192 506h-993q13 -180 130 -291t292 -111q124 0 223 64.5t153 179.5h160q-76 -183 -213.5 -281t-318.5 -98q-240 0 -406 171t-166 411q0 251 162.5 415t415.5 164q248 0 404.5 -170.5t156.5 -443.5v-10zM1036 625q-40 185 -147 278.5t-279 93.5q-160 0 -271 -100.5
t-136 -271.5h833zM666 1247l-269 350h152l209 -350h-92z" />
    <glyph glyph-name="eacute" unicode="&#xe9;" horiz-adv-x="1241" 
d="M1192 506h-993q13 -180 130 -291t292 -111q124 0 223 64.5t153 179.5h160q-76 -183 -213.5 -281t-318.5 -98q-240 0 -406 171t-166 411q0 251 162.5 415t415.5 164q248 0 404.5 -170.5t156.5 -443.5v-10zM1036 625q-40 185 -147 278.5t-279 93.5q-160 0 -271 -100.5
t-136 -271.5h833zM600 1247h-92l209 350h152z" />
    <glyph glyph-name="ecircumflex" unicode="&#xea;" horiz-adv-x="1241" 
d="M1192 506h-993q13 -180 130 -291t292 -111q124 0 223 64.5t153 179.5h160q-76 -183 -213.5 -281t-318.5 -98q-240 0 -406 171t-166 411q0 251 162.5 415t415.5 164q248 0 404.5 -170.5t156.5 -443.5v-10zM1036 625q-40 185 -147 278.5t-279 93.5q-160 0 -271 -100.5
t-136 -271.5h833zM357 1247l200 350h152l200 -350h-92l-184 264l-184 -264h-92z" />
    <glyph glyph-name="edieresis" unicode="&#xeb;" horiz-adv-x="1241" 
d="M1192 506h-993q13 -180 130 -291t292 -111q124 0 223 64.5t153 179.5h160q-76 -183 -213.5 -281t-318.5 -98q-240 0 -406 171t-166 411q0 251 162.5 415t415.5 164q248 0 404.5 -170.5t156.5 -443.5v-10zM1036 625q-40 185 -147 278.5t-279 93.5q-160 0 -271 -100.5
t-136 -271.5h833zM746 1313v164h143v-164h-143zM377 1313v164h141v-164h-141z" />
    <glyph glyph-name="igrave" unicode="&#xec;" horiz-adv-x="371" 
d="M115 0v1100h141v-1100h-141zM219 1247l-269 350h152l209 -350h-92z" />
    <glyph glyph-name="iacute" unicode="&#xed;" horiz-adv-x="371" 
d="M115 0v1100h141v-1100h-141zM153 1247h-92l209 350h152z" />
    <glyph glyph-name="icircumflex" unicode="&#xee;" horiz-adv-x="371" 
d="M115 0v1100h141v-1100h-141zM-90 1247l200 350h152l200 -350h-92l-184 264l-184 -264h-92z" />
    <glyph glyph-name="idieresis" unicode="&#xef;" horiz-adv-x="371" 
d="M115 0v1100h141v-1100h-141zM299 1313v164h143v-164h-143zM-70 1313v164h141v-164h-141z" />
    <glyph glyph-name="eth" unicode="&#xf0;" horiz-adv-x="1241" 
d="M612 936q-167 0 -288 -121.5t-121 -296.5q0 -177 120 -295.5t300 -118.5q179 0 298 121t119 305q0 173 -122 289.5t-306 116.5zM983 915q-34 92 -91 169.5t-136 138.5l-269 -99l-36 82l223 84q-34 21 -74 42.5t-86 43.5l43 92q77 -34 136 -65.5t110 -65.5l287 103l34 -80
l-237 -88q146 -136 223.5 -310.5t77.5 -369.5q0 -279 -158 -450t-409 -171q-238 0 -403 159t-165 380q0 222 166 382.5t393 160.5q100 0 188 -32.5t183 -105.5z" />
    <glyph glyph-name="ntilde" unicode="&#xf1;" horiz-adv-x="1143" 
d="M113 1100h137v-125q65 75 150.5 111t195.5 36q121 0 215.5 -45t149.5 -129q38 -59 54.5 -138.5t16.5 -234.5v-575h-139v616q0 195 -74.5 283t-238.5 88q-96 0 -168.5 -38.5t-114.5 -110.5q-26 -45 -36.5 -102.5t-10.5 -200.5v-535h-137v1100zM873 1499
q-26 -91 -74 -137.5t-117 -46.5q-14 0 -30 2.5t-35 7.5l-97 31q-15 4 -27.5 6t-25.5 2q-30 0 -53.5 -19t-38.5 -55h-80q21 90 71.5 137.5t123.5 47.5q16 0 29 -2.5t24 -6.5l96 -30q13 -5 28 -8t28 -3q33 0 56 17.5t40 56.5h82z" />
    <glyph glyph-name="ograve" unicode="&#xf2;" horiz-adv-x="1241" 
d="M201 551q0 -190 121 -318.5t301 -128.5q177 0 297 128.5t120 320.5q0 195 -121.5 320.5t-308.5 125.5q-168 0 -288.5 -129t-120.5 -319zM53 549q0 242 166 414t393 172q239 0 407.5 -169t168.5 -403q0 -246 -165 -420t-400 -174q-239 0 -404.5 170.5t-165.5 409.5z
M664 1247l-269 350h152l209 -350h-92z" />
    <glyph glyph-name="oacute" unicode="&#xf3;" horiz-adv-x="1241" 
d="M201 551q0 -190 121 -318.5t301 -128.5q177 0 297 128.5t120 320.5q0 195 -121.5 320.5t-308.5 125.5q-168 0 -288.5 -129t-120.5 -319zM53 549q0 242 166 414t393 172q239 0 407.5 -169t168.5 -403q0 -246 -165 -420t-400 -174q-239 0 -404.5 170.5t-165.5 409.5z
M598 1247h-92l209 350h152z" />
    <glyph glyph-name="ocircumflex" unicode="&#xf4;" horiz-adv-x="1241" 
d="M201 551q0 -190 121 -318.5t301 -128.5q177 0 297 128.5t120 320.5q0 195 -121.5 320.5t-308.5 125.5q-168 0 -288.5 -129t-120.5 -319zM53 549q0 242 166 414t393 172q239 0 407.5 -169t168.5 -403q0 -246 -165 -420t-400 -174q-239 0 -404.5 170.5t-165.5 409.5z
M355 1247l200 350h152l200 -350h-92l-184 264l-184 -264h-92z" />
    <glyph glyph-name="otilde" unicode="&#xf5;" horiz-adv-x="1241" 
d="M201 551q0 -190 121 -318.5t301 -128.5q177 0 297 128.5t120 320.5q0 195 -121.5 320.5t-308.5 125.5q-168 0 -288.5 -129t-120.5 -319zM53 549q0 242 166 414t393 172q239 0 407.5 -169t168.5 -403q0 -246 -165 -420t-400 -174q-239 0 -404.5 170.5t-165.5 409.5z
M920 1499q-26 -91 -74 -137.5t-117 -46.5q-14 0 -30 2.5t-35 7.5l-97 31q-15 4 -27.5 6t-25.5 2q-30 0 -53.5 -19t-38.5 -55h-80q21 90 71.5 137.5t123.5 47.5q16 0 29 -2.5t24 -6.5l96 -30q13 -5 28 -8t28 -3q33 0 56 17.5t40 56.5h82z" />
    <glyph glyph-name="odieresis" unicode="&#xf6;" horiz-adv-x="1241" 
d="M201 551q0 -190 121 -318.5t301 -128.5q177 0 297 128.5t120 320.5q0 195 -121.5 320.5t-308.5 125.5q-168 0 -288.5 -129t-120.5 -319zM53 549q0 242 166 414t393 172q239 0 407.5 -169t168.5 -403q0 -246 -165 -420t-400 -174q-239 0 -404.5 170.5t-165.5 409.5z
M744 1313v164h143v-164h-143zM375 1313v164h141v-164h-141z" />
    <glyph glyph-name="divide" unicode="&#xf7;" horiz-adv-x="1706" 
d="M854 365q45 0 76 -31t31 -76q0 -44 -31 -75t-76 -31t-75.5 31t-30.5 75t31 75.5t75 31.5zM1452 659v-98h-1198v98h1198zM854 1071q44 0 75.5 -32t31.5 -76q0 -45 -31 -76t-76 -31t-75.5 30.5t-30.5 76.5q0 44 31.5 76t74.5 32z" />
    <glyph glyph-name="oslash" unicode="&#xf8;" horiz-adv-x="1241" 
d="M115 -137l-84 80l176 211q-73 77 -113.5 181t-40.5 214q0 244 165.5 414t402.5 170q89 0 170 -26t149 -75l168 201l92 -72l-172 -207q77 -78 118.5 -181.5t41.5 -217.5q0 -242 -167 -414t-411 -172q-87 0 -163.5 25.5t-153.5 79.5zM381 180q53 -39 107.5 -57.5
t119.5 -18.5q189 0 310.5 126.5t121.5 324.5q0 82 -24 154t-74 141zM852 926q-41 35 -101 54t-128 19q-180 0 -301 -127t-121 -321q0 -84 23.5 -156t70.5 -135z" />
    <glyph glyph-name="ugrave" unicode="&#xf9;" horiz-adv-x="1143" 
d="M109 1100h139v-584q0 -225 73 -318.5t240 -93.5q95 0 167 38.5t116 111.5q25 43 36 101.5t11 203.5v541h141v-1100h-141v119q-64 -78 -143 -113t-191 -35q-238 0 -343 128.5t-105 426.5v574zM598 1247l-269 350h152l209 -350h-92z" />
    <glyph glyph-name="uacute" unicode="&#xfa;" horiz-adv-x="1143" 
d="M109 1100h139v-584q0 -225 73 -318.5t240 -93.5q95 0 167 38.5t116 111.5q25 43 36 101.5t11 203.5v541h141v-1100h-141v119q-64 -78 -143 -113t-191 -35q-238 0 -343 128.5t-105 426.5v574zM532 1247h-92l209 350h152z" />
    <glyph glyph-name="ucircumflex" unicode="&#xfb;" horiz-adv-x="1143" 
d="M109 1100h139v-584q0 -225 73 -318.5t240 -93.5q95 0 167 38.5t116 111.5q25 43 36 101.5t11 203.5v541h141v-1100h-141v119q-64 -78 -143 -113t-191 -35q-238 0 -343 128.5t-105 426.5v574zM289 1247l200 350h152l200 -350h-92l-184 264l-184 -264h-92z" />
    <glyph glyph-name="udieresis" unicode="&#xfc;" horiz-adv-x="1143" 
d="M109 1100h139v-584q0 -225 73 -318.5t240 -93.5q95 0 167 38.5t116 111.5q25 43 36 101.5t11 203.5v541h141v-1100h-141v119q-64 -78 -143 -113t-191 -35q-238 0 -343 128.5t-105 426.5v574zM678 1313v164h143v-164h-143zM309 1313v164h141v-164h-141z" />
    <glyph glyph-name="yacute" unicode="&#xfd;" horiz-adv-x="944" 
d="M-33 1100h162l340 -893l356 893h164l-594 -1456h-151l147 358zM440 1247h-92l209 350h152z" />
    <glyph glyph-name="thorn" unicode="&#xfe;" horiz-adv-x="1290" 
d="M659 993q-165 0 -288 -131t-123 -311q0 -183 125 -316t291 -133q173 0 297 126.5t124 310.5q0 194 -124 324t-302 130zM252 174v-240v-290h-143v1812h143l-4 -536q60 93 171.5 148.5t237.5 55.5q246 0 411 -164t165 -401q0 -254 -160 -421t-405 -167q-134 0 -241.5 52.5
t-174.5 150.5z" />
    <glyph glyph-name="ydieresis" unicode="&#xff;" horiz-adv-x="944" 
d="M-33 1100h162l340 -893l356 893h164l-594 -1456h-151l147 358zM586 1313v164h143v-164h-143zM217 1313v164h141v-164h-141z" />
    <glyph glyph-name="Cacute" unicode="&#x106;" horiz-adv-x="1540" 
d="M1296 1079q-98 136 -219 200t-276 64q-243 0 -415.5 -180t-172.5 -428q0 -264 171.5 -445t416.5 -181q151 0 273 63t212 188h170q-100 -186 -268 -287.5t-377 -101.5q-321 0 -535.5 219t-214.5 547q0 153 58 290t170 247q104 104 233.5 157.5t280.5 53.5
q217 0 390.5 -106t274.5 -300h-172zM768 1597h-92l209 350h152z" />
    <glyph glyph-name="cacute" unicode="&#x107;" horiz-adv-x="1241" 
d="M993 762q-65 120 -158.5 177.5t-222.5 57.5q-170 0 -288.5 -129t-118.5 -319t119 -317.5t294 -127.5q128 0 226 63t149 177h156q-64 -179 -201 -277t-323 -98q-239 0 -403.5 169.5t-164.5 408.5q0 244 166.5 413.5t405.5 169.5q179 0 315.5 -96.5t204.5 -271.5h-156z
M588 1247h-92l209 350h152z" />
    <glyph glyph-name="Ccaron" unicode="&#x10c;" horiz-adv-x="1540" 
d="M1296 1079q-98 136 -219 200t-276 64q-243 0 -415.5 -180t-172.5 -428q0 -264 171.5 -445t416.5 -181q151 0 273 63t212 188h170q-100 -186 -268 -287.5t-377 -101.5q-321 0 -535.5 219t-214.5 547q0 153 58 290t170 247q104 104 233.5 157.5t280.5 53.5
q217 0 390.5 -106t274.5 -300h-172zM525 1947h92l184 -262l184 262h92l-200 -348h-152z" />
    <glyph glyph-name="ccaron" unicode="&#x10d;" horiz-adv-x="1241" 
d="M993 762q-65 120 -158.5 177.5t-222.5 57.5q-170 0 -288.5 -129t-118.5 -319t119 -317.5t294 -127.5q128 0 226 63t149 177h156q-64 -179 -201 -277t-323 -98q-239 0 -403.5 169.5t-164.5 408.5q0 244 166.5 413.5t405.5 169.5q179 0 315.5 -96.5t204.5 -271.5h-156z
M345 1597h92l184 -262l184 262h92l-200 -348h-152z" />
    <glyph glyph-name="dcroat" unicode="&#x111;" horiz-adv-x="1305" 
d="M1042 539q0 188 -124.5 321t-292.5 133q-174 0 -298 -126.5t-124 -309.5q0 -193 124.5 -324t301.5 -131q163 0 288 131t125 306zM1044 926q-3 52 -4.5 106t-1.5 139v23h-293v109h293v153h142v-153h149v-109h-149v-1194h-138v166q-77 -93 -188 -144t-233 -51
q-238 0 -401 168t-163 412q0 242 161 407.5t403 165.5q129 0 236.5 -50t186.5 -148z" />
    <glyph glyph-name="Gbreve" unicode="&#x11e;" horiz-adv-x="1612" 
d="M643 698h905q-18 -318 -229 -522.5t-518 -204.5q-315 0 -527.5 220t-212.5 546q0 153 58 290t170 247q108 107 239 159t291 52q212 0 380.5 -102.5t270.5 -292.5h-176q-103 131 -220.5 193.5t-262.5 62.5q-251 0 -424.5 -179.5t-173.5 -431.5q0 -268 173 -447t427 -179
q200 0 358.5 128t206.5 332h-735v129zM533 1904h79q6 -75 53 -110t142 -35q96 0 141 34.5t52 110.5h81q-9 -136 -74.5 -199t-199.5 -63q-133 0 -199 63.5t-75 198.5z" />
    <glyph glyph-name="gbreve" unicode="&#x11f;" horiz-adv-x="1280" 
d="M301 -90q32 -96 116 -149.5t204 -53.5q188 0 301.5 125t113.5 334v29q-80 -109 -182 -164.5t-225 -55.5q-248 0 -412 165.5t-164 412.5q0 243 162 408t401 165q139 0 240.5 -50t179.5 -156v180h138v-918q0 -288 -144.5 -450t-398.5 -162q-187 0 -321 92.5t-173 247.5h164
zM203 559q0 -193 122.5 -323t295.5 -130q163 0 288 130.5t125 306.5q0 188 -123 321t-290 133q-172 0 -295 -126.5t-123 -311.5zM367 1554h79q6 -75 53 -110t142 -35q96 0 141 34.5t52 110.5h81q-9 -136 -74.5 -199t-199.5 -63q-133 0 -199 63.5t-75 198.5z" />
    <glyph glyph-name="Idotaccent" unicode="&#x130;" horiz-adv-x="412" 
d="M276 0h-143v1456h143v-1456zM131 1669v176h152v-176h-152z" />
    <glyph glyph-name="dotlessi" unicode="&#x131;" horiz-adv-x="371" 
d="M115 0v1100h141v-1100h-141z" />
    <glyph glyph-name="Lslash" unicode="&#x141;" horiz-adv-x="858" 
d="M805 0h-655v575l-150 -106v143l150 105v739h143v-641l256 178v-145l-256 -176v-531h512v-141z" />
    <glyph glyph-name="lslash" unicode="&#x142;" horiz-adv-x="389" 
d="M133 0v645l-133 -92v139l133 94v670h141v-577l134 94v-142l-134 -92v-739h-141z" />
    <glyph glyph-name="OE" unicode="&#x152;" horiz-adv-x="2232" 
d="M1393 260q-124 -148 -268 -218.5t-324 -70.5q-314 0 -527 220.5t-213 545.5q0 152 58.5 290t169.5 247q107 105 235.5 158t278.5 53q184 0 334 -74t256 -217v262h755v-143h-612v-510h612v-144h-612v-518h612v-141h-755v260zM211 735q0 -266 173 -446t427 -180
q248 0 419 182t171 448q0 248 -176 427.5t-424 179.5q-101 0 -194.5 -34.5t-172.5 -101.5q-104 -88 -163.5 -215t-59.5 -260z" />
    <glyph glyph-name="oe" unicode="&#x153;" horiz-adv-x="2228" 
d="M2175 502h-987q13 -176 131 -287t289 -111q124 0 222 63t152 177h158q-73 -181 -212.5 -278t-325.5 -97q-161 0 -283.5 75.5t-204.5 223.5q-78 -149 -201.5 -224t-289.5 -75q-240 0 -405 170t-165 410q0 244 167 414t407 170q155 0 283 -78.5t204 -220.5
q82 141 213.5 220t286.5 79q247 0 404 -174t157 -453v-4zM2023 625q-36 178 -145 276t-268 98q-165 0 -281 -103.5t-137 -270.5h831zM201 551q0 -190 121 -318.5t301 -128.5q177 0 297 128.5t120 320.5q0 195 -121.5 320.5t-308.5 125.5q-168 0 -288.5 -129t-120.5 -319z
" />
    <glyph glyph-name="Scedilla" unicode="&#x15e;" horiz-adv-x="952" 
d="M58 416h138q4 -135 76.5 -215t190.5 -80q127 0 201.5 79.5t74.5 215.5q0 198 -306 299l-36 12q-160 55 -230.5 139.5t-70.5 220.5q0 174 108.5 285t280.5 111q164 0 260 -101t107 -284h-135q-11 119 -71 183.5t-161 64.5q-108 0 -176.5 -70.5t-68.5 -179.5
q0 -57 20.5 -98.5t65.5 -75.5q46 -34 176 -76q75 -24 114 -39q142 -55 204.5 -140.5t62.5 -224.5q0 -212 -115.5 -341.5t-306.5 -129.5q-178 0 -289 122.5t-114 322.5zM477 -111h20q107 0 163.5 -44t56.5 -128t-59 -130t-169 -46q-57 0 -116.5 9t-135.5 30v78
q92 -20 145.5 -27.5t92.5 -7.5q64 0 96.5 22.5t32.5 67.5q0 55 -34.5 80t-108.5 25q-19 0 -28.5 -0.5t-18.5 -1.5v184h63v-111z" />
    <glyph glyph-name="scedilla" unicode="&#x15f;" horiz-adv-x="797" 
d="M43 346h145v-4q0 -103 59 -170.5t146 -67.5q83 0 138 52t55 131t-43.5 127t-157.5 90q-183 65 -239 133t-56 182q0 129 93.5 219t226.5 90q141 0 224 -80t89 -223h-151q-5 78 -49.5 121t-121.5 43q-69 0 -115 -46.5t-46 -115.5q0 -49 19 -82.5t63 -60.5q40 -25 116.5 -48
t102.5 -34q103 -44 151.5 -117t48.5 -186q0 -142 -99 -235t-251 -93q-155 0 -249 101.5t-99 273.5zM399 -111h20q107 0 163.5 -44t56.5 -128t-59 -130t-169 -46q-57 0 -116.5 9t-135.5 30v78q92 -20 145.5 -27.5t92.5 -7.5q64 0 96.5 22.5t32.5 67.5q0 55 -34.5 80
t-108.5 25q-19 0 -28.5 -0.5t-18.5 -1.5v184h63v-111z" />
    <glyph glyph-name="Scaron" unicode="&#x160;" horiz-adv-x="952" 
d="M58 416h138q4 -135 76.5 -215t190.5 -80q127 0 201.5 79.5t74.5 215.5q0 198 -306 299l-36 12q-160 55 -230.5 139.5t-70.5 220.5q0 174 108.5 285t280.5 111q164 0 260 -101t107 -284h-135q-11 119 -71 183.5t-161 64.5q-108 0 -176.5 -70.5t-68.5 -179.5
q0 -57 20.5 -98.5t65.5 -75.5q46 -34 176 -76q75 -24 114 -39q142 -55 204.5 -140.5t62.5 -224.5q0 -212 -115.5 -341.5t-306.5 -129.5q-178 0 -289 122.5t-114 322.5zM201 1947h92l184 -262l184 262h92l-200 -348h-152z" />
    <glyph glyph-name="scaron" unicode="&#x161;" horiz-adv-x="797" 
d="M43 346h145v-4q0 -103 59 -170.5t146 -67.5q83 0 138 52t55 131t-43.5 127t-157.5 90q-183 65 -239 133t-56 182q0 129 93.5 219t226.5 90q141 0 224 -80t89 -223h-151q-5 78 -49.5 121t-121.5 43q-69 0 -115 -46.5t-46 -115.5q0 -49 19 -82.5t63 -60.5q40 -25 116.5 -48
t102.5 -34q103 -44 151.5 -117t48.5 -186q0 -142 -99 -235t-251 -93q-155 0 -249 101.5t-99 273.5zM123 1597h92l184 -262l184 262h92l-200 -348h-152z" />
    <glyph glyph-name="Ydieresis" unicode="&#x178;" horiz-adv-x="981" 
d="M557 535v-535h-141v537l-465 919h164l372 -756l377 756h160zM605 1663v164h143v-164h-143zM236 1663v164h141v-164h-141z" />
    <glyph glyph-name="Zcaron" unicode="&#x17d;" horiz-adv-x="938" 
d="M719 1313h-639v143h805v-137l-682 -1178h696v-141h-860v137zM193 1947h92l184 -262l184 262h92l-200 -348h-152z" />
    <glyph glyph-name="zcaron" unicode="&#x17e;" horiz-adv-x="825" 
d="M780 0h-760v133l574 834h-510v133h666v-152l-562 -807h592v-141zM138 1597h92l184 -262l184 262h92l-200 -348h-152z" />
    <glyph glyph-name="florin" unicode="&#x192;" horiz-adv-x="1157" 
d="M582 -47q-20 -209 -108.5 -291t-287.5 -82h-30l10 133h41q124 0 173 42t60 163l74 834h-256l10 133h256l21 225q19 226 100 297.5t279 71.5h49l-10 -129q-13 0 -28.5 1t-19.5 1q-123 0 -168.5 -39t-60.5 -191l-22 -237h258l-13 -133h-256z" />
    <glyph glyph-name="circumflex" unicode="&#x2c6;" 
d="M236 1247l200 350h152l200 -350h-92l-184 264l-184 -264h-92z" />
    <glyph glyph-name="caron" unicode="&#x2c7;" 
d="M236 1597h92l184 -262l184 262h92l-200 -348h-152z" />
    <glyph glyph-name="breve" unicode="&#x2d8;" 
d="M238 1554h79q6 -75 53 -110t142 -35q96 0 141 34.5t52 110.5h81q-9 -136 -74.5 -199t-199.5 -63q-133 0 -199 63.5t-75 198.5z" />
    <glyph glyph-name="dotaccent" unicode="&#x2d9;" 
d="M436 1319v176h152v-176h-152z" />
    <glyph glyph-name="ring" unicode="&#x2da;" 
d="M362 1468q0 -63 43.5 -106t106.5 -43q62 0 106 43.5t44 105.5q0 63 -44 107.5t-106 44.5q-63 0 -106.5 -44t-43.5 -108zM272 1470q0 101 69.5 170.5t170.5 69.5q100 0 171 -70t71 -170q0 -99 -71 -170t-171 -71t-170 70.5t-70 170.5z" />
    <glyph glyph-name="ogonek" unicode="&#x2db;" 
d="M580 0q-73 -63 -109.5 -122.5t-36.5 -113.5q0 -46 24.5 -66t84.5 -20h75v-104h-73q-108 0 -158.5 39.5t-50.5 122.5q0 61 46 128t136 136h62z" />
    <glyph glyph-name="tilde" unicode="&#x2dc;" 
d="M801 1499q-26 -91 -74 -137.5t-117 -46.5q-14 0 -30 2.5t-35 7.5l-97 31q-15 4 -27.5 6t-25.5 2q-30 0 -53.5 -19t-38.5 -55h-80q21 90 71.5 137.5t123.5 47.5q16 0 29 -2.5t24 -6.5l96 -30q13 -5 28 -8t28 -3q33 0 56 17.5t40 56.5h82z" />
    <glyph glyph-name="hungarumlaut" unicode="&#x2dd;" 
d="M571 1247l168 350h133l-227 -350h-74zM336 1247l149 350h133l-208 -350h-74z" />
    <glyph glyph-name="Omega" unicode="&#x3a9;" horiz-adv-x="1579" 
d="M1462 139v-139h-581v127q207 124 313 293.5t106 374.5q0 260 -141.5 420.5t-367.5 160.5q-228 0 -370 -160t-142 -419q0 -207 106.5 -377.5t312.5 -292.5v-127h-581v139h344q-173 133 -256.5 291.5t-83.5 353.5q0 320 188.5 524.5t481.5 204.5q291 0 480 -203.5
t189 -523.5q0 -196 -83.5 -354t-258.5 -293h344z" />
    <glyph glyph-name="pi" unicode="&#x3c0;" horiz-adv-x="1171" 
d="M1120 944h-182l-115 -541q-15 -69 -22.5 -117t-7.5 -71q0 -58 25 -82t85 -24q29 0 51 2.5t41 6.5l-26 -118q-28 -8 -53.5 -12t-47.5 -4q-101 0 -157 53t-56 149q0 46 11 118t45 233l86 407h-365l-199 -944h-139l199 944h-39q-55 0 -85.5 -31.5t-41.5 -99.5h-131
q25 143 88 197.5t215 54.5h848z" />
    <glyph glyph-name="endash" unicode="&#x2013;" 
d="M1024 604v-112h-1024v112h1024z" />
    <glyph glyph-name="emdash" unicode="&#x2014;" horiz-adv-x="2048" 
d="M0 492v112h2048v-112h-2048z" />
    <glyph glyph-name="quoteleft" unicode="&#x2018;" horiz-adv-x="397" 
d="M375 1028h-144l-153 428h141z" />
    <glyph glyph-name="quoteright" unicode="&#x2019;" horiz-adv-x="397" 
d="M166 1028h-141l153 428h144z" />
    <glyph glyph-name="quotesinglbase" unicode="&#x201a;" horiz-adv-x="397" 
d="M166 -162h-141l153 428h144z" />
    <glyph glyph-name="quotedblleft" unicode="&#x201c;" horiz-adv-x="692" 
d="M526 1028l-155 428h143l154 -428h-142zM231 1028l-153 428h141l156 -428h-144z" />
    <glyph glyph-name="quotedblright" unicode="&#x201d;" horiz-adv-x="692" 
d="M461 1028h-144l156 428h141zM166 1028h-141l153 428h144z" />
    <glyph glyph-name="quotedblbase" unicode="&#x201e;" horiz-adv-x="692" 
d="M461 -162h-144l156 428h141zM166 -162h-141l153 428h144z" />
    <glyph glyph-name="dagger" unicode="&#x2020;" 
d="M438 -231v1142h-364v127h364v418h146v-418h366v-127h-366v-1142h-146z" />
    <glyph glyph-name="daggerdbl" unicode="&#x2021;" 
d="M434 -231v417h-364v127h364v598h-364v127h364v418h146v-418h374v-127h-374v-598h374v-127h-374v-417h-146z" />
    <glyph glyph-name="bullet" unicode="&#x2022;" horiz-adv-x="1208" 
d="M307 762q0 123 87 209t210 86q122 0 208.5 -86.5t86.5 -208.5t-87.5 -209.5t-209.5 -87.5q-123 0 -209 87t-86 210z" />
    <glyph glyph-name="ellipsis" unicode="&#x2026;" horiz-adv-x="2048" 
d="M413 0h-143v266h143v-266zM1095 0h-143v266h143v-266zM1779 0h-143v266h143v-266z" />
    <glyph glyph-name="perthousand" unicode="&#x2030;" horiz-adv-x="2693" 
d="M219 1122q0 -95 65.5 -161t159.5 -66q95 0 161.5 66.5t66.5 160.5q0 95 -66.5 161.5t-161.5 66.5q-94 0 -159.5 -66.5t-65.5 -161.5zM90 1126q0 150 105 254.5t256 104.5q149 0 253.5 -105t104.5 -254q0 -150 -104 -254t-254 -104q-151 0 -256 104t-105 254zM2015 328
q0 -94 66 -160t162 -66q94 0 160.5 65.5t66.5 160.5q0 93 -67 160t-160 67q-95 0 -161.5 -66.5t-66.5 -160.5zM1888 330q0 149 104.5 253.5t254.5 104.5q149 0 253.5 -104.5t104.5 -253.5q0 -151 -104 -255t-254 -104q-151 0 -255 104t-104 255zM1231 1485h115l-777 -1514
h-116zM1116 330q0 -96 66 -162t161 -66t161.5 66.5t66.5 161.5q0 94 -66 159.5t-162 65.5q-95 0 -161 -65.5t-66 -159.5zM987 330q0 149 104.5 253.5t254.5 104.5q149 0 253.5 -104.5t104.5 -253.5q0 -151 -104 -255t-254 -104q-151 0 -255 104t-104 255z" />
    <glyph glyph-name="guilsinglleft" unicode="&#x2039;" horiz-adv-x="631" 
d="M360 229l-245 320l245 321h138l-248 -321l248 -320h-138z" />
    <glyph glyph-name="guilsinglright" unicode="&#x203a;" horiz-adv-x="631" 
d="M270 229h-137l248 320l-248 321h137l246 -321z" />
    <glyph glyph-name="franc" unicode="&#x20a3;" horiz-adv-x="1503" 
d="M135 0v1456h719v-143h-578v-510h578v-144h-578v-659h-141zM1245 0h-143v1100h133v-127q52 73 113.5 107t143.5 36l1 -153q-133 -12 -190.5 -79.5t-57.5 -219.5v-664z" />
    <glyph glyph-name="trademark" unicode="&#x2122;" horiz-adv-x="1706" 
d="M938 1454l166 -422l156 422h116v-530h-71v467l-177 -467h-49l-186 467v-467h-72v530h117zM694 1454v-57h-172v-473h-82v473h-176v57h430z" />
    <glyph glyph-name="partialdiff" unicode="&#x2202;" horiz-adv-x="1034" 
d="M752 592q12 83 18 160t6 149q0 158 -40 242t-115 84q-50 0 -108 -68.5t-103 -68.5q-31 0 -52.5 20t-21.5 47q0 62 63.5 107t155.5 45q165 0 264 -150.5t99 -406.5q0 -334 -136 -556.5t-333 -222.5q-143 0 -233.5 107t-90.5 278q0 179 109 304.5t262 125.5q98 0 160.5 -48
t95.5 -148zM711 463q0 128 -45 193t-134 65q-113 0 -186.5 -124.5t-73.5 -322.5q0 -126 44.5 -188.5t134.5 -62.5q112 0 186 125.5t74 314.5z" />
    <glyph glyph-name="Delta" unicode="&#x2206;" horiz-adv-x="1346" 
d="M1139 139l-467 1186l-465 -1186h932zM766 1473l590 -1473h-1366l590 1473h186z" />
    <glyph glyph-name="product" unicode="&#x220f;" horiz-adv-x="1509" 
d="M160 1473h1188v-1866h-168v1718h-852v-1718h-168v1866z" />
    <glyph glyph-name="summation" unicode="&#x2211;" horiz-adv-x="1317" 
d="M49 1473h1223v-144h-1014l705 -766l-740 -813h1057v-143h-1266v133l744 821l-709 772v140z" />
    <glyph glyph-name="minus" unicode="&#x2212;" horiz-adv-x="1706" 
d="M1452 659v-98h-1198v98h1198z" />
    <glyph glyph-name="fraction" unicode="&#x2215;" horiz-adv-x="342" 
d="M-221 -29h-121l905 1514h119z" />
    <glyph glyph-name="periodcentered" unicode="&#x2219;" horiz-adv-x="578" 
d="M197 729q0 39 27 66.5t65 27.5t66 -28t28 -66t-27.5 -65t-66.5 -27t-65.5 27t-26.5 65z" />
    <glyph glyph-name="radical" unicode="&#x221a;" horiz-adv-x="1276" 
d="M1276 1636v-71h-125l-594 -1606h-41l-328 899l-114 -39l-19 58l246 86l272 -746l525 1419h178z" />
    <glyph glyph-name="infinity" unicode="&#x221e;" horiz-adv-x="1706" 
d="M897 559q52 -100 122 -149.5t159 -49.5q106 0 173.5 75t67.5 192q0 113 -62.5 187.5t-156.5 74.5q-86 0 -155 -74t-148 -256zM811 668q-52 99 -121.5 147.5t-159.5 48.5q-106 0 -173.5 -74.5t-67.5 -189.5q0 -112 63 -187t156 -75q87 0 156.5 75t146.5 255zM838 721
q72 144 149 206t182 62q124 0 215 -107.5t91 -265.5q0 -169 -81.5 -273.5t-211.5 -104.5q-95 0 -168 60.5t-146 203.5q-71 -139 -148 -201.5t-173 -62.5q-132 0 -223 106.5t-91 267.5q0 169 81.5 273t211.5 104q97 0 171.5 -64t140.5 -204z" />
    <glyph glyph-name="integral" unicode="&#x222b;" horiz-adv-x="985" 
d="M293 -272q104 0 117 713q2 127 4 196q11 486 98 698.5t268 212.5q70 0 114 -37t44 -96q0 -48 -28.5 -76t-78.5 -28q-78 0 -103 69.5t-34 69.5q-105 0 -116 -623q-4 -185 -7 -289q-15 -497 -101 -703t-267 -206q-69 0 -113.5 36t-44.5 91q0 51 31 81t82 30
q36 0 61.5 -16.5t40.5 -51.5q4 -9 7 -33q4 -38 26 -38z" />
    <glyph glyph-name="approxequal" unicode="&#x2248;" horiz-adv-x="1706" 
d="M1530 469q-106 -74 -201 -109.5t-186 -35.5q-101 0 -291 69.5t-287 69.5q-82 0 -171 -36.5t-216 -123.5v111q107 74 202 109.5t185 35.5q109 0 298.5 -68.5t279.5 -68.5q86 0 175 35.5t212 122.5v-111zM1530 807q-104 -74 -199 -109.5t-188 -35.5q-103 0 -292 69.5
t-286 69.5q-82 0 -171 -36.5t-216 -123.5v113q105 73 201 109t186 36q109 0 298.5 -69.5t279.5 -69.5q84 0 171 34.5t216 123.5v-111z" />
    <glyph glyph-name="notequal" unicode="&#x2260;" horiz-adv-x="1706" 
d="M1288 1110l-205 -264h369v-96h-432l-215 -277h647v-98h-709l-254 -324l-73 60l205 264h-367v98h428l215 277h-643v96h707l253 323z" />
    <glyph glyph-name="lessequal" unicode="&#x2264;" horiz-adv-x="1706" 
d="M1442 139v-98h-1178v98h1178zM1442 1075l-1010 -338l1010 -336v-106l-1178 401v84l1178 402v-107z" />
    <glyph glyph-name="greaterequal" unicode="&#x2265;" horiz-adv-x="1706" 
d="M1442 139v-98h-1178v98h1178zM1442 780v-84l-1178 -401v106l1010 336l-1010 338v107z" />
    <glyph glyph-name="lozenge" unicode="&#x25ca;" horiz-adv-x="1012" 
d="M506 1409l-385 -817l385 -825l385 825zM506 1653l500 -1061l-500 -1069l-500 1069z" />
    <glyph glyph-name="apple" unicode="&#xf000;" horiz-adv-x="1618" 
d="M836 1216q-1 6 -1.5 14t-0.5 23q0 124 95 229.5t236 131.5q1 -10 1.5 -23t0.5 -39q0 -131 -103.5 -234.5t-203.5 -103.5h-8q-3 0 -7.5 1t-8.5 1zM1505 403q-114 -247 -205 -342.5t-204 -95.5q-50 0 -131.5 33t-122.5 33q-45 0 -131 -33t-127 -33q-64 0 -128.5 44
t-129.5 132q-102 140 -157.5 295.5t-55.5 300.5q0 219 125 356.5t323 137.5q68 0 155 -34t124 -34q34 0 121.5 34t152.5 34q111 0 199 -39.5t160 -122.5q-102 -65 -151.5 -145.5t-49.5 -182.5q0 -113 60 -200t173 -138z" />
    <glyph glyph-name="fi" unicode="&#xf001;" horiz-adv-x="952" 
d="M674 0v1100h141v-1100h-141zM309 0h-137v977h-147v123h141v30q0 175 88 259t270 84h13v-127q-126 -2 -178 -50.5t-52 -165.5v-30h230v-123h-228v-977zM815 1229h-141v227h141v-227z" />
    <glyph glyph-name="fl" unicode="&#xf002;" horiz-adv-x="952" 
d="M674 0v1456h141v-1456h-141zM309 0h-137v977h-147v123h141v30q0 175 88.5 259t271.5 84h11v-127q-126 -2 -178 -50.5t-52 -165.5v-30h230v-123h-228v-977z" />
    </font>
</defs>
</svg>
