<?xml version="1.0" standalone="no"?>
<!DOCTYPE svg PUBLIC "-//W3C//DTD SVG 1.1//EN" "http://www.w3.org/Graphics/SVG/1.1/DTD/svg11.dtd" >
<svg>
<metadata>
Created by FontForge 20120731 at Fri Dec 12 03:07:53 2014
 By Orthosie Webhosting
Copyright (URW)++, copyright 1999 by (URW)++ Design &#38; Development; Cyrillic glyphs added by Valek Filippov, copyright 2001-2002; Vietnamese characters were added by Han The Thanh; copyright 2006, 2008 for TeX Gyre extensions by B. Jackowski and J.M. Nowacki (on behalf of TeX users groups). This work is released under the GUST Font License --  see http://tug.org/fonts/licenses/GUST-FONT-LICENSE.txt for details.
</metadata>
<defs>
<font id="TeXGyreBonumRegular" horiz-adv-x="620" >
  <font-face 
    font-family="TeXGyreBonumRegular"
    font-weight="400"
    font-stretch="normal"
    units-per-em="1000"
    panose-1="0 0 5 0 0 0 0 0 0 0"
    ascent="772"
    descent="-228"
    x-height="485"
    cap-height="681"
    bbox="-470 -268 1659 1069"
    underline-thickness="60"
    underline-position="-35"
    unicode-range="U+0020-FB04"
  />
<missing-glyph horiz-adv-x="280" 
 />
    <glyph glyph-name="I_J" unicode="IJ" horiz-adv-x="957" 
d="M310 0h-270v31l20 3q41 7 53 27.5t12 82.5v393q0 62 -12 82.5t-53 27.5l-20 3v31h270v-31l-20 -3q-41 -7 -53 -27.5t-12 -82.5v-393q0 -62 12 -82.5t53 -27.5l20 -3v-31zM917 650l-25 -3q-39 -5 -52 -27t-13 -83v-277q0 -33 -0.5 -52t-5.5 -51.5t-14 -52.5t-27.5 -45
t-44 -38.5t-66 -23.5t-91.5 -10q-117 0 -184 61.5t-67 137.5q0 39 22 64t56 25q25 0 40 -14.5t15 -39.5q0 -26 -25 -48q-20 -19 -20 -40q0 -40 43 -69t101 -29q40 0 69.5 9t47.5 29.5t28.5 41t15.5 57.5t6 64.5t1 74.5v226q0 61 -13 83t-52 27l-25 3v31h280v-31z" />
    <glyph glyph-name="i_j" unicode="ij" horiz-adv-x="563" 
d="M308 0h-268v30l25 2q33 4 47.5 23t14.5 60v235q0 45 -13.5 62t-52.5 21l-20 2v30q62 5 147 20h34v-370q0 -41 14 -60t48 -23l24 -2v-30zM231 630q0 -24 -17.5 -41.5t-41.5 -17.5t-41.5 17.5t-17.5 41.5q0 25 17.5 42t42.5 17q23 0 40.5 -17.5t17.5 -41.5zM523 -47
q0 -49 -16.5 -86.5t-39.5 -57t-53.5 -32t-52.5 -15.5t-43 -3q-48 0 -77.5 17t-29.5 44q0 16 13.5 28t32.5 12q22 0 44 -26q16 -18 27 -24t28 -6q26 0 42 11.5t22 41.5t7 52t1 71v25v345q0 45 -14 62.5t-52 20.5l-24 2v30q76 5 151 20h34v-532zM532 630q0 -24 -17.5 -41.5
t-41.5 -17.5t-41.5 17.5t-17.5 41.5q0 25 17.5 42t42.5 17q23 0 40.5 -17.5t17.5 -41.5z" />
    <glyph glyph-name="f_k" unicode="fk" horiz-adv-x="1000" 
d="M977 0h-270v30l27 2q18 2 25 11t3.5 22t-10 25.5t-15.5 24.5l-105 152l-81 -69v-83q0 -40 14.5 -59.5t46.5 -23.5l26 -2v-30h-269v30l25 2q33 4 47.5 23t14.5 60l-2 448q0 73 -22 106t-81 33q-19 0 -35.5 -4t-28 -10t-20.5 -15.5t-15 -18t-10 -21t-6 -21.5t-3 -21.5
t-1 -18v-15.5v-10v-62h101v-33h-101v-337q0 -41 14.5 -60t47.5 -23l25 -2v-30h-269v30l25 2q33 4 47.5 23t14.5 60v337h-85v33h85v37q0 33 4 59.5t18 56t36.5 50t63 33.5t94.5 13q98 0 198 -17v-468l156 136q33 28 26 47.5t-55 23.5v29h266v-30q-65 -10 -105.5 -28.5
t-86.5 -58.5l-45 -40l149 -213q54 -71 121 -83v-32z" />
    <glyph glyph-name="f_f" unicode="ff" horiz-adv-x="700" 
d="M763 677q0 -18 -13.5 -30.5t-32.5 -12.5q-25 0 -46 28q-23 29 -47 29q-28 0 -50.5 -22.5t-22.5 -77.5v-106h99v-33h-99v-337q0 -41 14.5 -60t47.5 -23l25 -2v-30h-269v30l25 2q33 4 47.5 23t14.5 60v337h-224v-337q0 -41 14.5 -60t47.5 -23l25 -2v-30h-269v30l25 2
q33 4 47.5 23t14.5 60v337h-84v33h84v47q0 53 19.5 92.5t45.5 59.5t60.5 32.5t56 15t39.5 2.5q37 0 61.5 -16t24.5 -41q0 -17 -14 -30t-32 -13q-25 0 -46 28q-23 29 -47 29q-28 0 -50.5 -22.5t-22.5 -77.5v-106h224v47q0 53 19.5 92.5t45.5 59.5t60.5 32.5t56 15t39.5 2.5
q37 0 61.5 -16t24.5 -41z" />
    <glyph glyph-name="f_i" unicode="fi" 
d="M608 0h-269v30l25 2q33 4 47.5 23t14.5 60v232q0 63 -18 84t-73 21h-133v-337q0 -41 14.5 -60t47.5 -23l25 -2v-30h-269v30l25 2q33 4 47.5 23t14.5 60v337h-85v33h85v38q0 42 8 75t30 66t68 51.5t115 18.5q105 0 165 -62q30 -31 30 -64q0 -22 -14 -36t-36 -14
q-31 0 -45 25q-6 10 -7 16.5t-2 38.5q-1 25 -30 44.5t-67 19.5q-19 0 -35.5 -4t-28 -9.5t-21 -15t-15.5 -17.5t-10 -20.5t-6 -21t-3 -21.5t-1 -18.5v-16v-11.5v-62h319v-370q0 -41 14.5 -60t47.5 -23l25 -2v-30z" />
    <glyph glyph-name="f_l" unicode="fl" 
d="M606 0h-269v30l25 2q33 4 47.5 23t14.5 60v448q0 65 -12 93q-9 20 -35 33t-56 13q-19 0 -35.5 -4t-28 -10t-20.5 -15.5t-15 -18t-10 -21t-6 -21.5t-3 -21.5t-1 -18v-15.5v-10v-62h101v-33h-101v-337q0 -41 14.5 -60t47.5 -23l25 -2v-30h-269v30l25 2q33 4 47.5 23
t14.5 60v337h-85v33h85v37q0 33 4 59.5t18 56t36.5 50t63 33.5t94.5 13q55 0 196 -21v-598q0 -41 14.5 -60t47.5 -23l25 -2v-30z" />
    <glyph glyph-name="f_f_i" unicode="ffi" horiz-adv-x="1000" 
d="M957 0h-269v30l25 2q33 4 47.5 23t14.5 60v232q0 63 -18 84t-73 21h-133v-337q0 -41 14.5 -60t47.5 -23l25 -2v-30h-269v30l25 2q33 4 47.5 23t14.5 60v337h-224v-337q0 -41 14.5 -60t47.5 -23l25 -2v-30h-269v30l25 2q33 4 47.5 23t14.5 60v337h-84v33h84v47
q0 53 19.5 92.5t45.5 59.5t60.5 32.5t56 15t39.5 2.5q37 0 61.5 -16t24.5 -41q0 -17 -14 -30t-32 -13q-25 0 -46 28q-23 29 -47 29q-28 0 -50.5 -22.5t-22.5 -77.5v-106h224v38q0 42 8 75t30 66t68 51.5t115 18.5q105 0 165 -62q30 -31 30 -64q0 -22 -14 -36t-36 -14
q-31 0 -45 25q-6 10 -7 16.5t-2 38.5q-1 25 -30 44.5t-67 19.5q-19 0 -35.5 -4t-28 -9.5t-21 -15t-15.5 -17.5t-10 -20.5t-6 -21t-3 -21.5t-1 -18.5v-16v-11.5v-62h319v-370q0 -41 14.5 -60t47.5 -23l25 -2v-30z" />
    <glyph glyph-name="f_f_l" unicode="ffl" horiz-adv-x="1000" 
d="M955 0h-269v30l25 2q33 4 47.5 23t14.5 60v448q0 73 -22 106t-81 33q-19 0 -35.5 -4t-28 -10t-20.5 -15.5t-15 -18t-10 -21t-6 -21.5t-3 -21.5t-1 -18v-15.5v-10v-62h101v-33h-101v-337q0 -41 14.5 -60t47.5 -23l25 -2v-30h-269v30l25 2q33 4 47.5 23t14.5 60v337h-224
v-337q0 -41 14.5 -60t47.5 -23l25 -2v-30h-269v30l25 2q33 4 47.5 23t14.5 60v337h-84v33h84v47q0 53 19.5 92.5t45.5 59.5t60.5 32.5t56 15t39.5 2.5q37 0 61.5 -16t24.5 -41q0 -17 -14 -30t-32 -13q-25 0 -46 28q-23 29 -47 29q-28 0 -50.5 -22.5t-22.5 -77.5v-106h224v37
q0 33 4 59.5t18 56t36.5 50t63 33.5t94.5 13q55 0 196 -21v-598q0 -41 14.5 -60t47.5 -23l25 -2v-30z" />
    <glyph glyph-name=".notdef" horiz-adv-x="280" 
 />
    <glyph glyph-name=".null" horiz-adv-x="0" 
 />
    <glyph glyph-name="nonmarkingreturn" horiz-adv-x="333" 
 />
    <glyph glyph-name="space" unicode=" " horiz-adv-x="320" 
 />
    <glyph glyph-name="exclam" unicode="!" horiz-adv-x="300" 
d="M208 52q0 -27 -19 -46t-45 -19q-27 0 -46 19t-19 46q0 26 19 45t46 19q26 0 45 -19t19 -45zM219 602q0 -30 -14 -102l-28 -136q-17 -89 -17 -159v-31h-36v32q0 85 -15 166l-22 131q-12 68 -12 90q0 101 72 101q34 0 53 -24.5t19 -67.5z" />
    <glyph glyph-name="quotedbl" unicode="&#x22;" horiz-adv-x="380" 
d="M142 645q0 -17 -3 -29l-31 -171h-22l-28 169q-2 8 -2 26q0 25 12 39.5t32 14.5q19 0 30.5 -13.5t11.5 -35.5zM323 645q0 -17 -3 -29l-31 -171h-22l-28 169q-2 8 -2 26q0 25 12 39.5t32 14.5q19 0 30.5 -13.5t11.5 -35.5z" />
    <glyph glyph-name="numbersign" unicode="#" 
d="M556 406h-106l-20 -133h101v-57h-109l-33 -216h-60l33 216h-131l-32 -216h-60l32 216h-106v57h115l20 133h-110v57h118l31 203h60l-31 -203h131l30 203h60l-30 -203h97v-57zM390 406h-130l-20 -133h130z" />
    <glyph glyph-name="dollar" unicode="$" 
d="M593 220q0 -83 -69.5 -137.5t-192.5 -65.5v-127h-37v127q-260 26 -260 161q0 33 19.5 53.5t51.5 20.5q26 0 43 -17.5t17 -44.5q0 -12 -3.5 -31t-3.5 -31q0 -61 136 -70v246q-132 19 -189 59t-57 113q0 83 67.5 136t178.5 57v122h37v-122q55 -5 97.5 -19.5t65 -31.5
t37 -38t18.5 -35.5t4 -25.5q0 -28 -17 -45t-45 -17q-24 0 -39 15.5t-15 40.5q0 12 1.5 21t1.5 15q0 34 -26 53t-83 26v-230q52 -8 82 -14t69.5 -19t60 -30t35.5 -46.5t15 -68.5zM294 407v221h-10q-25 0 -54.5 -8t-58 -34.5t-28.5 -65.5q0 -30 13.5 -51.5t38.5 -33.5
t46.5 -17.5t52.5 -10.5zM498 185q0 51 -42.5 74t-124.5 38v-239q75 2 121 37t46 90z" />
    <glyph glyph-name="percent" unicode="%" horiz-adv-x="900" 
d="M369 474q0 -92 -48.5 -150.5t-125.5 -58.5t-125 59.5t-48 153.5q0 85 46 148t127 63q77 0 125.5 -59.5t48.5 -155.5zM294 478q0 174 -97 174q-37 0 -61 -31t-31.5 -68.5t-7.5 -80.5q0 -81 25.5 -125.5t72.5 -44.5q48 0 73.5 45.5t25.5 130.5zM710 681l-464 -681h-59
l464 681h59zM873 201q0 -92 -48.5 -150.5t-125.5 -58.5t-125 59.5t-48 153.5q0 85 46 148t127 63q77 0 125.5 -59.5t48.5 -155.5zM798 205q0 174 -97 174q-37 0 -61 -31t-31.5 -68.5t-7.5 -80.5q0 -82 26 -126t73 -44t72.5 45.5t25.5 130.5z" />
    <glyph glyph-name="ampersand" unicode="&#x26;" horiz-adv-x="800" 
d="M787 0h-97q-27 0 -40 0.5t-33.5 4.5t-33 11.5t-28 22.5t-29.5 38q-57 -50 -105 -70t-112 -20q-112 0 -188 60t-76 153q0 67 47.5 123t145.5 85q-70 64 -70 142q0 61 52 102.5t127 41.5q65 0 108 -36.5t43 -92.5q0 -50 -38 -93t-101 -64q104 -80 200 -210q48 86 48 167
q0 30 -15 41.5t-66 21.5v30h240v-30q-63 -12 -80.5 -32t-36.5 -100q-23 -89 -62 -148q46 -66 80 -88.5t88 -22.5q20 0 32 1v-38zM428 572q0 36 -24 59t-62 23q-37 0 -61.5 -25t-24.5 -62q0 -58 69 -128q21 10 36 19t32 24.5t26 38.5t9 51zM505 119q-120 175 -238 257
q-120 -36 -120 -158q0 -83 48.5 -134t128.5 -51q104 0 181 86z" />
    <glyph glyph-name="quotesingle" unicode="'" horiz-adv-x="220" 
d="M153 645q0 -17 -3 -29l-31 -171h-22l-28 169q-2 8 -2 26q0 25 12 39.5t32 14.5q19 0 30.5 -13.5t11.5 -35.5z" />
    <glyph glyph-name="parenleft" unicode="(" horiz-adv-x="300" 
d="M278 -151q-63 10 -100 39q-59 47 -80.5 129.5t-21.5 265.5v17q0 50 0.5 77.5t4 75.5t12.5 78.5t23.5 66t39 60.5t57.5 41q23 12 65 18v-38q-62 -22 -84.5 -101t-22.5 -272v-46q0 -193 22.5 -272t84.5 -101v-38z" />
    <glyph glyph-name="parenright" unicode=")" horiz-adv-x="300" 
d="M219 283v-21q0 -48 -0.5 -74.5t-4 -74t-12.5 -78.5t-23 -66.5t-39 -60.5t-58 -41q-23 -12 -65 -18v38q62 22 84.5 101t22.5 272v46q0 193 -22.5 272t-84.5 101v38q63 -10 100 -39q59 -47 80.5 -129t21.5 -266z" />
    <glyph glyph-name="asterisk" unicode="*" horiz-adv-x="440" 
d="M391 573q0 -33 -54 -43l-72 -14l-3 -19l74 -12q54 -9 54 -42q0 -20 -14 -36.5t-31 -16.5q-21 0 -46 30l-49 56l-18 -8l27 -70q8 -22 8 -34q0 -19 -12.5 -30t-32.5 -11t-33 11t-13 28q0 15 8 36l24 70l-16 12l-47 -58q-24 -30 -46 -30q-17 0 -31 16t-14 36q0 33 54 43
l72 14l3 19l-74 12q-54 9 -54 42q0 21 14 37t32 16q19 0 46 -30l48 -56l18 8l-27 70q-8 22 -8 33q0 19 12.5 30.5t33.5 11.5q20 0 32.5 -11t12.5 -28q0 -13 -8 -36l-24 -70l16 -12l47 58q23 30 46 30q17 0 31 -16t14 -36z" />
    <glyph glyph-name="plus" unicode="+" horiz-adv-x="600" 
d="M560 211h-221v-221h-78v221h-221v78h221v221h78v-221h221v-78z" />
    <glyph glyph-name="comma" unicode="," horiz-adv-x="320" 
d="M223 31q0 -95 -108 -143l-11 20q61 35 74 101q-20 -15 -37 -15q-22 0 -36.5 16.5t-14.5 40.5q0 28 18 47t45 19q30 0 50 -24.5t20 -61.5z" />
    <glyph glyph-name="hyphen" unicode="-" horiz-adv-x="400" 
d="M350 289l-28 -57h-272l29 57h271z" />
    <glyph glyph-name="period" unicode="." horiz-adv-x="320" 
d="M220 51q0 -26 -19 -45t-45 -19t-45 19t-19 46q0 26 19 44.5t46 18.5q26 0 44.5 -19t18.5 -45z" />
    <glyph glyph-name="slash" unicode="/" horiz-adv-x="600" 
d="M532 717l-374 -858h-84l372 858h86z" />
    <glyph glyph-name="zero" unicode="0" 
d="M586 336q0 -154 -76.5 -251.5t-197.5 -97.5t-196.5 99t-75.5 257q0 87 29.5 165.5t93 132t149.5 53.5q122 0 198 -99t76 -259zM478 343q0 46 -4 86t-15 81t-28.5 70t-47 47.5t-67.5 18.5q-50 0 -85.5 -32.5t-52 -85t-23.5 -100.5t-7 -96q0 -90 16 -152.5t43 -92t52.5 -41
t54.5 -11.5q47 0 80.5 26.5t51 73t25 97.5t7.5 111z" />
    <glyph glyph-name="one" unicode="1" 
d="M501 0h-341v30l33 2q28 2 46 9.5t27 14.5t13 25.5t4.5 26.5t0.5 33v383q0 59 -14 75.5t-69 18.5l-40 2v30q108 13 186 31h32v-542q0 -64 16.5 -83.5t73.5 -23.5l32 -2v-30z" />
    <glyph glyph-name="two" unicode="2" 
d="M576 187l-48 -187h-486v70q94 58 148.5 100.5t104.5 97.5q120 134 120 245q0 59 -37.5 96t-98.5 37q-55 0 -98 -28t-43 -64q0 -20 21 -46q12 -15 12 -32q0 -21 -17.5 -37.5t-39.5 -16.5q-29 0 -48.5 24t-19.5 60q0 77 71.5 132.5t169.5 55.5q108 0 177 -54.5t69 -140.5
q0 -128 -175 -275q-62 -52 -205 -142h227q68 0 95.5 17t52.5 75l10 23z" />
    <glyph glyph-name="three" unicode="3" 
d="M576 196q0 -91 -81 -150t-207 -59q-116 0 -182 48.5t-66 105.5q0 29 18 49t43 20t40.5 -16t15.5 -40q0 -13 -4.5 -26.5t-4.5 -18.5q0 -6 3 -14t13 -19.5t25 -21t42 -16t61 -6.5q80 0 125.5 43t45.5 119q0 87 -51.5 124t-120.5 37q-19 0 -70 -5v45l50 -2q27 0 53 6
t51.5 19.5t41.5 41t16 64.5q0 57 -37.5 91t-99.5 34q-51 0 -87 -21.5t-36 -52.5q0 -8 8.5 -27t8.5 -32q0 -20 -16.5 -34t-38.5 -14q-25 0 -41.5 18t-16.5 46q0 57 58.5 109.5t166.5 52.5q103 0 171 -46t68 -117q0 -17 -5 -34t-19.5 -41t-51 -45t-90.5 -33q103 -21 149 -63
q52 -46 52 -119z" />
    <glyph glyph-name="four" unicode="4" 
d="M600 243l-22 -57h-130v-42q0 -59 11.5 -83.5t52.5 -28.5l33 -2v-30h-289v30l33 2q30 2 44.5 18.5t17 35.5t2.5 58v42h-313l-15 41l328 454h95v-438h152zM353 243v353l-257 -353h257z" />
    <glyph glyph-name="five" unicode="5" 
d="M584 236q0 -110 -78.5 -179.5t-203.5 -69.5q-102 0 -172 42.5t-70 104.5q0 26 18 45t43 19q23 0 40.5 -17t17.5 -39q0 -9 -5 -24.5t-5 -23.5q0 -26 35 -44t84 -18q83 0 133 51.5t50 137.5q0 84 -46.5 133.5t-125.5 49.5q-51 0 -85 -20t-72 -72l-43 10v359h302
q38 0 53 6.5t28 29.5h38l-17 -118h-342v-200q44 35 82 49t89 14q112 0 182 -63t70 -163z" />
    <glyph glyph-name="six" unicode="6" 
d="M590 215q0 -97 -77.5 -162.5t-190.5 -65.5q-37 0 -72 8t-73 31t-66.5 58.5t-47 96t-18.5 137.5q0 84 20 151t51 108t72 68.5t80 38t78 10.5q85 0 150 -39t65 -90q0 -21 -15 -35t-37 -14q-28 0 -45.5 22t-17.5 57q-1 19 -10 28q-31 31 -93 31q-153 0 -181 -216
q-4 -26 -8 -105q39 53 85 77.5t110 24.5q104 0 172.5 -62.5t68.5 -157.5zM477 210q0 79 -41.5 126t-109.5 47q-75 0 -119 -48.5t-44 -131.5q0 -78 42 -123t115 -45q72 0 114.5 47.5t42.5 127.5z" />
    <glyph glyph-name="seven" unicode="7" 
d="M586 618q-78 -88 -135.5 -184t-84 -170.5t-41.5 -136t-17 -94.5l-1 -33h-129q27 149 115.5 307t219.5 292h-262q-76 0 -107 -17.5t-52 -78.5h-32l32 178h486z" />
    <glyph glyph-name="eight" unicode="8" 
d="M583 203q0 -93 -79 -154.5t-198 -61.5q-113 0 -187.5 53.5t-74.5 134.5q0 40 15 71.5t42.5 51.5t53 32t57.5 22q-28 11 -47 21.5t-40.5 28.5t-33 45t-11.5 61q0 82 66.5 134t170.5 52t171 -44.5t67 -114.5q0 -110 -151 -149q38 -14 63.5 -26t55 -33t45 -52.5t15.5 -71.5z
M473 531q0 53 -41 88t-104 35q-68 0 -114 -34.5t-46 -85.5q0 -18 5 -32.5t18.5 -26.5t23 -20t33 -17t33 -12.5t38 -12t34.5 -10.5q56 13 88 46.5t32 81.5zM495 165q0 23 -5.5 42t-20.5 34t-26.5 25t-39 21t-41.5 16t-50.5 15.5t-50.5 15.5q-67 -26 -98 -65t-31 -95
q0 -67 49.5 -107t132.5 -40q78 0 129.5 39t51.5 99z" />
    <glyph glyph-name="nine" unicode="9" 
d="M576 357q0 -89 -20 -157t-50.5 -107.5t-72.5 -64t-79.5 -33t-77.5 -8.5q-82 0 -146 37.5t-64 85.5q0 21 14.5 35.5t34.5 14.5t36 -13t23 -34q3 -8 3 -21t3.5 -22t16.5 -17q32 -21 85 -21q114 0 159 107q31 74 31 220q-19 -32 -38 -53.5t-61.5 -40.5t-98.5 -19
q-103 0 -170 61t-67 156q0 97 77 164t190 67q37 0 70.5 -7t72 -29.5t66 -58t45.5 -98t18 -144.5zM460 477q0 79 -41 125.5t-112 46.5q-73 0 -117.5 -48.5t-44.5 -128.5q0 -81 42.5 -129.5t113.5 -48.5q73 0 116 49.5t43 133.5z" />
    <glyph glyph-name="colon" unicode=":" horiz-adv-x="320" 
d="M220 51q0 -26 -19 -45t-45 -19t-45 19t-19 46q0 26 19 44.5t46 18.5q26 0 44.5 -19t18.5 -45zM220 430q0 -26 -19 -45t-45 -19t-45 19t-19 45q0 27 19 45.5t46 18.5q26 0 44.5 -19t18.5 -45z" />
    <glyph glyph-name="semicolon" unicode=";" horiz-adv-x="320" 
d="M223 31q0 -95 -109 -143l-11 20q61 36 75 101q-20 -15 -37 -15q-22 0 -36.5 16t-14.5 41q0 28 18 47t45 19q30 0 50 -24.5t20 -61.5zM220 430q0 -26 -19 -45t-45 -19t-45 19t-19 45q0 27 19 45.5t46 18.5q26 0 44.5 -19t18.5 -45z" />
    <glyph glyph-name="less" unicode="&#x3c;" horiz-adv-x="600" 
d="M520 -29l-458 245v68l458 245v-88l-357 -191l357 -191v-88z" />
    <glyph glyph-name="equal" unicode="=" horiz-adv-x="600" 
d="M560 296h-520v78h520v-78zM560 126h-520v78h520v-78z" />
    <glyph glyph-name="greater" unicode="&#x3e;" horiz-adv-x="600" 
d="M520 216l-458 -245v88l357 191l-357 191v88l458 -245v-68z" />
    <glyph glyph-name="question" unicode="?" horiz-adv-x="540" 
d="M299 52q0 -27 -19 -46t-45 -19q-27 0 -46 19t-19 46q0 26 19 45t47 19q26 0 44.5 -19t18.5 -45zM514 508q0 -125 -135 -172l-33 -12q-51 -20 -70 -51.5t-18 -98.5h-45q-2 40 -2 44q0 48 14.5 75t54.5 54l57 39q69 48 69 131q0 65 -37 101t-105 36q-59 0 -100.5 -25
t-41.5 -61q0 -14 10.5 -35.5t10.5 -33.5q0 -19 -16 -33.5t-38 -14.5q-27 0 -44.5 20.5t-17.5 52.5q0 62 68 116t179 54q35 0 72.5 -8.5t77 -28t65 -58.5t25.5 -91z" />
    <glyph glyph-name="at" unicode="@" horiz-adv-x="820" 
d="M755 404q0 -102 -70 -173t-139 -71q-29 0 -50 24.5t-21 59.5v11q-69 -95 -157 -95q-60 0 -97 40t-37 104q0 100 67 174.5t157 74.5q70 0 113 -46l7 39h72l-47 -254q-5 -30 -5 -42q0 -17 10.5 -28t26.5 -11q42 0 84.5 57t42.5 130q0 107 -86 182t-208 75q-129 0 -222 -91
t-93 -218q0 -130 91.5 -222t222.5 -92q25 0 54 5t72 19t84.5 48t70.5 84h46q-22 -49 -57 -87t-70.5 -59t-76 -34t-69 -17t-54.5 -4q-151 0 -256.5 103.5t-105.5 251.5q0 149 106.5 253.5t258.5 104.5q139 0 237 -87t98 -209zM515 474l-5 6q-5 5 -7 6.5t-8 6.5t-10 7t-11 6
t-14 5.5t-16 3t-19 1.5q-50 0 -89.5 -39t-58 -90.5t-18.5 -101.5q0 -40 20 -64t53 -24q31 0 64 21.5t56 55.5q21 33 34 75t29 125z" />
    <glyph glyph-name="A" unicode="A" horiz-adv-x="680" 
d="M714 0h-281v31q61 9 73.5 28t-5.5 65l-50 129h-258l-32 -86q-12 -31 -16.5 -51.5t0.5 -38.5t22 -30q14 -9 64 -16v-31h-268v31l11 2q50 10 75 44t75 163l172 441h93l212 -536q27 -69 45.5 -87.5t67.5 -26.5v-31zM433 296l-114 300l-111 -300h225z" />
    <glyph glyph-name="B" unicode="B" horiz-adv-x="740" 
d="M702 201q0 -23 -4.5 -43t-15.5 -44.5t-33 -43.5t-54.5 -35.5t-83.5 -25.5t-115 -9h-365v31l25 3q39 5 52 27t13 83v393q0 61 -13 83t-52 27l-25 3v31h352q63 0 111 -7.5t88 -24.5t61 -50t21 -80q0 -32 -14 -57.5t-30.5 -39t-42 -24.5t-35.5 -13.5t-23 -5.5
q87 -22 128 -57q55 -47 55 -121zM562 516q0 126 -206 126q-86 0 -110.5 -15.5t-24.5 -69.5v-164h116q120 0 172.5 28.5t52.5 94.5zM589 206q0 34 -8 59t-26 40.5t-36.5 24.5t-51.5 13.5t-58.5 5.5t-69.5 1h-118v-196q0 -35 2.5 -51t14.5 -33t39 -23t74 -6q111 0 174.5 36.5
t63.5 128.5z" />
    <glyph glyph-name="C" unicode="C" horiz-adv-x="740" 
d="M702 159q-111 -172 -305 -172q-151 0 -252 100t-101 250q0 84 32.5 154.5t82.5 113t106 66t108 23.5q122 0 206 -64l21 42h33l48 -241h-32q-18 37 -27.5 54.5t-28 48.5t-35.5 46.5t-42 33t-56 25t-68 7.5q-99 0 -164.5 -87.5t-65.5 -220.5q0 -80 24.5 -141.5t63.5 -95
t80.5 -50t81.5 -16.5q22 0 47 5.5t60 19.5t72 45.5t68 77.5z" />
    <glyph glyph-name="D" unicode="D" horiz-adv-x="800" 
d="M752 335q0 -335 -416 -335h-305v31l25 3q39 5 52 27t13 83v393q0 61 -13 83t-52 27l-25 3v31h305q105 0 183.5 -24.5t121.5 -60t69.5 -85t34 -90.5t7.5 -86zM634 342q0 42 -7.5 81t-28.5 79.5t-53 70t-84.5 48.5t-120.5 19q-43 0 -68.5 -5.5t-36 -20t-12.5 -25.5t-2 -35
v-6v-419q0 -26 3 -39.5t14 -26t35.5 -17.5t65.5 -5q84 0 145 28t92 74.5t44.5 95.5t13.5 103z" />
    <glyph glyph-name="E" unicode="E" horiz-adv-x="720" 
d="M705 213l-91 -213h-583v31l25 3q39 5 52 27t13 83v393q0 61 -13 83t-52 27l-25 3v31h571l69 -180l-32 -13q-69 84 -135.5 117t-168.5 33q-66 0 -90 -17.5t-24 -65.5v-170h76q64 0 87.5 24.5t33.5 102.5h34v-299h-34q-7 70 -35.5 99.5t-87.5 29.5h-74v-211
q0 -49 22.5 -68.5t90.5 -19.5q112 0 185 39.5t155 144.5z" />
    <glyph glyph-name="F" unicode="F" horiz-adv-x="640" 
d="M654 510l-32 -16q-65 78 -131.5 111.5t-157.5 33.5q-40 0 -63 -5.5t-33.5 -20.5t-13 -29.5t-2.5 -42.5v-156h66q74 0 97.5 26t31.5 99h31v-296h-31q-9 66 -33.5 97t-95.5 31h-66v-198q0 -61 13.5 -83.5t51.5 -26.5l33 -3v-31h-288v31l25 3q39 5 52 27t13 83v393
q0 61 -13 83t-52 27l-25 3v31h551z" />
    <glyph glyph-name="G" unicode="G" horiz-adv-x="800" 
d="M778 293l-18 -3q-26 -5 -38 -12t-19.5 -30t-7.5 -68v-180h-47l-32 69q-106 -82 -227 -82q-148 0 -246.5 102t-98.5 254q0 106 50 188t125.5 122.5t159.5 40.5q107 0 195 -61l20 48h31l61 -212l-38 -11q-62 87 -105 124q-77 64 -158 64q-100 0 -161.5 -85t-61.5 -225
q0 -135 66.5 -218t174.5 -83q29 0 60 7.5t64.5 25t54.5 52t21 80.5t-21.5 66.5t-76.5 27.5v30h273v-31z" />
    <glyph glyph-name="H" unicode="H" horiz-adv-x="800" 
d="M769 0h-280v31l25 3q39 5 52 27t13 83v201h-358v-201q0 -61 13 -83t52 -27l25 -3v-31h-280v31l25 3q39 5 52 27t13 83v393q0 61 -13 83t-52 27l-25 3v31h280v-31l-25 -3q-39 -5 -52 -27t-13 -83v-149h358v149q0 61 -13 83t-52 27l-25 3v31h280v-31l-25 -3q-39 -5 -52 -27
t-13 -83v-393q0 -61 13 -83t52 -27l25 -3v-31z" />
    <glyph glyph-name="I" unicode="I" horiz-adv-x="340" 
d="M301 0h-270v31l20 3q41 7 53 27.5t12 82.5v393q0 62 -12 82.5t-53 27.5l-20 3v31h270v-31l-20 -3q-41 -7 -53 -27.5t-12 -82.5v-393q0 -62 12 -82.5t53 -27.5l20 -3v-31z" />
    <glyph glyph-name="J" unicode="J" horiz-adv-x="600" 
d="M567 650l-25 -3q-39 -5 -52 -27t-13 -83v-277q0 -33 -0.5 -52t-5.5 -51.5t-14 -52.5t-27.5 -45t-44 -38.5t-66 -23.5t-91.5 -10q-117 0 -184 61.5t-67 137.5q0 39 22 64t56 25q25 0 40 -14.5t15 -39.5q0 -26 -25 -48q-20 -19 -20 -40q0 -40 43 -69t101 -29q40 0 69.5 9
t47.5 29.5t28.5 41t15.5 57.5t6 64.5t1 74.5v226q0 61 -13 83t-52 27l-25 3v31h280v-31z" />
    <glyph glyph-name="K" unicode="K" horiz-adv-x="720" 
d="M750 0h-308v31q16 2 18 2q37 3 51 16.5t9.5 32t-22.5 47.5l-161 257l-116 -103v-139q0 -61 13.5 -84t51.5 -26l41 -3v-31h-296v31l25 3q39 5 52 27t13 83v393q0 61 -13 83t-52 27l-25 3v31h296v-31l-41 -3q-38 -3 -51.5 -26t-13.5 -84v-192l205 184q38 34 48.5 48
t10.5 31q0 20 -13 29t-45 12l-10 1v31h286v-31l-7 -2q-65 -12 -159 -92l-120 -105l190 -310q37 -57 64.5 -78.5t78.5 -32.5v-30z" />
    <glyph glyph-name="L" unicode="L" horiz-adv-x="600" 
d="M629 214l-80 -214h-518v31l25 3q39 5 52 27t13 83v393q0 61 -13 83t-52 27l-25 3v31h287v-31l-32 -3q-38 -4 -51.5 -26.5t-13.5 -83.5v-414q0 -43 16.5 -64t69.5 -21q95 0 184 67q50 37 110 122z" />
    <glyph glyph-name="M" unicode="M" horiz-adv-x="920" 
d="M894 0h-280v31l25 3q39 5 52 27t13 83v466l-251 -610h-45l-229 622v-478q0 -61 13.5 -83.5t51.5 -26.5l35 -3v-31h-253v31l31 3q38 4 51.5 26.5t13.5 83.5v393q0 61 -13 83t-52 27l-25 3v31h233l192 -515l209 515h228v-31l-25 -3q-39 -5 -52 -27t-13 -83v-393
q0 -61 13 -83t52 -27l25 -3v-31z" />
    <glyph glyph-name="N" unicode="N" horiz-adv-x="740" 
d="M722 650l-25 -3q-39 -5 -52 -27t-13 -83v-537h-88l-371 606v-462q0 -61 13.5 -83.5t51.5 -26.5l35 -3v-31h-247v31l25 3q39 5 52 27t13 83v393q0 61 -13 83t-52 27l-25 3v31h223l326 -539v395q0 61 -13.5 83.5t-51.5 26.5l-35 3v31h247v-31z" />
    <glyph glyph-name="O" unicode="O" horiz-adv-x="800" 
d="M758 338q0 -83 -31.5 -151t-83 -111t-114.5 -66t-129 -23q-152 0 -254 102.5t-102 253.5q0 147 104.5 249t255.5 102q154 0 254 -100.5t100 -255.5zM640 332q0 145 -64 229.5t-174 84.5q-109 0 -174.5 -83t-65.5 -221q0 -140 65 -223.5t174 -83.5t174 81t65 216z" />
    <glyph glyph-name="P" unicode="P" 
d="M613 490q0 -33 -11 -64t-36.5 -63.5t-78 -52t-125.5 -19.5h-141v-147q0 -61 13.5 -84t51.5 -26l37 -3v-31h-292v31l25 3q39 5 52 27t13 83v393q0 61 -13 83t-52 27l-25 3v31h332q116 0 183 -51.5t67 -139.5zM511 487q0 152 -176 152q-72 0 -93 -12t-21 -52v-241h125
q47 0 81.5 14.5t51.5 38.5t24.5 48.5t7.5 51.5z" />
    <glyph glyph-name="Q" unicode="Q" horiz-adv-x="820" 
d="M769 337q0 -142 -94 -246q42 -53 42 -98q0 -80 -89.5 -131.5t-227.5 -51.5q-119 0 -208 40t-89 93q0 20 16 33t41 13q28 0 44.5 -16t16.5 -43q1 -21 8 -30.5t31 -19.5q50 -25 139 -25q99 0 164.5 39.5t65.5 98.5q0 20 -15 49q-93 -55 -207 -55q-152 0 -257.5 101
t-105.5 247q0 152 106 255.5t261 103.5q156 0 257 -101t101 -256zM651 341q0 137 -66 221t-174 84q-111 0 -180 -88t-69 -228q0 -250 207 -298q-36 25 -36 54q0 36 39.5 59t103.5 23q55 0 136 -29q39 92 39 202zM571 84q-52 26 -103 26q-38 0 -62.5 -13t-24.5 -32
q0 -15 17.5 -24t45.5 -9q73 0 127 52z" />
    <glyph glyph-name="R" unicode="R" horiz-adv-x="720" 
d="M757 0h-167l-225 321h-144v-177q0 -61 13.5 -83.5t51.5 -26.5l36 -3v-31h-291v31l25 3q39 5 52 27t13 83v393q0 61 -13 83t-52 27l-25 3v31h407q108 0 169.5 -46t61.5 -126q0 -24 -6.5 -46.5t-23.5 -51t-57 -50.5t-98 -30l166 -235q23 -30 46.5 -44t60.5 -21v-31z
M561 505q0 135 -192 135q-89 0 -118.5 -14.5t-29.5 -44.5v-217h168q44 0 76.5 10.5t50.5 25.5t28.5 35.5t13.5 36.5t3 33z" />
    <glyph glyph-name="S" unicode="S" horiz-adv-x="660" 
d="M634 202q0 -90 -80.5 -152.5t-197.5 -62.5q-118 0 -207 63l-19 -50h-37l-65 229l37 12q52 -100 126 -153t160 -53q77 0 129 42.5t52 106.5q0 45 -29.5 70.5t-103.5 43.5l-134 34q-104 27 -151 66q-55 47 -55 117q0 65 58 122t171 57q108 0 189 -49l12 36h36l61 -181
l-32 -12q-103 158 -246 158q-62 0 -104.5 -31t-42.5 -76q0 -40 31.5 -65.5t104.5 -43.5l125 -30q113 -27 162.5 -70t49.5 -128z" />
    <glyph glyph-name="T" unicode="T" 
d="M656 505l-35 -12q-86 150 -220 150q-25 0 -33 -9t-8 -35v-455q0 -61 13.5 -84t51.5 -26l39 -3v-31h-308v31l39 3q38 3 51.5 26t13.5 84v459q0 23 -9.5 31.5t-34.5 8.5q-135 0 -220 -150l-33 12l57 176h580z" />
    <glyph glyph-name="U" unicode="U" horiz-adv-x="780" 
d="M754 650l-25 -3q-39 -5 -52 -27t-13 -83v-333q0 -106 -60.5 -161.5t-211.5 -55.5q-55 0 -101 10t-87.5 32.5t-65 66.5t-23.5 106v335q0 61 -13 83t-52 27l-25 3v31h292v-31l-37 -3q-38 -3 -51.5 -26t-13.5 -84v-267q0 -48 2.5 -77.5t13.5 -63t31 -52t56 -30.5t89 -12
q42 0 74 7.5t53 18t35.5 31.5t22 36.5t11 45.5t4 47t0.5 51v265q0 61 -13.5 83.5t-51.5 26.5l-33 3v31h245v-31z" />
    <glyph glyph-name="V" unicode="V" horiz-adv-x="700" 
d="M725 650q-57 -6 -79.5 -26t-53.5 -93l-219 -531h-60l-225 546q-25 59 -44.5 78t-63.5 24l-10 2v31h299v-31q-21 -1 -34.5 -2.5t-26.5 -6.5t-19 -14t-5.5 -24.5t8.5 -37.5l176 -454l172 436q20 47 1 73.5t-83 29.5v31h267v-31z" />
    <glyph glyph-name="W" unicode="W" horiz-adv-x="960" 
d="M984 650q-48 -3 -69 -23.5t-45 -86.5l-194 -540h-59l-147 437l-146 -437h-59l-188 540q-23 64 -39 80.5t-68 29.5v31h272v-31q-47 -3 -63.5 -20t-2.5 -56l146 -440l119 381q-19 69 -43 96.5t-74 38.5v31h274v-31q-47 -6 -65 -21.5t-4 -47.5l146 -445l134 416q6 20 7 35.5
t-3.5 25.5t-11 16.5t-19 10.5t-23 6t-27.5 4v31h252v-31z" />
    <glyph glyph-name="X" unicode="X" horiz-adv-x="720" 
d="M755 0h-328v31q42 6 61 14.5t20 27.5t-24 52l-140 187l-153 -190q-25 -33 -7 -61t68 -30v-31h-282v31q63 20 99 46t87 89l158 187l-172 219q-31 41 -57 57t-69 21v31h310v-31q-58 -2 -73 -24t14 -54l124 -162l117 150q28 34 17 61.5t-67 28.5v31h269v-31
q-59 -10 -90 -30.5t-87 -87.5l-131 -161l192 -250q36 -48 64.5 -66t79.5 -24v-31z" />
    <glyph glyph-name="Y" unicode="Y" horiz-adv-x="640" 
d="M666 650q-53 -11 -80 -31.5t-66 -79.5l-165 -253v-142q0 -61 13.5 -84t51.5 -26l41 -3v-31h-312v31l41 3q38 3 51.5 26t13.5 84v140l-167 266q-33 54 -54.5 72t-63.5 28v31h285v-31q-60 -8 -73.5 -23.5t9.5 -53.5l141 -228l142 218q14 21 16 36.5t-8 25.5t-25.5 15.5
t-39.5 9.5v31h249v-31z" />
    <glyph glyph-name="Z" unicode="Z" horiz-adv-x="640" 
d="M656 205l-72 -205h-555l-19 31l471 596q-60 12 -120 12q-98 0 -162.5 -34t-125.5 -117l-33 12l73 181h495l11 -37l-468 -593q75 -8 128 -8q142 0 221.5 40.5t124.5 134.5z" />
    <glyph glyph-name="bracketleft" unicode="[" horiz-adv-x="300" 
d="M258 -141h-166v858h166v-42h-16q-40 0 -50 -10t-10 -50v-641q0 -47 10.5 -60t48.5 -13h17v-42z" />
    <glyph glyph-name="backslash" unicode="\" horiz-adv-x="600" 
d="M532 0h-86l-372 717h86z" />
    <glyph glyph-name="bracketright" unicode="]" horiz-adv-x="300" 
d="M207 -141h-166v42h16q40 0 50 10t10 50v641q0 48 -10.5 60.5t-48.5 12.5h-17v42h166v-858z" />
    <glyph glyph-name="asciicircum" unicode="^" horiz-adv-x="600" 
d="M554 318h-86l-165 311l-165 -311h-86l209 404h84z" />
    <glyph glyph-name="underscore" unicode="_" horiz-adv-x="500" 
d="M500 -155h-500v60h500v-60z" />
    <glyph glyph-name="grave" unicode="`" horiz-adv-x="340" 
d="M252 586l-5 -14l-139 29q-62 13 -62 50q0 16 10 26.5t25 10.5q31 0 76 -34z" />
    <glyph glyph-name="a" unicode="a" horiz-adv-x="580" 
d="M587 30q-40 -39 -103 -39q-85 0 -112 77q-50 -42 -91.5 -59.5t-91.5 -17.5q-67 0 -110.5 35t-43.5 89q0 134 322 167q10 1 15 2v80q0 41 -31.5 65.5t-84.5 24.5q-42 0 -71.5 -15t-29.5 -37l1 -28q0 -21 -15 -36t-36 -15q-20 0 -34 13t-14 31q0 37 34.5 67t84 45t99.5 15
q34 0 65 -6.5t61 -22t48 -46t18 -73.5v-212q0 -19 0.5 -29.5t3.5 -25.5t8.5 -23t16.5 -14t27 -6q22 0 45 20zM372 113v136q-113 -10 -174 -42t-61 -82q0 -36 25.5 -61t61.5 -25q70 0 148 74z" />
    <glyph glyph-name="b" unicode="b" 
d="M582 248q0 -113 -67.5 -185t-174.5 -72q-48 0 -87 15t-88 52l-24 -58h-56v538q0 67 -12 87.5t-53 24.5l-22 2v31q79 9 142 34h40v-295q42 39 82 55.5t92 16.5q100 0 164 -69.5t64 -176.5zM480 245q0 93 -41 147t-111 54q-43 0 -76.5 -17.5t-71.5 -60.5v-273
q58 -56 137 -56q74 0 118.5 56t44.5 150z" />
    <glyph glyph-name="c" unicode="c" horiz-adv-x="520" 
d="M498 108q-75 -117 -215 -117q-110 0 -178 69.5t-68 181.5q0 30 6.5 61t23.5 66t43.5 62t70.5 45t100 18q95 0 149.5 -44.5t54.5 -92.5q0 -23 -14.5 -39t-36.5 -16t-36.5 14.5t-14.5 36.5l1 35q0 26 -30 46t-69 20q-55 0 -89.5 -35.5t-45.5 -80.5t-11 -100
q0 -93 47.5 -150t124.5 -57q46 0 81 21t77 74z" />
    <glyph glyph-name="d" unicode="d" 
d="M591 0h-168v67q-71 -76 -173 -76q-100 0 -156.5 75.5t-56.5 174.5q0 108 63 180.5t157 72.5q89 0 166 -53v97q0 67 -12 87.5t-53 24.5l-21 2v31q79 9 141 34h40v-602q0 -40 13 -57.5t48 -25.5l12 -2v-30zM423 118v271q-40 34 -70 47t-66 13q-44 0 -75 -21.5t-46 -55.5
t-21 -65.5t-6 -63.5q0 -33 6.5 -65.5t21 -65.5t43.5 -53t69 -20q79 0 144 79z" />
    <glyph glyph-name="e" unicode="e" horiz-adv-x="520" 
d="M491 116q-73 -125 -207 -125q-63 0 -112.5 24t-77.5 62.5t-42.5 82t-14.5 87.5q0 108 66.5 177.5t169.5 69.5q32 0 66 -9.5t70 -31t59 -64.5t23 -100h-347q0 -121 37.5 -187t132.5 -66q92 0 144 96zM387 329v3q1 18 -6 43.5t-36 52t-76 26.5q-58 0 -85 -33.5t-37 -91.5
h240z" />
    <glyph glyph-name="f" unicode="f" horiz-adv-x="320" 
d="M414 677q0 -17 -14 -30t-32 -13q-25 0 -46 28q-23 29 -47 29q-28 0 -50.5 -22.5t-22.5 -77.5v-106h99v-33h-99v-337q0 -41 14.5 -60t47.5 -23l25 -2v-30h-269v30l25 2q33 4 47.5 23t14.5 60v337h-84v33h84v47q0 53 19.5 92.5t45.5 59.5t60.5 32.5t56 15t39.5 2.5
q37 0 61.5 -16t24.5 -41z" />
    <glyph glyph-name="g" unicode="g" horiz-adv-x="540" 
d="M542 520q0 -16 -11 -27t-27 -11q-14 0 -29 9.5t-24 9.5q-24 0 -53 -43q83 -56 83 -142q0 -27 -10 -54t-32.5 -54t-66 -43.5t-101.5 -16.5q-45 0 -94 16q-46 -24 -46 -53q0 -32 65 -41l191 -26q32 -4 52 -9.5t46 -18t39.5 -36.5t13.5 -59q0 -74 -73 -118t-194 -44
q-112 0 -183 34t-71 88q0 37 24.5 62.5t80.5 46.5q-73 26 -73 84q0 68 98 100q-81 55 -81 142q0 74 60 126t146 52q41 0 94 -20q47 89 122 89q24 0 39 -12t15 -31zM379 321q0 141 -102 141q-52 0 -80.5 -37t-28.5 -103q0 -142 106 -142q105 0 105 141zM468 -111
q0 29 -24 44.5t-79 22.5l-205 25q-83 -31 -83 -90q0 -42 54 -68.5t140 -26.5q105 0 151 29t46 64z" />
    <glyph glyph-name="h" unicode="h" horiz-adv-x="660" 
d="M643 0h-269v30l25 2q33 4 47.5 23t14.5 60v230q0 101 -86 101q-87 0 -173 -82v-249q0 -41 14.5 -60t47.5 -23l25 -2v-30h-269v30l25 2q33 4 47.5 23t14.5 60v423q0 67 -12 87.5t-53 24.5l-22 2v31q79 9 142 34h40v-306q96 83 197 83q45 0 76.5 -11.5t47 -25.5t23.5 -37
t9 -36t1 -33v-236q0 -41 14.5 -60t47.5 -23l25 -2v-30z" />
    <glyph glyph-name="i" unicode="i" horiz-adv-x="300" 
d="M288 0h-268v30l25 2q33 4 47.5 23t14.5 60v235q0 45 -13.5 62t-52.5 21l-20 2v30q62 5 147 20h34v-370q0 -41 14 -60t48 -23l24 -2v-30zM211 630q0 -24 -17.5 -41.5t-41.5 -17.5t-41.5 17.5t-17.5 41.5q0 25 17.5 42t42.5 17q23 0 40.5 -17.5t17.5 -41.5z" />
    <glyph glyph-name="j" unicode="j" horiz-adv-x="300" 
d="M203 -47q0 -49 -16.5 -86.5t-39.5 -57t-53.5 -32t-52.5 -15.5t-43 -3q-48 0 -77.5 17t-29.5 44q0 16 13.5 28t32.5 12q22 0 44 -26q16 -18 27 -24t28 -6q26 0 42 11.5t22 41.5t7 52t1 71v25v345q0 45 -14 62.5t-52 20.5l-24 2v30q76 5 151 20h34v-532zM212 630
q0 -24 -17.5 -41.5t-41.5 -17.5t-41.5 17.5t-17.5 41.5q0 25 17.5 42t42.5 17q23 0 40.5 -17.5t17.5 -41.5z" />
    <glyph glyph-name="k" unicode="k" 
d="M628 0h-270v30l27 2q18 2 25 11t3.5 22t-10 25.5t-15.5 24.5l-105 152l-81 -69v-83q0 -40 14.5 -59.5t46.5 -23.5l26 -2v-30h-269v30l25 2q33 4 47.5 23t14.5 60v423q0 67 -12 87.5t-53 24.5l-22 2v31q79 9 142 34h40v-468l156 136q27 23 27 39q0 28 -56 32v29h266v-30
q-65 -10 -105.5 -28.5t-86.5 -58.5l-45 -40l149 -213q54 -71 121 -83v-32z" />
    <glyph glyph-name="l" unicode="l" horiz-adv-x="300" 
d="M286 0h-266v30l24 2q34 4 48 23t14 60v423q0 67 -12 87.5t-53 24.5l-21 2v31q79 9 141 34h40v-602q0 -41 14 -60t48 -23l23 -2v-30z" />
    <glyph glyph-name="m" unicode="m" horiz-adv-x="940" 
d="M928 0h-262v30l18 2q32 5 47 21.5t15 61.5v218q0 109 -79 109q-64 0 -147 -69v-258q0 -41 14 -59.5t48 -23.5l21 -2v-30h-261v30l21 2q34 5 48 23.5t14 59.5v221q0 55 -19.5 80.5t-62.5 25.5q-64 0 -144 -69v-258q0 -26 5 -43t16.5 -25t19 -10.5t21.5 -4.5l18 -2v-30
h-262v30l25 2q33 4 47.5 23t14.5 60v235q0 45 -13.5 62t-52.5 21l-21 2v30q77 7 148 20h34v-67q48 42 88.5 59t93.5 17q54 0 85.5 -19t51.5 -64q54 46 97 64.5t93 18.5q62 0 97.5 -35.5t35.5 -98.5v-245q0 -41 14.5 -60t47.5 -23l25 -2v-30z" />
    <glyph glyph-name="n" unicode="n" horiz-adv-x="660" 
d="M649 0h-269v30l25 2q33 4 47.5 23t14.5 60v231q0 100 -85 100q-84 0 -177 -84v-247q0 -41 14.5 -60t47.5 -23l25 -2v-30h-269v30l25 2q33 4 47.5 23t14.5 60v235q0 45 -14 62.5t-52 20.5l-24 2v30q76 5 151 20h34v-79q53 47 101 67.5t105 20.5q71 0 111 -35t40 -97v-247
q0 -41 14.5 -60t47.5 -23l25 -2v-30z" />
    <glyph glyph-name="o" unicode="o" horiz-adv-x="560" 
d="M526 239q0 -111 -67 -179.5t-176 -68.5q-112 0 -179 68.5t-67 181.5q0 30 6 61t23.5 66.5t43.5 62.5t70 45t99 18q57 0 101.5 -18t71 -45t44 -62.5t24 -67.5t6.5 -62zM424 234q0 103 -38.5 161.5t-105.5 58.5q-64 0 -102.5 -57.5t-38.5 -153.5q0 -101 38 -156.5
t107 -55.5q66 0 103 54t37 149z" />
    <glyph glyph-name="p" unicode="p" 
d="M583 245q0 -108 -64 -181t-159 -73q-91 0 -158 51v-155q0 -41 14.5 -60.5t47.5 -22.5l25 -2v-30h-269v30l25 2q33 3 47.5 22.5t14.5 60.5v463q0 45 -13.5 62t-52.5 21l-21 2v30q77 7 148 20h34v-66q66 75 163 75q100 0 159 -74t59 -175zM481 233q0 98 -40 157t-107 59
q-72 0 -132 -80v-278q58 -55 133 -55q63 0 104.5 56t41.5 141z" />
    <glyph glyph-name="q" unicode="q" horiz-adv-x="580" 
d="M589 -228h-269v30l25 2q33 3 47.5 22.5t14.5 60.5v164q-82 -60 -152 -60q-24 0 -51 7t-57 25t-54 44.5t-40 70t-16 97.5q0 62 21 113t54 82t72.5 47.5t78.5 16.5q85 0 161 -66l26 57h52v-598q0 -41 14.5 -60.5t47.5 -22.5l25 -2v-30zM407 99v289q-50 61 -115 61
q-25 0 -50 -10t-49 -32.5t-39 -66t-15 -103.5q0 -88 40.5 -144.5t102.5 -56.5q55 0 125 63z" />
    <glyph glyph-name="r" unicode="r" horiz-adv-x="440" 
d="M447 438q0 -24 -16 -39.5t-41 -15.5q-27 0 -51 18q-23 15 -42 15q-42 0 -92 -56v-245q0 -41 14.5 -60t47.5 -23l25 -2v-30h-269v30l25 2q33 4 47.5 23t14.5 60v235q0 45 -14 62.5t-52 20.5l-24 2v30q76 5 151 20h34v-80q4 3 29.5 25t39.5 32t42.5 21t57.5 11
q32 0 52.5 -15.5t20.5 -40.5z" />
    <glyph glyph-name="s" unicode="s" horiz-adv-x="520" 
d="M487 153q0 -70 -59 -116t-149 -46q-49 0 -85 12t-76 43l-11 -42h-33l-34 178h34q19 -53 42 -79q28 -34 70.5 -53t89.5 -19q55 0 92 26.5t37 65.5q0 47 -73 66l-128 32q-79 20 -114 50t-35 77q0 61 53 103.5t130 42.5q81 0 143 -49l10 36h28l32 -154h-32q-25 59 -71.5 93
t-103.5 34q-44 0 -72.5 -21.5t-28.5 -53.5q0 -16 6.5 -27t20.5 -18t24 -10.5t27 -7.5l139 -34q65 -16 96 -47t31 -82z" />
    <glyph glyph-name="t" unicode="t" horiz-adv-x="380" 
d="M388 61q-54 -70 -141 -70q-36 0 -66 9.5t-53.5 39.5t-23.5 77v335h-84v33q74 3 108 46.5t33 135.5h38v-182h143v-33h-143v-289q0 -132 75 -132q42 0 87 52z" />
    <glyph glyph-name="u" unicode="u" horiz-adv-x="680" 
d="M653 0h-182v84q-64 -52 -111 -72.5t-101 -20.5q-64 0 -106.5 34t-42.5 116v209q0 45 -14 62.5t-52 20.5l-24 2v30q90 6 151 20h34v-336q0 -57 22 -83.5t69 -26.5q75 0 175 88v223q0 45 -14 62.5t-52 20.5l-24 2v30q96 7 151 20h34v-370q0 -41 14.5 -60t47.5 -23l25 -2
v-30z" />
    <glyph glyph-name="v" unicode="v" horiz-adv-x="520" 
d="M534 453q-66 -15 -104 -99l-153 -354h-59l-159 385q-17 38 -32.5 51t-49.5 18v31h244v-30q-26 -3 -37.5 -5.5t-19.5 -10t-7 -20t8 -34.5l113 -297l104 274q18 39 6 62.5t-60 30.5v30h206v-32z" />
    <glyph glyph-name="w" unicode="w" horiz-adv-x="780" 
d="M804 455q-41 -11 -61.5 -31t-41.5 -70l-140 -354h-70l-100 287l-118 -287h-65l-149 387q-13 34 -31 49.5t-47 18.5v30h236v-30q-38 -3 -51 -18.5t0 -49.5l106 -298l97 256l-17 42q-14 35 -28.5 47.5t-50.5 20.5v30h238v-30q-41 -5 -53 -20.5t-2 -47.5l104 -297l90 264
q31 95 -67 101v30h221v-30z" />
    <glyph glyph-name="x" unicode="x" horiz-adv-x="560" 
d="M576 0h-277v30q85 12 50 60l-90 126l-100 -112q-54 -60 49 -74v-30h-224v30q36 5 60.5 20.5t58.5 53.5l127 143l-117 147q-27 32 -47 44t-55 17v30h248v-30q-25 -3 -36 -7t-14.5 -14.5t11.5 -28.5l79 -96l85 96q10 14 11 23.5t-7 14.5t-16.5 7.5t-22.5 4.5v30h211v-30
q-49 -10 -79 -26.5t-71 -56.5l-87 -93l137 -175q33 -40 54.5 -53.5t61.5 -20.5v-30z" />
    <glyph glyph-name="y" unicode="y" horiz-adv-x="540" 
d="M549 454q-40 -10 -62 -29.5t-40 -61.5l-173 -406q-11 -27 -17.5 -42.5t-26.5 -49.5t-38.5 -53.5t-48.5 -36t-63 -16.5q-40 0 -67 19.5t-27 48.5q0 20 15.5 34.5t37.5 14.5q15 0 25.5 -6.5t29.5 -26.5q19 -19 33 -19q20 0 44 25.5t40 65.5l25 58l-179 418
q-14 35 -28.5 46.5t-51.5 16.5v31h233v-30q-70 -8 -50 -57l125 -304l93 236q15 38 19 61t-5 35.5t-22 18t-41 10.5v30h220v-31z" />
    <glyph glyph-name="z" unicode="z" horiz-adv-x="480" 
d="M476 158l-54 -158h-399l-16 29l328 418q-40 8 -67 8q-88 0 -145 -39q-38 -26 -69 -89l-31 11l56 147h374l11 -25l-335 -416q47 -14 95 -14q76 0 126 31t98 107z" />
    <glyph glyph-name="braceleft" unicode="{" horiz-adv-x="280" 
d="M248 -121q-11 -1 -29 -1q-56 0 -82.5 30.5t-26.5 94.5v220q0 31 -18 47t-57 22v32q39 6 57 22t18 47v220q0 65 27 95t86 30l25 -1v-32q-40 -7 -58 -24t-18 -47v-221q0 -44 -11.5 -65.5t-44.5 -39.5q33 -18 44.5 -39.5t11.5 -65.5v-221q0 -30 18 -47t58 -24v-32z" />
    <glyph glyph-name="bar" unicode="|" horiz-adv-x="600" 
d="M339 -141h-78v858h78v-858z" />
    <glyph glyph-name="braceright" unicode="}" horiz-adv-x="280" 
d="M248 292q-39 -6 -57 -22t-18 -47v-220q0 -65 -27 -95t-86 -30l-25 1v32q40 7 58 24t18 47v221q0 44 11.5 65.5t44.5 39.5q-33 18 -44.5 39.5t-11.5 65.5v221q0 30 -18 47t-58 24v32q11 1 29 1q109 0 109 -125v-220q0 -31 18 -47t57 -22v-32z" />
    <glyph glyph-name="asciitilde" unicode="~" horiz-adv-x="600" 
d="M556 285q-28 -53 -64.5 -82.5t-75.5 -29.5q-31 0 -93 26l-54 22q-50 21 -73 21q-40 0 -67 -35q-21 -32 -35 -55l-42 47q38 67 70 93.5t74 26.5q34 0 76 -19l65 -27q55 -23 80 -23q47 0 96 82z" />
    <glyph glyph-name="uni00A0" unicode="&#xa0;" horiz-adv-x="333" 
 />
    <glyph glyph-name="exclamdown" unicode="&#xa1;" horiz-adv-x="300" 
d="M221 433q0 -26 -19 -45t-46 -19q-26 0 -45 19t-19 45q0 27 19 46t45 19q27 0 46 -19t19 -46zM225 -108q0 -101 -72 -101q-34 0 -53 24.5t-19 67.5q0 30 14 102l28 136q17 89 17 159v31h36v-32q0 -85 15 -166l22 -131q12 -68 12 -90z" />
    <glyph glyph-name="cent" unicode="&#xa2;" 
d="M511 247q-26 -47 -70.5 -74.5t-98.5 -31.5v-120h-37v120q-81 7 -135 66t-54 139q0 83 52 139t137 64v103h37v-103q68 -5 113 -36.5t45 -75.5q0 -22 -14.5 -37t-34.5 -15q-48 0 -56 64q-3 50 -53 55v-295q21 -3 30 -3q30 0 53.5 11.5t61.5 43.5zM305 221v284
q-81 -24 -81 -140q0 -104 81 -144z" />
    <glyph glyph-name="sterling" unicode="&#xa3;" 
d="M631 117q0 -53 -38 -89.5t-94 -36.5q-25 0 -48 7.5t-71 31.5l-91 46q-69 -89 -166 -89q-49 0 -82 26.5t-33 66.5t34 66.5t84 26.5q44 0 118 -23q-1 24 -7.5 42.5t-33.5 84.5l-34 80h-127l14 43h98q-19 66 -19 93q0 28 13 60t39.5 65t76 54.5t112.5 21.5q83 0 136 -41
t53 -105q0 -28 -15 -46t-39 -18q-19 0 -33 12.5t-14 29.5q0 15 9.5 35t9.5 28q0 28 -35.5 50.5t-79.5 22.5q-63 0 -102 -42t-39 -111q0 -35 19 -83l11 -26h201l-16 -43h-165l36 -85q27 -63 0 -147l95 -30q63 -21 85 -21q32 0 53.5 17t21.5 43q0 22 -15 35t-39 13t-58 -15
l-16 28q41 27 87 27q44 0 74 -30t30 -75zM237 100q-55 33 -105 33q-32 0 -51.5 -14.5t-19.5 -38.5q0 -23 19 -38t48 -15q65 0 109 73z" />
    <glyph glyph-name="currency" unicode="&#xa4;" 
d="M563 156l-50 -51l-53 53q-69 -52 -149 -52t-149 52l-53 -53l-50 51l53 53q-49 69 -49 145q0 80 49 146l-54 54l51 52l54 -54q68 51 149 51q76 0 146 -50l53 53l50 -52l-53 -52q51 -66 51 -148q0 -79 -49 -145zM477 355q0 67 -48.5 116t-114.5 49q-70 0 -119.5 -48
t-49.5 -116q0 -70 48.5 -118.5t117.5 -48.5q68 0 117 49t49 117z" />
    <glyph glyph-name="yen" unicode="&#xa5;" 
d="M647 654q-53 -10 -79 -30t-69 -87l-69 -103h148v-40h-174l-57 -86v-33h231v-40h-231v-105q0 -59 19 -78.5t80 -21.5v-30h-288v30l18 1q49 2 65 22t16 77v105h-227v40h227v10l-64 109h-163v40h138l-73 122q-33 56 -51.5 71.5t-65.5 26.5v27h268v-27l-11 -2
q-57 -11 -63.5 -31t21.5 -61l131 -214l122 203q33 54 26 72t-68 33v27h243v-27z" />
    <glyph glyph-name="brokenbar" unicode="&#xa6;" horiz-adv-x="600" 
d="M339 374h-78v343h78v-343zM339 -141h-78v343h78v-343z" />
    <glyph glyph-name="section" unicode="&#xa7;" horiz-adv-x="520" 
d="M486 -5q0 -79 -63 -128.5t-164 -49.5q-95 0 -160.5 43t-65.5 104q0 24 15 40.5t37 16.5q21 0 34.5 -14t13.5 -36q0 -6 -2.5 -20.5t-2.5 -24.5q0 -21 15.5 -36t39.5 -21.5t42.5 -9t33.5 -2.5q64 0 101.5 32t37.5 85q0 71 -86 88l-108 23q-167 35 -167 157q0 44 22 79.5
t75 77.5q-48 27 -68 58.5t-20 78.5q0 71 58.5 114.5t152.5 43.5q89 0 150.5 -39.5t61.5 -97.5q0 -25 -13 -41t-33 -16q-22 0 -36 15.5t-14 38.5l1 33q0 31 -29.5 49t-79.5 18q-62 0 -96.5 -25t-34.5 -70q0 -35 20 -56.5t65 -35.5l135 -38q58 -17 91.5 -56t33.5 -89
q0 -79 -62 -158q69 -51 69 -131zM409 230q0 46 -26 74t-85 46l-128 37q-55 -60 -55 -112q0 -37 30 -63.5t82 -37.5l71 -15q62 -13 84 -19q27 49 27 90z" />
    <glyph glyph-name="dieresis" unicode="&#xa8;" horiz-adv-x="420" 
d="M186 630q0 -24 -17.5 -41.5t-41.5 -17.5t-41.5 17.5t-17.5 41.5q0 25 17.5 42t42.5 17q23 0 40.5 -17.5t17.5 -41.5zM349 630q0 -24 -17.5 -41.5t-41.5 -17.5t-41.5 17.5t-17.5 41.5q0 25 17.5 42t42.5 17q23 0 40.5 -17.5t17.5 -41.5z" />
    <glyph glyph-name="copyright" unicode="&#xa9;" horiz-adv-x="740" 
d="M720 337q0 -145 -102.5 -247.5t-247.5 -102.5t-247.5 102.5t-102.5 247.5t102.5 247.5t247.5 102.5t247.5 -102.5t102.5 -247.5zM684 337q0 130 -92 222t-222 92t-222 -92t-92 -222t92 -222t222 -92t222 92t92 222zM568 242q-66 -96 -183 -96q-91 0 -152.5 54t-61.5 135
q0 60 34 106t78.5 66.5t87.5 20.5q72 0 119 -32l12 21h23l30 -135h-25q-15 29 -24.5 44t-27 34.5t-41.5 28t-55 8.5q-56 0 -92 -46t-36 -115q0 -79 44 -118.5t96 -39.5q18 0 38 4.5t51 23.5t54 51z" />
    <glyph glyph-name="ordfeminine" unicode="&#xaa;" horiz-adv-x="420" 
d="M393 405q-29 -24 -63 -24q-58 0 -76 39q-52 -40 -107 -40q-44 0 -71 22t-27 57q0 47 52 71q39 19 150 34v45q0 20 -17.5 32t-47.5 12q-26 0 -43 -14q-4 -3 -4 -14v-7q0 -17 -10 -27.5t-26 -10.5q-14 0 -24 9.5t-10 22.5q0 28 39 50.5t87 22.5q50 0 87 -19.5t37 -66.5
v-131q0 -28 5.5 -39t19.5 -11q16 0 30 11zM251 457v76q-72 -11 -102 -27t-30 -43q0 -20 14 -33t36 -13q36 0 82 40zM368 288h-305v40h305v-40z" />
    <glyph glyph-name="guillemotleft" unicode="&#xab;" horiz-adv-x="360" 
d="M312 420l-62 -155l51 -158l-30 -18l-97 176l108 172zM189 420l-62 -155l52 -158l-30 -18l-98 176l109 172z" />
    <glyph glyph-name="logicalnot" unicode="&#xac;" horiz-adv-x="600" 
d="M560 374v-209h-78v131h-442v78h520z" />
    <glyph glyph-name="uni00AD" unicode="&#xad;" horiz-adv-x="400" 
d="M350 289l-28 -57h-272l29 57h271z" />
    <glyph glyph-name="registered" unicode="&#xae;" horiz-adv-x="740" 
d="M720 337q0 -145 -102.5 -247.5t-247.5 -102.5t-247.5 102.5t-102.5 247.5t102.5 247.5t247.5 102.5t247.5 -102.5t102.5 -247.5zM684 337q0 130 -92 222t-222 92t-222 -92t-92 -222t92 -222t222 -92t222 92t92 222zM584 175v-22h-104l-132 171h-72v-91q0 -31 6 -42.5
t26 -13.5l22 -2v-22h-174v22l15 2q21 3 27 14t6 42v209q0 31 -6 42t-27 13l-15 2v22h240q66 0 104 -25t38 -69q0 -13 -3.5 -25t-13.5 -27.5t-33 -27.5t-56 -17l95 -122q21 -26 57 -33zM461 425q0 69 -105 69q-48 0 -64 -7t-16 -22v-112h91q94 0 94 72z" />
    <glyph glyph-name="macron" unicode="&#xaf;" horiz-adv-x="440" 
d="M364 605h-296v50h296v-50z" />
    <glyph glyph-name="degree" unicode="&#xb0;" horiz-adv-x="400" 
d="M350 533q0 -64 -43.5 -108.5t-106.5 -44.5t-106.5 44.5t-43.5 109.5q0 64 44.5 108t108.5 44q62 0 104.5 -44t42.5 -109zM293 533q0 40 -26.5 68t-64.5 28q-40 0 -68 -28t-28 -68t28 -68t66 -28q39 0 66 28t27 68z" />
    <glyph glyph-name="plusminus" unicode="&#xb1;" horiz-adv-x="600" 
d="M560 289h-221v-141h-78v141h-221v78h221v221h78v-221h221v-78zM560 0h-520v78h520v-78z" />
    <glyph glyph-name="two.superior" unicode="&#xb2;" horiz-adv-x="372" 
d="M367 390l-32 -117h-315v48q76 44 119 80q112 95 112 176q0 34 -22.5 54.5t-59.5 20.5q-32 0 -58 -15.5t-26 -34.5q0 -10 13 -24q10 -10 10 -22q0 -14 -12 -24.5t-28 -10.5q-20 0 -33 15.5t-13 38.5q0 46 46 80t109 34q68 0 112 -33.5t44 -85.5q0 -77 -110 -165
q-31 -25 -115 -76h133q41 0 56.5 9t30.5 42l8 17z" />
    <glyph glyph-name="three.superior" unicode="&#xb3;" horiz-adv-x="372" 
d="M360 392q0 -55 -52.5 -91t-132.5 -36q-69 0 -116 27t-47 67q0 19 12.5 32t29.5 13t28 -10t11 -26q0 -7 -5 -21l-1 -5q0 -16 25.5 -28t60.5 -12q50 0 77.5 23.5t27.5 66.5q0 42 -27.5 65.5t-76.5 23.5q-6 0 -46 -3v36q22 -2 36 -2q44 0 70 19.5t26 52.5q0 31 -21.5 49.5
t-57.5 18.5q-30 0 -51 -11.5t-21 -27.5q0 -3 5 -18q3 -7 3 -15q0 -13 -11 -22.5t-27 -9.5q-17 0 -28.5 12t-11.5 30q0 41 42 70t102 29q65 0 108.5 -28.5t43.5 -71.5q0 -66 -88 -90l13 -3q46 -10 73 -38t27 -66z" />
    <glyph glyph-name="acute" unicode="&#xb4;" horiz-adv-x="340" 
d="M294 651q0 -37 -62 -50l-139 -29l-5 14l95 68q45 34 76 34q15 0 25 -10.5t10 -26.5z" />
    <glyph glyph-name="mu" unicode="&#xb5;" horiz-adv-x="680" 
d="M653 0h-182v84q-63 -51 -110 -72t-99 -21q-74 0 -113 58v-24q0 -34 11 -78q19 -68 19 -92q0 -33 -13.5 -53.5t-34.5 -20.5q-22 0 -36 20.5t-14 51.5q0 26 17 91q12 44 12 76v332q0 43 -14 60.5t-52 20.5l-24 2v30q90 6 151 20h34v-336q0 -57 22 -83.5t69 -26.5
q75 0 175 88v223q0 45 -14 62.5t-52 20.5l-24 2v30q96 7 151 20h34v-370q0 -41 14.5 -60t47.5 -23l25 -2v-30z" />
    <glyph glyph-name="paragraph" unicode="&#xb6;" horiz-adv-x="600" 
d="M577 0h-409v32l19 2q50 5 65.5 23t15.5 72v168h-16q-60 0 -105.5 15t-70 36t-39.5 49.5t-19 49.5t-4 42q0 34 10 63.5t36 60.5t80.5 49.5t133.5 18.5h303v-33l-21 -2q-43 -5 -55.5 -23.5t-12.5 -78.5v-415q0 -50 14.5 -70.5t53.5 -24.5l21 -2v-32zM417 33v615h-75v-615
h75zM268 327v321q-73 -1 -113.5 -41.5t-40.5 -112.5q0 -71 42 -116.5t112 -50.5z" />
    <glyph glyph-name="periodcentered" unicode="&#xb7;" horiz-adv-x="320" 
d="M224 250q0 -26 -19 -45t-45 -19t-45 19t-19 45t19 45t45 19t45 -19t19 -45z" />
    <glyph glyph-name="cedilla" unicode="&#xb8;" horiz-adv-x="320" 
d="M267 -125q0 -38 -30.5 -66.5t-71.5 -28.5q-39 0 -68 16.5t-29 39.5q0 10 7 17.5t18 7.5q22 0 31 -24q7 -16 15 -20.5t24 -4.5q19 0 32.5 17.5t13.5 41.5q0 26 -15.5 41t-44.5 15q-17 0 -47 -10l25 85h31l-13 -45q10 2 24 2q40 0 69 -24.5t29 -59.5z" />
    <glyph glyph-name="one.superior" unicode="&#xb9;" horiz-adv-x="372" 
d="M302 273h-222v27h26q13 0 22.5 2.5t14.5 7.5t9 9.5t5 12t1.5 11t-0.5 11.5v7v224q0 33 -7.5 41t-39.5 10l-29 1v26q72 8 118 18h25v-322q0 -15 1 -23t5.5 -17.5t16 -14t29.5 -4.5h25v-27z" />
    <glyph glyph-name="ordmasculine" unicode="&#xba;" horiz-adv-x="420" 
d="M360 532q0 -68 -41.5 -110t-109.5 -42q-70 0 -111.5 42t-41.5 112q0 68 41.5 109.5t109.5 41.5q69 0 111 -42t42 -111zM290 530q0 58 -21.5 90.5t-60.5 32.5q-38 0 -60 -31.5t-22 -86.5q0 -60 21.5 -91.5t61.5 -31.5q39 0 60 30.5t21 87.5zM361 288h-305v40h305v-40z" />
    <glyph glyph-name="guillemotright" unicode="&#xbb;" horiz-adv-x="360" 
d="M189 261l-108 -172l-30 17l62 155l-52 158l31 18zM312 261l-109 -172l-29 17l62 155l-52 158l30 18z" />
    <glyph glyph-name="onequarter" unicode="&#xbc;" horiz-adv-x="930" 
d="M302 273h-222v27h26q13 0 22.5 2.5t14.5 7.5t9 9.5t5 12t1.5 11t-0.5 11.5v7v224q0 33 -7.5 41t-39.5 10l-29 1v26q72 8 118 18h25v-322q0 -15 1 -23t5.5 -17.5t16 -14t29.5 -4.5h25v-27zM723 681l-465 -681h-58l464 681h59zM869 152l-17 -43h-78v-21q0 -35 7.5 -47.5
t28.5 -13.5l24 -1v-26h-187v26l24 1q22 1 29 13.5t7 47.5v21h-192l-12 30l206 269h65v-256h95zM707 152v190l-147 -190h147z" />
    <glyph glyph-name="onehalf" unicode="&#xbd;" horiz-adv-x="930" 
d="M302 273h-222v27h26q13 0 22.5 2.5t14.5 7.5t9 9.5t5 12t1.5 11t-0.5 11.5v7v224q0 33 -7.5 41t-39.5 10l-29 1v26q72 8 118 18h25v-322q0 -15 1 -23t5.5 -17.5t16 -14t29.5 -4.5h25v-27zM704 681l-465 -681h-58l464 681h59zM885 117l-32 -117h-315v48q76 44 119 80
q112 95 112 176q0 34 -22.5 54.5t-59.5 20.5q-32 0 -58 -15.5t-26 -34.5q0 -10 13 -24q10 -10 10 -22q0 -14 -12 -24.5t-28 -10.5q-20 0 -33 15.5t-13 38.5q0 46 46 80t109 34q68 0 112 -33.5t44 -85.5q0 -77 -110 -165q-31 -25 -115 -76h133q41 0 56.5 9t30.5 42l8 17z" />
    <glyph glyph-name="threequarters" unicode="&#xbe;" horiz-adv-x="930" 
d="M400 392q0 -55 -52.5 -91t-132.5 -36q-69 0 -116 27t-47 67q0 19 12.5 32t29.5 13t28 -10t11 -26q0 -7 -5 -21l-1 -5q0 -16 25.5 -28t60.5 -12q50 0 77.5 23.5t27.5 66.5q0 42 -27.5 65.5t-76.5 23.5q-6 0 -46 -3v36q22 -2 36 -2q44 0 70 19.5t26 52.5q0 31 -21.5 49.5
t-57.5 18.5q-30 0 -51 -11.5t-21 -27.5q0 -3 5 -18q3 -7 3 -15q0 -13 -11 -22.5t-27 -9.5q-17 0 -28.5 12t-11.5 30q0 41 42 70t102 29q65 0 108.5 -28.5t43.5 -71.5q0 -66 -88 -90l13 -3q46 -10 73 -38t27 -66zM769 681l-465 -681h-58l464 681h59zM889 152l-17 -43h-78v-21
q0 -35 7.5 -47.5t28.5 -13.5l24 -1v-26h-187v26l24 1q22 1 29 13.5t7 47.5v21h-192l-12 30l206 269h65v-256h95zM727 152v190l-147 -190h147z" />
    <glyph glyph-name="questiondown" unicode="&#xbf;" horiz-adv-x="540" 
d="M370 433q0 -26 -19 -45t-47 -19q-26 0 -44.5 19t-18.5 45q0 27 19 46t45 19q27 0 46 -19t19 -46zM513 -39q0 -62 -68 -116t-179 -54q-35 0 -72.5 8.5t-77 28t-65 58.5t-25.5 91q0 125 135 172l33 12q51 20 70 51.5t18 98.5h45q2 -40 2 -44q0 -48 -14.5 -75t-54.5 -54
l-57 -39q-69 -48 -69 -131q0 -65 37 -101t105 -36q59 0 100.5 25t41.5 61q0 15 -10.5 36.5t-10.5 32.5q0 19 16 33.5t38 14.5q27 0 44.5 -20.5t17.5 -52.5z" />
    <glyph glyph-name="Agrave" unicode="&#xc0;" horiz-adv-x="680" 
d="M714 0h-281v31q61 9 73.5 28t-5.5 65l-50 129h-258l-32 -86q-12 -31 -16.5 -51.5t0.5 -38.5t22 -30q14 -9 64 -16v-31h-268v31l11 2q50 10 75 44t75 163l172 441h93l212 -536q27 -69 45.5 -87.5t67.5 -26.5v-31zM433 296l-114 300l-111 -300h225zM422 756l-5 -12l-153 26
q-69 12 -69 45q0 14 11 23.5t28 9.5q31 0 83 -31z" />
    <glyph glyph-name="Aacute" unicode="&#xc1;" horiz-adv-x="680" 
d="M714 0h-281v31q61 9 73.5 28t-5.5 65l-50 129h-258l-32 -86q-12 -31 -16.5 -51.5t0.5 -38.5t22 -30q14 -9 64 -16v-31h-268v31l11 2q50 10 75 44t75 163l172 441h93l212 -536q27 -69 45.5 -87.5t67.5 -26.5v-31zM433 296l-114 300l-111 -300h225zM491 815q0 -33 -69 -45
l-153 -26l-5 12l105 61q52 31 83 31q17 0 28 -9.5t11 -23.5z" />
    <glyph glyph-name="Acircumflex" unicode="&#xc2;" horiz-adv-x="680" 
d="M714 0h-281v31q61 9 73.5 28t-5.5 65l-50 129h-258l-32 -86q-12 -31 -16.5 -51.5t0.5 -38.5t22 -30q14 -9 64 -16v-31h-268v31l11 2q50 10 75 44t75 163l172 441h93l212 -536q27 -69 45.5 -87.5t67.5 -26.5v-31zM433 296l-114 300l-111 -300h225zM499 765l-15 -22
l-141 40l-142 -40l-14 22l156 84z" />
    <glyph glyph-name="Atilde" unicode="&#xc3;" horiz-adv-x="680" 
d="M714 0h-281v31q61 9 73.5 28t-5.5 65l-50 129h-258l-32 -86q-12 -31 -16.5 -51.5t0.5 -38.5t22 -30q14 -9 64 -16v-31h-268v31l11 2q50 10 75 44t75 163l172 441h93l212 -536q27 -69 45.5 -87.5t67.5 -26.5v-31zM433 296l-114 300l-111 -300h225zM498 825
q-11 -38 -32.5 -55t-57.5 -17q-32 0 -95 18q-39 10 -54 10q-22 0 -39 -20l-29 10q10 31 33.5 49.5t52.5 18.5t95 -18q31 -9 49 -9q31 0 48 22z" />
    <glyph glyph-name="Adieresis" unicode="&#xc4;" horiz-adv-x="680" 
d="M714 0h-281v31q61 9 73.5 28t-5.5 65l-50 129h-258l-32 -86q-12 -31 -16.5 -51.5t0.5 -38.5t22 -30q14 -9 64 -16v-31h-268v31l11 2q50 10 75 44t75 163l172 441h93l212 -536q27 -69 45.5 -87.5t67.5 -26.5v-31zM433 296l-114 300l-111 -300h225zM319 796
q0 -24 -17.5 -41.5t-41.5 -17.5t-41.5 17.5t-17.5 41.5q0 25 17.5 42t42.5 17q23 0 40.5 -17.5t17.5 -41.5zM482 796q0 -24 -17.5 -41.5t-41.5 -17.5t-41.5 17.5t-17.5 41.5q0 25 17.5 42t42.5 17q23 0 40.5 -17.5t17.5 -41.5z" />
    <glyph glyph-name="Aring" unicode="&#xc5;" horiz-adv-x="680" 
d="M714 0h-281v31q61 9 73.5 28t-5.5 65l-50 129h-258l-32 -86q-12 -31 -16.5 -51.5t0.5 -38.5t22 -30q14 -9 64 -16v-31h-268v31l11 2q50 10 75 44t75 163l172 441h93l212 -536q27 -69 45.5 -87.5t67.5 -26.5v-31zM433 296l-114 300l-111 -300h225zM435 810
q0 -38 -27 -65.5t-65 -27.5t-65 27.5t-27 65.5t27.5 65t65.5 27q37 0 64 -27t27 -65zM398 810q0 22 -16 38.5t-38 16.5q-23 0 -39.5 -16t-16.5 -39t16 -39.5t39 -16.5t39 16.5t16 39.5z" />
    <glyph glyph-name="AE" unicode="&#xc6;" horiz-adv-x="1260" 
d="M1250 220l-85 -220h-593v31l25 3q39 5 52 27t13 83v197h-249l-163 -187q-44 -55 -44 -80q0 -39 92 -43v-31h-334v31q71 11 120.5 40t104.5 93l458 517h494l75 -178l-35 -10q-52 76 -126 110.5t-184 34.5q-63 0 -86 -18t-23 -68v-168h69q27 0 45.5 4t36.5 15.5t27.5 36.5
t9.5 63v9h35v-304h-35v12q0 40 -11.5 66.5t-32.5 37t-37 14t-38 3.5h-69v-222q0 -37 22.5 -56.5t90.5 -19.5h38q118 0 208 79q45 40 95 111zM662 384v244l-208 -244h208z" />
    <glyph glyph-name="Ccedilla" unicode="&#xc7;" horiz-adv-x="740" 
d="M702 159q-109 -169 -298 -172l-9 -30q10 2 24 2q40 0 69 -24.5t29 -59.5q0 -38 -30.5 -66.5t-71.5 -28.5q-39 0 -68 16.5t-29 39.5q0 10 7 17.5t18 7.5q22 0 31 -24q7 -16 15 -20.5t24 -4.5q19 0 32.5 17.5t13.5 41.5q0 26 -15.5 41t-44.5 15q-17 0 -47 -10l21 71
q-143 8 -236 106.5t-93 242.5q0 84 32.5 154.5t82.5 113t106 66t108 23.5q122 0 206 -64l21 42h33l48 -241h-32q-18 37 -27.5 54.5t-28 48.5t-35.5 46.5t-42 33t-56 25t-68 7.5q-99 0 -164.5 -87.5t-65.5 -220.5q0 -80 24.5 -141.5t63.5 -95t80.5 -50t81.5 -16.5
q22 0 47 5.5t60 19.5t72 45.5t68 77.5z" />
    <glyph glyph-name="Egrave" unicode="&#xc8;" horiz-adv-x="720" 
d="M705 213l-91 -213h-583v31l25 3q39 5 52 27t13 83v393q0 61 -13 83t-52 27l-25 3v31h571l69 -180l-32 -13q-69 84 -135.5 117t-168.5 33q-66 0 -90 -17.5t-24 -65.5v-170h76q64 0 87.5 24.5t33.5 102.5h34v-299h-34q-7 70 -35.5 99.5t-87.5 29.5h-74v-211
q0 -49 22.5 -68.5t90.5 -19.5q112 0 185 39.5t155 144.5zM402 756l-5 -12l-153 26q-69 12 -69 45q0 14 11 23.5t28 9.5q31 0 83 -31z" />
    <glyph glyph-name="Eacute" unicode="&#xc9;" horiz-adv-x="720" 
d="M705 213l-91 -213h-583v31l25 3q39 5 52 27t13 83v393q0 61 -13 83t-52 27l-25 3v31h571l69 -180l-32 -13q-69 84 -135.5 117t-168.5 33q-66 0 -90 -17.5t-24 -65.5v-170h76q64 0 87.5 24.5t33.5 102.5h34v-299h-34q-7 70 -35.5 99.5t-87.5 29.5h-74v-211
q0 -49 22.5 -68.5t90.5 -19.5q112 0 185 39.5t155 144.5zM471 815q0 -33 -69 -45l-153 -26l-5 12l105 61q52 31 83 31q17 0 28 -9.5t11 -23.5z" />
    <glyph glyph-name="Ecircumflex" unicode="&#xca;" horiz-adv-x="720" 
d="M705 213l-91 -213h-583v31l25 3q39 5 52 27t13 83v393q0 61 -13 83t-52 27l-25 3v31h571l69 -180l-32 -13q-69 84 -135.5 117t-168.5 33q-66 0 -90 -17.5t-24 -65.5v-170h76q64 0 87.5 24.5t33.5 102.5h34v-299h-34q-7 70 -35.5 99.5t-87.5 29.5h-74v-211
q0 -49 22.5 -68.5t90.5 -19.5q112 0 185 39.5t155 144.5zM479 765l-15 -22l-141 40l-142 -40l-14 22l156 84z" />
    <glyph glyph-name="Edieresis" unicode="&#xcb;" horiz-adv-x="720" 
d="M705 213l-91 -213h-583v31l25 3q39 5 52 27t13 83v393q0 61 -13 83t-52 27l-25 3v31h571l69 -180l-32 -13q-69 84 -135.5 117t-168.5 33q-66 0 -90 -17.5t-24 -65.5v-170h76q64 0 87.5 24.5t33.5 102.5h34v-299h-34q-7 70 -35.5 99.5t-87.5 29.5h-74v-211
q0 -49 22.5 -68.5t90.5 -19.5q112 0 185 39.5t155 144.5zM299 796q0 -24 -17.5 -41.5t-41.5 -17.5t-41.5 17.5t-17.5 41.5q0 25 17.5 42t42.5 17q23 0 40.5 -17.5t17.5 -41.5zM462 796q0 -24 -17.5 -41.5t-41.5 -17.5t-41.5 17.5t-17.5 41.5q0 25 17.5 42t42.5 17
q23 0 40.5 -17.5t17.5 -41.5z" />
    <glyph glyph-name="Igrave" unicode="&#xcc;" horiz-adv-x="340" 
d="M301 0h-270v31l20 3q41 7 53 27.5t12 82.5v393q0 62 -12 82.5t-53 27.5l-20 3v31h270v-31l-20 -3q-41 -7 -53 -27.5t-12 -82.5v-393q0 -62 12 -82.5t53 -27.5l20 -3v-31zM245 756l-5 -12l-153 26q-69 12 -69 45q0 14 11 23.5t28 9.5q31 0 83 -31z" />
    <glyph glyph-name="Iacute" unicode="&#xcd;" horiz-adv-x="340" 
d="M301 0h-270v31l20 3q41 7 53 27.5t12 82.5v393q0 62 -12 82.5t-53 27.5l-20 3v31h270v-31l-20 -3q-41 -7 -53 -27.5t-12 -82.5v-393q0 -62 12 -82.5t53 -27.5l20 -3v-31zM314 815q0 -33 -69 -45l-153 -26l-5 12l105 61q52 31 83 31q17 0 28 -9.5t11 -23.5z" />
    <glyph glyph-name="Icircumflex" unicode="&#xce;" horiz-adv-x="340" 
d="M301 0h-270v31l20 3q41 7 53 27.5t12 82.5v393q0 62 -12 82.5t-53 27.5l-20 3v31h270v-31l-20 -3q-41 -7 -53 -27.5t-12 -82.5v-393q0 -62 12 -82.5t53 -27.5l20 -3v-31zM322 765l-15 -22l-141 40l-142 -40l-14 22l156 84z" />
    <glyph glyph-name="Idieresis" unicode="&#xcf;" horiz-adv-x="340" 
d="M301 0h-270v31l20 3q41 7 53 27.5t12 82.5v393q0 62 -12 82.5t-53 27.5l-20 3v31h270v-31l-20 -3q-41 -7 -53 -27.5t-12 -82.5v-393q0 -62 12 -82.5t53 -27.5l20 -3v-31zM142 796q0 -24 -17.5 -41.5t-41.5 -17.5t-41.5 17.5t-17.5 41.5q0 25 17.5 42t42.5 17
q23 0 40.5 -17.5t17.5 -41.5zM305 796q0 -24 -17.5 -41.5t-41.5 -17.5t-41.5 17.5t-17.5 41.5q0 25 17.5 42t42.5 17q23 0 40.5 -17.5t17.5 -41.5z" />
    <glyph glyph-name="Eth" unicode="&#xd0;" horiz-adv-x="800" 
d="M752 335q0 -335 -416 -335h-305v31l25 3q40 5 52.5 26.5t12.5 83.5v196h-90v47h90v149q0 62 -13 84t-52 27l-25 3v31h305q105 0 183.5 -24.5t121.5 -60t69.5 -85t34 -90.5t7.5 -86zM634 342q0 53 -13.5 101t-44.5 94.5t-91.5 74.5t-144.5 28q-30 0 -51.5 -2.5
t-34.5 -10.5t-20 -13t-9.5 -20t-3 -20.5t-0.5 -25.5v-161h200v-47h-200v-210q0 -26 3 -39.5t14 -26.5t35.5 -18t65.5 -5q68 0 121 19t85 49t53 71t28.5 80.5t7.5 81.5z" />
    <glyph glyph-name="Ntilde" unicode="&#xd1;" horiz-adv-x="740" 
d="M722 650l-25 -3q-39 -5 -52 -27t-13 -83v-537h-88l-371 606v-462q0 -61 13.5 -83.5t51.5 -26.5l35 -3v-31h-247v31l25 3q39 5 52 27t13 83v393q0 61 -13 83t-52 27l-25 3v31h223l326 -539v395q0 61 -13.5 83.5t-51.5 26.5l-35 3v31h247v-31zM529 825q-11 -38 -32.5 -55
t-57.5 -17q-32 0 -95 18q-39 10 -54 10q-22 0 -39 -20l-29 10q10 31 33.5 49.5t52.5 18.5t95 -18q31 -9 49 -9q31 0 48 22z" />
    <glyph glyph-name="Ograve" unicode="&#xd2;" horiz-adv-x="800" 
d="M758 338q0 -83 -31.5 -151t-83 -111t-114.5 -66t-129 -23q-152 0 -254 102.5t-102 253.5q0 147 104.5 249t255.5 102q154 0 254 -100.5t100 -255.5zM640 332q0 145 -64 229.5t-174 84.5q-109 0 -174.5 -83t-65.5 -221q0 -140 65 -223.5t174 -83.5t174 81t65 216zM483 756
l-5 -12l-153 26q-69 12 -69 45q0 14 11 23.5t28 9.5q31 0 83 -31z" />
    <glyph glyph-name="Oacute" unicode="&#xd3;" horiz-adv-x="800" 
d="M758 338q0 -83 -31.5 -151t-83 -111t-114.5 -66t-129 -23q-152 0 -254 102.5t-102 253.5q0 147 104.5 249t255.5 102q154 0 254 -100.5t100 -255.5zM640 332q0 145 -64 229.5t-174 84.5q-109 0 -174.5 -83t-65.5 -221q0 -140 65 -223.5t174 -83.5t174 81t65 216zM552 815
q0 -33 -69 -45l-153 -26l-5 12l105 61q52 31 83 31q17 0 28 -9.5t11 -23.5z" />
    <glyph glyph-name="Ocircumflex" unicode="&#xd4;" horiz-adv-x="800" 
d="M758 338q0 -83 -31.5 -151t-83 -111t-114.5 -66t-129 -23q-152 0 -254 102.5t-102 253.5q0 147 104.5 249t255.5 102q154 0 254 -100.5t100 -255.5zM640 332q0 145 -64 229.5t-174 84.5q-109 0 -174.5 -83t-65.5 -221q0 -140 65 -223.5t174 -83.5t174 81t65 216zM560 765
l-15 -22l-141 40l-142 -40l-14 22l156 84z" />
    <glyph glyph-name="Otilde" unicode="&#xd5;" horiz-adv-x="800" 
d="M758 338q0 -83 -31.5 -151t-83 -111t-114.5 -66t-129 -23q-152 0 -254 102.5t-102 253.5q0 147 104.5 249t255.5 102q154 0 254 -100.5t100 -255.5zM640 332q0 145 -64 229.5t-174 84.5q-109 0 -174.5 -83t-65.5 -221q0 -140 65 -223.5t174 -83.5t174 81t65 216zM559 825
q-11 -38 -32.5 -55t-57.5 -17q-32 0 -95 18q-39 10 -54 10q-22 0 -39 -20l-29 10q10 31 33.5 49.5t52.5 18.5t95 -18q31 -9 49 -9q31 0 48 22z" />
    <glyph glyph-name="Odieresis" unicode="&#xd6;" horiz-adv-x="800" 
d="M758 338q0 -83 -31.5 -151t-83 -111t-114.5 -66t-129 -23q-152 0 -254 102.5t-102 253.5q0 147 104.5 249t255.5 102q154 0 254 -100.5t100 -255.5zM640 332q0 145 -64 229.5t-174 84.5q-109 0 -174.5 -83t-65.5 -221q0 -140 65 -223.5t174 -83.5t174 81t65 216zM380 796
q0 -24 -17.5 -41.5t-41.5 -17.5t-41.5 17.5t-17.5 41.5q0 25 17.5 42t42.5 17q23 0 40.5 -17.5t17.5 -41.5zM543 796q0 -24 -17.5 -41.5t-41.5 -17.5t-41.5 17.5t-17.5 41.5q0 25 17.5 42t42.5 17q23 0 40.5 -17.5t17.5 -41.5z" />
    <glyph glyph-name="multiply" unicode="&#xd7;" horiz-adv-x="600" 
d="M511 94l-55 -55l-156 156l-156 -156l-55 55l156 156l-156 156l55 55l156 -156l156 156l55 -55l-156 -156z" />
    <glyph glyph-name="Oslash" unicode="&#xd8;" horiz-adv-x="800" 
d="M758 340q0 -83 -31.5 -151.5t-83.5 -111.5t-115 -66.5t-129 -23.5q-103 0 -201 58l-78 -98h-63l103 129q-116 112 -116 263q0 150 104 252.5t257 102.5q111 0 200 -55l75 95h61l-99 -123q62 -62 89 -125.5t27 -145.5zM560 582q-38 35 -73.5 49.5t-83.5 14.5
q-112 0 -176.5 -83t-64.5 -227q0 -59 11 -100.5t40 -92.5zM640 331q0 67 -11 113.5t-39 96.5l-347 -438q67 -68 159 -68q108 0 173 81t65 215z" />
    <glyph glyph-name="Ugrave" unicode="&#xd9;" horiz-adv-x="780" 
d="M754 650l-25 -3q-39 -5 -52 -27t-13 -83v-333q0 -106 -60.5 -161.5t-211.5 -55.5q-55 0 -101 10t-87.5 32.5t-65 66.5t-23.5 106v335q0 61 -13 83t-52 27l-25 3v31h292v-31l-37 -3q-38 -3 -51.5 -26t-13.5 -84v-267q0 -48 2.5 -77.5t13.5 -63t31 -52t56 -30.5t89 -12
q42 0 74 7.5t53 18t35.5 31.5t22 36.5t11 45.5t4 47t0.5 51v265q0 61 -13.5 83.5t-51.5 26.5l-33 3v31h245v-31zM479 756l-5 -12l-153 26q-69 12 -69 45q0 14 11 23.5t28 9.5q31 0 83 -31z" />
    <glyph glyph-name="Uacute" unicode="&#xda;" horiz-adv-x="780" 
d="M754 650l-25 -3q-39 -5 -52 -27t-13 -83v-333q0 -106 -60.5 -161.5t-211.5 -55.5q-55 0 -101 10t-87.5 32.5t-65 66.5t-23.5 106v335q0 61 -13 83t-52 27l-25 3v31h292v-31l-37 -3q-38 -3 -51.5 -26t-13.5 -84v-267q0 -48 2.5 -77.5t13.5 -63t31 -52t56 -30.5t89 -12
q42 0 74 7.5t53 18t35.5 31.5t22 36.5t11 45.5t4 47t0.5 51v265q0 61 -13.5 83.5t-51.5 26.5l-33 3v31h245v-31zM548 815q0 -33 -69 -45l-153 -26l-5 12l105 61q52 31 83 31q17 0 28 -9.5t11 -23.5z" />
    <glyph glyph-name="Ucircumflex" unicode="&#xdb;" horiz-adv-x="780" 
d="M754 650l-25 -3q-39 -5 -52 -27t-13 -83v-333q0 -106 -60.5 -161.5t-211.5 -55.5q-55 0 -101 10t-87.5 32.5t-65 66.5t-23.5 106v335q0 61 -13 83t-52 27l-25 3v31h292v-31l-37 -3q-38 -3 -51.5 -26t-13.5 -84v-267q0 -48 2.5 -77.5t13.5 -63t31 -52t56 -30.5t89 -12
q42 0 74 7.5t53 18t35.5 31.5t22 36.5t11 45.5t4 47t0.5 51v265q0 61 -13.5 83.5t-51.5 26.5l-33 3v31h245v-31zM556 765l-15 -22l-141 40l-142 -40l-14 22l156 84z" />
    <glyph glyph-name="Udieresis" unicode="&#xdc;" horiz-adv-x="780" 
d="M754 650l-25 -3q-39 -5 -52 -27t-13 -83v-333q0 -106 -60.5 -161.5t-211.5 -55.5q-55 0 -101 10t-87.5 32.5t-65 66.5t-23.5 106v335q0 61 -13 83t-52 27l-25 3v31h292v-31l-37 -3q-38 -3 -51.5 -26t-13.5 -84v-267q0 -48 2.5 -77.5t13.5 -63t31 -52t56 -30.5t89 -12
q42 0 74 7.5t53 18t35.5 31.5t22 36.5t11 45.5t4 47t0.5 51v265q0 61 -13.5 83.5t-51.5 26.5l-33 3v31h245v-31zM376 796q0 -24 -17.5 -41.5t-41.5 -17.5t-41.5 17.5t-17.5 41.5q0 25 17.5 42t42.5 17q23 0 40.5 -17.5t17.5 -41.5zM539 796q0 -24 -17.5 -41.5t-41.5 -17.5
t-41.5 17.5t-17.5 41.5q0 25 17.5 42t42.5 17q23 0 40.5 -17.5t17.5 -41.5z" />
    <glyph glyph-name="Yacute" unicode="&#xdd;" horiz-adv-x="640" 
d="M666 650q-53 -11 -80 -31.5t-66 -79.5l-165 -253v-142q0 -61 13.5 -84t51.5 -26l41 -3v-31h-312v31l41 3q38 3 51.5 26t13.5 84v140l-167 266q-33 54 -54.5 72t-63.5 28v31h285v-31q-60 -8 -73.5 -23.5t9.5 -53.5l141 -228l142 218q14 21 16 36.5t-8 25.5t-25.5 15.5
t-39.5 9.5v31h249v-31zM453 815q0 -33 -69 -45l-153 -26l-5 12l105 61q52 31 83 31q17 0 28 -9.5t11 -23.5z" />
    <glyph glyph-name="Thorn" unicode="&#xde;" 
d="M613 360q0 -33 -11 -65t-37 -63.5t-78.5 -51t-124.5 -19.5h-141v-17q0 -63 15 -84t62 -26l26 -3v-31h-293v31l25 3q39 5 52 27t13 83v393q0 62 -12.5 83.5t-52.5 26.5l-25 3v31h280v-31l-25 -3q-13 -2 -21 -4.5t-19.5 -10t-17.5 -24.5t-6 -42v-14h141q115 0 182.5 -52
t67.5 -140zM511 357q0 72 -43 112t-121 40h-126v-305h125q47 0 81.5 14.5t51.5 38.5t24.5 48.5t7.5 51.5z" />
    <glyph glyph-name="germandbls" unicode="&#xdf;" horiz-adv-x="660" 
d="M614 216q0 -93 -77 -159t-186 -66q-72 0 -134 35l23 38q61 -29 103 -29q65 0 117 51.5t52 115.5q0 13 -1.5 23.5t-7 20.5t-9 17t-13.5 15t-15 12.5t-19 12.5t-19.5 11t-23 11.5t-23.5 11.5l-50 26q-43 23 -43 51q0 31 56 52l27 9q47 17 68.5 39.5t21.5 56.5
q0 38 -25.5 62t-67.5 24q-26 0 -50 -9t-48.5 -31.5t-39 -69.5t-14.5 -114v-267q0 -69 -17.5 -122t-42.5 -81t-58 -45.5t-57.5 -22.5t-48.5 -5q-58 0 -101 20l16 39q52 -19 83 -19q23 0 43 8t41.5 28t34 63t12.5 104v319h-84v33h84q11 48 31 85.5t45.5 59t50 35.5t52 20
t43 7.5t30.5 1.5q74 0 122 -35t48 -88q0 -35 -23 -64t-63 -45l-23 -9q-33 -12 -33 -28q0 -12 30 -26l57 -26q126 -57 126 -157z" />
    <glyph glyph-name="agrave" unicode="&#xe0;" horiz-adv-x="580" 
d="M587 30q-40 -39 -103 -39q-85 0 -112 77q-50 -42 -91.5 -59.5t-91.5 -17.5q-67 0 -110.5 35t-43.5 89q0 134 322 167q10 1 15 2v80q0 41 -31.5 65.5t-84.5 24.5q-42 0 -71.5 -15t-29.5 -37l1 -28q0 -21 -15 -36t-36 -15q-20 0 -34 13t-14 31q0 37 34.5 67t84 45t99.5 15
q34 0 65 -6.5t61 -22t48 -46t18 -73.5v-212q0 -19 0.5 -29.5t3.5 -25.5t8.5 -23t16.5 -14t27 -6q22 0 45 20zM372 113v136q-113 -10 -174 -42t-61 -82q0 -36 25.5 -61t61.5 -25q70 0 148 74zM357 586l-5 -14l-139 29q-62 13 -62 50q0 16 10 26.5t25 10.5q31 0 76 -34z" />
    <glyph glyph-name="aacute" unicode="&#xe1;" horiz-adv-x="580" 
d="M587 30q-40 -39 -103 -39q-85 0 -112 77q-50 -42 -91.5 -59.5t-91.5 -17.5q-67 0 -110.5 35t-43.5 89q0 134 322 167q10 1 15 2v80q0 41 -31.5 65.5t-84.5 24.5q-42 0 -71.5 -15t-29.5 -37l1 -28q0 -21 -15 -36t-36 -15q-20 0 -34 13t-14 31q0 37 34.5 67t84 45t99.5 15
q34 0 65 -6.5t61 -22t48 -46t18 -73.5v-212q0 -19 0.5 -29.5t3.5 -25.5t8.5 -23t16.5 -14t27 -6q22 0 45 20zM372 113v136q-113 -10 -174 -42t-61 -82q0 -36 25.5 -61t61.5 -25q70 0 148 74zM399 651q0 -37 -62 -50l-139 -29l-5 14l95 68q45 34 76 34q15 0 25 -10.5
t10 -26.5z" />
    <glyph glyph-name="acircumflex" unicode="&#xe2;" horiz-adv-x="580" 
d="M587 30q-40 -39 -103 -39q-85 0 -112 77q-50 -42 -91.5 -59.5t-91.5 -17.5q-67 0 -110.5 35t-43.5 89q0 134 322 167q10 1 15 2v80q0 41 -31.5 65.5t-84.5 24.5q-42 0 -71.5 -15t-29.5 -37l1 -28q0 -21 -15 -36t-36 -15q-20 0 -34 13t-14 31q0 37 34.5 67t84 45t99.5 15
q34 0 65 -6.5t61 -22t48 -46t18 -73.5v-212q0 -19 0.5 -29.5t3.5 -25.5t8.5 -23t16.5 -14t27 -6q22 0 45 20zM372 113v136q-113 -10 -174 -42t-61 -82q0 -36 25.5 -61t61.5 -25q70 0 148 74zM417 596l-14 -25l-128 45l-129 -45l-13 25l142 93z" />
    <glyph glyph-name="atilde" unicode="&#xe3;" horiz-adv-x="580" 
d="M587 30q-40 -39 -103 -39q-85 0 -112 77q-50 -42 -91.5 -59.5t-91.5 -17.5q-67 0 -110.5 35t-43.5 89q0 134 322 167q10 1 15 2v80q0 41 -31.5 65.5t-84.5 24.5q-42 0 -71.5 -15t-29.5 -37l1 -28q0 -21 -15 -36t-36 -15q-20 0 -34 13t-14 31q0 37 34.5 67t84 45t99.5 15
q34 0 65 -6.5t61 -22t48 -46t18 -73.5v-212q0 -19 0.5 -29.5t3.5 -25.5t8.5 -23t16.5 -14t27 -6q22 0 45 20zM372 113v136q-113 -10 -174 -42t-61 -82q0 -36 25.5 -61t61.5 -25q70 0 148 74zM430 659q-11 -38 -32.5 -55t-57.5 -17q-32 0 -95 18q-39 10 -54 10q-22 0 -39 -20
l-29 10q10 31 33.5 49.5t52.5 18.5t95 -18q31 -9 49 -9q31 0 48 22z" />
    <glyph glyph-name="adieresis" unicode="&#xe4;" horiz-adv-x="580" 
d="M587 30q-40 -39 -103 -39q-85 0 -112 77q-50 -42 -91.5 -59.5t-91.5 -17.5q-67 0 -110.5 35t-43.5 89q0 134 322 167q10 1 15 2v80q0 41 -31.5 65.5t-84.5 24.5q-42 0 -71.5 -15t-29.5 -37l1 -28q0 -21 -15 -36t-36 -15q-20 0 -34 13t-14 31q0 37 34.5 67t84 45t99.5 15
q34 0 65 -6.5t61 -22t48 -46t18 -73.5v-212q0 -19 0.5 -29.5t3.5 -25.5t8.5 -23t16.5 -14t27 -6q22 0 45 20zM372 113v136q-113 -10 -174 -42t-61 -82q0 -36 25.5 -61t61.5 -25q70 0 148 74zM251 630q0 -24 -17.5 -41.5t-41.5 -17.5t-41.5 17.5t-17.5 41.5q0 25 17.5 42
t42.5 17q23 0 40.5 -17.5t17.5 -41.5zM414 630q0 -24 -17.5 -41.5t-41.5 -17.5t-41.5 17.5t-17.5 41.5q0 25 17.5 42t42.5 17q23 0 40.5 -17.5t17.5 -41.5z" />
    <glyph glyph-name="aring" unicode="&#xe5;" horiz-adv-x="580" 
d="M587 30q-40 -39 -103 -39q-85 0 -112 77q-50 -42 -91.5 -59.5t-91.5 -17.5q-67 0 -110.5 35t-43.5 89q0 134 322 167q10 1 15 2v80q0 41 -31.5 65.5t-84.5 24.5q-42 0 -71.5 -15t-29.5 -37l1 -28q0 -21 -15 -36t-36 -15q-20 0 -34 13t-14 31q0 37 34.5 67t84 45t99.5 15
q34 0 65 -6.5t61 -22t48 -46t18 -73.5v-212q0 -19 0.5 -29.5t3.5 -25.5t8.5 -23t16.5 -14t27 -6q22 0 45 20zM372 113v136q-113 -10 -174 -42t-61 -82q0 -36 25.5 -61t61.5 -25q70 0 148 74zM367 631q0 -38 -27 -65.5t-65 -27.5t-65 27.5t-27 65.5t27.5 65t65.5 27
q37 0 64 -27t27 -65zM330 631q0 22 -16 38.5t-38 16.5q-23 0 -39.5 -16t-16.5 -39t16 -39.5t39 -16.5t39 16.5t16 39.5z" />
    <glyph glyph-name="ae" unicode="&#xe6;" horiz-adv-x="860" 
d="M832 259h-361q8 -228 169 -228q98 0 158 100l32 -17q-77 -123 -211 -123q-136 0 -214 123q-36 -65 -84.5 -94t-123.5 -29q-73 0 -117.5 34t-44.5 89q0 30 14 57.5t48 55.5t104 44.5t169 16.5v71q0 45 -28.5 70t-79.5 25q-47 0 -75.5 -17t-28.5 -45v-16q0 -24 -14 -38.5
t-38 -14.5q-19 0 -32 12.5t-13 30.5q0 52 63 90t149 38q115 0 169 -67q81 67 173 67q32 0 66 -10t69.5 -32t58.5 -66.5t23 -104.5v-22zM370 232v27q-243 -18 -243 -131q0 -39 29.5 -65.5t72.5 -26.5q45 0 82 26.5t50 67.5q8 25 9 102zM733 292v14q0 68 -33.5 108t-90.5 40
q-21 0 -39.5 -5t-31.5 -14t-23.5 -19.5t-17 -24.5t-11.5 -25.5t-7.5 -25t-3.5 -22t-2 -17.5l-1 -9h261z" />
    <glyph glyph-name="ccedilla" unicode="&#xe7;" horiz-adv-x="520" 
d="M498 108q-76 -117 -213 -117l-10 -34q10 2 24 2q40 0 69 -24.5t29 -59.5q0 -38 -30.5 -66.5t-71.5 -28.5q-39 0 -68 16.5t-29 39.5q0 10 7 17.5t18 7.5q22 0 31 -24q7 -16 15 -20.5t24 -4.5q19 0 32.5 17.5t13.5 41.5q0 26 -15.5 41t-44.5 15q-17 0 -47 -10l22 75
q-98 10 -157.5 78t-59.5 172q0 30 6.5 61t23.5 66t43.5 62t70.5 45t100 18q95 0 149.5 -44.5t54.5 -92.5q0 -23 -14.5 -39t-36.5 -16t-36.5 14.5t-14.5 36.5l1 35q0 26 -30 46t-69 20q-55 0 -89.5 -35.5t-45.5 -80.5t-11 -100q0 -93 47.5 -150t124.5 -57q46 0 81 21t77 74z
" />
    <glyph glyph-name="egrave" unicode="&#xe8;" horiz-adv-x="520" 
d="M491 116q-73 -125 -207 -125q-63 0 -112.5 24t-77.5 62.5t-42.5 82t-14.5 87.5q0 108 66.5 177.5t169.5 69.5q32 0 66 -9.5t70 -31t59 -64.5t23 -100h-347q0 -121 37.5 -187t132.5 -66q92 0 144 96zM387 329v3q1 18 -6 43.5t-36 52t-76 26.5q-58 0 -85 -33.5t-37 -91.5
h240zM355 586l-5 -14l-139 29q-62 13 -62 50q0 16 10 26.5t25 10.5q31 0 76 -34z" />
    <glyph glyph-name="eacute" unicode="&#xe9;" horiz-adv-x="520" 
d="M491 116q-73 -125 -207 -125q-63 0 -112.5 24t-77.5 62.5t-42.5 82t-14.5 87.5q0 108 66.5 177.5t169.5 69.5q32 0 66 -9.5t70 -31t59 -64.5t23 -100h-347q0 -121 37.5 -187t132.5 -66q92 0 144 96zM387 329v3q1 18 -6 43.5t-36 52t-76 26.5q-58 0 -85 -33.5t-37 -91.5
h240zM397 651q0 -37 -62 -50l-139 -29l-5 14l95 68q45 34 76 34q15 0 25 -10.5t10 -26.5z" />
    <glyph glyph-name="ecircumflex" unicode="&#xea;" horiz-adv-x="520" 
d="M491 116q-73 -125 -207 -125q-63 0 -112.5 24t-77.5 62.5t-42.5 82t-14.5 87.5q0 108 66.5 177.5t169.5 69.5q32 0 66 -9.5t70 -31t59 -64.5t23 -100h-347q0 -121 37.5 -187t132.5 -66q92 0 144 96zM387 329v3q1 18 -6 43.5t-36 52t-76 26.5q-58 0 -85 -33.5t-37 -91.5
h240zM415 596l-14 -25l-128 45l-129 -45l-13 25l142 93z" />
    <glyph glyph-name="edieresis" unicode="&#xeb;" horiz-adv-x="520" 
d="M491 116q-73 -125 -207 -125q-63 0 -112.5 24t-77.5 62.5t-42.5 82t-14.5 87.5q0 108 66.5 177.5t169.5 69.5q32 0 66 -9.5t70 -31t59 -64.5t23 -100h-347q0 -121 37.5 -187t132.5 -66q92 0 144 96zM387 329v3q1 18 -6 43.5t-36 52t-76 26.5q-58 0 -85 -33.5t-37 -91.5
h240zM249 630q0 -24 -17.5 -41.5t-41.5 -17.5t-41.5 17.5t-17.5 41.5q0 25 17.5 42t42.5 17q23 0 40.5 -17.5t17.5 -41.5zM412 630q0 -24 -17.5 -41.5t-41.5 -17.5t-41.5 17.5t-17.5 41.5q0 25 17.5 42t42.5 17q23 0 40.5 -17.5t17.5 -41.5z" />
    <glyph glyph-name="igrave" unicode="&#xec;" horiz-adv-x="300" 
d="M288 0h-268v30l25 2q33 4 47.5 23t14.5 60v235q0 45 -13.5 62t-52.5 21l-20 2v30q62 5 147 20h34v-370q0 -41 14 -60t48 -23l24 -2v-30zM237 586l-5 -14l-139 29q-62 13 -62 50q0 16 10 26.5t25 10.5q31 0 76 -34z" />
    <glyph glyph-name="iacute" unicode="&#xed;" horiz-adv-x="300" 
d="M288 0h-268v30l25 2q33 4 47.5 23t14.5 60v235q0 45 -13.5 62t-52.5 21l-20 2v30q62 5 147 20h34v-370q0 -41 14 -60t48 -23l24 -2v-30zM279 651q0 -37 -62 -50l-139 -29l-5 14l95 68q45 34 76 34q15 0 25 -10.5t10 -26.5z" />
    <glyph glyph-name="icircumflex" unicode="&#xee;" horiz-adv-x="300" 
d="M288 0h-268v30l25 2q33 4 47.5 23t14.5 60v235q0 45 -13.5 62t-52.5 21l-20 2v30q62 5 147 20h34v-370q0 -41 14 -60t48 -23l24 -2v-30zM297 596l-14 -25l-128 45l-129 -45l-13 25l142 93z" />
    <glyph glyph-name="idieresis" unicode="&#xef;" horiz-adv-x="300" 
d="M288 0h-268v30l25 2q33 4 47.5 23t14.5 60v235q0 45 -13.5 62t-52.5 21l-20 2v30q62 5 147 20h34v-370q0 -41 14 -60t48 -23l24 -2v-30zM131 630q0 -24 -17.5 -41.5t-41.5 -17.5t-41.5 17.5t-17.5 41.5q0 25 17.5 42t42.5 17q23 0 40.5 -17.5t17.5 -41.5zM294 630
q0 -24 -17.5 -41.5t-41.5 -17.5t-41.5 17.5t-17.5 41.5q0 25 17.5 42t42.5 17q23 0 40.5 -17.5t17.5 -41.5z" />
    <glyph glyph-name="eth" unicode="&#xf0;" horiz-adv-x="560" 
d="M526 252q0 -121 -65.5 -191t-178.5 -70q-111 0 -178 68.5t-67 181.5t68 183.5t177 70.5q45 0 80 -16q-53 96 -154 149l-114 -76l-21 33l91 62q-33 10 -113 27l23 42q81 -13 139 -30l111 73l22 -32l-87 -58q130 -53 198.5 -160.5t68.5 -256.5zM424 234q0 103 -38 162
t-105 59q-65 0 -103.5 -57.5t-38.5 -154.5q0 -101 38 -156.5t107 -55.5q66 0 103 54t37 149z" />
    <glyph glyph-name="ntilde" unicode="&#xf1;" horiz-adv-x="660" 
d="M649 0h-269v30l25 2q33 4 47.5 23t14.5 60v231q0 100 -85 100q-84 0 -177 -84v-247q0 -41 14.5 -60t47.5 -23l25 -2v-30h-269v30l25 2q33 4 47.5 23t14.5 60v235q0 45 -14 62.5t-52 20.5l-24 2v30q76 5 151 20h34v-79q53 47 101 67.5t105 20.5q71 0 111 -35t40 -97v-247
q0 -41 14.5 -60t47.5 -23l25 -2v-30zM491 659q-11 -38 -32.5 -55t-57.5 -17q-32 0 -95 18q-39 10 -54 10q-22 0 -39 -20l-29 10q10 31 33.5 49.5t52.5 18.5t95 -18q31 -9 49 -9q31 0 48 22z" />
    <glyph glyph-name="ograve" unicode="&#xf2;" horiz-adv-x="560" 
d="M526 239q0 -111 -67 -179.5t-176 -68.5q-112 0 -179 68.5t-67 181.5q0 30 6 61t23.5 66.5t43.5 62.5t70 45t99 18q57 0 101.5 -18t71 -45t44 -62.5t24 -67.5t6.5 -62zM424 234q0 103 -38.5 161.5t-105.5 58.5q-64 0 -102.5 -57.5t-38.5 -153.5q0 -101 38 -156.5
t107 -55.5q66 0 103 54t37 149zM361 586l-5 -14l-139 29q-62 13 -62 50q0 16 10 26.5t25 10.5q31 0 76 -34z" />
    <glyph glyph-name="oacute" unicode="&#xf3;" horiz-adv-x="560" 
d="M526 239q0 -111 -67 -179.5t-176 -68.5q-112 0 -179 68.5t-67 181.5q0 30 6 61t23.5 66.5t43.5 62.5t70 45t99 18q57 0 101.5 -18t71 -45t44 -62.5t24 -67.5t6.5 -62zM424 234q0 103 -38.5 161.5t-105.5 58.5q-64 0 -102.5 -57.5t-38.5 -153.5q0 -101 38 -156.5
t107 -55.5q66 0 103 54t37 149zM403 651q0 -37 -62 -50l-139 -29l-5 14l95 68q45 34 76 34q15 0 25 -10.5t10 -26.5z" />
    <glyph glyph-name="ocircumflex" unicode="&#xf4;" horiz-adv-x="560" 
d="M526 239q0 -111 -67 -179.5t-176 -68.5q-112 0 -179 68.5t-67 181.5q0 30 6 61t23.5 66.5t43.5 62.5t70 45t99 18q57 0 101.5 -18t71 -45t44 -62.5t24 -67.5t6.5 -62zM424 234q0 103 -38.5 161.5t-105.5 58.5q-64 0 -102.5 -57.5t-38.5 -153.5q0 -101 38 -156.5
t107 -55.5q66 0 103 54t37 149zM421 596l-14 -25l-128 45l-129 -45l-13 25l142 93z" />
    <glyph glyph-name="otilde" unicode="&#xf5;" horiz-adv-x="560" 
d="M526 239q0 -111 -67 -179.5t-176 -68.5q-112 0 -179 68.5t-67 181.5q0 30 6 61t23.5 66.5t43.5 62.5t70 45t99 18q57 0 101.5 -18t71 -45t44 -62.5t24 -67.5t6.5 -62zM424 234q0 103 -38.5 161.5t-105.5 58.5q-64 0 -102.5 -57.5t-38.5 -153.5q0 -101 38 -156.5
t107 -55.5q66 0 103 54t37 149zM434 659q-11 -38 -32.5 -55t-57.5 -17q-32 0 -95 18q-39 10 -54 10q-22 0 -39 -20l-29 10q10 31 33.5 49.5t52.5 18.5t95 -18q31 -9 49 -9q31 0 48 22z" />
    <glyph glyph-name="odieresis" unicode="&#xf6;" horiz-adv-x="560" 
d="M526 239q0 -111 -67 -179.5t-176 -68.5q-112 0 -179 68.5t-67 181.5q0 30 6 61t23.5 66.5t43.5 62.5t70 45t99 18q57 0 101.5 -18t71 -45t44 -62.5t24 -67.5t6.5 -62zM424 234q0 103 -38.5 161.5t-105.5 58.5q-64 0 -102.5 -57.5t-38.5 -153.5q0 -101 38 -156.5
t107 -55.5q66 0 103 54t37 149zM255 630q0 -24 -17.5 -41.5t-41.5 -17.5t-41.5 17.5t-17.5 41.5q0 25 17.5 42t42.5 17q23 0 40.5 -17.5t17.5 -41.5zM418 630q0 -24 -17.5 -41.5t-41.5 -17.5t-41.5 17.5t-17.5 41.5q0 25 17.5 42t42.5 17q23 0 40.5 -17.5t17.5 -41.5z" />
    <glyph glyph-name="divide" unicode="&#xf7;" horiz-adv-x="600" 
d="M560 211h-520v78h520v-78zM364 420q0 -26 -19 -45t-45 -19t-45 19t-19 45q0 27 19 45.5t45 18.5t45 -18.5t19 -45.5zM364 80q0 -27 -19 -45.5t-45 -18.5t-45 18.5t-19 45.5q0 26 19 45t45 19t45 -19t19 -45z" />
    <glyph glyph-name="oslash" unicode="&#xf8;" horiz-adv-x="560" 
d="M526 241q0 -112 -66.5 -181t-175.5 -69q-72 0 -117 25l-35 -58h-50l49 79q-94 71 -94 199q0 117 66 187.5t176 70.5q73 0 118 -25l45 74h47l-57 -94q44 -33 69 -88.5t25 -119.5zM366 420q-33 34 -82 34q-68 0 -106.5 -57.5t-38.5 -157.5q0 -81 30 -139zM424 236
q0 96 -31 150l-196 -322q35 -33 89 -33q65 0 101.5 54t36.5 151z" />
    <glyph glyph-name="ugrave" unicode="&#xf9;" horiz-adv-x="680" 
d="M653 0h-182v84q-64 -52 -111 -72.5t-101 -20.5q-64 0 -106.5 34t-42.5 116v209q0 45 -14 62.5t-52 20.5l-24 2v30q90 6 151 20h34v-336q0 -57 22 -83.5t69 -26.5q75 0 175 88v223q0 45 -14 62.5t-52 20.5l-24 2v30q96 7 151 20h34v-370q0 -41 14.5 -60t47.5 -23l25 -2
v-30zM420 586l-5 -14l-139 29q-62 13 -62 50q0 16 10 26.5t25 10.5q31 0 76 -34z" />
    <glyph glyph-name="uacute" unicode="&#xfa;" horiz-adv-x="680" 
d="M653 0h-182v84q-64 -52 -111 -72.5t-101 -20.5q-64 0 -106.5 34t-42.5 116v209q0 45 -14 62.5t-52 20.5l-24 2v30q90 6 151 20h34v-336q0 -57 22 -83.5t69 -26.5q75 0 175 88v223q0 45 -14 62.5t-52 20.5l-24 2v30q96 7 151 20h34v-370q0 -41 14.5 -60t47.5 -23l25 -2
v-30zM462 651q0 -37 -62 -50l-139 -29l-5 14l95 68q45 34 76 34q15 0 25 -10.5t10 -26.5z" />
    <glyph glyph-name="ucircumflex" unicode="&#xfb;" horiz-adv-x="680" 
d="M653 0h-182v84q-64 -52 -111 -72.5t-101 -20.5q-64 0 -106.5 34t-42.5 116v209q0 45 -14 62.5t-52 20.5l-24 2v30q90 6 151 20h34v-336q0 -57 22 -83.5t69 -26.5q75 0 175 88v223q0 45 -14 62.5t-52 20.5l-24 2v30q96 7 151 20h34v-370q0 -41 14.5 -60t47.5 -23l25 -2
v-30zM480 596l-14 -25l-128 45l-129 -45l-13 25l142 93z" />
    <glyph glyph-name="udieresis" unicode="&#xfc;" horiz-adv-x="680" 
d="M653 0h-182v84q-64 -52 -111 -72.5t-101 -20.5q-64 0 -106.5 34t-42.5 116v209q0 45 -14 62.5t-52 20.5l-24 2v30q90 6 151 20h34v-336q0 -57 22 -83.5t69 -26.5q75 0 175 88v223q0 45 -14 62.5t-52 20.5l-24 2v30q96 7 151 20h34v-370q0 -41 14.5 -60t47.5 -23l25 -2
v-30zM314 630q0 -24 -17.5 -41.5t-41.5 -17.5t-41.5 17.5t-17.5 41.5q0 25 17.5 42t42.5 17q23 0 40.5 -17.5t17.5 -41.5zM477 630q0 -24 -17.5 -41.5t-41.5 -17.5t-41.5 17.5t-17.5 41.5q0 25 17.5 42t42.5 17q23 0 40.5 -17.5t17.5 -41.5z" />
    <glyph glyph-name="yacute" unicode="&#xfd;" horiz-adv-x="540" 
d="M549 454q-40 -10 -62 -29.5t-40 -61.5l-173 -406q-11 -27 -17.5 -42.5t-26.5 -49.5t-38.5 -53.5t-48.5 -36t-63 -16.5q-40 0 -67 19.5t-27 48.5q0 20 15.5 34.5t37.5 14.5q15 0 25.5 -6.5t29.5 -26.5q19 -19 33 -19q20 0 44 25.5t40 65.5l25 58l-179 418
q-14 35 -28.5 46.5t-51.5 16.5v31h233v-30q-70 -8 -50 -57l125 -304l93 236q15 38 19 61t-5 35.5t-22 18t-41 10.5v30h220v-31zM394 651q0 -37 -62 -50l-139 -29l-5 14l95 68q45 34 76 34q15 0 25 -10.5t10 -26.5z" />
    <glyph glyph-name="thorn" unicode="&#xfe;" 
d="M583 245q0 -108 -64 -181t-159 -73q-91 0 -158 51v-155q0 -41 14.5 -60.5t47.5 -22.5l25 -2v-30h-269v30l25 2q33 3 47.5 22.5t14.5 60.5v695q0 45 -13.5 62t-52.5 21l-21 2v30q77 7 148 20h34v-298q66 75 163 75q100 0 159 -74t59 -175zM481 232q0 98 -40.5 156
t-107.5 58q-39 0 -68.5 -17.5t-62.5 -59.5v-278q58 -55 133 -55q63 0 104.5 55.5t41.5 140.5z" />
    <glyph glyph-name="ydieresis" unicode="&#xff;" horiz-adv-x="540" 
d="M549 454q-40 -10 -62 -29.5t-40 -61.5l-173 -406q-11 -27 -17.5 -42.5t-26.5 -49.5t-38.5 -53.5t-48.5 -36t-63 -16.5q-40 0 -67 19.5t-27 48.5q0 20 15.5 34.5t37.5 14.5q15 0 25.5 -6.5t29.5 -26.5q19 -19 33 -19q20 0 44 25.5t40 65.5l25 58l-179 418
q-14 35 -28.5 46.5t-51.5 16.5v31h233v-30q-70 -8 -50 -57l125 -304l93 236q15 38 19 61t-5 35.5t-22 18t-41 10.5v30h220v-31zM246 630q0 -24 -17.5 -41.5t-41.5 -17.5t-41.5 17.5t-17.5 41.5q0 25 17.5 42t42.5 17q23 0 40.5 -17.5t17.5 -41.5zM409 630q0 -24 -17.5 -41.5
t-41.5 -17.5t-41.5 17.5t-17.5 41.5q0 25 17.5 42t42.5 17q23 0 40.5 -17.5t17.5 -41.5z" />
    <glyph glyph-name="Amacron" unicode="&#x100;" horiz-adv-x="680" 
d="M714 0h-281v31q61 9 73.5 28t-5.5 65l-50 129h-258l-32 -86q-12 -31 -16.5 -51.5t0.5 -38.5t22 -30q14 -9 64 -16v-31h-268v31l11 2q50 10 75 44t75 163l172 441h93l212 -536q27 -69 45.5 -87.5t67.5 -26.5v-31zM433 296l-114 300l-111 -300h225zM487 771h-296v50h296
v-50z" />
    <glyph glyph-name="amacron" unicode="&#x101;" horiz-adv-x="580" 
d="M587 30q-40 -39 -103 -39q-85 0 -112 77q-50 -42 -91.5 -59.5t-91.5 -17.5q-67 0 -110.5 35t-43.5 89q0 134 322 167q10 1 15 2v80q0 41 -31.5 65.5t-84.5 24.5q-42 0 -71.5 -15t-29.5 -37l1 -28q0 -21 -15 -36t-36 -15q-20 0 -34 13t-14 31q0 37 34.5 67t84 45t99.5 15
q34 0 65 -6.5t61 -22t48 -46t18 -73.5v-212q0 -19 0.5 -29.5t3.5 -25.5t8.5 -23t16.5 -14t27 -6q22 0 45 20zM372 113v136q-113 -10 -174 -42t-61 -82q0 -36 25.5 -61t61.5 -25q70 0 148 74zM419 605h-296v50h296v-50z" />
    <glyph glyph-name="Abreve" unicode="&#x102;" horiz-adv-x="680" 
d="M714 0h-281v31q61 9 73.5 28t-5.5 65l-50 129h-258l-32 -86q-12 -31 -16.5 -51.5t0.5 -38.5t22 -30q14 -9 64 -16v-31h-268v31l11 2q50 10 75 44t75 163l172 441h93l212 -536q27 -69 45.5 -87.5t67.5 -26.5v-31zM433 296l-114 300l-111 -300h225zM524 834
q-26 -41 -75.5 -66t-106.5 -25q-127 0 -179 91l25 16q70 -47 157 -47q91 0 153 47z" />
    <glyph glyph-name="abreve" unicode="&#x103;" horiz-adv-x="580" 
d="M587 30q-40 -39 -103 -39q-85 0 -112 77q-50 -42 -91.5 -59.5t-91.5 -17.5q-67 0 -110.5 35t-43.5 89q0 134 322 167q10 1 15 2v80q0 41 -31.5 65.5t-84.5 24.5q-42 0 -71.5 -15t-29.5 -37l1 -28q0 -21 -15 -36t-36 -15q-20 0 -34 13t-14 31q0 37 34.5 67t84 45t99.5 15
q34 0 65 -6.5t61 -22t48 -46t18 -73.5v-212q0 -19 0.5 -29.5t3.5 -25.5t8.5 -23t16.5 -14t27 -6q22 0 45 20zM372 113v136q-113 -10 -174 -42t-61 -82q0 -36 25.5 -61t61.5 -25q70 0 148 74zM441 672q-23 -46 -68 -73.5t-97 -27.5q-55 0 -97.5 26.5t-65.5 74.5l23 18
q64 -52 142 -52q37 0 75.5 14.5t64.5 37.5z" />
    <glyph glyph-name="Aogonek" unicode="&#x104;" horiz-adv-x="680" 
d="M714 -170q-18 -30 -51.5 -50t-67.5 -20q-48 0 -83.5 30.5t-35.5 74.5q0 69 82 135h-125v31q61 9 73.5 28t-5.5 65l-50 129h-258l-32 -86q-12 -31 -16.5 -51.5t0.5 -38.5t22 -30q14 -9 64 -16v-31h-268v31l11 2q50 10 75 44t75 163l172 441h93l212 -536q27 -69 45.5 -87.5
t67.5 -26.5v-31h-56q-44 0 -73.5 -33.5t-29.5 -80.5q0 -27 16 -48t42 -21q19 0 41.5 9t34.5 23zM433 296l-114 300l-111 -300h225z" />
    <glyph glyph-name="aogonek" unicode="&#x105;" horiz-adv-x="580" 
d="M587 -170q-18 -30 -51.5 -50t-67.5 -20q-48 0 -83.5 30.5t-35.5 74.5q0 67 82 135q-41 16 -59 68q-50 -42 -91.5 -59.5t-91.5 -17.5q-67 0 -110.5 35t-43.5 89q0 134 322 167q10 1 15 2v80q0 41 -31.5 65.5t-84.5 24.5q-42 0 -71.5 -15t-29.5 -37l1 -28q0 -21 -15 -36
t-36 -15q-20 0 -34 13t-14 31q0 37 34.5 67t84 45t99.5 15q34 0 65 -6.5t61 -22t48 -46t18 -73.5v-212q0 -19 0.5 -29.5t3.5 -25.5t8.5 -23t16.5 -14t27 -6q22 0 45 20l19 -26q-31 -29 -73 -37q-38 -6 -62 -36.5t-24 -70.5q0 -27 16 -48t42 -21q19 0 41.5 9t34.5 23z
M372 113v136q-113 -10 -174 -42t-61 -82q0 -36 25.5 -61t61.5 -25q70 0 148 74z" />
    <glyph glyph-name="Cacute" unicode="&#x106;" horiz-adv-x="740" 
d="M702 159q-111 -172 -305 -172q-151 0 -252 100t-101 250q0 84 32.5 154.5t82.5 113t106 66t108 23.5q122 0 206 -64l21 42h33l48 -241h-32q-18 37 -27.5 54.5t-28 48.5t-35.5 46.5t-42 33t-56 25t-68 7.5q-99 0 -164.5 -87.5t-65.5 -220.5q0 -80 24.5 -141.5t63.5 -95
t80.5 -50t81.5 -16.5q22 0 47 5.5t60 19.5t72 45.5t68 77.5zM540 815q0 -33 -69 -45l-153 -26l-5 12l105 61q52 31 83 31q17 0 28 -9.5t11 -23.5z" />
    <glyph glyph-name="cacute" unicode="&#x107;" horiz-adv-x="520" 
d="M498 108q-75 -117 -215 -117q-110 0 -178 69.5t-68 181.5q0 30 6.5 61t23.5 66t43.5 62t70.5 45t100 18q95 0 149.5 -44.5t54.5 -92.5q0 -23 -14.5 -39t-36.5 -16t-36.5 14.5t-14.5 36.5l1 35q0 26 -30 46t-69 20q-55 0 -89.5 -35.5t-45.5 -80.5t-11 -100
q0 -93 47.5 -150t124.5 -57q46 0 81 21t77 74zM405 651q0 -37 -62 -50l-139 -29l-5 14l95 68q45 34 76 34q15 0 25 -10.5t10 -26.5z" />
    <glyph glyph-name="Ccircumflex" unicode="&#x108;" horiz-adv-x="740" 
d="M702 159q-111 -172 -305 -172q-151 0 -252 100t-101 250q0 84 32.5 154.5t82.5 113t106 66t108 23.5q122 0 206 -64l21 42h33l48 -241h-32q-18 37 -27.5 54.5t-28 48.5t-35.5 46.5t-42 33t-56 25t-68 7.5q-99 0 -164.5 -87.5t-65.5 -220.5q0 -80 24.5 -141.5t63.5 -95
t80.5 -50t81.5 -16.5q22 0 47 5.5t60 19.5t72 45.5t68 77.5zM548 765l-15 -22l-141 40l-142 -40l-14 22l156 84z" />
    <glyph glyph-name="ccircumflex" unicode="&#x109;" horiz-adv-x="520" 
d="M498 108q-75 -117 -215 -117q-110 0 -178 69.5t-68 181.5q0 30 6.5 61t23.5 66t43.5 62t70.5 45t100 18q95 0 149.5 -44.5t54.5 -92.5q0 -23 -14.5 -39t-36.5 -16t-36.5 14.5t-14.5 36.5l1 35q0 26 -30 46t-69 20q-55 0 -89.5 -35.5t-45.5 -80.5t-11 -100
q0 -93 47.5 -150t124.5 -57q46 0 81 21t77 74zM423 596l-14 -25l-128 45l-129 -45l-13 25l142 93z" />
    <glyph glyph-name="Cdotaccent" unicode="&#x10a;" horiz-adv-x="740" 
d="M702 159q-111 -172 -305 -172q-151 0 -252 100t-101 250q0 84 32.5 154.5t82.5 113t106 66t108 23.5q122 0 206 -64l21 42h33l48 -241h-32q-18 37 -27.5 54.5t-28 48.5t-35.5 46.5t-42 33t-56 25t-68 7.5q-99 0 -164.5 -87.5t-65.5 -220.5q0 -80 24.5 -141.5t63.5 -95
t80.5 -50t81.5 -16.5q22 0 47 5.5t60 19.5t72 45.5t68 77.5zM448 796q0 -24 -17.5 -41.5t-41.5 -17.5t-41.5 17.5t-17.5 41.5q0 25 17.5 42t42.5 17q23 0 40.5 -17.5t17.5 -41.5z" />
    <glyph glyph-name="cdotaccent" unicode="&#x10b;" horiz-adv-x="520" 
d="M498 108q-75 -117 -215 -117q-110 0 -178 69.5t-68 181.5q0 30 6.5 61t23.5 66t43.5 62t70.5 45t100 18q95 0 149.5 -44.5t54.5 -92.5q0 -23 -14.5 -39t-36.5 -16t-36.5 14.5t-14.5 36.5l1 35q0 26 -30 46t-69 20q-55 0 -89.5 -35.5t-45.5 -80.5t-11 -100
q0 -93 47.5 -150t124.5 -57q46 0 81 21t77 74zM337 630q0 -24 -17.5 -41.5t-41.5 -17.5t-41.5 17.5t-17.5 41.5q0 25 17.5 42t42.5 17q23 0 40.5 -17.5t17.5 -41.5z" />
    <glyph glyph-name="Ccaron" unicode="&#x10c;" horiz-adv-x="740" 
d="M702 159q-111 -172 -305 -172q-151 0 -252 100t-101 250q0 84 32.5 154.5t82.5 113t106 66t108 23.5q122 0 206 -64l21 42h33l48 -241h-32q-18 37 -27.5 54.5t-28 48.5t-35.5 46.5t-42 33t-56 25t-68 7.5q-99 0 -164.5 -87.5t-65.5 -220.5q0 -80 24.5 -141.5t63.5 -95
t80.5 -50t81.5 -16.5q22 0 47 5.5t60 19.5t72 45.5t68 77.5zM548 827l-156 -84l-156 84l15 22l141 -40l142 40z" />
    <glyph glyph-name="ccaron" unicode="&#x10d;" horiz-adv-x="520" 
d="M498 108q-75 -117 -215 -117q-110 0 -178 69.5t-68 181.5q0 30 6.5 61t23.5 66t43.5 62t70.5 45t100 18q95 0 149.5 -44.5t54.5 -92.5q0 -23 -14.5 -39t-36.5 -16t-36.5 14.5t-14.5 36.5l1 35q0 26 -30 46t-69 20q-55 0 -89.5 -35.5t-45.5 -80.5t-11 -100
q0 -93 47.5 -150t124.5 -57q46 0 81 21t77 74zM423 664l-142 -93l-142 93l13 25l129 -46l128 46z" />
    <glyph glyph-name="Dcaron" unicode="&#x10e;" horiz-adv-x="800" 
d="M752 335q0 -335 -416 -335h-305v31l25 3q39 5 52 27t13 83v393q0 61 -13 83t-52 27l-25 3v31h305q105 0 183.5 -24.5t121.5 -60t69.5 -85t34 -90.5t7.5 -86zM634 342q0 42 -7.5 81t-28.5 79.5t-53 70t-84.5 48.5t-120.5 19q-43 0 -68.5 -5.5t-36 -20t-12.5 -25.5t-2 -35
v-6v-419q0 -26 3 -39.5t14 -26t35.5 -17.5t65.5 -5q84 0 145 28t92 74.5t44.5 95.5t13.5 103zM542 827l-156 -84l-156 84l15 22l141 -40l142 40z" />
    <glyph glyph-name="dcaron" unicode="&#x10f;" 
d="M591 0h-168v67q-71 -76 -173 -76q-100 0 -156.5 75.5t-56.5 174.5q0 108 63 180.5t157 72.5q89 0 166 -53v97q0 67 -12 87.5t-53 24.5l-21 2v31q79 9 141 34h40v-602q0 -40 13 -57.5t48 -25.5l12 -2v-30zM423 118v271q-40 34 -70 47t-66 13q-44 0 -75 -21.5t-46 -55.5
t-21 -65.5t-6 -63.5q0 -33 6.5 -65.5t21 -65.5t43.5 -53t69 -20q79 0 144 79zM690 635q0 -43 -26 -78.5t-72 -57.5l-11 22q58 37 62 92q-18 -14 -31 -14q-24 0 -39 16t-15 41t18.5 43t43.5 18q29 0 49.5 -24t20.5 -58z" />
    <glyph glyph-name="Dcroat" unicode="&#x110;" horiz-adv-x="800" 
d="M752 335q0 -335 -416 -335h-305v31l25 3q40 5 52.5 26.5t12.5 83.5v196h-90v47h90v149q0 62 -13 84t-52 27l-25 3v31h305q105 0 183.5 -24.5t121.5 -60t69.5 -85t34 -90.5t7.5 -86zM634 342q0 53 -13.5 101t-44.5 94.5t-91.5 74.5t-144.5 28q-30 0 -51.5 -2.5
t-34.5 -10.5t-20 -13t-9.5 -20t-3 -20.5t-0.5 -25.5v-161h200v-47h-200v-210q0 -26 3 -39.5t14 -26.5t35.5 -18t65.5 -5q68 0 121 19t85 49t53 71t28.5 80.5t7.5 81.5z" />
    <glyph glyph-name="dcroat" unicode="&#x111;" 
d="M591 0h-168v67q-34 -37 -73 -54q-52 -22 -100 -22q-47 0 -89.5 20.5t-68.5 55.5q-55 73 -55 174q0 108 63 180.5t157 72.5q89 0 166 -53v94h-128v47h127q-2 34 -16 49t-48 19l-21 2v31q79 9 141 34h40v-135h73v-47h-73v-420q0 -40 13 -57.5t48 -25.5l12 -2v-30zM423 118
v271q-40 34 -70 47t-66 13q-87 0 -122 -78q-26 -59 -26 -128q0 -74 27 -131q16 -34 45.5 -53.5t67.5 -19.5q79 0 144 79z" />
    <glyph glyph-name="Emacron" unicode="&#x112;" horiz-adv-x="720" 
d="M705 213l-91 -213h-583v31l25 3q39 5 52 27t13 83v393q0 61 -13 83t-52 27l-25 3v31h571l69 -180l-32 -13q-69 84 -135.5 117t-168.5 33q-66 0 -90 -17.5t-24 -65.5v-170h76q64 0 87.5 24.5t33.5 102.5h34v-299h-34q-7 70 -35.5 99.5t-87.5 29.5h-74v-211
q0 -49 22.5 -68.5t90.5 -19.5q112 0 185 39.5t155 144.5zM467 771h-296v50h296v-50z" />
    <glyph glyph-name="emacron" unicode="&#x113;" horiz-adv-x="520" 
d="M491 116q-73 -125 -207 -125q-63 0 -112.5 24t-77.5 62.5t-42.5 82t-14.5 87.5q0 108 66.5 177.5t169.5 69.5q32 0 66 -9.5t70 -31t59 -64.5t23 -100h-347q0 -121 37.5 -187t132.5 -66q92 0 144 96zM387 329v3q1 18 -6 43.5t-36 52t-76 26.5q-58 0 -85 -33.5t-37 -91.5
h240zM417 605h-296v50h296v-50z" />
    <glyph glyph-name="Ebreve" unicode="&#x114;" horiz-adv-x="720" 
d="M705 213l-91 -213h-583v31l25 3q39 5 52 27t13 83v393q0 61 -13 83t-52 27l-25 3v31h571l69 -180l-32 -13q-69 84 -135.5 117t-168.5 33q-66 0 -90 -17.5t-24 -65.5v-170h76q64 0 87.5 24.5t33.5 102.5h34v-299h-34q-7 70 -35.5 99.5t-87.5 29.5h-74v-211
q0 -49 22.5 -68.5t90.5 -19.5q112 0 185 39.5t155 144.5zM504 834q-26 -41 -75.5 -66t-106.5 -25q-127 0 -179 91l25 16q70 -47 157 -47q91 0 153 47z" />
    <glyph glyph-name="ebreve" unicode="&#x115;" horiz-adv-x="520" 
d="M491 116q-73 -125 -207 -125q-63 0 -112.5 24t-77.5 62.5t-42.5 82t-14.5 87.5q0 108 66.5 177.5t169.5 69.5q32 0 66 -9.5t70 -31t59 -64.5t23 -100h-347q0 -121 37.5 -187t132.5 -66q92 0 144 96zM387 329v3q1 18 -6 43.5t-36 52t-76 26.5q-58 0 -85 -33.5t-37 -91.5
h240zM439 672q-23 -46 -68 -73.5t-97 -27.5q-55 0 -97.5 26.5t-65.5 74.5l23 18q64 -52 142 -52q37 0 75.5 14.5t64.5 37.5z" />
    <glyph glyph-name="Edotaccent" unicode="&#x116;" horiz-adv-x="720" 
d="M705 213l-91 -213h-583v31l25 3q39 5 52 27t13 83v393q0 61 -13 83t-52 27l-25 3v31h571l69 -180l-32 -13q-69 84 -135.5 117t-168.5 33q-66 0 -90 -17.5t-24 -65.5v-170h76q64 0 87.5 24.5t33.5 102.5h34v-299h-34q-7 70 -35.5 99.5t-87.5 29.5h-74v-211
q0 -49 22.5 -68.5t90.5 -19.5q112 0 185 39.5t155 144.5zM379 796q0 -24 -17.5 -41.5t-41.5 -17.5t-41.5 17.5t-17.5 41.5q0 25 17.5 42t42.5 17q23 0 40.5 -17.5t17.5 -41.5z" />
    <glyph glyph-name="edotaccent" unicode="&#x117;" horiz-adv-x="520" 
d="M491 116q-73 -125 -207 -125q-63 0 -112.5 24t-77.5 62.5t-42.5 82t-14.5 87.5q0 108 66.5 177.5t169.5 69.5q32 0 66 -9.5t70 -31t59 -64.5t23 -100h-347q0 -121 37.5 -187t132.5 -66q92 0 144 96zM387 329v3q1 18 -6 43.5t-36 52t-76 26.5q-58 0 -85 -33.5t-37 -91.5
h240zM329 630q0 -24 -17.5 -41.5t-41.5 -17.5t-41.5 17.5t-17.5 41.5q0 25 17.5 42t42.5 17q23 0 40.5 -17.5t17.5 -41.5z" />
    <glyph glyph-name="Eogonek" unicode="&#x118;" horiz-adv-x="720" 
d="M705 213l-91 -213h-16q-42 0 -69 -34t-27 -80q0 -27 16 -48t42 -21q19 0 41.5 9t34.5 23l25 -19q-18 -30 -51.5 -50t-67.5 -20q-48 0 -83.5 30.5t-35.5 74.5q0 69 82 135h-474v31l25 3q39 5 52 27t13 83v393q0 61 -13 83t-52 27l-25 3v31h571l69 -180l-32 -13
q-69 84 -135.5 117t-168.5 33q-66 0 -90 -17.5t-24 -65.5v-170h76q64 0 87.5 24.5t33.5 102.5h34v-299h-34q-7 70 -35.5 99.5t-87.5 29.5h-74v-211q0 -49 22.5 -68.5t90.5 -19.5q112 0 185 39.5t155 144.5z" />
    <glyph glyph-name="eogonek" unicode="&#x119;" horiz-adv-x="520" 
d="M491 116q-48 -82 -120 -111q-36 -13 -57.5 -46t-21.5 -73q0 -27 16 -48t42 -21q19 0 41.5 9t34.5 23l25 -19q-18 -30 -51.5 -50t-67.5 -20q-48 0 -83.5 30.5t-35.5 74.5q0 63 72 126h-1q-63 0 -112.5 24t-77.5 62.5t-42.5 82t-14.5 87.5q0 108 66.5 177.5t169.5 69.5
q32 0 66 -9.5t70 -31t59 -64.5t23 -100h-347q0 -121 37.5 -187t132.5 -66q92 0 144 96zM387 329v3q1 18 -6 43.5t-36 52t-76 26.5q-58 0 -85 -33.5t-37 -91.5h240z" />
    <glyph glyph-name="Ecaron" unicode="&#x11a;" horiz-adv-x="720" 
d="M705 213l-91 -213h-583v31l25 3q39 5 52 27t13 83v393q0 61 -13 83t-52 27l-25 3v31h571l69 -180l-32 -13q-69 84 -135.5 117t-168.5 33q-66 0 -90 -17.5t-24 -65.5v-170h76q64 0 87.5 24.5t33.5 102.5h34v-299h-34q-7 70 -35.5 99.5t-87.5 29.5h-74v-211
q0 -49 22.5 -68.5t90.5 -19.5q112 0 185 39.5t155 144.5zM479 827l-156 -84l-156 84l15 22l141 -40l142 40z" />
    <glyph glyph-name="ecaron" unicode="&#x11b;" horiz-adv-x="520" 
d="M491 116q-73 -125 -207 -125q-63 0 -112.5 24t-77.5 62.5t-42.5 82t-14.5 87.5q0 108 66.5 177.5t169.5 69.5q32 0 66 -9.5t70 -31t59 -64.5t23 -100h-347q0 -121 37.5 -187t132.5 -66q92 0 144 96zM387 329v3q1 18 -6 43.5t-36 52t-76 26.5q-58 0 -85 -33.5t-37 -91.5
h240zM415 664l-142 -93l-142 93l13 25l129 -46l128 46z" />
    <glyph glyph-name="Gcircumflex" unicode="&#x11c;" horiz-adv-x="800" 
d="M778 293l-18 -3q-26 -5 -38 -12t-19.5 -30t-7.5 -68v-180h-47l-32 69q-106 -82 -227 -82q-148 0 -246.5 102t-98.5 254q0 106 50 188t125.5 122.5t159.5 40.5q107 0 195 -61l20 48h31l61 -212l-38 -11q-62 87 -105 124q-77 64 -158 64q-100 0 -161.5 -85t-61.5 -225
q0 -135 66.5 -218t174.5 -83q29 0 60 7.5t64.5 25t54.5 52t21 80.5t-21.5 66.5t-76.5 27.5v30h273v-31zM541 765l-15 -22l-141 40l-142 -40l-14 22l156 84z" />
    <glyph glyph-name="gcircumflex" unicode="&#x11d;" horiz-adv-x="540" 
d="M542 520q0 -16 -11 -27t-27 -11q-14 0 -29 9.5t-24 9.5q-24 0 -53 -43q83 -56 83 -142q0 -27 -10 -54t-32.5 -54t-66 -43.5t-101.5 -16.5q-45 0 -94 16q-46 -24 -46 -53q0 -32 65 -41l191 -26q32 -4 52 -9.5t46 -18t39.5 -36.5t13.5 -59q0 -74 -73 -118t-194 -44
q-112 0 -183 34t-71 88q0 37 24.5 62.5t80.5 46.5q-73 26 -73 84q0 68 98 100q-81 55 -81 142q0 74 60 126t146 52q41 0 94 -20q47 89 122 89q24 0 39 -12t15 -31zM379 321q0 141 -102 141q-52 0 -80.5 -37t-28.5 -103q0 -142 106 -142q105 0 105 141zM468 -111
q0 29 -24 44.5t-79 22.5l-205 25q-83 -31 -83 -90q0 -42 54 -68.5t140 -26.5q105 0 151 29t46 64zM414 596l-14 -25l-128 45l-129 -45l-13 25l142 93z" />
    <glyph glyph-name="Gbreve" unicode="&#x11e;" horiz-adv-x="800" 
d="M778 293l-18 -3q-26 -5 -38 -12t-19.5 -30t-7.5 -68v-180h-47l-32 69q-106 -82 -227 -82q-148 0 -246.5 102t-98.5 254q0 106 50 188t125.5 122.5t159.5 40.5q107 0 195 -61l20 48h31l61 -212l-38 -11q-62 87 -105 124q-77 64 -158 64q-100 0 -161.5 -85t-61.5 -225
q0 -135 66.5 -218t174.5 -83q29 0 60 7.5t64.5 25t54.5 52t21 80.5t-21.5 66.5t-76.5 27.5v30h273v-31zM566 834q-26 -41 -75.5 -66t-106.5 -25q-127 0 -179 91l25 16q70 -47 157 -47q91 0 153 47z" />
    <glyph glyph-name="gbreve" unicode="&#x11f;" horiz-adv-x="540" 
d="M542 520q0 -16 -11 -27t-27 -11q-14 0 -29 9.5t-24 9.5q-24 0 -53 -43q83 -56 83 -142q0 -27 -10 -54t-32.5 -54t-66 -43.5t-101.5 -16.5q-45 0 -94 16q-46 -24 -46 -53q0 -32 65 -41l191 -26q32 -4 52 -9.5t46 -18t39.5 -36.5t13.5 -59q0 -74 -73 -118t-194 -44
q-112 0 -183 34t-71 88q0 37 24.5 62.5t80.5 46.5q-73 26 -73 84q0 68 98 100q-81 55 -81 142q0 74 60 126t146 52q41 0 94 -20q47 89 122 89q24 0 39 -12t15 -31zM379 321q0 141 -102 141q-52 0 -80.5 -37t-28.5 -103q0 -142 106 -142q105 0 105 141zM468 -111
q0 29 -24 44.5t-79 22.5l-205 25q-83 -31 -83 -90q0 -42 54 -68.5t140 -26.5q105 0 151 29t46 64zM438 672q-23 -46 -68 -73.5t-97 -27.5q-55 0 -97.5 26.5t-65.5 74.5l23 18q64 -52 142 -52q37 0 75.5 14.5t64.5 37.5z" />
    <glyph glyph-name="Gdotaccent" unicode="&#x120;" horiz-adv-x="800" 
d="M778 293l-18 -3q-26 -5 -38 -12t-19.5 -30t-7.5 -68v-180h-47l-32 69q-106 -82 -227 -82q-148 0 -246.5 102t-98.5 254q0 106 50 188t125.5 122.5t159.5 40.5q107 0 195 -61l20 48h31l61 -212l-38 -11q-62 87 -105 124q-77 64 -158 64q-100 0 -161.5 -85t-61.5 -225
q0 -135 66.5 -218t174.5 -83q29 0 60 7.5t64.5 25t54.5 52t21 80.5t-21.5 66.5t-76.5 27.5v30h273v-31zM441 796q0 -24 -17.5 -41.5t-41.5 -17.5t-41.5 17.5t-17.5 41.5q0 25 17.5 42t42.5 17q23 0 40.5 -17.5t17.5 -41.5z" />
    <glyph glyph-name="gdotaccent" unicode="&#x121;" horiz-adv-x="540" 
d="M542 520q0 -16 -11 -27t-27 -11q-14 0 -29 9.5t-24 9.5q-24 0 -53 -43q83 -56 83 -142q0 -27 -10 -54t-32.5 -54t-66 -43.5t-101.5 -16.5q-45 0 -94 16q-46 -24 -46 -53q0 -32 65 -41l191 -26q32 -4 52 -9.5t46 -18t39.5 -36.5t13.5 -59q0 -74 -73 -118t-194 -44
q-112 0 -183 34t-71 88q0 37 24.5 62.5t80.5 46.5q-73 26 -73 84q0 68 98 100q-81 55 -81 142q0 74 60 126t146 52q41 0 94 -20q47 89 122 89q24 0 39 -12t15 -31zM379 321q0 141 -102 141q-52 0 -80.5 -37t-28.5 -103q0 -142 106 -142q105 0 105 141zM468 -111
q0 29 -24 44.5t-79 22.5l-205 25q-83 -31 -83 -90q0 -42 54 -68.5t140 -26.5q105 0 151 29t46 64zM328 630q0 -24 -17.5 -41.5t-41.5 -17.5t-41.5 17.5t-17.5 41.5q0 25 17.5 42t42.5 17q23 0 40.5 -17.5t17.5 -41.5z" />
    <glyph glyph-name="Gcommaaccent" unicode="&#x122;" horiz-adv-x="800" 
d="M778 293l-18 -3q-26 -5 -38 -12t-19.5 -30t-7.5 -68v-180h-47l-32 69q-106 -82 -227 -82q-148 0 -246.5 102t-98.5 254q0 106 50 188t125.5 122.5t159.5 40.5q107 0 195 -61l20 48h31l61 -212l-38 -11q-62 87 -105 124q-77 64 -158 64q-100 0 -161.5 -85t-61.5 -225
q0 -135 66.5 -218t174.5 -83q29 0 60 7.5t64.5 25t54.5 52t21 80.5t-21.5 66.5t-76.5 27.5v30h273v-31zM451 -132q0 -43 -26 -78.5t-72 -57.5l-11 22q58 37 62 92q-18 -14 -31 -14q-24 0 -39 16t-15 41t18.5 43t43.5 18q29 0 49.5 -24t20.5 -58z" />
    <glyph glyph-name="gcommaaccent" unicode="&#x123;" horiz-adv-x="540" 
d="M338 602q0 -25 -18.5 -43t-43.5 -18q-29 0 -49.5 24t-20.5 58q0 43 26 78.5t72 57.5l11 -22q-58 -37 -62 -92q18 14 31 14q24 0 39 -16t15 -41zM542 520q0 -16 -11 -27t-27 -11q-14 0 -29 9.5t-24 9.5q-24 0 -53 -43q83 -56 83 -142q0 -27 -10 -54t-32.5 -54t-66 -43.5
t-101.5 -16.5q-45 0 -94 16q-46 -24 -46 -53q0 -32 65 -41l191 -26q32 -4 52 -9.5t46 -18t39.5 -36.5t13.5 -59q0 -74 -73 -118t-194 -44q-112 0 -183 34t-71 88q0 37 24.5 62.5t80.5 46.5q-73 26 -73 84q0 68 98 100q-81 55 -81 142q0 74 60 126t146 52q41 0 94 -20
q47 89 122 89q24 0 39 -12t15 -31zM379 321q0 141 -102 141q-52 0 -80.5 -37t-28.5 -103q0 -142 106 -142q105 0 105 141zM468 -111q0 29 -24 44.5t-79 22.5l-205 25q-83 -31 -83 -90q0 -42 54 -68.5t140 -26.5q105 0 151 29t46 64z" />
    <glyph glyph-name="Hcircumflex" unicode="&#x124;" horiz-adv-x="800" 
d="M769 0h-280v31l25 3q39 5 52 27t13 83v201h-358v-201q0 -61 13 -83t52 -27l25 -3v-31h-280v31l25 3q39 5 52 27t13 83v393q0 61 -13 83t-52 27l-25 3v31h280v-31l-25 -3q-39 -5 -52 -27t-13 -83v-149h358v149q0 61 -13 83t-52 27l-25 3v31h280v-31l-25 -3q-39 -5 -52 -27
t-13 -83v-393q0 -61 13 -83t52 -27l25 -3v-31zM556 765l-15 -22l-141 40l-142 -40l-14 22l156 84z" />
    <glyph glyph-name="hcircumflex" unicode="&#x125;" horiz-adv-x="660" 
d="M643 0h-269v30l25 2q33 4 47.5 23t14.5 60v230q0 101 -86 101q-87 0 -173 -82v-249q0 -41 14.5 -60t47.5 -23l25 -2v-30h-269v30l25 2q33 4 47.5 23t14.5 60v423q0 67 -12 87.5t-53 24.5l-22 2v31q79 9 142 34h40v-306q96 83 197 83q45 0 76.5 -11.5t47 -25.5t23.5 -37
t9 -36t1 -33v-236q0 -41 14.5 -60t47.5 -23l25 -2v-30zM486 801l-15 -22l-141 40l-142 -40l-14 22l156 84z" />
    <glyph glyph-name="Hbar" unicode="&#x126;" horiz-adv-x="800" 
d="M769 0h-280v31l25 3q39 5 52 27t13 83v201h-358v-201q0 -61 13 -83t52 -27l25 -3v-31h-280v31l25 3q39 5 52 27t13 83v347h-90v40h90v6q0 61 -13 83t-52 27l-25 3v31h280v-31l-25 -3q-39 -5 -52 -27t-13 -83v-6h358v6q0 61 -13 83t-52 27l-25 3v31h280v-31l-25 -3
q-39 -5 -52 -27t-13 -83v-6h90v-40h-90v-347q0 -61 13 -83t52 -27l25 -3v-31zM579 388v103h-358v-103h358z" />
    <glyph glyph-name="hbar" unicode="&#x127;" horiz-adv-x="703" 
d="M663 0h-269v30l25 2q33 4 47.5 23t14.5 60v230q0 101 -86 101q-87 0 -173 -82v-249q0 -41 14.5 -60t47.5 -23l25 -2v-30h-269v30l25 2q33 4 47.5 23t14.5 60v381l-87 -28v34l87 27v9q0 67 -12 87.5t-53 24.5l-22 2v31q79 9 142 34h40v-158l128 41v-34l-128 -40v-115
q96 83 197 83q45 0 76.5 -11.5t47 -25.5t23.5 -37t9 -36t1 -33v-236q0 -41 14.5 -60t47.5 -23l25 -2v-30z" />
    <glyph glyph-name="Itilde" unicode="&#x128;" horiz-adv-x="340" 
d="M301 0h-270v31l20 3q41 7 53 27.5t12 82.5v393q0 62 -12 82.5t-53 27.5l-20 3v31h270v-31l-20 -3q-41 -7 -53 -27.5t-12 -82.5v-393q0 -62 12 -82.5t53 -27.5l20 -3v-31zM321 825q-11 -38 -32.5 -55t-57.5 -17q-32 0 -95 18q-39 10 -54 10q-22 0 -39 -20l-29 10
q10 31 33.5 49.5t52.5 18.5t95 -18q31 -9 49 -9q31 0 48 22z" />
    <glyph glyph-name="itilde" unicode="&#x129;" horiz-adv-x="300" 
d="M288 0h-268v30l25 2q33 4 47.5 23t14.5 60v235q0 45 -13.5 62t-52.5 21l-20 2v30q62 5 147 20h34v-370q0 -41 14 -60t48 -23l24 -2v-30zM310 659q-11 -38 -32.5 -55t-57.5 -17q-32 0 -95 18q-39 10 -54 10q-22 0 -39 -20l-29 10q10 31 33.5 49.5t52.5 18.5t95 -18
q31 -9 49 -9q31 0 48 22z" />
    <glyph glyph-name="Imacron" unicode="&#x12a;" horiz-adv-x="340" 
d="M301 0h-270v31l20 3q41 7 53 27.5t12 82.5v393q0 62 -12 82.5t-53 27.5l-20 3v31h270v-31l-20 -3q-41 -7 -53 -27.5t-12 -82.5v-393q0 -62 12 -82.5t53 -27.5l20 -3v-31zM310 771h-296v50h296v-50z" />
    <glyph glyph-name="imacron" unicode="&#x12b;" horiz-adv-x="300" 
d="M288 0h-268v30l25 2q33 4 47.5 23t14.5 60v235q0 45 -13.5 62t-52.5 21l-20 2v30q62 5 147 20h34v-370q0 -41 14 -60t48 -23l24 -2v-30zM299 605h-296v50h296v-50z" />
    <glyph glyph-name="Ibreve" unicode="&#x12c;" horiz-adv-x="340" 
d="M301 0h-270v31l20 3q41 7 53 27.5t12 82.5v393q0 62 -12 82.5t-53 27.5l-20 3v31h270v-31l-20 -3q-41 -7 -53 -27.5t-12 -82.5v-393q0 -62 12 -82.5t53 -27.5l20 -3v-31zM347 834q-25 -41 -75 -66t-107 -25q-127 0 -179 91l25 16q70 -47 157 -47q91 0 153 47z" />
    <glyph glyph-name="ibreve" unicode="&#x12d;" horiz-adv-x="300" 
d="M288 0h-268v30l25 2q33 4 47.5 23t14.5 60v235q0 45 -13.5 62t-52.5 21l-20 2v30q62 5 147 20h34v-370q0 -41 14 -60t48 -23l24 -2v-30zM321 672q-23 -46 -68 -73.5t-97 -27.5q-55 0 -97.5 26.5t-65.5 74.5l23 18q64 -52 142 -52q37 0 75.5 14.5t64.5 37.5z" />
    <glyph glyph-name="Iogonek" unicode="&#x12e;" horiz-adv-x="340" 
d="M301 -170q-18 -30 -51.5 -50t-67.5 -20q-48 0 -83.5 30.5t-35.5 74.5q0 69 82 135h-114v31l20 3q41 7 53 27.5t12 82.5v393q0 62 -12 82.5t-53 27.5l-20 3v31h270v-31l-20 -3q-41 -7 -53 -27.5t-12 -82.5v-393q0 -62 12 -82.5t53 -27.5l20 -3v-31h-54q-44 0 -74.5 -34
t-30.5 -80q0 -27 16 -48t42 -21q19 0 41.5 9t34.5 23z" />
    <glyph glyph-name="iogonek" unicode="&#x12f;" horiz-adv-x="300" 
d="M288 -170q-18 -30 -51.5 -50t-67.5 -20q-48 0 -83.5 30.5t-35.5 74.5q0 69 82 135h-112v30l25 2q33 4 47.5 23t14.5 60v235q0 45 -13.5 62t-52.5 21l-20 2v30q62 5 147 20h34v-370q0 -41 14 -60t48 -23l24 -2v-30h-54q-44 0 -74.5 -34t-30.5 -80q0 -27 16 -48t42 -21
q19 0 41.5 9t34.5 23zM211 630q0 -24 -17.5 -41.5t-41.5 -17.5t-41.5 17.5t-17.5 41.5q0 25 17.5 42t42.5 17q23 0 40.5 -17.5t17.5 -41.5z" />
    <glyph glyph-name="Idotaccent" unicode="&#x130;" horiz-adv-x="340" 
d="M301 0h-270v31l20 3q41 7 53 27.5t12 82.5v393q0 62 -12 82.5t-53 27.5l-20 3v31h270v-31l-20 -3q-41 -7 -53 -27.5t-12 -82.5v-393q0 -62 12 -82.5t53 -27.5l20 -3v-31zM222 796q0 -24 -17.5 -41.5t-41.5 -17.5t-41.5 17.5t-17.5 41.5q0 25 17.5 42t42.5 17
q23 0 40.5 -17.5t17.5 -41.5z" />
    <glyph glyph-name="dotlessi" unicode="&#x131;" horiz-adv-x="300" 
d="M288 0h-268v30l25 2q33 4 47.5 23t14.5 60v235q0 45 -13.5 62t-52.5 21l-20 2v30q62 5 147 20h34v-370q0 -41 14 -60t48 -23l24 -2v-30z" />
    <glyph glyph-name="Jcircumflex" unicode="&#x134;" horiz-adv-x="600" 
d="M567 650l-25 -3q-39 -5 -52 -27t-13 -83v-277q0 -33 -0.5 -52t-5.5 -51.5t-14 -52.5t-27.5 -45t-44 -38.5t-66 -23.5t-91.5 -10q-117 0 -184 61.5t-67 137.5q0 39 22 64t56 25q25 0 40 -14.5t15 -39.5q0 -26 -25 -48q-20 -19 -20 -40q0 -40 43 -69t101 -29q40 0 69.5 9
t47.5 29.5t28.5 41t15.5 57.5t6 64.5t1 74.5v226q0 61 -13 83t-52 27l-25 3v31h280v-31zM583 765l-15 -22l-141 40l-142 -40l-14 22l156 84z" />
    <glyph glyph-name="jcircumflex" unicode="&#x135;" horiz-adv-x="300" 
d="M203 -47q0 -49 -16.5 -86.5t-39.5 -57t-53.5 -32t-52.5 -15.5t-43 -3q-48 0 -77.5 17t-29.5 44q0 16 13.5 28t32.5 12q22 0 44 -26q16 -18 27 -24t28 -6q26 0 42 11.5t22 41.5t7 52t1 71v25v345q0 45 -14 62.5t-52 20.5l-24 2v30q76 5 151 20h34v-532zM298 596l-14 -25
l-128 45l-129 -45l-13 25l142 93z" />
    <glyph glyph-name="Kcommaaccent" unicode="&#x136;" horiz-adv-x="720" 
d="M750 0h-308v31q16 2 18 2q37 3 51 16.5t9.5 32t-22.5 47.5l-161 257l-116 -103v-139q0 -61 13.5 -84t51.5 -26l41 -3v-31h-296v31l25 3q39 5 52 27t13 83v393q0 61 -13 83t-52 27l-25 3v31h296v-31l-41 -3q-38 -3 -51.5 -26t-13.5 -84v-192l205 184q38 34 48.5 48
t10.5 31q0 20 -13 29t-45 12l-10 1v31h286v-31l-7 -2q-65 -12 -159 -92l-120 -105l190 -310q37 -57 64.5 -78.5t78.5 -32.5v-30zM451 -132q0 -43 -26 -78.5t-72 -57.5l-11 22q58 37 62 92q-18 -14 -31 -14q-24 0 -39 16t-15 41t18.5 43t43.5 18q29 0 49.5 -24t20.5 -58z" />
    <glyph glyph-name="kcommaaccent" unicode="&#x137;" 
d="M628 0h-270v30l27 2q18 2 25 11t3.5 22t-10 25.5t-15.5 24.5l-105 152l-81 -69v-83q0 -40 14.5 -59.5t46.5 -23.5l26 -2v-30h-269v30l25 2q33 4 47.5 23t14.5 60v423q0 67 -12 87.5t-53 24.5l-22 2v31q79 9 142 34h40v-468l156 136q27 23 27 39q0 28 -56 32v29h266v-30
q-65 -10 -105.5 -28.5t-86.5 -58.5l-45 -40l149 -213q54 -71 121 -83v-32zM390 -132q0 -43 -26 -78.5t-72 -57.5l-11 22q58 37 62 92q-18 -14 -31 -14q-24 0 -39 16t-15 41t18.5 43t43.5 18q29 0 49.5 -24t20.5 -58z" />
    <glyph glyph-name="Lacute" unicode="&#x139;" horiz-adv-x="600" 
d="M629 214l-80 -214h-518v31l25 3q39 5 52 27t13 83v393q0 61 -13 83t-52 27l-25 3v31h287v-31l-32 -3q-38 -4 -51.5 -26.5t-13.5 -83.5v-414q0 -43 16.5 -64t69.5 -21q95 0 184 67q50 37 110 122zM323 815q0 -33 -69 -45l-153 -26l-5 12l105 61q52 31 83 31q17 0 28 -9.5
t11 -23.5z" />
    <glyph glyph-name="lacute" unicode="&#x13a;" horiz-adv-x="300" 
d="M286 0h-266v30l24 2q34 4 48 23t14 60v423q0 67 -12 87.5t-53 24.5l-21 2v31q79 9 141 34h40v-602q0 -41 14 -60t48 -23l23 -2v-30zM289 851q0 -33 -69 -45l-153 -26l-5 12l105 61q52 31 83 31q17 0 28 -9.5t11 -23.5z" />
    <glyph glyph-name="Lcommaaccent" unicode="&#x13b;" horiz-adv-x="600" 
d="M629 214l-80 -214h-518v31l25 3q39 5 52 27t13 83v393q0 61 -13 83t-52 27l-25 3v31h287v-31l-32 -3q-38 -4 -51.5 -26.5t-13.5 -83.5v-414q0 -43 16.5 -64t69.5 -21q95 0 184 67q50 37 110 122zM366 -132q0 -43 -26 -78.5t-72 -57.5l-11 22q58 37 62 92q-18 -14 -31 -14
q-24 0 -39 16t-15 41t18.5 43t43.5 18q29 0 49.5 -24t20.5 -58z" />
    <glyph glyph-name="lcommaaccent" unicode="&#x13c;" horiz-adv-x="300" 
d="M286 0h-266v30l24 2q34 4 48 23t14 60v423q0 67 -12 87.5t-53 24.5l-21 2v31q79 9 141 34h40v-602q0 -41 14 -60t48 -23l23 -2v-30zM220 -132q0 -43 -26 -78.5t-72 -57.5l-11 22q58 37 62 92q-18 -14 -31 -14q-24 0 -39 16t-15 41t18.5 43t43.5 18q29 0 49.5 -24
t20.5 -58z" />
    <glyph glyph-name="Lcaron" unicode="&#x13d;" horiz-adv-x="600" 
d="M629 214l-80 -214h-518v31l25 3q39 5 52 27t13 83v393q0 61 -13 83t-52 27l-25 3v31h287v-31l-32 -3q-38 -4 -51.5 -26.5t-13.5 -83.5v-414q0 -43 16.5 -64t69.5 -21q95 0 184 67q50 37 110 122zM490 599q0 -43 -26 -78.5t-72 -57.5l-11 22q58 37 62 92q-18 -14 -31 -14
q-24 0 -39 16t-15 41t18.5 43t43.5 18q29 0 49.5 -24t20.5 -58z" />
    <glyph glyph-name="lcaron" unicode="&#x13e;" horiz-adv-x="300" 
d="M286 0h-266v30l24 2q34 4 48 23t14 60v423q0 67 -12 87.5t-53 24.5l-21 2v31q79 9 141 34h40v-602q0 -41 14 -60t48 -23l23 -2v-30zM373 635q0 -43 -26 -78.5t-72 -57.5l-11 22q58 37 62 92q-18 -14 -31 -14q-24 0 -39 16t-15 41t18.5 43t43.5 18q29 0 49.5 -24t20.5 -58
z" />
    <glyph glyph-name="Ldot" unicode="&#x13f;" horiz-adv-x="600" 
d="M629 214l-80 -214h-518v31l25 3q39 5 52 27t13 83v393q0 61 -13 83t-52 27l-25 3v31h287v-31l-32 -3q-38 -4 -51.5 -26.5t-13.5 -83.5v-414q0 -43 16.5 -64t69.5 -21q95 0 184 67q50 37 110 122zM530 372q0 -24 -17.5 -41.5t-41.5 -17.5t-41.5 17.5t-17.5 41.5
q0 25 17.5 42t42.5 17q23 0 40.5 -17.5t17.5 -41.5z" />
    <glyph glyph-name="ldot" unicode="&#x140;" horiz-adv-x="300" 
d="M286 0h-266v30l24 2q34 4 48 23t14 60v423q0 67 -12 87.5t-53 24.5l-21 2v31q79 9 141 34h40v-602q0 -41 14 -60t48 -23l23 -2v-30zM363 372q0 -24 -17.5 -41.5t-41.5 -17.5t-41.5 17.5t-17.5 41.5q0 25 17.5 42t42.5 17q23 0 40.5 -17.5t17.5 -41.5z" />
    <glyph glyph-name="Lslash" unicode="&#x141;" horiz-adv-x="600" 
d="M629 214l-80 -214h-518v31l25 3q39 5 52 27t13 83v104l-90 -69v74l90 68v216q0 61 -13 83t-52 27l-25 3v31h287v-31l-32 -3q-38 -4 -51.5 -26.5t-13.5 -83.5v-149l179 137v-74l-179 -137v-191q0 -43 16.5 -64t69.5 -21q95 0 184 67q50 37 110 122z" />
    <glyph glyph-name="lslash" unicode="&#x142;" horiz-adv-x="320" 
d="M300 0h-266v30l24 2q34 4 48 23t14 60v217l-86 -77v78l86 77v128q0 67 -12 87.5t-53 24.5l-21 2v31q79 9 141 34h40v-232l85 76v-79l-85 -75v-292q0 -41 14 -60t48 -23l23 -2v-30z" />
    <glyph glyph-name="Nacute" unicode="&#x143;" horiz-adv-x="740" 
d="M722 650l-25 -3q-39 -5 -52 -27t-13 -83v-537h-88l-371 606v-462q0 -61 13.5 -83.5t51.5 -26.5l35 -3v-31h-247v31l25 3q39 5 52 27t13 83v393q0 61 -13 83t-52 27l-25 3v31h223l326 -539v395q0 61 -13.5 83.5t-51.5 26.5l-35 3v31h247v-31zM522 815q0 -33 -69 -45
l-153 -26l-5 12l105 61q52 31 83 31q17 0 28 -9.5t11 -23.5z" />
    <glyph glyph-name="nacute" unicode="&#x144;" horiz-adv-x="660" 
d="M649 0h-269v30l25 2q33 4 47.5 23t14.5 60v231q0 100 -85 100q-84 0 -177 -84v-247q0 -41 14.5 -60t47.5 -23l25 -2v-30h-269v30l25 2q33 4 47.5 23t14.5 60v235q0 45 -14 62.5t-52 20.5l-24 2v30q76 5 151 20h34v-79q53 47 101 67.5t105 20.5q71 0 111 -35t40 -97v-247
q0 -41 14.5 -60t47.5 -23l25 -2v-30zM460 651q0 -37 -62 -50l-139 -29l-5 14l95 68q45 34 76 34q15 0 25 -10.5t10 -26.5z" />
    <glyph glyph-name="Ncommaaccent" unicode="&#x145;" horiz-adv-x="740" 
d="M722 650l-25 -3q-39 -5 -52 -27t-13 -83v-537h-88l-371 606v-462q0 -61 13.5 -83.5t51.5 -26.5l35 -3v-31h-247v31l25 3q39 5 52 27t13 83v393q0 61 -13 83t-52 27l-25 3v31h223l326 -539v395q0 61 -13.5 83.5t-51.5 26.5l-35 3v31h247v-31zM440 -132q0 -43 -26 -78.5
t-72 -57.5l-11 22q58 37 62 92q-18 -14 -31 -14q-24 0 -39 16t-15 41t18.5 43t43.5 18q29 0 49.5 -24t20.5 -58z" />
    <glyph glyph-name="ncommaaccent" unicode="&#x146;" horiz-adv-x="660" 
d="M649 0h-269v30l25 2q33 4 47.5 23t14.5 60v231q0 100 -85 100q-84 0 -177 -84v-247q0 -41 14.5 -60t47.5 -23l25 -2v-30h-269v30l25 2q33 4 47.5 23t14.5 60v235q0 45 -14 62.5t-52 20.5l-24 2v30q76 5 151 20h34v-79q53 47 101 67.5t105 20.5q71 0 111 -35t40 -97v-247
q0 -41 14.5 -60t47.5 -23l25 -2v-30zM402 -132q0 -43 -26 -78.5t-72 -57.5l-11 22q58 37 62 92q-18 -14 -31 -14q-24 0 -39 16t-15 41t18.5 43t43.5 18q29 0 49.5 -24t20.5 -58z" />
    <glyph glyph-name="Ncaron" unicode="&#x147;" horiz-adv-x="740" 
d="M722 650l-25 -3q-39 -5 -52 -27t-13 -83v-537h-88l-371 606v-462q0 -61 13.5 -83.5t51.5 -26.5l35 -3v-31h-247v31l25 3q39 5 52 27t13 83v393q0 61 -13 83t-52 27l-25 3v31h223l326 -539v395q0 61 -13.5 83.5t-51.5 26.5l-35 3v31h247v-31zM530 827l-156 -84l-156 84
l15 22l141 -40l142 40z" />
    <glyph glyph-name="ncaron" unicode="&#x148;" horiz-adv-x="660" 
d="M649 0h-269v30l25 2q33 4 47.5 23t14.5 60v231q0 100 -85 100q-84 0 -177 -84v-247q0 -41 14.5 -60t47.5 -23l25 -2v-30h-269v30l25 2q33 4 47.5 23t14.5 60v235q0 45 -14 62.5t-52 20.5l-24 2v30q76 5 151 20h34v-79q53 47 101 67.5t105 20.5q71 0 111 -35t40 -97v-247
q0 -41 14.5 -60t47.5 -23l25 -2v-30zM478 664l-142 -93l-142 93l13 25l129 -46l128 46z" />
    <glyph glyph-name="Eng" unicode="&#x14a;" horiz-adv-x="740" 
d="M722 650l-25 -3q-39 -5 -52 -27t-13 -83v-537q0 -102 -77.5 -171.5t-184.5 -69.5q-48 0 -77.5 17t-29.5 44q0 16 13.5 28t32.5 12q22 0 44 -26q16 -18 27 -24t28 -6q63 0 99.5 58t36.5 138l-371 606v-462q0 -61 13.5 -83.5t51.5 -26.5l35 -3v-31h-247v31l25 3q39 5 52 27
t13 83v393q0 61 -13 83t-52 27l-25 3v31h223l326 -539v395q0 61 -13.5 83.5t-51.5 26.5l-35 3v31h247v-31z" />
    <glyph glyph-name="eng" unicode="&#x14b;" horiz-adv-x="660" 
d="M562 115q0 -93 -24.5 -171.5t-78.5 -131.5t-129 -53q-48 0 -77.5 17t-29.5 44q0 16 13.5 28t32.5 12q22 0 44 -26q16 -18 27 -24t28 -6q18 0 32.5 7t24.5 22.5t17.5 31t12 42.5t7 46.5t4 54t1.5 53v54.5v231q0 100 -85 100q-84 0 -177 -84v-247q0 -41 14.5 -60t47.5 -23
l25 -2v-30h-269v30l25 2q33 4 47.5 23t14.5 60v235q0 45 -14 62.5t-52 20.5l-24 2v30q76 5 151 20h34v-79q53 47 101 67.5t105 20.5q71 0 111 -35t40 -97v-247z" />
    <glyph glyph-name="Omacron" unicode="&#x14c;" horiz-adv-x="800" 
d="M758 338q0 -83 -31.5 -151t-83 -111t-114.5 -66t-129 -23q-152 0 -254 102.5t-102 253.5q0 147 104.5 249t255.5 102q154 0 254 -100.5t100 -255.5zM640 332q0 145 -64 229.5t-174 84.5q-109 0 -174.5 -83t-65.5 -221q0 -140 65 -223.5t174 -83.5t174 81t65 216zM548 771
h-296v50h296v-50z" />
    <glyph glyph-name="omacron" unicode="&#x14d;" horiz-adv-x="560" 
d="M526 239q0 -111 -67 -179.5t-176 -68.5q-112 0 -179 68.5t-67 181.5q0 30 6 61t23.5 66.5t43.5 62.5t70 45t99 18q57 0 101.5 -18t71 -45t44 -62.5t24 -67.5t6.5 -62zM424 234q0 103 -38.5 161.5t-105.5 58.5q-64 0 -102.5 -57.5t-38.5 -153.5q0 -101 38 -156.5
t107 -55.5q66 0 103 54t37 149zM423 605h-296v50h296v-50z" />
    <glyph glyph-name="Obreve" unicode="&#x14e;" horiz-adv-x="800" 
d="M758 338q0 -83 -31.5 -151t-83 -111t-114.5 -66t-129 -23q-152 0 -254 102.5t-102 253.5q0 147 104.5 249t255.5 102q154 0 254 -100.5t100 -255.5zM640 332q0 145 -64 229.5t-174 84.5q-109 0 -174.5 -83t-65.5 -221q0 -140 65 -223.5t174 -83.5t174 81t65 216zM585 834
q-25 -41 -75 -66t-107 -25q-127 0 -179 91l25 16q70 -47 157 -47q91 0 153 47z" />
    <glyph glyph-name="obreve" unicode="&#x14f;" horiz-adv-x="560" 
d="M526 239q0 -111 -67 -179.5t-176 -68.5q-112 0 -179 68.5t-67 181.5q0 30 6 61t23.5 66.5t43.5 62.5t70 45t99 18q57 0 101.5 -18t71 -45t44 -62.5t24 -67.5t6.5 -62zM424 234q0 103 -38.5 161.5t-105.5 58.5q-64 0 -102.5 -57.5t-38.5 -153.5q0 -101 38 -156.5
t107 -55.5q66 0 103 54t37 149zM445 672q-23 -46 -68 -73.5t-97 -27.5q-55 0 -97.5 26.5t-65.5 74.5l23 18q64 -52 142 -52q37 0 75.5 14.5t64.5 37.5z" />
    <glyph glyph-name="Ohungarumlaut" unicode="&#x150;" horiz-adv-x="800" 
d="M758 338q0 -83 -31.5 -151t-83 -111t-114.5 -66t-129 -23q-152 0 -254 102.5t-102 253.5q0 147 104.5 249t255.5 102q154 0 254 -100.5t100 -255.5zM640 332q0 145 -64 229.5t-174 84.5q-109 0 -174.5 -83t-65.5 -221q0 -140 65 -223.5t174 -83.5t174 81t65 216zM445 878
q0 -29 -20 -51l-77 -81l-16 11l35 90q13 33 25 46.5t28 13.5q25 0 25 -29zM565 877q0 -27 -21 -50l-76 -81l-16 11l35 90q22 60 53 60q25 0 25 -30z" />
    <glyph glyph-name="ohungarumlaut" unicode="&#x151;" horiz-adv-x="560" 
d="M526 239q0 -111 -67 -179.5t-176 -68.5q-112 0 -179 68.5t-67 181.5q0 30 6 61t23.5 66.5t43.5 62.5t70 45t99 18q57 0 101.5 -18t71 -45t44 -62.5t24 -67.5t6.5 -62zM424 234q0 103 -38.5 161.5t-105.5 58.5q-64 0 -102.5 -57.5t-38.5 -153.5q0 -101 38 -156.5
t107 -55.5q66 0 103 54t37 149zM320 682q0 -29 -20 -51l-77 -81l-16 11l35 90q13 33 25 46.5t28 13.5q25 0 25 -29zM440 681q0 -27 -21 -50l-76 -81l-16 11l35 90q22 60 53 60q25 0 25 -30z" />
    <glyph glyph-name="OE" unicode="&#x152;" horiz-adv-x="1240" 
d="M1214 218l-87 -218h-494v86q-101 -99 -241 -99q-148 0 -248 102t-100 252t100.5 251.5t249.5 101.5q134 0 239 -91v78h465l78 -173l-33 -13q-55 69 -99 95q-81 48 -199 48q-31 0 -50.5 -1.5t-33.5 -8.5t-21 -13t-10.5 -24t-4 -31.5t-0.5 -44.5v-117h48q75 0 109 23t34 88
v17h38v-307h-38v15q0 34 -10.5 58t-24 36t-36 18.5t-37 7.5t-36.5 1h-47v-212q0 -31 2.5 -45.5t14.5 -29.5t38.5 -20t72.5 -5q123 0 213 66q48 36 114 124zM629 344q0 134 -65.5 218t-170.5 84q-104 0 -167.5 -81.5t-63.5 -215.5q0 -142 63.5 -228t168.5 -86q106 0 170.5 85
t64.5 224z" />
    <glyph glyph-name="oe" unicode="&#x153;" horiz-adv-x="900" 
d="M876 113q-28 -56 -85.5 -89t-128.5 -33q-112 0 -188 94q-76 -94 -198 -94q-105 0 -172 69.5t-67 178.5q0 113 67.5 184t175.5 71q118 0 194 -90q72 90 189 90q91 0 152 -57.5t61 -143.5h-351q-3 -32 -3 -54q0 -52 12 -91t29 -60.5t40.5 -35t43 -17.5t39.5 -4q98 0 157 98
zM423 257q0 101 -35.5 153t-103.5 52q-70 0 -107.5 -57t-37.5 -163q0 -211 142 -211q41 0 70 20t44 54.5t21.5 71.5t6.5 80zM776 326q0 60 -32 94t-88 34q-105 0 -129 -128h249z" />
    <glyph glyph-name="Racute" unicode="&#x154;" horiz-adv-x="720" 
d="M757 0h-167l-225 321h-144v-177q0 -61 13.5 -83.5t51.5 -26.5l36 -3v-31h-291v31l25 3q39 5 52 27t13 83v393q0 61 -13 83t-52 27l-25 3v31h407q108 0 169.5 -46t61.5 -126q0 -24 -6.5 -46.5t-23.5 -51t-57 -50.5t-98 -30l166 -235q23 -30 46.5 -44t60.5 -21v-31z
M561 505q0 135 -192 135q-89 0 -118.5 -14.5t-29.5 -44.5v-217h168q44 0 76.5 10.5t50.5 25.5t28.5 35.5t13.5 36.5t3 33zM513 815q0 -33 -69 -45l-153 -26l-5 12l105 61q52 31 83 31q17 0 28 -9.5t11 -23.5z" />
    <glyph glyph-name="racute" unicode="&#x155;" horiz-adv-x="440" 
d="M447 438q0 -24 -16 -39.5t-41 -15.5q-27 0 -51 18q-23 15 -42 15q-42 0 -92 -56v-245q0 -41 14.5 -60t47.5 -23l25 -2v-30h-269v30l25 2q33 4 47.5 23t14.5 60v235q0 45 -14 62.5t-52 20.5l-24 2v30q76 5 151 20h34v-80q4 3 29.5 25t39.5 32t42.5 21t57.5 11
q32 0 52.5 -15.5t20.5 -40.5zM329 651q0 -37 -62 -50l-139 -29l-5 14l95 68q45 34 76 34q15 0 25 -10.5t10 -26.5z" />
    <glyph glyph-name="Rcommaaccent" unicode="&#x156;" horiz-adv-x="720" 
d="M757 0h-167l-225 321h-144v-177q0 -61 13.5 -83.5t51.5 -26.5l36 -3v-31h-291v31l25 3q39 5 52 27t13 83v393q0 61 -13 83t-52 27l-25 3v31h407q108 0 169.5 -46t61.5 -126q0 -24 -6.5 -46.5t-23.5 -51t-57 -50.5t-98 -30l166 -235q23 -30 46.5 -44t60.5 -21v-31z
M561 505q0 135 -192 135q-89 0 -118.5 -14.5t-29.5 -44.5v-217h168q44 0 76.5 10.5t50.5 25.5t28.5 35.5t13.5 36.5t3 33zM431 -132q0 -43 -26 -78.5t-72 -57.5l-11 22q58 37 62 92q-18 -14 -31 -14q-24 0 -39 16t-15 41t18.5 43t43.5 18q29 0 49.5 -24t20.5 -58z" />
    <glyph glyph-name="rcommaaccent" unicode="&#x157;" horiz-adv-x="440" 
d="M447 438q0 -24 -16 -39.5t-41 -15.5q-27 0 -51 18q-23 15 -42 15q-42 0 -92 -56v-245q0 -41 14.5 -60t47.5 -23l25 -2v-30h-269v30l25 2q33 4 47.5 23t14.5 60v235q0 45 -14 62.5t-52 20.5l-24 2v30q76 5 151 20h34v-80q4 3 29.5 25t39.5 32t42.5 21t57.5 11
q32 0 52.5 -15.5t20.5 -40.5zM224 -132q0 -43 -26 -78.5t-72 -57.5l-11 22q58 37 62 92q-18 -14 -31 -14q-24 0 -39 16t-15 41t18.5 43t43.5 18q29 0 49.5 -24t20.5 -58z" />
    <glyph glyph-name="Rcaron" unicode="&#x158;" horiz-adv-x="720" 
d="M757 0h-167l-225 321h-144v-177q0 -61 13.5 -83.5t51.5 -26.5l36 -3v-31h-291v31l25 3q39 5 52 27t13 83v393q0 61 -13 83t-52 27l-25 3v31h407q108 0 169.5 -46t61.5 -126q0 -24 -6.5 -46.5t-23.5 -51t-57 -50.5t-98 -30l166 -235q23 -30 46.5 -44t60.5 -21v-31z
M561 505q0 135 -192 135q-89 0 -118.5 -14.5t-29.5 -44.5v-217h168q44 0 76.5 10.5t50.5 25.5t28.5 35.5t13.5 36.5t3 33zM521 827l-156 -84l-156 84l15 22l141 -40l142 40z" />
    <glyph glyph-name="rcaron" unicode="&#x159;" horiz-adv-x="440" 
d="M447 438q0 -24 -16 -39.5t-41 -15.5q-27 0 -51 18q-23 15 -42 15q-42 0 -92 -56v-245q0 -41 14.5 -60t47.5 -23l25 -2v-30h-269v30l25 2q33 4 47.5 23t14.5 60v235q0 45 -14 62.5t-52 20.5l-24 2v30q76 5 151 20h34v-80q4 3 29.5 25t39.5 32t42.5 21t57.5 11
q32 0 52.5 -15.5t20.5 -40.5zM347 664l-142 -93l-142 93l13 25l129 -46l128 46z" />
    <glyph glyph-name="Sacute" unicode="&#x15a;" horiz-adv-x="660" 
d="M634 202q0 -90 -80.5 -152.5t-197.5 -62.5q-118 0 -207 63l-19 -50h-37l-65 229l37 12q52 -100 126 -153t160 -53q77 0 129 42.5t52 106.5q0 45 -29.5 70.5t-103.5 43.5l-134 34q-104 27 -151 66q-55 47 -55 117q0 65 58 122t171 57q108 0 189 -49l12 36h36l61 -181
l-32 -12q-103 158 -246 158q-62 0 -104.5 -31t-42.5 -76q0 -40 31.5 -65.5t104.5 -43.5l125 -30q113 -27 162.5 -70t49.5 -128zM468 815q0 -33 -69 -45l-153 -26l-5 12l105 61q52 31 83 31q17 0 28 -9.5t11 -23.5z" />
    <glyph glyph-name="sacute" unicode="&#x15b;" horiz-adv-x="520" 
d="M487 153q0 -70 -59 -116t-149 -46q-49 0 -85 12t-76 43l-11 -42h-33l-34 178h34q19 -53 42 -79q28 -34 70.5 -53t89.5 -19q55 0 92 26.5t37 65.5q0 47 -73 66l-128 32q-79 20 -114 50t-35 77q0 61 53 103.5t130 42.5q81 0 143 -49l10 36h28l32 -154h-32q-25 59 -71.5 93
t-103.5 34q-44 0 -72.5 -21.5t-28.5 -53.5q0 -16 6.5 -27t20.5 -18t24 -10.5t27 -7.5l139 -34q65 -16 96 -47t31 -82zM383 651q0 -37 -62 -50l-139 -29l-5 14l95 68q45 34 76 34q15 0 25 -10.5t10 -26.5z" />
    <glyph glyph-name="Scircumflex" unicode="&#x15c;" horiz-adv-x="660" 
d="M634 202q0 -90 -80.5 -152.5t-197.5 -62.5q-118 0 -207 63l-19 -50h-37l-65 229l37 12q52 -100 126 -153t160 -53q77 0 129 42.5t52 106.5q0 45 -29.5 70.5t-103.5 43.5l-134 34q-104 27 -151 66q-55 47 -55 117q0 65 58 122t171 57q108 0 189 -49l12 36h36l61 -181
l-32 -12q-103 158 -246 158q-62 0 -104.5 -31t-42.5 -76q0 -40 31.5 -65.5t104.5 -43.5l125 -30q113 -27 162.5 -70t49.5 -128zM476 765l-15 -22l-141 40l-142 -40l-14 22l156 84z" />
    <glyph glyph-name="scircumflex" unicode="&#x15d;" horiz-adv-x="520" 
d="M487 153q0 -70 -59 -116t-149 -46q-49 0 -85 12t-76 43l-11 -42h-33l-34 178h34q19 -53 42 -79q28 -34 70.5 -53t89.5 -19q55 0 92 26.5t37 65.5q0 47 -73 66l-128 32q-79 20 -114 50t-35 77q0 61 53 103.5t130 42.5q81 0 143 -49l10 36h28l32 -154h-32q-25 59 -71.5 93
t-103.5 34q-44 0 -72.5 -21.5t-28.5 -53.5q0 -16 6.5 -27t20.5 -18t24 -10.5t27 -7.5l139 -34q65 -16 96 -47t31 -82zM401 596l-14 -25l-128 45l-129 -45l-13 25l142 93z" />
    <glyph glyph-name="Scedilla" unicode="&#x15e;" horiz-adv-x="660" 
d="M634 202q0 -89 -78 -151t-192 -64l-9 -30q10 2 24 2q40 0 69 -24.5t29 -59.5q0 -38 -30.5 -66.5t-71.5 -28.5q-39 0 -68 16.5t-29 39.5q0 10 7 17.5t18 7.5q22 0 31 -24q7 -16 15 -20.5t24 -4.5q19 0 32.5 17.5t13.5 41.5q0 26 -15.5 41t-44.5 15q-17 0 -47 -10l21 71
q-103 4 -184 62l-19 -50h-37l-65 229l37 12q52 -100 126 -153t160 -53q77 0 129 42.5t52 106.5q0 45 -29.5 70.5t-103.5 43.5l-134 34q-104 27 -151 66q-55 47 -55 117q0 65 58 122t171 57q108 0 189 -49l12 36h36l61 -181l-32 -12q-103 158 -246 158q-62 0 -104.5 -31
t-42.5 -76q0 -40 31.5 -65.5t104.5 -43.5l125 -30q113 -27 162.5 -70t49.5 -128z" />
    <glyph glyph-name="scedilla" unicode="&#x15f;" horiz-adv-x="520" 
d="M487 153q0 -68 -57 -114.5t-145 -47.5l-10 -34q10 2 24 2q40 0 69 -24.5t29 -59.5q0 -38 -30.5 -66.5t-71.5 -28.5q-39 0 -68 16.5t-29 39.5q0 10 7 17.5t18 7.5q22 0 31 -24q7 -16 15 -20.5t24 -4.5q19 0 32.5 17.5t13.5 41.5q0 26 -15.5 41t-44.5 15q-17 0 -47 -10
l22 75q-69 4 -136 54l-11 -42h-33l-34 178h34q19 -53 42 -79q28 -34 70.5 -53t89.5 -19q55 0 92 26.5t37 65.5q0 47 -73 66l-128 32q-79 20 -114 50t-35 77q0 61 53 103.5t130 42.5q81 0 143 -49l10 36h28l32 -154h-32q-25 59 -71.5 93t-103.5 34q-44 0 -72.5 -21.5
t-28.5 -53.5q0 -16 6.5 -27t20.5 -18t24 -10.5t27 -7.5l139 -34q65 -16 96 -47t31 -82z" />
    <glyph glyph-name="Scaron" unicode="&#x160;" horiz-adv-x="660" 
d="M634 202q0 -90 -80.5 -152.5t-197.5 -62.5q-118 0 -207 63l-19 -50h-37l-65 229l37 12q52 -100 126 -153t160 -53q77 0 129 42.5t52 106.5q0 45 -29.5 70.5t-103.5 43.5l-134 34q-104 27 -151 66q-55 47 -55 117q0 65 58 122t171 57q108 0 189 -49l12 36h36l61 -181
l-32 -12q-103 158 -246 158q-62 0 -104.5 -31t-42.5 -76q0 -40 31.5 -65.5t104.5 -43.5l125 -30q113 -27 162.5 -70t49.5 -128zM476 827l-156 -84l-156 84l15 22l141 -40l142 40z" />
    <glyph glyph-name="scaron" unicode="&#x161;" horiz-adv-x="520" 
d="M487 153q0 -70 -59 -116t-149 -46q-49 0 -85 12t-76 43l-11 -42h-33l-34 178h34q19 -53 42 -79q28 -34 70.5 -53t89.5 -19q55 0 92 26.5t37 65.5q0 47 -73 66l-128 32q-79 20 -114 50t-35 77q0 61 53 103.5t130 42.5q81 0 143 -49l10 36h28l32 -154h-32q-25 59 -71.5 93
t-103.5 34q-44 0 -72.5 -21.5t-28.5 -53.5q0 -16 6.5 -27t20.5 -18t24 -10.5t27 -7.5l139 -34q65 -16 96 -47t31 -82zM401 664l-142 -93l-142 93l13 25l129 -46l128 46z" />
    <glyph glyph-name="Tcedilla" unicode="&#x162;" 
d="M656 505l-35 -12q-86 150 -220 150q-25 0 -33 -9t-8 -35v-455q0 -61 13.5 -84t51.5 -26l39 -3v-31h-137l-12 -43q10 2 24 2q40 0 69 -24.5t29 -59.5q0 -38 -30.5 -66.5t-71.5 -28.5q-39 0 -68 16.5t-29 39.5q0 10 7 17.5t18 7.5q22 0 31 -24q7 -16 15 -20.5t24 -4.5
q19 0 32.5 17.5t13.5 41.5q0 26 -15.5 41t-44.5 15q-17 0 -47 -10l24 83h-140v31l39 3q38 3 51.5 26t13.5 84v459q0 23 -9.5 31.5t-34.5 8.5q-135 0 -220 -150l-33 12l57 176h580z" />
    <glyph glyph-name="tcedilla" unicode="&#x163;" horiz-adv-x="380" 
d="M388 61q-54 -70 -141 -70q-14 0 -22 1l-10 -35q10 2 24 2q40 0 69 -24.5t29 -59.5q0 -38 -30.5 -66.5t-71.5 -28.5q-39 0 -68 16.5t-29 39.5q0 10 7 17.5t18 7.5q22 0 31 -24q7 -16 15 -20.5t24 -4.5q19 0 32.5 17.5t13.5 41.5q0 26 -15.5 41t-44.5 15q-17 0 -47 -10
l24 80q-92 23 -92 120v335h-84v33q74 3 108 46.5t33 135.5h38v-182h143v-33h-143v-289q0 -132 75 -132q42 0 87 52z" />
    <glyph glyph-name="Tcaron" unicode="&#x164;" 
d="M656 505l-35 -12q-86 150 -220 150q-25 0 -33 -9t-8 -35v-455q0 -61 13.5 -84t51.5 -26l39 -3v-31h-308v31l39 3q38 3 51.5 26t13.5 84v459q0 23 -9.5 31.5t-34.5 8.5q-135 0 -220 -150l-33 12l57 176h580zM466 827l-156 -84l-156 84l15 22l141 -40l142 40z" />
    <glyph glyph-name="tcaron" unicode="&#x165;" horiz-adv-x="380" 
d="M388 61q-54 -70 -141 -70q-36 0 -66 9.5t-53.5 39.5t-23.5 77v335h-84v33q74 3 108 46.5t33 135.5h38v-182h143v-33h-143v-289q0 -132 75 -132q42 0 87 52zM351 641q0 -43 -26 -78.5t-72 -57.5l-11 22q58 37 62 92q-18 -14 -31 -14q-24 0 -39 16t-15 41t18.5 43t43.5 18
q29 0 49.5 -24t20.5 -58z" />
    <glyph glyph-name="Utilde" unicode="&#x168;" horiz-adv-x="780" 
d="M754 650l-25 -3q-39 -5 -52 -27t-13 -83v-333q0 -106 -60.5 -161.5t-211.5 -55.5q-55 0 -101 10t-87.5 32.5t-65 66.5t-23.5 106v335q0 61 -13 83t-52 27l-25 3v31h292v-31l-37 -3q-38 -3 -51.5 -26t-13.5 -84v-267q0 -48 2.5 -77.5t13.5 -63t31 -52t56 -30.5t89 -12
q42 0 74 7.5t53 18t35.5 31.5t22 36.5t11 45.5t4 47t0.5 51v265q0 61 -13.5 83.5t-51.5 26.5l-33 3v31h245v-31zM555 825q-11 -38 -32.5 -55t-57.5 -17q-32 0 -95 18q-39 10 -54 10q-22 0 -39 -20l-29 10q10 31 33.5 49.5t52.5 18.5t95 -18q31 -9 49 -9q31 0 48 22z" />
    <glyph glyph-name="utilde" unicode="&#x169;" horiz-adv-x="680" 
d="M653 0h-182v84q-64 -52 -111 -72.5t-101 -20.5q-64 0 -106.5 34t-42.5 116v209q0 45 -14 62.5t-52 20.5l-24 2v30q90 6 151 20h34v-336q0 -57 22 -83.5t69 -26.5q75 0 175 88v223q0 45 -14 62.5t-52 20.5l-24 2v30q96 7 151 20h34v-370q0 -41 14.5 -60t47.5 -23l25 -2
v-30zM493 659q-11 -38 -32.5 -55t-57.5 -17q-32 0 -95 18q-39 10 -54 10q-22 0 -39 -20l-29 10q10 31 33.5 49.5t52.5 18.5t95 -18q31 -9 49 -9q31 0 48 22z" />
    <glyph glyph-name="Umacron" unicode="&#x16a;" horiz-adv-x="780" 
d="M754 650l-25 -3q-39 -5 -52 -27t-13 -83v-333q0 -106 -60.5 -161.5t-211.5 -55.5q-55 0 -101 10t-87.5 32.5t-65 66.5t-23.5 106v335q0 61 -13 83t-52 27l-25 3v31h292v-31l-37 -3q-38 -3 -51.5 -26t-13.5 -84v-267q0 -48 2.5 -77.5t13.5 -63t31 -52t56 -30.5t89 -12
q42 0 74 7.5t53 18t35.5 31.5t22 36.5t11 45.5t4 47t0.5 51v265q0 61 -13.5 83.5t-51.5 26.5l-33 3v31h245v-31zM544 771h-296v50h296v-50z" />
    <glyph glyph-name="umacron" unicode="&#x16b;" horiz-adv-x="680" 
d="M653 0h-182v84q-64 -52 -111 -72.5t-101 -20.5q-64 0 -106.5 34t-42.5 116v209q0 45 -14 62.5t-52 20.5l-24 2v30q90 6 151 20h34v-336q0 -57 22 -83.5t69 -26.5q75 0 175 88v223q0 45 -14 62.5t-52 20.5l-24 2v30q96 7 151 20h34v-370q0 -41 14.5 -60t47.5 -23l25 -2
v-30zM482 605h-296v50h296v-50z" />
    <glyph glyph-name="Ubreve" unicode="&#x16c;" horiz-adv-x="780" 
d="M754 650l-25 -3q-39 -5 -52 -27t-13 -83v-333q0 -106 -60.5 -161.5t-211.5 -55.5q-55 0 -101 10t-87.5 32.5t-65 66.5t-23.5 106v335q0 61 -13 83t-52 27l-25 3v31h292v-31l-37 -3q-38 -3 -51.5 -26t-13.5 -84v-267q0 -48 2.5 -77.5t13.5 -63t31 -52t56 -30.5t89 -12
q42 0 74 7.5t53 18t35.5 31.5t22 36.5t11 45.5t4 47t0.5 51v265q0 61 -13.5 83.5t-51.5 26.5l-33 3v31h245v-31zM581 834q-25 -41 -75 -66t-107 -25q-127 0 -179 91l25 16q70 -47 157 -47q91 0 153 47z" />
    <glyph glyph-name="ubreve" unicode="&#x16d;" horiz-adv-x="680" 
d="M653 0h-182v84q-64 -52 -111 -72.5t-101 -20.5q-64 0 -106.5 34t-42.5 116v209q0 45 -14 62.5t-52 20.5l-24 2v30q90 6 151 20h34v-336q0 -57 22 -83.5t69 -26.5q75 0 175 88v223q0 45 -14 62.5t-52 20.5l-24 2v30q96 7 151 20h34v-370q0 -41 14.5 -60t47.5 -23l25 -2
v-30zM504 672q-23 -46 -68 -73.5t-97 -27.5q-55 0 -97.5 26.5t-65.5 74.5l23 18q64 -52 142 -52q37 0 75.5 14.5t64.5 37.5z" />
    <glyph glyph-name="Uring" unicode="&#x16e;" horiz-adv-x="780" 
d="M754 650l-25 -3q-39 -5 -52 -27t-13 -83v-333q0 -106 -60.5 -161.5t-211.5 -55.5q-55 0 -101 10t-87.5 32.5t-65 66.5t-23.5 106v335q0 61 -13 83t-52 27l-25 3v31h292v-31l-37 -3q-38 -3 -51.5 -26t-13.5 -84v-267q0 -48 2.5 -77.5t13.5 -63t31 -52t56 -30.5t89 -12
q42 0 74 7.5t53 18t35.5 31.5t22 36.5t11 45.5t4 47t0.5 51v265q0 61 -13.5 83.5t-51.5 26.5l-33 3v31h245v-31zM492 810q0 -38 -27 -65.5t-65 -27.5t-65 27.5t-27 65.5t27.5 65t65.5 27q37 0 64 -27t27 -65zM455 810q0 22 -16 38.5t-38 16.5q-23 0 -39.5 -16t-16.5 -39
t16 -39.5t39 -16.5t39 16.5t16 39.5z" />
    <glyph glyph-name="uring" unicode="&#x16f;" horiz-adv-x="680" 
d="M653 0h-182v84q-64 -52 -111 -72.5t-101 -20.5q-64 0 -106.5 34t-42.5 116v209q0 45 -14 62.5t-52 20.5l-24 2v30q90 6 151 20h34v-336q0 -57 22 -83.5t69 -26.5q75 0 175 88v223q0 45 -14 62.5t-52 20.5l-24 2v30q96 7 151 20h34v-370q0 -41 14.5 -60t47.5 -23l25 -2
v-30zM430 631q0 -38 -27 -65.5t-65 -27.5t-65 27.5t-27 65.5t27.5 65t65.5 27q37 0 64 -27t27 -65zM393 631q0 22 -16 38.5t-38 16.5q-23 0 -39.5 -16t-16.5 -39t16 -39.5t39 -16.5t39 16.5t16 39.5z" />
    <glyph glyph-name="Uhungarumlaut" unicode="&#x170;" horiz-adv-x="780" 
d="M754 650l-25 -3q-39 -5 -52 -27t-13 -83v-333q0 -106 -60.5 -161.5t-211.5 -55.5q-55 0 -101 10t-87.5 32.5t-65 66.5t-23.5 106v335q0 61 -13 83t-52 27l-25 3v31h292v-31l-37 -3q-38 -3 -51.5 -26t-13.5 -84v-267q0 -48 2.5 -77.5t13.5 -63t31 -52t56 -30.5t89 -12
q42 0 74 7.5t53 18t35.5 31.5t22 36.5t11 45.5t4 47t0.5 51v265q0 61 -13.5 83.5t-51.5 26.5l-33 3v31h245v-31zM441 878q0 -29 -20 -51l-77 -81l-16 11l35 90q13 33 25 46.5t28 13.5q25 0 25 -29zM561 877q0 -27 -21 -50l-76 -81l-16 11l35 90q22 60 53 60q25 0 25 -30z
" />
    <glyph glyph-name="uhungarumlaut" unicode="&#x171;" horiz-adv-x="680" 
d="M653 0h-182v84q-64 -52 -111 -72.5t-101 -20.5q-64 0 -106.5 34t-42.5 116v209q0 45 -14 62.5t-52 20.5l-24 2v30q90 6 151 20h34v-336q0 -57 22 -83.5t69 -26.5q75 0 175 88v223q0 45 -14 62.5t-52 20.5l-24 2v30q96 7 151 20h34v-370q0 -41 14.5 -60t47.5 -23l25 -2
v-30zM379 682q0 -29 -20 -51l-77 -81l-16 11l35 90q13 33 25 46.5t28 13.5q25 0 25 -29zM499 681q0 -27 -21 -50l-76 -81l-16 11l35 90q22 60 53 60q25 0 25 -30z" />
    <glyph glyph-name="Uogonek" unicode="&#x172;" horiz-adv-x="780" 
d="M754 650l-25 -3q-39 -5 -52 -27t-13 -83v-333q0 -89 -42 -142.5t-144 -68.5q-33 -5 -51 -36t-18 -71q0 -27 16 -48t42 -21q19 0 41.5 9t34.5 23l25 -19q-18 -30 -51.5 -50t-67.5 -20q-48 0 -83.5 30.5t-35.5 74.5q0 61 67 122h-5q-55 0 -101 10t-87.5 32.5t-65 66.5
t-23.5 106v335q0 61 -13 83t-52 27l-25 3v31h292v-31l-37 -3q-38 -3 -51.5 -26t-13.5 -84v-267q0 -48 2.5 -77.5t13.5 -63t31 -52t56 -30.5t89 -12q42 0 74 7.5t53 18t35.5 31.5t22 36.5t11 45.5t4 47t0.5 51v265q0 61 -13.5 83.5t-51.5 26.5l-33 3v31h245v-31z" />
    <glyph glyph-name="uogonek" unicode="&#x173;" horiz-adv-x="680" 
d="M653 -170q-18 -30 -51.5 -50t-67.5 -20q-48 0 -83.5 30.5t-35.5 74.5q0 69 82 135h-26v84q-64 -52 -111 -72.5t-101 -20.5q-64 0 -106.5 34t-42.5 116v209q0 45 -14 62.5t-52 20.5l-24 2v30q90 6 151 20h34v-336q0 -57 22 -83.5t69 -26.5q75 0 175 88v223q0 45 -14 62.5
t-52 20.5l-24 2v30q96 7 151 20h34v-370q0 -41 14.5 -60t47.5 -23l25 -2v-30h-55q-44 0 -74 -34t-30 -80q0 -27 16 -48t42 -21q19 0 41.5 9t34.5 23z" />
    <glyph glyph-name="Wcircumflex" unicode="&#x174;" horiz-adv-x="960" 
d="M984 650q-48 -3 -69 -23.5t-45 -86.5l-194 -540h-59l-147 437l-146 -437h-59l-188 540q-23 64 -39 80.5t-68 29.5v31h272v-31q-47 -3 -63.5 -20t-2.5 -56l146 -440l119 381q-19 69 -43 96.5t-74 38.5v31h274v-31q-47 -6 -65 -21.5t-4 -47.5l146 -445l134 416q6 20 7 35.5
t-3.5 25.5t-11 16.5t-19 10.5t-23 6t-27.5 4v31h252v-31zM626 765l-15 -22l-141 40l-142 -40l-14 22l156 84z" />
    <glyph glyph-name="wcircumflex" unicode="&#x175;" horiz-adv-x="780" 
d="M804 455q-41 -11 -61.5 -31t-41.5 -70l-140 -354h-70l-100 287l-118 -287h-65l-149 387q-13 34 -31 49.5t-47 18.5v30h236v-30q-38 -3 -51 -18.5t0 -49.5l106 -298l97 256l-17 42q-14 35 -28.5 47.5t-50.5 20.5v30h238v-30q-41 -5 -53 -20.5t-2 -47.5l104 -297l90 264
q31 95 -67 101v30h221v-30zM533 596l-14 -25l-128 45l-129 -45l-13 25l142 93z" />
    <glyph glyph-name="Ycircumflex" unicode="&#x176;" horiz-adv-x="640" 
d="M666 650q-53 -11 -80 -31.5t-66 -79.5l-165 -253v-142q0 -61 13.5 -84t51.5 -26l41 -3v-31h-312v31l41 3q38 3 51.5 26t13.5 84v140l-167 266q-33 54 -54.5 72t-63.5 28v31h285v-31q-60 -8 -73.5 -23.5t9.5 -53.5l141 -228l142 218q14 21 16 36.5t-8 25.5t-25.5 15.5
t-39.5 9.5v31h249v-31zM461 765l-15 -22l-141 40l-142 -40l-14 22l156 84z" />
    <glyph glyph-name="ycircumflex" unicode="&#x177;" horiz-adv-x="540" 
d="M549 454q-40 -10 -62 -29.5t-40 -61.5l-173 -406q-11 -27 -17.5 -42.5t-26.5 -49.5t-38.5 -53.5t-48.5 -36t-63 -16.5q-40 0 -67 19.5t-27 48.5q0 20 15.5 34.5t37.5 14.5q15 0 25.5 -6.5t29.5 -26.5q19 -19 33 -19q20 0 44 25.5t40 65.5l25 58l-179 418
q-14 35 -28.5 46.5t-51.5 16.5v31h233v-30q-70 -8 -50 -57l125 -304l93 236q15 38 19 61t-5 35.5t-22 18t-41 10.5v30h220v-31zM412 596l-14 -25l-128 45l-129 -45l-13 25l142 93z" />
    <glyph glyph-name="Ydieresis" unicode="&#x178;" horiz-adv-x="640" 
d="M666 650q-53 -11 -80 -31.5t-66 -79.5l-165 -253v-142q0 -61 13.5 -84t51.5 -26l41 -3v-31h-312v31l41 3q38 3 51.5 26t13.5 84v140l-167 266q-33 54 -54.5 72t-63.5 28v31h285v-31q-60 -8 -73.5 -23.5t9.5 -53.5l141 -228l142 218q14 21 16 36.5t-8 25.5t-25.5 15.5
t-39.5 9.5v31h249v-31zM281 796q0 -24 -17.5 -41.5t-41.5 -17.5t-41.5 17.5t-17.5 41.5q0 25 17.5 42t42.5 17q23 0 40.5 -17.5t17.5 -41.5zM444 796q0 -24 -17.5 -41.5t-41.5 -17.5t-41.5 17.5t-17.5 41.5q0 25 17.5 42t42.5 17q23 0 40.5 -17.5t17.5 -41.5z" />
    <glyph glyph-name="Zacute" unicode="&#x179;" horiz-adv-x="640" 
d="M656 205l-72 -205h-555l-19 31l471 596q-60 12 -120 12q-98 0 -162.5 -34t-125.5 -117l-33 12l73 181h495l11 -37l-468 -593q75 -8 128 -8q142 0 221.5 40.5t124.5 134.5zM509 815q0 -33 -69 -45l-153 -26l-5 12l105 61q52 31 83 31q17 0 28 -9.5t11 -23.5z" />
    <glyph glyph-name="zacute" unicode="&#x17a;" horiz-adv-x="480" 
d="M476 158l-54 -158h-399l-16 29l328 418q-40 8 -67 8q-88 0 -145 -39q-38 -26 -69 -89l-31 11l56 147h374l11 -25l-335 -416q47 -14 95 -14q76 0 126 31t98 107zM370 651q0 -37 -62 -50l-139 -29l-5 14l95 68q45 34 76 34q15 0 25 -10.5t10 -26.5z" />
    <glyph glyph-name="Zdotaccent" unicode="&#x17b;" horiz-adv-x="640" 
d="M656 205l-72 -205h-555l-19 31l471 596q-60 12 -120 12q-98 0 -162.5 -34t-125.5 -117l-33 12l73 181h495l11 -37l-468 -593q75 -8 128 -8q142 0 221.5 40.5t124.5 134.5zM417 796q0 -24 -17.5 -41.5t-41.5 -17.5t-41.5 17.5t-17.5 41.5q0 25 17.5 42t42.5 17
q23 0 40.5 -17.5t17.5 -41.5z" />
    <glyph glyph-name="zdotaccent" unicode="&#x17c;" horiz-adv-x="480" 
d="M476 158l-54 -158h-399l-16 29l328 418q-40 8 -67 8q-88 0 -145 -39q-38 -26 -69 -89l-31 11l56 147h374l11 -25l-335 -416q47 -14 95 -14q76 0 126 31t98 107zM302 630q0 -24 -17.5 -41.5t-41.5 -17.5t-41.5 17.5t-17.5 41.5q0 25 17.5 42t42.5 17q23 0 40.5 -17.5
t17.5 -41.5z" />
    <glyph glyph-name="Zcaron" unicode="&#x17d;" horiz-adv-x="640" 
d="M656 205l-72 -205h-555l-19 31l471 596q-60 12 -120 12q-98 0 -162.5 -34t-125.5 -117l-33 12l73 181h495l11 -37l-468 -593q75 -8 128 -8q142 0 221.5 40.5t124.5 134.5zM517 827l-156 -84l-156 84l15 22l141 -40l142 40z" />
    <glyph glyph-name="zcaron" unicode="&#x17e;" horiz-adv-x="480" 
d="M476 158l-54 -158h-399l-16 29l328 418q-40 8 -67 8q-88 0 -145 -39q-38 -26 -69 -89l-31 11l56 147h374l11 -25l-335 -416q47 -14 95 -14q76 0 126 31t98 107zM388 664l-142 -93l-142 93l13 25l129 -46l128 46z" />
    <glyph glyph-name="longs" unicode="&#x17f;" horiz-adv-x="320" 
d="M414 677q0 -17 -14 -30t-32 -13q-25 0 -46 28q-23 29 -47 29q-27 0 -50 -23q-23 -24 -23 -77v-476q0 -41 14.5 -60t47.5 -23l25 -2v-30h-269v30l25 2q33 4 47.5 23t14.5 60v337h-84v33h84v47q0 55 12 86.5t43 56.5q32 27 77 43t89 16q37 0 61.5 -16t24.5 -41z" />
    <glyph glyph-name="Ereversed" unicode="&#x18e;" horiz-adv-x="720" 
d="M705 0h-583l-91 213l31 14q82 -105 155 -144.5t185 -39.5q68 0 90.5 19.5t22.5 68.5v211h-74q-59 0 -87.5 -29.5t-35.5 -99.5h-34v299h34q10 -78 33.5 -102.5t87.5 -24.5h76v170q0 48 -24 65.5t-90 17.5q-102 0 -168.5 -33t-135.5 -117l-32 13l69 180h571v-31l-25 -3
q-39 -5 -52 -27t-13 -83v-393q0 -61 13 -83t52 -27l25 -3v-31z" />
    <glyph glyph-name="florin" unicode="&#x192;" 
d="M633 692q0 -17 -13 -29t-32 -12q-30 0 -50 30q-13 22 -24 29t-30 7q-35 0 -50.5 -25.5t-28.5 -104.5l-16 -91h107l-7 -33h-107l-58 -335q-47 -260 -200 -281q-13 -2 -26 -2q-49 0 -88 28.5t-39 63.5q0 17 12.5 29t31.5 12q33 0 46 -45q10 -34 19.5 -45t28.5 -11
q26 0 46 20t34 61.5t22.5 76t18.5 92.5l59 336h-97l7 33h96l5 27q17 94 43 138q54 88 175 88q50 0 82.5 -16t32.5 -41z" />
    <glyph glyph-name="Ohorn" unicode="&#x1a0;" horiz-adv-x="800" 
d="M758 338q0 -129 -74 -220q-50 -61 -126 -96t-158 -35q-152 0 -254 102.5t-102 253.5q0 147 104.5 249t255.5 102q102 0 184 -48q39 19 41 35q-44 5 -44 44q0 20 16.5 37t39.5 17t39.5 -17.5t16.5 -40.5q0 -61 -75 -97q64 -49 100 -123t36 -163zM640 332q0 145 -64 229.5
t-174 84.5q-109 0 -174.5 -83t-65.5 -221q0 -140 65 -223.5t174 -83.5t174 81t65 216z" />
    <glyph glyph-name="ohorn" unicode="&#x1a1;" horiz-adv-x="560" 
d="M526 239q0 -111 -67 -179.5t-176 -68.5q-112 0 -179 68.5t-67 181.5q0 52 19 103.5t51 84.5q63 65 172 65q84 0 145 -41q30 16 33 32q-44 5 -44 44q0 20 16.5 37t39.5 17t39.5 -17.5t16.5 -40.5q0 -61 -72 -96q2 -2 4.5 -4t5 -5t3.5 -4q60 -75 60 -177zM424 234
q0 103 -38.5 161.5t-105.5 58.5q-64 0 -102.5 -57.5t-38.5 -153.5q0 -101 38 -156.5t107 -55.5q66 0 103 54t37 149z" />
    <glyph glyph-name="Uhorn" unicode="&#x1af;" horiz-adv-x="780" 
d="M786 721q0 -44 -36.5 -73.5t-85.5 -39.5v-404q0 -93 -42 -141q-67 -76 -230 -76q-119 0 -189 45q-49 31 -68.5 69t-19.5 101v335q0 61 -13 83t-52 27l-25 3v31h292v-31l-37 -3q-38 -3 -51.5 -26t-13.5 -84v-267q0 -118 24 -161q40 -74 168 -74q115 0 163 56
q22 26 29.5 63t7.5 118v265q0 61 -13.5 83.5t-51.5 26.5l-33 3v31h155v-41q50 21 54 41q-44 5 -44 44q0 20 16.5 37t39.5 17t39.5 -17.5t16.5 -40.5z" />
    <glyph glyph-name="uhorn" unicode="&#x1b0;" horiz-adv-x="680" 
d="M685 525q0 -43 -35.5 -72t-83.5 -41v-297q0 -41 14.5 -60t47.5 -23l25 -2v-30h-182v84q-64 -52 -111 -72.5t-101 -20.5q-77 0 -117 46q-32 36 -32 104v209q0 45 -14 62.5t-52 20.5l-24 2v30q90 6 151 20h34v-336q0 -57 22 -83.5t69 -26.5q75 0 175 88v223q0 45 -14 62.5
t-52 20.5l-24 2v30q96 7 151 20h34v-40q47 20 51 40q-44 5 -44 44q0 20 16.5 37t39.5 17t39.5 -17.5t16.5 -40.5z" />
    <glyph glyph-name="eturned" unicode="&#x1dd;" horiz-adv-x="520" 
d="M491 238q0 -108 -66.5 -177.5t-169.5 -69.5q-32 0 -66 9.5t-70 31t-59 64.5t-23 100h347q0 121 -37.5 187t-132.5 66q-92 0 -144 -96l-33 16q73 125 207 125q63 0 112.5 -24t77.5 -62.5t42.5 -82t14.5 -87.5zM381 156h-240v-3q-1 -18 6 -43.5t36 -52t76 -26.5
q58 0 85 33.5t37 91.5z" />
    <glyph glyph-name="Gcaron" unicode="&#x1e6;" horiz-adv-x="800" 
d="M778 293l-18 -3q-26 -5 -38 -12t-19.5 -30t-7.5 -68v-180h-47l-32 69q-106 -82 -227 -82q-148 0 -246.5 102t-98.5 254q0 106 50 188t125.5 122.5t159.5 40.5q107 0 195 -61l20 48h31l61 -212l-38 -11q-62 87 -105 124q-77 64 -158 64q-100 0 -161.5 -85t-61.5 -225
q0 -135 66.5 -218t174.5 -83q29 0 60 7.5t64.5 25t54.5 52t21 80.5t-21.5 66.5t-76.5 27.5v30h273v-31zM541 827l-156 -84l-156 84l15 22l141 -40l142 40z" />
    <glyph glyph-name="gcaron" unicode="&#x1e7;" horiz-adv-x="540" 
d="M542 520q0 -16 -11 -27t-27 -11q-14 0 -29 9.5t-24 9.5q-24 0 -53 -43q83 -56 83 -142q0 -27 -10 -54t-32.5 -54t-66 -43.5t-101.5 -16.5q-45 0 -94 16q-46 -24 -46 -53q0 -32 65 -41l191 -26q32 -4 52 -9.5t46 -18t39.5 -36.5t13.5 -59q0 -74 -73 -118t-194 -44
q-112 0 -183 34t-71 88q0 37 24.5 62.5t80.5 46.5q-73 26 -73 84q0 68 98 100q-81 55 -81 142q0 74 60 126t146 52q41 0 94 -20q47 89 122 89q24 0 39 -12t15 -31zM379 321q0 141 -102 141q-52 0 -80.5 -37t-28.5 -103q0 -142 106 -142q105 0 105 141zM468 -111
q0 29 -24 44.5t-79 22.5l-205 25q-83 -31 -83 -90q0 -42 54 -68.5t140 -26.5q105 0 151 29t46 64zM414 664l-142 -93l-142 93l13 25l129 -46l128 46z" />
    <glyph glyph-name="Oogonek" unicode="&#x1ea;" horiz-adv-x="800" 
d="M758 338q0 -130 -72.5 -217.5t-182.5 -118.5q-35 -10 -54.5 -42.5t-19.5 -73.5q0 -27 16 -48t42 -21q19 0 41.5 9t34.5 23l25 -19q-18 -30 -51.5 -50t-67.5 -20q-48 0 -83.5 30.5t-35.5 74.5q0 62 68 122h-18q-152 0 -254 102.5t-102 253.5q0 147 104.5 249t255.5 102
q154 0 254 -100.5t100 -255.5zM640 332q0 145 -64 229.5t-174 84.5q-109 0 -174.5 -83t-65.5 -221q0 -140 65 -223.5t174 -83.5t174 81t65 216z" />
    <glyph glyph-name="oogonek" unicode="&#x1eb;" horiz-adv-x="560" 
d="M526 239q0 -83 -38.5 -143.5t-105.5 -86.5q-37 -15 -60 -48.5t-23 -74.5q0 -27 16 -48t42 -21q19 0 41.5 9t34.5 23l25 -19q-18 -30 -51.5 -50t-67.5 -20q-48 0 -83.5 30.5t-35.5 74.5q0 63 72 126h-9q-112 0 -179 68.5t-67 181.5q0 30 6 61t23.5 66.5t43.5 62.5t70 45
t99 18q57 0 101.5 -18t71 -45t44 -62.5t24 -67.5t6.5 -62zM424 234q0 103 -38.5 161.5t-105.5 58.5q-64 0 -102.5 -57.5t-38.5 -153.5q0 -101 38 -156.5t107 -55.5q66 0 103 54t37 149z" />
    <glyph glyph-name="Gacute" unicode="&#x1f4;" horiz-adv-x="800" 
d="M778 293l-18 -3q-26 -5 -38 -12t-19.5 -30t-7.5 -68v-180h-47l-32 69q-106 -82 -227 -82q-148 0 -246.5 102t-98.5 254q0 106 50 188t125.5 122.5t159.5 40.5q107 0 195 -61l20 48h31l61 -212l-38 -11q-62 87 -105 124q-77 64 -158 64q-100 0 -161.5 -85t-61.5 -225
q0 -135 66.5 -218t174.5 -83q29 0 60 7.5t64.5 25t54.5 52t21 80.5t-21.5 66.5t-76.5 27.5v30h273v-31zM533 815q0 -33 -69 -45l-153 -26l-5 12l105 61q52 31 83 31q17 0 28 -9.5t11 -23.5z" />
    <glyph glyph-name="gacute" unicode="&#x1f5;" horiz-adv-x="540" 
d="M542 520q0 -16 -11 -27t-27 -11q-14 0 -29 9.5t-24 9.5q-24 0 -53 -43q83 -56 83 -142q0 -27 -10 -54t-32.5 -54t-66 -43.5t-101.5 -16.5q-45 0 -94 16q-46 -24 -46 -53q0 -32 65 -41l191 -26q32 -4 52 -9.5t46 -18t39.5 -36.5t13.5 -59q0 -74 -73 -118t-194 -44
q-112 0 -183 34t-71 88q0 37 24.5 62.5t80.5 46.5q-73 26 -73 84q0 68 98 100q-81 55 -81 142q0 74 60 126t146 52q41 0 94 -20q47 89 122 89q24 0 39 -12t15 -31zM379 321q0 141 -102 141q-52 0 -80.5 -37t-28.5 -103q0 -142 106 -142q105 0 105 141zM468 -111
q0 29 -24 44.5t-79 22.5l-205 25q-83 -31 -83 -90q0 -42 54 -68.5t140 -26.5q105 0 151 29t46 64zM396 651q0 -37 -62 -50l-139 -29l-5 14l95 68q45 34 76 34q15 0 25 -10.5t10 -26.5z" />
    <glyph glyph-name="Aringacute" unicode="&#x1fa;" horiz-adv-x="680" 
d="M714 0h-281v31q61 9 73.5 28t-5.5 65l-50 129h-258l-32 -86q-12 -31 -16.5 -51.5t0.5 -38.5t22 -30q14 -9 64 -16v-31h-268v31l11 2q50 10 75 44t75 163l172 441h93l212 -536q27 -69 45.5 -87.5t67.5 -26.5v-31zM433 296l-114 300l-111 -300h225zM491 993q0 -33 -69 -45
l-153 -26l-5 12l105 61q52 31 83 31q17 0 28 -9.5t11 -23.5zM435 810q0 -38 -27 -65.5t-65 -27.5t-65 27.5t-27 65.5t27.5 65t65.5 27q37 0 64 -27t27 -65zM398 810q0 22 -16 38.5t-38 16.5q-23 0 -39.5 -16t-16.5 -39t16 -39.5t39 -16.5t39 16.5t16 39.5z" />
    <glyph glyph-name="aringacute" unicode="&#x1fb;" horiz-adv-x="580" 
d="M587 30q-40 -39 -103 -39q-85 0 -112 77q-50 -42 -91.5 -59.5t-91.5 -17.5q-67 0 -110.5 35t-43.5 89q0 134 322 167q10 1 15 2v80q0 41 -31.5 65.5t-84.5 24.5q-42 0 -71.5 -15t-29.5 -37l1 -28q0 -21 -15 -36t-36 -15q-20 0 -34 13t-14 31q0 37 34.5 67t84 45t99.5 15
q34 0 65 -6.5t61 -22t48 -46t18 -73.5v-212q0 -19 0.5 -29.5t3.5 -25.5t8.5 -23t16.5 -14t27 -6q22 0 45 20zM372 113v136q-113 -10 -174 -42t-61 -82q0 -36 25.5 -61t61.5 -25q70 0 148 74zM423 797q0 -33 -69 -45l-153 -26l-5 12l105 61q52 31 83 31q17 0 28 -9.5
t11 -23.5zM367 614q0 -38 -27 -65.5t-65 -27.5t-65 27.5t-27 65.5t27.5 65t65.5 27q37 0 64 -27t27 -65zM330 614q0 22 -16 38.5t-38 16.5q-23 0 -39.5 -16t-16.5 -39t16 -39.5t39 -16.5t39 16.5t16 39.5z" />
    <glyph glyph-name="AEacute" unicode="&#x1fc;" horiz-adv-x="1260" 
d="M1250 220l-85 -220h-593v31l25 3q39 5 52 27t13 83v197h-249l-163 -187q-44 -55 -44 -80q0 -39 92 -43v-31h-334v31q71 11 120.5 40t104.5 93l458 517h494l75 -178l-35 -10q-52 76 -126 110.5t-184 34.5q-63 0 -86 -18t-23 -68v-168h69q27 0 45.5 4t36.5 15.5t27.5 36.5
t9.5 63v9h35v-304h-35v12q0 40 -11.5 66.5t-32.5 37t-37 14t-38 3.5h-69v-222q0 -37 22.5 -56.5t90.5 -19.5h38q118 0 208 79q45 40 95 111zM662 384v244l-208 -244h208zM860 815q0 -33 -69 -45l-153 -26l-5 12l105 61q52 31 83 31q17 0 28 -9.5t11 -23.5z" />
    <glyph glyph-name="aeacute" unicode="&#x1fd;" horiz-adv-x="860" 
d="M832 259h-361q8 -228 169 -228q98 0 158 100l32 -17q-77 -123 -211 -123q-136 0 -214 123q-36 -65 -84.5 -94t-123.5 -29q-73 0 -117.5 34t-44.5 89q0 30 14 57.5t48 55.5t104 44.5t169 16.5v71q0 45 -28.5 70t-79.5 25q-47 0 -75.5 -17t-28.5 -45v-16q0 -24 -14 -38.5
t-38 -14.5q-19 0 -32 12.5t-13 30.5q0 52 63 90t149 38q115 0 169 -67q81 67 173 67q32 0 66 -10t69.5 -32t58.5 -66.5t23 -104.5v-22zM370 232v27q-243 -18 -243 -131q0 -39 29.5 -65.5t72.5 -26.5q45 0 82 26.5t50 67.5q8 25 9 102zM733 292v14q0 68 -33.5 108t-90.5 40
q-21 0 -39.5 -5t-31.5 -14t-23.5 -19.5t-17 -24.5t-11.5 -25.5t-7.5 -25t-3.5 -22t-2 -17.5l-1 -9h261zM545 651q0 -37 -62 -50l-139 -29l-5 14l95 68q45 34 76 34q15 0 25 -10.5t10 -26.5z" />
    <glyph glyph-name="Oslashacute" unicode="&#x1fe;" horiz-adv-x="800" 
d="M758 340q0 -83 -31.5 -151.5t-83.5 -111.5t-115 -66.5t-129 -23.5q-103 0 -201 58l-78 -98h-63l103 129q-116 112 -116 263q0 150 104 252.5t257 102.5q111 0 200 -55l75 95h61l-99 -123q62 -62 89 -125.5t27 -145.5zM560 582q-38 35 -73.5 49.5t-83.5 14.5
q-112 0 -176.5 -83t-64.5 -227q0 -59 11 -100.5t40 -92.5zM640 331q0 67 -11 113.5t-39 96.5l-347 -438q67 -68 159 -68q108 0 173 81t65 215zM553 815q0 -33 -69 -45l-153 -26l-5 12l105 61q52 31 83 31q17 0 28 -9.5t11 -23.5z" />
    <glyph glyph-name="oslashacute" unicode="&#x1ff;" horiz-adv-x="560" 
d="M526 241q0 -112 -66.5 -181t-175.5 -69q-72 0 -117 25l-35 -58h-50l49 79q-94 71 -94 199q0 117 66 187.5t176 70.5q73 0 118 -25l45 74h47l-57 -94q44 -33 69 -88.5t25 -119.5zM366 420q-33 34 -82 34q-68 0 -106.5 -57.5t-38.5 -157.5q0 -81 30 -139zM424 236
q0 96 -31 150l-196 -322q35 -33 89 -33q65 0 101.5 54t36.5 151zM403 651q0 -37 -62 -50l-139 -29l-5 14l95 68q45 34 76 34q15 0 25 -10.5t10 -26.5z" />
    <glyph glyph-name="Adblgrave" unicode="&#x200;" horiz-adv-x="680" 
d="M714 0h-281v31q61 9 73.5 28t-5.5 65l-50 129h-258l-32 -86q-12 -31 -16.5 -51.5t0.5 -38.5t22 -30q14 -9 64 -16v-31h-268v31l11 2q50 10 75 44t75 163l172 441h93l212 -536q27 -69 45.5 -87.5t67.5 -26.5v-31zM433 296l-114 300l-111 -300h225zM415 757l-16 -11l-77 81
q-20 22 -20 51t25 29q16 0 28 -13.5t25 -46.5zM295 757l-16 -11l-76 81q-21 23 -21 50q0 30 25 30q31 0 53 -60z" />
    <glyph glyph-name="adblgrave" unicode="&#x201;" horiz-adv-x="580" 
d="M587 30q-40 -39 -103 -39q-85 0 -112 77q-50 -42 -91.5 -59.5t-91.5 -17.5q-67 0 -110.5 35t-43.5 89q0 134 322 167q10 1 15 2v80q0 41 -31.5 65.5t-84.5 24.5q-42 0 -71.5 -15t-29.5 -37l1 -28q0 -21 -15 -36t-36 -15q-20 0 -34 13t-14 31q0 37 34.5 67t84 45t99.5 15
q34 0 65 -6.5t61 -22t48 -46t18 -73.5v-212q0 -19 0.5 -29.5t3.5 -25.5t8.5 -23t16.5 -14t27 -6q22 0 45 20zM372 113v136q-113 -10 -174 -42t-61 -82q0 -36 25.5 -61t61.5 -25q70 0 148 74zM347 561l-16 -11l-77 81q-20 22 -20 51t25 29q16 0 28 -13.5t25 -46.5zM227 561
l-16 -11l-76 81q-21 23 -21 50q0 30 25 30q31 0 53 -60z" />
    <glyph glyph-name="Edblgrave" unicode="&#x204;" horiz-adv-x="720" 
d="M705 213l-91 -213h-583v31l25 3q39 5 52 27t13 83v393q0 61 -13 83t-52 27l-25 3v31h571l69 -180l-32 -13q-69 84 -135.5 117t-168.5 33q-66 0 -90 -17.5t-24 -65.5v-170h76q64 0 87.5 24.5t33.5 102.5h34v-299h-34q-7 70 -35.5 99.5t-87.5 29.5h-74v-211
q0 -49 22.5 -68.5t90.5 -19.5q112 0 185 39.5t155 144.5zM395 757l-16 -11l-77 81q-20 22 -20 51t25 29q16 0 28 -13.5t25 -46.5zM275 757l-16 -11l-76 81q-21 23 -21 50q0 30 25 30q31 0 53 -60z" />
    <glyph glyph-name="edblgrave" unicode="&#x205;" horiz-adv-x="520" 
d="M491 116q-73 -125 -207 -125q-63 0 -112.5 24t-77.5 62.5t-42.5 82t-14.5 87.5q0 108 66.5 177.5t169.5 69.5q32 0 66 -9.5t70 -31t59 -64.5t23 -100h-347q0 -121 37.5 -187t132.5 -66q92 0 144 96zM387 329v3q1 18 -6 43.5t-36 52t-76 26.5q-58 0 -85 -33.5t-37 -91.5
h240zM345 561l-16 -11l-77 81q-20 22 -20 51t25 29q16 0 28 -13.5t25 -46.5zM225 561l-16 -11l-76 81q-21 23 -21 50q0 30 25 30q31 0 53 -60z" />
    <glyph glyph-name="Idblgrave" unicode="&#x208;" horiz-adv-x="340" 
d="M301 0h-270v31l20 3q41 7 53 27.5t12 82.5v393q0 62 -12 82.5t-53 27.5l-20 3v31h270v-31l-20 -3q-41 -7 -53 -27.5t-12 -82.5v-393q0 -62 12 -82.5t53 -27.5l20 -3v-31zM238 757l-16 -11l-77 81q-20 22 -20 51t25 29q16 0 28 -13.5t25 -46.5zM118 757l-16 -11l-76 81
q-21 23 -21 50q0 30 25 30q31 0 53 -60z" />
    <glyph glyph-name="idblgrave" unicode="&#x209;" horiz-adv-x="300" 
d="M288 0h-268v30l25 2q33 4 47.5 23t14.5 60v235q0 45 -13.5 62t-52.5 21l-20 2v30q62 5 147 20h34v-370q0 -41 14 -60t48 -23l24 -2v-30zM227 561l-16 -11l-77 81q-20 22 -20 51t25 29q16 0 28 -13.5t25 -46.5zM107 561l-16 -11l-76 81q-21 23 -21 50q0 30 25 30
q31 0 53 -60z" />
    <glyph glyph-name="Odblgrave" unicode="&#x20c;" horiz-adv-x="800" 
d="M758 338q0 -83 -31.5 -151t-83 -111t-114.5 -66t-129 -23q-152 0 -254 102.5t-102 253.5q0 147 104.5 249t255.5 102q154 0 254 -100.5t100 -255.5zM640 332q0 145 -64 229.5t-174 84.5q-109 0 -174.5 -83t-65.5 -221q0 -140 65 -223.5t174 -83.5t174 81t65 216zM476 757
l-16 -11l-77 81q-20 22 -20 51t25 29q16 0 28 -13.5t25 -46.5zM356 757l-16 -11l-76 81q-21 23 -21 50q0 30 25 30q31 0 53 -60z" />
    <glyph glyph-name="odblgrave" unicode="&#x20d;" horiz-adv-x="560" 
d="M526 239q0 -111 -67 -179.5t-176 -68.5q-112 0 -179 68.5t-67 181.5q0 30 6 61t23.5 66.5t43.5 62.5t70 45t99 18q57 0 101.5 -18t71 -45t44 -62.5t24 -67.5t6.5 -62zM424 234q0 103 -38.5 161.5t-105.5 58.5q-64 0 -102.5 -57.5t-38.5 -153.5q0 -101 38 -156.5
t107 -55.5q66 0 103 54t37 149zM351 561l-16 -11l-77 81q-20 22 -20 51t25 29q16 0 28 -13.5t25 -46.5zM231 561l-16 -11l-76 81q-21 23 -21 50q0 30 25 30q31 0 53 -60z" />
    <glyph glyph-name="Rdblgrave" unicode="&#x210;" horiz-adv-x="720" 
d="M757 0h-167l-225 321h-144v-177q0 -61 13.5 -83.5t51.5 -26.5l36 -3v-31h-291v31l25 3q39 5 52 27t13 83v393q0 61 -13 83t-52 27l-25 3v31h407q108 0 169.5 -46t61.5 -126q0 -24 -6.5 -46.5t-23.5 -51t-57 -50.5t-98 -30l166 -235q23 -30 46.5 -44t60.5 -21v-31z
M561 505q0 135 -192 135q-89 0 -118.5 -14.5t-29.5 -44.5v-217h168q44 0 76.5 10.5t50.5 25.5t28.5 35.5t13.5 36.5t3 33zM437 757l-16 -11l-77 81q-20 22 -20 51t25 29q16 0 28 -13.5t25 -46.5zM317 757l-16 -11l-76 81q-21 23 -21 50q0 30 25 30q31 0 53 -60z" />
    <glyph glyph-name="rdblgrave" unicode="&#x211;" horiz-adv-x="440" 
d="M447 438q0 -24 -16 -39.5t-41 -15.5q-27 0 -51 18q-23 15 -42 15q-42 0 -92 -56v-245q0 -41 14.5 -60t47.5 -23l25 -2v-30h-269v30l25 2q33 4 47.5 23t14.5 60v235q0 45 -14 62.5t-52 20.5l-24 2v30q76 5 151 20h34v-80q4 3 29.5 25t39.5 32t42.5 21t57.5 11
q32 0 52.5 -15.5t20.5 -40.5zM277 561l-16 -11l-77 81q-20 22 -20 51t25 29q16 0 28 -13.5t25 -46.5zM157 561l-16 -11l-76 81q-21 23 -21 50q0 30 25 30q31 0 53 -60z" />
    <glyph glyph-name="Udblgrave" unicode="&#x214;" horiz-adv-x="780" 
d="M754 650l-25 -3q-39 -5 -52 -27t-13 -83v-333q0 -106 -60.5 -161.5t-211.5 -55.5q-55 0 -101 10t-87.5 32.5t-65 66.5t-23.5 106v335q0 61 -13 83t-52 27l-25 3v31h292v-31l-37 -3q-38 -3 -51.5 -26t-13.5 -84v-267q0 -48 2.5 -77.5t13.5 -63t31 -52t56 -30.5t89 -12
q42 0 74 7.5t53 18t35.5 31.5t22 36.5t11 45.5t4 47t0.5 51v265q0 61 -13.5 83.5t-51.5 26.5l-33 3v31h245v-31zM472 757l-16 -11l-77 81q-20 22 -20 51t25 29q16 0 28 -13.5t25 -46.5zM352 757l-16 -11l-76 81q-21 23 -21 50q0 30 25 30q31 0 53 -60z" />
    <glyph glyph-name="udblgrave" unicode="&#x215;" horiz-adv-x="680" 
d="M653 0h-182v84q-64 -52 -111 -72.5t-101 -20.5q-64 0 -106.5 34t-42.5 116v209q0 45 -14 62.5t-52 20.5l-24 2v30q90 6 151 20h34v-336q0 -57 22 -83.5t69 -26.5q75 0 175 88v223q0 45 -14 62.5t-52 20.5l-24 2v30q96 7 151 20h34v-370q0 -41 14.5 -60t47.5 -23l25 -2
v-30zM410 561l-16 -11l-77 81q-20 22 -20 51t25 29q16 0 28 -13.5t25 -46.5zM290 561l-16 -11l-76 81q-21 23 -21 50q0 30 25 30q31 0 53 -60z" />
    <glyph glyph-name="uni0218" unicode="&#x218;" horiz-adv-x="660" 
d="M634 202q0 -90 -80.5 -152.5t-197.5 -62.5q-118 0 -207 63l-19 -50h-37l-65 229l37 12q52 -100 126 -153t160 -53q77 0 129 42.5t52 106.5q0 45 -29.5 70.5t-103.5 43.5l-134 34q-104 27 -151 66q-55 47 -55 117q0 65 58 122t171 57q108 0 189 -49l12 36h36l61 -181
l-32 -12q-103 158 -246 158q-62 0 -104.5 -31t-42.5 -76q0 -40 31.5 -65.5t104.5 -43.5l125 -30q113 -27 162.5 -70t49.5 -128zM386 -132q0 -43 -26 -78.5t-72 -57.5l-11 22q58 37 62 92q-18 -14 -31 -14q-24 0 -39 16t-15 41t18.5 43t43.5 18q29 0 49.5 -24t20.5 -58z" />
    <glyph glyph-name="uni0219" unicode="&#x219;" horiz-adv-x="520" 
d="M487 153q0 -70 -59 -116t-149 -46q-49 0 -85 12t-76 43l-11 -42h-33l-34 178h34q19 -53 42 -79q28 -34 70.5 -53t89.5 -19q55 0 92 26.5t37 65.5q0 47 -73 66l-128 32q-79 20 -114 50t-35 77q0 61 53 103.5t130 42.5q81 0 143 -49l10 36h28l32 -154h-32q-25 59 -71.5 93
t-103.5 34q-44 0 -72.5 -21.5t-28.5 -53.5q0 -16 6.5 -27t20.5 -18t24 -10.5t27 -7.5l139 -34q65 -16 96 -47t31 -82zM325 -132q0 -43 -26 -78.5t-72 -57.5l-11 22q58 37 62 92q-18 -14 -31 -14q-24 0 -39 16t-15 41t18.5 43t43.5 18q29 0 49.5 -24t20.5 -58z" />
    <glyph glyph-name="uni021A" unicode="&#x21a;" 
d="M656 505l-35 -12q-86 150 -220 150q-25 0 -33 -9t-8 -35v-455q0 -61 13.5 -84t51.5 -26l39 -3v-31h-308v31l39 3q38 3 51.5 26t13.5 84v459q0 23 -9.5 31.5t-34.5 8.5q-135 0 -220 -150l-33 12l57 176h580zM376 -132q0 -43 -26 -78.5t-72 -57.5l-11 22q58 37 62 92
q-18 -14 -31 -14q-24 0 -39 16t-15 41t18.5 43t43.5 18q29 0 49.5 -24t20.5 -58z" />
    <glyph glyph-name="uni021B" unicode="&#x21b;" horiz-adv-x="380" 
d="M388 61q-54 -70 -141 -70q-36 0 -66 9.5t-53.5 39.5t-23.5 77v335h-84v33q74 3 108 46.5t33 135.5h38v-182h143v-33h-143v-289q0 -132 75 -132q42 0 87 52zM265 -132q0 -43 -26 -78.5t-72 -57.5l-11 22q58 37 62 92q-18 -14 -31 -14q-24 0 -39 16t-15 41t18.5 43t43.5 18
q29 0 49.5 -24t20.5 -58z" />
    <glyph glyph-name="ereversed" unicode="&#x258;" horiz-adv-x="520" 
d="M491 247q0 -44 -14.5 -87.5t-42.5 -82t-77.5 -62.5t-112.5 -24q-134 0 -207 125l33 16q52 -96 144 -96q95 0 132.5 66t37.5 187h-347q0 57 23 100t59 64.5t70 31t66 9.5q103 0 169.5 -69.5t66.5 -177.5zM381 329q-10 58 -37 91.5t-85 33.5q-47 0 -76 -26.5t-36 -52
t-6 -43.5v-3h240z" />
    <glyph glyph-name="schwa" unicode="&#x259;" horiz-adv-x="520" 
d="M491 238q0 -108 -66.5 -177.5t-169.5 -69.5q-32 0 -66 9.5t-70 31t-59 64.5t-23 100h347q0 121 -37.5 187t-132.5 66q-92 0 -144 -96l-33 16q73 125 207 125q63 0 112.5 -24t77.5 -62.5t42.5 -82t14.5 -87.5zM381 156h-240v-3q-1 -18 6 -43.5t36 -52t76 -26.5
q58 0 85 33.5t37 91.5z" />
    <glyph glyph-name="ringhalfright" unicode="&#x2be;" horiz-adv-x="403" 
d="M363 494q0 -27 -8 -54.5t-25.5 -56.5t-53.5 -47t-84 -18q-67 0 -105.5 32t-38.5 67q0 19 12.5 32t29.5 13q18 0 30 -12t12 -30v-23q0 -15 17.5 -25.5t40.5 -10.5q89 0 89 136q0 58 -29.5 94t-77.5 36q-28 0 -50 -14t-49 -47q-4 -7 -10 -1l-20 12q-6 4 -2 11q52 81 150 81
q77 0 124.5 -48.5t47.5 -126.5z" />
    <glyph glyph-name="ringhalfleft" unicode="&#x2bf;" horiz-adv-x="403" 
d="M362 399q-52 -81 -150 -81q-77 0 -124.5 48.5t-47.5 126.5q0 27 8 54.5t25.5 56.5t53.5 47t84 18q67 0 105.5 -32t38.5 -67q0 -19 -12.5 -32t-29.5 -13q-18 0 -30 12t-12 30v23q0 15 -17.5 25.5t-40.5 10.5q-89 0 -89 -136q0 -58 29.5 -94t77.5 -36q28 0 50 14t49 47
q4 7 10 1l20 -12q6 -4 2 -11z" />
    <glyph glyph-name="circumflex" unicode="&#x2c6;" horiz-adv-x="420" 
d="M352 596l-14 -25l-128 45l-129 -45l-13 25l142 93z" />
    <glyph glyph-name="caron" unicode="&#x2c7;" horiz-adv-x="420" 
d="M352 664l-142 -93l-142 93l13 25l129 -46l128 46z" />
    <glyph glyph-name="breve" unicode="&#x2d8;" horiz-adv-x="460" 
d="M396 672q-23 -46 -68 -73.5t-97 -27.5q-55 0 -97.5 26.5t-65.5 74.5l23 18q64 -52 142 -52q37 0 75.5 14.5t64.5 37.5z" />
    <glyph glyph-name="dotaccent" unicode="&#x2d9;" horiz-adv-x="260" 
d="M186 630q0 -24 -17.5 -41.5t-41.5 -17.5t-41.5 17.5t-17.5 41.5q0 25 17.5 42t42.5 17q23 0 40.5 -17.5t17.5 -41.5z" />
    <glyph glyph-name="ring" unicode="&#x2da;" horiz-adv-x="320" 
d="M252 631q0 -38 -27 -65.5t-65 -27.5t-65 27.5t-27 65.5t27.5 65t65.5 27q37 0 64 -27t27 -65zM215 631q0 22 -16 38.5t-38 16.5q-23 0 -39.5 -16t-16.5 -39t16 -39.5t39 -16.5t39 16.5t16 39.5z" />
    <glyph glyph-name="ogonek" unicode="&#x2db;" horiz-adv-x="320" 
d="M268 -170q-18 -30 -51.5 -50t-67.5 -20q-48 0 -83.5 30.5t-35.5 74.5q0 73 95 145h64q-37 -17 -58.5 -50.5t-21.5 -73.5q0 -27 16 -48t42 -21q19 0 41.5 9t34.5 23z" />
    <glyph glyph-name="tilde" unicode="&#x2dc;" horiz-adv-x="440" 
d="M375 659q-11 -38 -32.5 -55t-57.5 -17q-32 0 -95 18q-39 10 -54 10q-22 0 -39 -20l-29 10q10 31 33.5 49.5t52.5 18.5t95 -18q31 -9 49 -9q31 0 48 22z" />
    <glyph glyph-name="hungarumlaut" unicode="&#x2dd;" horiz-adv-x="380" 
d="M231 682q0 -29 -20 -51l-77 -81l-16 11l35 90q13 33 25 46.5t28 13.5q25 0 25 -29zM351 681q0 -27 -21 -50l-76 -81l-16 11l35 90q22 60 53 60q25 0 25 -30z" />
    <glyph glyph-name="uni0300" unicode="&#x300;" horiz-adv-x="0" 
d="M-208 586l-5 -14l-139 29q-62 13 -62 50q0 16 10 26.5t25 10.5q31 0 76 -34z" />
    <glyph glyph-name="uni0301" unicode="&#x301;" horiz-adv-x="0" 
d="M-166 651q0 -37 -62 -50l-139 -29l-5 14l95 68q45 34 76 34q15 0 25 -10.5t10 -26.5z" />
    <glyph glyph-name="uni0302" unicode="&#x302;" horiz-adv-x="0" 
d="M-148 596l-14 -25l-128 45l-129 -45l-13 25l142 93z" />
    <glyph glyph-name="uni0303" unicode="&#x303;" horiz-adv-x="0" 
d="M-135 659q-11 -38 -32.5 -55t-57.5 -17q-32 0 -95 18q-39 10 -54 10q-22 0 -39 -20l-29 10q10 31 33.5 49.5t52.5 18.5t95 -18q31 -9 49 -9q31 0 48 22z" />
    <glyph glyph-name="uni0304" unicode="&#x304;" horiz-adv-x="0" 
d="M-146 605h-296v50h296v-50z" />
    <glyph glyph-name="uni0306" unicode="&#x306;" horiz-adv-x="0" 
d="M-124 672q-23 -46 -68 -73.5t-97 -27.5q-55 0 -97.5 26.5t-65.5 74.5l23 18q64 -52 142 -52q37 0 75.5 14.5t64.5 37.5z" />
    <glyph glyph-name="uni0307" unicode="&#x307;" horiz-adv-x="0" 
d="M-234 630q0 -24 -17.5 -41.5t-41.5 -17.5t-41.5 17.5t-17.5 41.5q0 25 17.5 42t42.5 17q23 0 40.5 -17.5t17.5 -41.5z" />
    <glyph glyph-name="uni0308" unicode="&#x308;" horiz-adv-x="0" 
d="M-314 630q0 -24 -17.5 -41.5t-41.5 -17.5t-41.5 17.5t-17.5 41.5q0 25 17.5 42t42.5 17q23 0 40.5 -17.5t17.5 -41.5zM-151 630q0 -24 -17.5 -41.5t-41.5 -17.5t-41.5 17.5t-17.5 41.5q0 25 17.5 42t42.5 17q23 0 40.5 -17.5t17.5 -41.5z" />
    <glyph glyph-name="uni0309" unicode="&#x309;" horiz-adv-x="0" 
d="M-173 658q0 -53 -73 -82q-17 -7 -22.5 -18t-5.5 -39h-40q0 1 -0.5 11t-0.5 15q0 22 6.5 34t25.5 25l22 14q21 14 21 44q0 44 -42 44q-19 0 -31.5 -7t-12.5 -18q0 -1 2 -9v1q6 -12 6 -18q0 -11 -10 -20t-22 -9q-16 0 -26 11t-10 28q0 29 29.5 52.5t78.5 23.5
q42 0 73.5 -22.5t31.5 -60.5z" />
    <glyph glyph-name="uni030A" unicode="&#x30a;" horiz-adv-x="0" 
d="M-198 631q0 -38 -27 -65.5t-65 -27.5t-65 27.5t-27 65.5t27.5 65t65.5 27q37 0 64 -27t27 -65zM-235 631q0 22 -16 38.5t-38 16.5q-23 0 -39.5 -16t-16.5 -39t16 -39.5t39 -16.5t39 16.5t16 39.5z" />
    <glyph glyph-name="uni030B" unicode="&#x30b;" horiz-adv-x="0" 
d="M-249 682q0 -29 -20 -51l-77 -81l-16 11l35 90q13 33 25 46.5t28 13.5q25 0 25 -29zM-129 681q0 -27 -21 -50l-76 -81l-16 11l35 90q22 60 53 60q25 0 25 -30z" />
    <glyph glyph-name="uni030C" unicode="&#x30c;" horiz-adv-x="0" 
d="M-148 664l-142 -93l-142 93l13 25l129 -46l128 46z" />
    <glyph glyph-name="uni030F" unicode="&#x30f;" horiz-adv-x="0" 
d="M-218 561l-16 -11l-77 81q-20 22 -20 51t25 29q16 0 28 -13.5t25 -46.5zM-338 561l-16 -11l-76 81q-21 23 -21 50q0 30 25 30q31 0 53 -60z" />
    <glyph glyph-name="uni0311" unicode="&#x311;" horiz-adv-x="0" 
d="M-124 589l-23 -18q-64 52 -142 52q-37 0 -75.5 -14.5t-64.5 -37.5l-23 18q23 46 68 73.5t97 27.5q55 0 97.5 -26.5t65.5 -74.5z" />
    <glyph glyph-name="uni0323" unicode="&#x323;" horiz-adv-x="0" 
d="M-234 -150q0 -24 -17.5 -41.5t-41.5 -17.5t-41.5 17.5t-17.5 41.5q0 25 17.5 42t42.5 17q23 0 40.5 -17.5t17.5 -41.5z" />
    <glyph glyph-name="uni0326" unicode="&#x326;" horiz-adv-x="0" 
d="M-224 -132q0 -43 -26 -78.5t-72 -57.5l-11 22q58 37 62 92q-18 -14 -31 -14q-24 0 -39 16t-15 41t18.5 43t43.5 18q29 0 49.5 -24t20.5 -58z" />
    <glyph glyph-name="uni032E" unicode="&#x32e;" horiz-adv-x="0" 
d="M-109 -112q-25 -41 -75 -66t-107 -25q-127 0 -179 91l25 16q70 -47 157 -47q91 0 153 47z" />
    <glyph glyph-name="uni032F" unicode="&#x32f;" horiz-adv-x="0" 
d="M-109 -187l-25 -16q-70 47 -157 47q-91 0 -153 -47l-26 16q26 41 75.5 66t106.5 25q127 0 179 -91z" />
    <glyph glyph-name="uni0330" unicode="&#x330;" horiz-adv-x="0" 
d="M-135 -121q-11 -38 -32.5 -55t-57.5 -17q-32 0 -95 18q-39 10 -54 10q-22 0 -39 -20l-29 10q10 31 33.5 49.5t52.5 18.5t95 -18q31 -9 49 -9q31 0 48 22z" />
    <glyph glyph-name="uni0331" unicode="&#x331;" horiz-adv-x="0" 
d="M-146 -175h-296v50h296v-50z" />
    <glyph glyph-name="uni0332" unicode="&#x332;" horiz-adv-x="0" 
d="M-146 -175h-296v50h296v-50z" />
    <glyph glyph-name="Alpha" unicode="&#x391;" horiz-adv-x="680" 
d="M714 0h-281v31q61 9 73.5 28t-5.5 65l-50 129h-258l-32 -86q-12 -31 -16.5 -51.5t0.5 -38.5t22 -30q14 -9 64 -16v-31h-268v31l11 2q50 10 75 44t75 163l172 441h93l212 -536q27 -69 45.5 -87.5t67.5 -26.5v-31zM433 296l-114 300l-111 -300h225z" />
    <glyph glyph-name="Beta" unicode="&#x392;" horiz-adv-x="740" 
d="M702 201q0 -23 -4.5 -43t-15.5 -44.5t-33 -43.5t-54.5 -35.5t-83.5 -25.5t-115 -9h-365v31l25 3q39 5 52 27t13 83v393q0 61 -13 83t-52 27l-25 3v31h352q63 0 111 -7.5t88 -24.5t61 -50t21 -80q0 -32 -14 -57.5t-30.5 -39t-42 -24.5t-35.5 -13.5t-23 -5.5
q87 -22 128 -57q55 -47 55 -121zM562 516q0 126 -206 126q-86 0 -110.5 -15.5t-24.5 -69.5v-164h116q120 0 172.5 28.5t52.5 94.5zM589 206q0 34 -8 59t-26 40.5t-36.5 24.5t-51.5 13.5t-58.5 5.5t-69.5 1h-118v-196q0 -35 2.5 -51t14.5 -33t39 -23t74 -6q111 0 174.5 36.5
t63.5 128.5z" />
    <glyph glyph-name="Gamma" unicode="&#x393;" horiz-adv-x="640" 
d="M654 510l-32 -16q-65 78 -131.5 111.5t-157.5 33.5q-40 0 -63 -5.5t-33.5 -20.5t-13 -29.5t-2.5 -42.5v-397q0 -61 13.5 -83.5t51.5 -26.5l33 -3v-31h-288v31l25 3q39 5 52 27t13 83v393q0 61 -13 83t-52 27l-25 3v31h551z" />
    <glyph glyph-name="Delta" unicode="&#x394;" horiz-adv-x="600" 
d="M591 0h-582v41l252 640h80l250 -640v-41zM490 52l-210 541l-208 -541h418z" />
    <glyph glyph-name="Epsilon" unicode="&#x395;" horiz-adv-x="720" 
d="M705 213l-91 -213h-583v31l25 3q39 5 52 27t13 83v393q0 61 -13 83t-52 27l-25 3v31h571l69 -180l-32 -13q-69 84 -135.5 117t-168.5 33q-66 0 -90 -17.5t-24 -65.5v-170h76q64 0 87.5 24.5t33.5 102.5h34v-299h-34q-7 70 -35.5 99.5t-87.5 29.5h-74v-211
q0 -49 22.5 -68.5t90.5 -19.5q112 0 185 39.5t155 144.5z" />
    <glyph glyph-name="Zeta" unicode="&#x396;" horiz-adv-x="640" 
d="M656 205l-72 -205h-555l-19 31l471 596q-60 12 -120 12q-98 0 -162.5 -34t-125.5 -117l-33 12l73 181h495l11 -37l-468 -593q75 -8 128 -8q142 0 221.5 40.5t124.5 134.5z" />
    <glyph glyph-name="Eta" unicode="&#x397;" horiz-adv-x="800" 
d="M769 0h-280v31l25 3q39 5 52 27t13 83v201h-358v-201q0 -61 13 -83t52 -27l25 -3v-31h-280v31l25 3q39 5 52 27t13 83v393q0 61 -13 83t-52 27l-25 3v31h280v-31l-25 -3q-39 -5 -52 -27t-13 -83v-149h358v149q0 61 -13 83t-52 27l-25 3v31h280v-31l-25 -3q-39 -5 -52 -27
t-13 -83v-393q0 -61 13 -83t52 -27l25 -3v-31z" />
    <glyph glyph-name="Theta" unicode="&#x398;" horiz-adv-x="800" 
d="M747 344q0 -164 -93 -260t-254 -96q-159 0 -253.5 97t-94.5 255q0 107 48.5 186t129.5 123q83 44 179 44q157 0 247.5 -95t90.5 -254zM642 344q0 132 -59 214t-173 82q-122 0 -187 -84.5t-65 -220.5q0 -122 59 -205q66 -93 184 -93q112 0 176.5 89.5t64.5 217.5zM555 215
h-47v35q0 38 -20.5 52.5t-64.5 14.5h-47q-84 0 -84 -81v-21h-47v275h47v-20q0 -79 84 -79h47q85 0 85 79v20h47v-275z" />
    <glyph glyph-name="Iota" unicode="&#x399;" horiz-adv-x="340" 
d="M301 0h-270v31l20 3q41 7 53 27.5t12 82.5v393q0 62 -12 82.5t-53 27.5l-20 3v31h270v-31l-20 -3q-41 -7 -53 -27.5t-12 -82.5v-393q0 -62 12 -82.5t53 -27.5l20 -3v-31z" />
    <glyph glyph-name="Kappa" unicode="&#x39a;" horiz-adv-x="720" 
d="M750 0h-308v31q16 2 18 2q37 3 51 16.5t9.5 32t-22.5 47.5l-161 257l-116 -103v-139q0 -61 13.5 -84t51.5 -26l41 -3v-31h-296v31l25 3q39 5 52 27t13 83v393q0 61 -13 83t-52 27l-25 3v31h296v-31l-41 -3q-38 -3 -51.5 -26t-13.5 -84v-192l205 184q38 34 48.5 48
t10.5 31q0 20 -13 29t-45 12l-10 1v31h286v-31l-7 -2q-65 -12 -159 -92l-120 -105l190 -310q37 -57 64.5 -78.5t78.5 -32.5v-30z" />
    <glyph glyph-name="Lambda" unicode="&#x39b;" horiz-adv-x="680" 
d="M714 0h-281v31q61 9 73.5 28t-5.5 65l-182 472l-158 -429q-12 -31 -16.5 -51.5t0.5 -38.5t22 -30q14 -9 64 -16v-31h-268v31l11 2q50 10 75 44t75 163l172 441h93l212 -536q27 -69 45.5 -87.5t67.5 -26.5v-31z" />
    <glyph glyph-name="Mu" unicode="&#x39c;" horiz-adv-x="920" 
d="M894 0h-280v31l25 3q39 5 52 27t13 83v466l-251 -610h-45l-229 622v-478q0 -61 13.5 -83.5t51.5 -26.5l35 -3v-31h-253v31l31 3q38 4 51.5 26.5t13.5 83.5v393q0 61 -13 83t-52 27l-25 3v31h233l192 -515l209 515h228v-31l-25 -3q-39 -5 -52 -27t-13 -83v-393
q0 -61 13 -83t52 -27l25 -3v-31z" />
    <glyph glyph-name="Nu" unicode="&#x39d;" horiz-adv-x="740" 
d="M722 650l-25 -3q-39 -5 -52 -27t-13 -83v-537h-88l-371 606v-462q0 -61 13.5 -83.5t51.5 -26.5l35 -3v-31h-247v31l25 3q39 5 52 27t13 83v393q0 61 -13 83t-52 27l-25 3v31h223l326 -539v395q0 61 -13.5 83.5t-51.5 26.5l-35 3v31h247v-31z" />
    <glyph glyph-name="Xi" unicode="&#x39e;" horiz-adv-x="717" 
d="M664 488l-42 -16q-37 105 -116 128q-24 7 -99 7h-96q-65 0 -91 -6q-85 -19 -124 -129l-43 16l47 193h518zM526 203h-47v26q0 49 -22.5 68.5t-74.5 19.5h-47q-96 0 -96 -101v-13h-47v299h47v-11q0 -53 22 -76.5t74 -23.5h47q78 0 91 45q6 20 6 55v11h47v-299zM697 229
l-58 -229h-561l-58 229l44 16q44 -107 127 -150q41 -22 129 -22h77q60 0 102 11q102 28 154 161z" />
    <glyph glyph-name="Omicron" unicode="&#x39f;" horiz-adv-x="800" 
d="M758 338q0 -83 -31.5 -151t-83 -111t-114.5 -66t-129 -23q-152 0 -254 102.5t-102 253.5q0 147 104.5 249t255.5 102q154 0 254 -100.5t100 -255.5zM640 332q0 145 -64 229.5t-174 84.5q-109 0 -174.5 -83t-65.5 -221q0 -140 65 -223.5t174 -83.5t174 81t65 216z" />
    <glyph glyph-name="Pi" unicode="&#x3a0;" horiz-adv-x="860" 
d="M799 0h-280v31l25 3q39 5 52 27t13 83v393q0 63 -13.5 86.5t-51.5 23.5h-228q-38 0 -51.5 -23.5t-13.5 -86.5v-393q0 -61 13 -83t52 -27l25 -3v-31h-280v31l25 3q39 5 52 27t13 83v393q0 61 -13 83t-52 27l-25 3v31h738v-31l-25 -3q-39 -5 -52 -27t-13 -83v-393
q0 -61 13 -83t52 -27l25 -3v-31z" />
    <glyph glyph-name="Rho" unicode="&#x3a1;" 
d="M613 490q0 -33 -11 -64t-36.5 -63.5t-78 -52t-125.5 -19.5h-141v-147q0 -61 13.5 -84t51.5 -26l37 -3v-31h-292v31l25 3q39 5 52 27t13 83v393q0 61 -13 83t-52 27l-25 3v31h332q116 0 183 -51.5t67 -139.5zM511 487q0 152 -176 152q-72 0 -93 -12t-21 -52v-241h125
q47 0 81.5 14.5t51.5 38.5t24.5 48.5t7.5 51.5z" />
    <glyph glyph-name="Sigma" unicode="&#x3a3;" horiz-adv-x="640" 
d="M631 226l-78 -226h-533v41l226 309l-214 290v41h452l83 -180l-42 -20q-41 76 -96.5 111.5t-154.5 35.5h-135l194 -260l-213 -295h192q106 0 167 36q65 40 107 133z" />
    <glyph glyph-name="Tau" unicode="&#x3a4;" 
d="M656 505l-35 -12q-86 150 -220 150q-25 0 -33 -9t-8 -35v-455q0 -61 13.5 -84t51.5 -26l39 -3v-31h-308v31l39 3q38 3 51.5 26t13.5 84v459q0 23 -9.5 31.5t-34.5 8.5q-135 0 -220 -150l-33 12l57 176h580z" />
    <glyph glyph-name="Upsilon" unicode="&#x3a5;" horiz-adv-x="640" 
d="M646 454h-40q0 55 -21 94t-61 39q-169 0 -169 -337v-106q0 -61 13.5 -84t51.5 -26l41 -3v-31h-312v31l41 3q38 3 51.5 26t13.5 84v106q0 70 -5 121.5t-19.5 105t-46.5 82t-81 28.5q-38 0 -55.5 -38.5t-17.5 -94.5h-40q0 227 113 227q156 0 204 -224q25 102 78.5 163
t138.5 61q65 0 93.5 -65.5t28.5 -161.5z" />
    <glyph glyph-name="Phi" unicode="&#x3a6;" horiz-adv-x="806" 
d="M782 337q0 -128 -111 -179q-72 -34 -222 -34v-18q0 -40 14.5 -52.5t55.5 -12.5h16v-41h-264v41h16q40 0 54.5 13.5t14.5 51.5v18q-152 3 -224 37q-109 51 -109 179q0 131 109 180q73 33 224 38v17q0 39 -14.5 52t-54.5 13h-16v41h264v-41h-16q-41 0 -55.5 -13t-14.5 -52
v-17q150 -3 225 -38q108 -51 108 -183zM679 341q0 99 -69 137q-49 27 -161 28v-331q117 0 173.5 35.5t56.5 130.5zM356 175v331q-116 -3 -173 -39t-57 -130q0 -95 71 -133q51 -26 159 -29z" />
    <glyph glyph-name="Chi" unicode="&#x3a7;" horiz-adv-x="720" 
d="M755 0h-328v31q42 6 61 14.5t20 27.5t-24 52l-140 187l-153 -190q-25 -33 -7 -61t68 -30v-31h-282v31q63 20 99 46t87 89l158 187l-172 219q-31 41 -57 57t-69 21v31h310v-31q-58 -2 -73 -24t14 -54l124 -162l117 150q28 34 17 61.5t-67 28.5v31h269v-31
q-59 -10 -90 -30.5t-87 -87.5l-131 -161l192 -250q36 -48 64.5 -66t79.5 -24v-31z" />
    <glyph glyph-name="Psi" unicode="&#x3a8;" horiz-adv-x="878" 
d="M865 640h-27q-58 0 -58 -68v-69q0 -108 -7 -136q-31 -138 -226 -138h-62v-121q0 -39 14 -52.5t54 -13.5h15v-42h-260v42h19q57 0 63 18q3 9 3 54v115h-62q-176 0 -217 110q-16 42 -16 164v69q0 39 -11 53.5t-46 14.5h-28v41h177v-178q0 -85 3 -105q8 -53 48 -89
q30 -27 110 -27h42v281l-1 40q-7 37 -66 37v41h224v-41q-37 0 -51 -15t-14 -53v-290h42q127 0 150 86q11 46 11 135v178h177v-41z" />
    <glyph glyph-name="Omega" unicode="&#x3a9;" horiz-adv-x="770" 
d="M759 176l-60 -176h-274l15 154q170 71 170 256q0 107 -57.5 168.5t-161.5 61.5q-109 0 -170 -68t-61 -182q0 -165 170 -236l15 -154h-273l-61 176l45 15q38 -79 90 -105q38 -19 142 -19l-6 45q-52 24 -88.5 47t-70.5 56.5t-51.5 79t-17.5 101.5q0 137 96.5 217t244.5 80
q142 0 231 -74t89 -205q0 -215 -227 -302l-6 -45q95 0 140 20q52 24 93 104z" />
    <glyph glyph-name="alpha" unicode="&#x3b1;" 
d="M592 0l-170 -8v78q-85 -82 -177 -82q-94 0 -152 76q-53 70 -53 166q0 110 61.5 181.5t162.5 71.5q92 0 158 -74l32 62h53v-347q0 -64 19 -76q10 -7 45 -7h21v-41zM422 118v175q0 61 -37 99t-96 38q-74 0 -114.5 -55.5t-40.5 -140.5q0 -69 32 -124q38 -65 103 -65
q74 0 153 73z" />
    <glyph glyph-name="beta" unicode="&#x3b2;" horiz-adv-x="500" 
d="M483 215q0 -100 -64.5 -163.5t-163.5 -63.5q-239 0 -239 323q0 178 71.5 294.5t197.5 116.5q75 0 120.5 -32.5t45.5 -89.5q0 -47 -29 -84q-31 -40 -128 -79q56 -14 104 -47q85 -58 85 -172v-3zM369 597q0 37 -25.5 56t-68.5 19q-76 0 -123 -80.5t-68 -253.5q23 47 61 78
q23 18 182 98q17 9 29.5 34t12.5 49zM395 219q0 75 -37 122t-104 47q-66 0 -102.5 -49t-36.5 -124q0 -78 35 -124t103 -46q69 0 105.5 48t36.5 126z" />
    <glyph glyph-name="gamma" unicode="&#x3b3;" horiz-adv-x="554" 
d="M547 470l-3 -33q-37 -5 -46 -7q-34 -20 -60 -84l-129 -322q1 -5 17.5 -51t17.5 -61q3 -33 3 -54q0 -46 -20 -70t-52 -24q-83 0 -83 93q0 53 34 139l-164 417q-13 19 -43 19h-29l9 37h246l-6 -35h-15t-15 -0.5t-13 -1.5t-12.5 -3t-8 -5t-6.5 -8t-2 -12q-1 -12 7 -33
l106 -294l100 256l39 90q-1 12 -34 12h-21l4 35h179z" />
    <glyph glyph-name="delta" unicode="&#x3b4;" horiz-adv-x="560" 
d="M520 236q0 -115 -64.5 -181.5t-177.5 -66.5q-112 0 -175 65.5t-63 178.5q0 158 169 231q-117 35 -117 113q0 66 57 103t137 37q70 0 121 -26.5t51 -65.5q0 -18 -12.5 -30.5t-30.5 -12.5q-8 0 -55 43q-49 43 -78 43q-41 0 -68.5 -25t-27.5 -64q0 -40 28 -58.5t82 -31.5
q123 -29 173.5 -83t50.5 -169zM426 237q0 86 -37.5 142.5t-108.5 56.5t-107.5 -58.5t-36.5 -145.5q0 -89 35.5 -144.5t107.5 -55.5q74 0 110.5 57.5t36.5 147.5z" />
    <glyph glyph-name="epsilon" unicode="&#x3b5;" horiz-adv-x="470" 
d="M471 112q-52 -69 -103 -96.5t-129 -27.5q-86 0 -143 34.5t-57 101.5q0 95 134 124q-119 35 -119 111q0 62 51 93t128 31q70 0 123 -26t53 -65q0 -43 -43 -43q-14 0 -58 42q-43 43 -73 43q-90 0 -90 -81q0 -91 143 -91h14v-41h-16q-75 0 -114 -19t-39 -73q0 -44 34 -67.5
t87 -23.5q110 0 186 99z" />
    <glyph glyph-name="zeta" unicode="&#x3b6;" horiz-adv-x="381" 
d="M413 -54q0 -81 -57.5 -128t-145.5 -47q-53 0 -97.5 17t-44.5 51q0 40 45 40q84 -54 107 -54q46 0 74 26t28 71q0 42 -45 72q-129 53 -164 77q-85 58 -85 147q0 87 45.5 159.5t145.5 142.5q2 1 11 7.5t12.5 9t11.5 8.5t11.5 10t8.5 9.5t8 11.5t4 12q0 39 -28 64t-68 25
q-30 0 -77 -43q-49 -43 -56 -43q-18 0 -30.5 12.5t-12.5 30.5q0 43 54.5 67.5t117.5 24.5q75 0 131 -34t56 -82q0 -40 -31 -65q-92 -64 -155 -144.5t-63 -167.5q0 -53 34 -81q17 -13 83 -44l84 -40q88 -42 88 -122z" />
    <glyph glyph-name="eta" unicode="&#x3b7;" horiz-adv-x="633" 
d="M551 -218h-83v513q0 63 -18.5 94.5t-76.5 31.5q-85 0 -171 -80v-225q0 -58 21 -69q11 -6 50 -6h14v-41h-250v41h12q57 0 66 24q5 15 5 58v278h-83v41q66 5 127 41h34v-93q107 93 202 93q151 0 151 -157v-544z" />
    <glyph glyph-name="theta" unicode="&#x3b8;" horiz-adv-x="575" 
d="M535 337q0 -153 -68.5 -251t-183.5 -98q-81 0 -137.5 50.5t-81 128t-24.5 174.5q0 170 66 272.5t183 102.5q83 0 140.5 -55.5t81.5 -138.5t24 -185zM439 390q-15 278 -152 278q-134 0 -152 -278h304zM440 337h-307q0 -137 39.5 -218.5t112.5 -81.5q151 0 155 300z" />
    <glyph glyph-name="iota" unicode="&#x3b9;" horiz-adv-x="320" 
d="M305 8q-38 -20 -76 -20q-79 0 -98 55q-8 24 -8 79v279h-84v40q70 7 130 42h36v-355q0 -51 4 -60q11 -30 45 -30q21 0 51 18v-48z" />
    <glyph glyph-name="kappa" unicode="&#x3ba;" 
d="M620 0h-141l-203 236l-80 -61v-64q0 -39 14.5 -54.5t52.5 -15.5h18v-41h-252v41q28 0 39 1t24.5 8t17.5 22.5t4 43.5v286h-85v40q52 3 130 41h37v-254l179 143q43 34 43 45q0 13 -38 13h-26v41h248v-41q-68 0 -124 -42l-142 -108l167 -182q34 -37 54 -47t63 -10v-41z" />
    <glyph glyph-name="lambda" unicode="&#x3bb;" horiz-adv-x="540" 
d="M519 0h-224v41h14q53 0 53 24q0 15 -10 42l-99 276l-115 -265q-15 -34 -15 -53q0 -24 45 -24h23v-41h-192v41q10 0 18 2l14 3.5t12 7t9 7.5t8 11t7 12.5t8 16.5t8 18l150 316l-67 198h-107v42q79 9 129 41h37l215 -602q13 -37 29.5 -55t49.5 -18v-41z" />
    <glyph glyph-name="mu.greek" unicode="&#x3bc;" horiz-adv-x="731" 
d="M691 121q0 -54 -28.5 -94t-73.5 -40t-84 17.5t-62 47.5q-57 -65 -146 -65q-70 0 -123 20v-257h-107q13 179 13 371v364h94v-364q0 -42 36.5 -68t86.5 -26q39 0 73 17.5t54 46.5q4 2 0 14.5t-4 15.5v364h94v-364q0 -38 21 -66t54 -28q30 0 46 28t16 66h40z" />
    <glyph glyph-name="nu" unicode="&#x3bd;" horiz-adv-x="503" 
d="M485 419q0 -30 -23 -91l-166 -328h-58l-157 373q-13 31 -30 44t-54 13v41l141 8l149 -393l82 175q25 51 25 81q0 14 -9 29q-22 37 -22 61q0 51 57 51q65 0 65 -64z" />
    <glyph glyph-name="xi" unicode="&#x3be;" horiz-adv-x="420" 
d="M413 -54q0 -81 -57.5 -128t-145.5 -47q-53 0 -97.5 17t-44.5 51q0 40 45 40q84 -54 107 -54q45 0 73.5 26.5t28.5 69.5q0 38 -31 62q-23 13 -66 34l-18 9q-5 2 -18.5 8.5t-30 14.5t-32.5 17q-102 56 -102 160q0 87 58 142.5t147 71.5q-29 8 -48.5 14.5t-43.5 18t-38 24.5
t-24 32.5t-10 43.5q7 22 70 57q11 4 58.5 17.5t67.5 20.5q-37 -9 -90 -9q-148 0 -148 65q0 42 49 42q21 0 71 -25.5t80 -25.5q85 0 181 39l5 -20l-77 -58l-15 -7q-167 -78 -167 -99q0 -79 164 -111l58 -11q36 -12 36 -37q0 -37 -36 -37q-12 0 -50.5 15t-57.5 15
q-64 0 -102 -44.5t-38 -112.5q0 -56 29 -85t90 -58q102 -49 113 -56q57 -40 57 -102z" />
    <glyph glyph-name="omicron" unicode="&#x3bf;" horiz-adv-x="560" 
d="M526 239q0 -111 -67 -179.5t-176 -68.5q-112 0 -179 68.5t-67 181.5q0 30 6 61t23.5 66.5t43.5 62.5t70 45t99 18q57 0 101.5 -18t71 -45t44 -62.5t24 -67.5t6.5 -62zM424 234q0 103 -38.5 161.5t-105.5 58.5q-64 0 -102.5 -57.5t-38.5 -153.5q0 -101 38 -156.5
t107 -55.5q66 0 103 54t37 149z" />
    <glyph glyph-name="pi" unicode="&#x3c0;" horiz-adv-x="670" 
d="M650 8q-38 -20 -75 -20q-62 0 -84.5 30t-22.5 109v239q0 33 -10.5 44.5t-42.5 11.5h-160q-20 0 -27 -1t-15 -7t-9.5 -18.5t-1.5 -36.5v-261q0 -34 10.5 -45.5t42.5 -11.5h32v-41h-250v41h30q33 0 43 10t10 53v262q0 33 -10.5 44.5t-43.5 11.5h-31v49h599v-49h-30
q-20 0 -27 -1t-15 -7t-9.5 -18.5t-1.5 -36.5v-235q0 -46 9 -66t41 -20q21 0 49 18v-48z" />
    <glyph glyph-name="rho" unicode="&#x3c1;" horiz-adv-x="579" 
d="M539 236q0 -115 -64.5 -181.5t-177.5 -66.5q-105 0 -156 69v-275h-82v384q0 108 13 151q21 75 81.5 120.5t148.5 45.5q113 0 175 -66t62 -181zM445 237q0 86 -37.5 142.5t-108.5 56.5t-107.5 -58.5t-36.5 -145.5q0 -89 35.5 -144.5t107.5 -55.5q74 0 110.5 57.5
t36.5 147.5z" />
    <glyph glyph-name="uni03C2" unicode="&#x3c2;" horiz-adv-x="483" 
d="M470 364q0 -47 -43 -47q-29 0 -52 44q-39 77 -114 77q-67 0 -105.5 -59.5t-38.5 -139.5q0 -52 32.5 -83t135.5 -70q37 -14 57 -23.5t45.5 -26t37 -38.5t11.5 -51q0 -83 -66.5 -130t-162.5 -47q-61 0 -103 19t-42 50q0 40 45 40l21 -14q68 -40 88 -40q54 0 91.5 26
t37.5 71q0 46 -73 79l-123 55q-128 68 -128 173q0 116 69.5 185t184.5 69q69 0 132 -35t63 -84z" />
    <glyph glyph-name="sigma" unicode="&#x3c3;" horiz-adv-x="569" 
d="M569 422h-138q89 -72 89 -191q0 -112 -65 -177.5t-177 -65.5q-110 0 -174 68t-64 179q0 116 64.5 182t178.5 66q35 0 75 -12h211v-49zM426 237q0 86 -37.5 142.5t-108.5 56.5t-107.5 -58.5t-36.5 -145.5q0 -89 35.5 -144.5t107.5 -55.5q74 0 110.5 57.5t36.5 147.5z" />
    <glyph glyph-name="tau" unicode="&#x3c4;" horiz-adv-x="401" 
d="M386 32q-62 -44 -127 -44q-90 0 -112 55q-10 23 -10 79v300h-134v49h367v-49h-151v-294q0 -50 12.5 -70t52.5 -20q43 0 102 41v-47z" />
    <glyph glyph-name="upsilon" unicode="&#x3c5;" horiz-adv-x="614" 
d="M543 248q0 -88 -10 -127q-33 -133 -199 -133t-205 106q-18 50 -18 154v114q0 39 -14.5 53.5t-53.5 14.5h-34v41l185 8v-256q0 -87 29.5 -130t103.5 -43q90 0 119 65q14 33 14 108v139q0 40 -14 54t-54 14h-34v41l185 8v-231z" />
    <glyph glyph-name="phi" unicode="&#x3c6;" horiz-adv-x="680" 
d="M642 259q0 -271 -261 -271v-206h-82v206q-134 0 -197 61.5t-63 191.5q0 117 63.5 179.5t180.5 62.5v-48q-73 0 -111.5 -50.5t-38.5 -147.5q0 -101 37.5 -150t128.5 -49v228q0 118 35 167.5t125 49.5q91 0 137 -60.5t46 -163.5zM548 264q0 169 -89 169q-44 0 -61 -34
t-17 -127v-234q90 0 128.5 49.5t38.5 176.5z" />
    <glyph glyph-name="chi" unicode="&#x3c7;" horiz-adv-x="569" 
d="M535 -210h-92l-150 300l-108 -203q-1 -2 -3.5 -6.5t-6 -13t-7.5 -15.5q-4 -9 -1 -12q5 -9 41 -9v-41h-196v41q48 1 71.5 19t47.5 62l125 239l-127 224q-1 2 -5 8t-4.5 7.5t-4 6t-4.5 5.5l-4.5 4.5t-5.5 4.5t-5.5 3t-7.5 3.5t-9 2.5q-44 10 -66 10v41l146 8l142 -266
l136 268h98l-196 -320z" />
    <glyph glyph-name="psi" unicode="&#x3c8;" horiz-adv-x="767" 
d="M687 280q0 -103 -10 -146q-18 -82 -76 -114t-169 -32v-206h-83v206q-110 0 -169 35q-73 42 -83 144q-3 29 -3 113v100q0 28 -9.5 39t-36.5 11h-29v41l158 8v-199q0 -102 4 -119q13 -71 56 -97q39 -23 112 -23v430h83v-430q65 0 98 13q55 22 69 98q5 32 5 128v96
q0 32 -11.5 43t-44.5 11h-19v41l158 8v-199z" />
    <glyph glyph-name="omega" unicode="&#x3c9;" horiz-adv-x="680" 
d="M642 229q0 -107 -45.5 -174t-134.5 -67q-84 0 -122 83q-39 -83 -122 -83q-90 0 -135 64.5t-45 171.5q0 259 249 259v-49q-81 0 -117 -50t-36 -165q0 -181 88 -181q43 0 60 34.5t17 133.5v60h82v-60q0 -99 17 -133.5t60 -34.5q88 0 88 187q0 103 -34 155.5t-119 53.5v49
q249 0 249 -254z" />
    <glyph glyph-name="uni03D1" unicode="&#x3d1;" horiz-adv-x="601" 
d="M576 334q-8 -4 -21 -4q-2 -150 -70 -246t-182 -96q-74 0 -124.5 34.5t-68.5 101.5q-8 30 -13 60t-6.5 42.5t-8 24t-18.5 14.5t-37 4v55q65 -1 89 -12q54 -23 66 -75q12 -56 18 -103q11 -97 105 -97q148 0 152 289q-165 0 -261 53.5t-96 156.5q0 87 59 133.5t150 46.5
q106 0 170.5 -89t74.5 -246q13 0 22 4v-51zM460 378q0 127 -41 205t-113 78q-57 0 -90 -38t-33 -97q0 -66 81 -107t196 -41z" />
    <glyph glyph-name="uni03D5" unicode="&#x3d5;" horiz-adv-x="691" 
d="M309 38v396q-90 -1 -128 -48.5t-38 -148.5t37.5 -150t128.5 -49zM651 240q0 -131 -61 -190.5t-199 -60.5v-207h-82v208q-138 0 -199 60t-61 191q0 119 69 183.5t191 64.5v74h82v-75q125 0 192.5 -63.5t67.5 -184.5zM557 236q0 102 -37 149.5t-129 47.5v-396q92 1 129 49
t37 150z" />
    <glyph glyph-name="uni03D6" unicode="&#x3d6;" horiz-adv-x="787" 
d="M767 476q-45 -67 -161 -81q36 -25 60.5 -72.5t24.5 -98.5q0 -106 -45 -171t-135 -65q-83 0 -122 83q-39 -83 -122 -83q-90 0 -135 64.5t-45 171.5q0 54 33.5 119.5t72.5 81.5h-10q-55 0 -95 -24l-71 12q56 80 210 80q88 0 232 -21q80 -11 120 -11q78 0 117 26zM595 219
q0 128 -48 173q-31 0 -70.5 3.5t-111.5 12.5t-114 13q-32 -18 -50 -81t-18 -121q0 -181 88 -181q43 0 60 34.5t17 133.5v60h82v-60q0 -99 17 -133.5t60 -34.5q88 0 88 181z" />
    <glyph glyph-name="epsilon.alt" unicode="&#x3f5;" horiz-adv-x="470" 
d="M461 102q-68 -114 -172 -114q-87 0 -137 31t-83 96q-31 61 -31 128q0 76 34.5 132t91.5 82q45 22 93 22q47 0 93 -24t70 -56l-47 -68q-49 99 -122 99q-54 0 -87.5 -48t-33.5 -110h175v-61h-176q2 -91 60 -137q45 -36 95 -36q78 0 146 89z" />
    <glyph glyph-name="uni0400" unicode="&#x400;" horiz-adv-x="720" 
d="M434 767l-5 -14l-139 29q-62 13 -62 50q0 16 10 26.5t25 10.5q31 0 76 -34zM705 213l-91 -213h-583v31l25 3q39 5 52 27t13 83v393q0 61 -13 83t-52 27l-25 3v31h571l69 -180l-32 -13q-69 84 -135.5 117t-168.5 33q-66 0 -90 -17.5t-24 -65.5v-170h76q64 0 87.5 24.5
t33.5 102.5h34v-299h-34q-7 70 -35.5 99.5t-87.5 29.5h-74v-211q0 -43 13 -60q24 -28 100 -28q112 0 185 39.5t155 144.5z" />
    <glyph glyph-name="afii10023" unicode="&#x401;" horiz-adv-x="720" 
d="M335 812q0 -24 -17.5 -41.5t-41.5 -17.5t-41.5 17.5t-17.5 41.5q0 25 17.5 42t42.5 17q23 0 40.5 -17.5t17.5 -41.5zM498 812q0 -24 -17.5 -41.5t-41.5 -17.5t-41.5 17.5t-17.5 41.5q0 25 17.5 42t42.5 17q23 0 40.5 -17.5t17.5 -41.5zM705 213l-91 -213h-583v31l25 3
q39 5 52 27t13 83v393q0 61 -13 83t-52 27l-25 3v31h571l69 -180l-32 -13q-69 84 -135.5 117t-168.5 33q-66 0 -90 -17.5t-24 -65.5v-170h76q64 0 87.5 24.5t33.5 102.5h34v-299h-34q-7 70 -35.5 99.5t-87.5 29.5h-74v-211q0 -43 13 -60q24 -28 100 -28q112 0 185 39.5
t155 144.5z" />
    <glyph glyph-name="afii10051" unicode="&#x402;" horiz-adv-x="760" 
d="M724 23q0 -44 -17 -73.5t-49.5 -44t-68.5 -20t-85 -5.5v44q120 0 120 101v235q0 101 -120 101q-83 0 -164 -37v-180q0 -61 13.5 -84t51.5 -26l39 -3v-31h-308v31l39 3q38 3 51.5 26t13.5 84v459q0 23 -9.5 31.5t-34.5 8.5q-67 0 -110.5 -34.5t-89.5 -115.5l-33 12l37 176
h580l36 -176l-35 -12q-44 77 -90 113.5t-110 36.5q-25 0 -33 -9t-8 -35v-232q93 38 167 38q102 0 159 -30.5t58 -112.5v-239z" />
    <glyph glyph-name="afii10052" unicode="&#x403;" horiz-adv-x="618" 
d="M654 510l-32 -16q-65 78 -131.5 111.5t-157.5 33.5q-73 0 -95 -22q-17 -17 -17 -76v-397q0 -61 13.5 -83.5t51.5 -26.5l33 -3v-31h-288v31l25 3q39 5 52 27t13 83v393q0 61 -13 83t-52 27l-25 3v31h551zM445 860q0 -37 -62 -50l-139 -29l-5 14l95 68q45 34 76 34
q15 0 25 -10.5t10 -26.5z" />
    <glyph glyph-name="afii10053" unicode="&#x404;" horiz-adv-x="740" 
d="M702 159q-111 -172 -305 -172q-151 0 -252 100t-101 250q0 147 94 247q46 50 110.5 80t124.5 30q122 0 206 -64l21 42h33l48 -241h-32q-41 74 -62 105q-35 51 -87.5 80.5t-107.5 29.5q-94 0 -158 -79t-71 -201h341v-43h-342q5 -133 73 -207q32 -36 81.5 -58.5t95.5 -22.5
q86 0 165 59q43 31 82 89z" />
    <glyph glyph-name="afii10054" unicode="&#x405;" horiz-adv-x="660" 
d="M634 202q0 -90 -80.5 -152.5t-197.5 -62.5q-118 0 -207 63l-19 -50h-37l-65 229l37 12q52 -100 126 -153t160 -53q77 0 129 42.5t52 106.5q0 45 -29.5 70.5t-103.5 43.5l-134 34q-117 30 -162 75q-44 46 -44 108q0 76 69 131q62 48 160 48q108 0 189 -49l12 36h36
l61 -181l-32 -12q-103 158 -246 158q-62 0 -104.5 -31t-42.5 -76q0 -40 31.5 -65.5t104.5 -43.5l125 -30q81 -19 123 -42t65 -59q24 -37 24 -97z" />
    <glyph glyph-name="afii10055" unicode="&#x406;" horiz-adv-x="340" 
d="M301 0h-270v31l20 3q41 7 53 27.5t12 82.5v393q0 62 -12 82.5t-53 27.5l-20 3v31h270v-31l-20 -3q-41 -7 -53 -27.5t-12 -82.5v-393q0 -62 12 -82.5t53 -27.5l20 -3v-31z" />
    <glyph glyph-name="afii10056" unicode="&#x407;" horiz-adv-x="340" 
d="M146 812q0 -24 -17.5 -41.5t-41.5 -17.5t-41.5 17.5t-17.5 41.5q0 25 17.5 42t42.5 17q23 0 40.5 -17.5t17.5 -41.5zM309 812q0 -24 -17.5 -41.5t-41.5 -17.5t-41.5 17.5t-17.5 41.5q0 25 17.5 42t42.5 17q23 0 40.5 -17.5t17.5 -41.5zM301 0h-270v31l20 3q41 7 53 27.5
t12 82.5v393q0 62 -12 82.5t-53 27.5l-20 3v31h270v-31l-20 -3q-41 -7 -53 -27.5t-12 -82.5v-393q0 -62 12 -82.5t53 -27.5l20 -3v-31z" />
    <glyph glyph-name="afii10057" unicode="&#x408;" horiz-adv-x="600" 
d="M567 650l-25 -3q-39 -5 -52 -27t-13 -83v-277q0 -85 -6.5 -120.5t-28.5 -63.5q-30 -41 -88.5 -65t-125.5 -24q-96 0 -162 44q-40 27 -64.5 69.5t-24.5 85.5q0 39 22 64t56 25q25 0 40 -14.5t15 -39.5q0 -26 -25 -48q-20 -19 -20 -40q0 -40 43 -69t101 -29q97 0 136 62
q19 30 25.5 74.5t6.5 139.5v226q0 61 -13 83t-52 27l-25 3v31h280v-31z" />
    <glyph glyph-name="afii10058" unicode="&#x409;" horiz-adv-x="1012" 
d="M1005 191q0 -88 -67 -139.5t-183 -51.5h-332v31l25 3q39 4 52 26t13 84v392q0 65 -7 83.5t-32 18.5h-125q-32 0 -38 -60q-9 -120 -15 -177.5t-21 -137t-40 -157.5q-18 -54 -61 -87t-92 -33q-102 0 -102 80q0 32 18 53t47 21q52 0 65 -30q2 -5 4.5 -12t4 -11t4.5 -8
t8 -5.5t13 -1.5q40 0 70 156.5t30 308.5q0 61 -13 83.5t-52 26.5l-25 3v31h549v-31l-25 -3q-38 -5 -51.5 -27.5t-13.5 -82.5v-147h141q103 0 165 -38q39 -25 62.5 -68.5t23.5 -92.5zM903 194q0 63 -38 106q-41 47 -127 47h-125v-241q0 -40 21 -52t93 -12q97 0 138 45
q38 41 38 107z" />
    <glyph glyph-name="afii10059" unicode="&#x40a;" horiz-adv-x="1078" 
d="M1071 191q0 -88 -67 -139.5t-183 -51.5h-332v31l25 3q39 4 52 26t13 84v201h-358v-201q0 -62 13 -84t52 -26l25 -3v-31h-280v31l25 3q39 4 52 26t13 84v393q0 61 -13 83t-52 27l-25 3v31h280v-31l-25 -3q-39 -5 -52 -27t-13 -83v-149h358v149q0 61 -13 83t-52 27l-25 3
v31h280v-31l-25 -3q-38 -5 -51.5 -27.5t-13.5 -82.5v-147h141q103 0 165 -38q39 -25 62.5 -68.5t23.5 -92.5zM969 194q0 63 -38 106q-41 47 -127 47h-125v-241q0 -40 21 -52t93 -12q97 0 138 45q38 41 38 107z" />
    <glyph glyph-name="afii10060" unicode="&#x40b;" horiz-adv-x="832" 
d="M814 0h-280v31l25 3q39 4 52 26t13 84v116q0 101 -120 101q-83 0 -164 -37v-180q0 -61 13.5 -84t51.5 -26l39 -3v-31h-308v31l39 3q38 3 51.5 26t13.5 84v459q0 23 -9.5 31.5t-34.5 8.5q-67 0 -110.5 -34.5t-89.5 -115.5l-33 12l37 176h580l36 -176l-35 -12
q-44 77 -90 113.5t-110 36.5q-25 0 -33 -9t-8 -35v-232q93 38 167 38q48 0 84 -6t68 -20.5t48.5 -44t16.5 -72.5v-118q0 -61 13 -83.5t52 -26.5l25 -3v-31z" />
    <glyph glyph-name="afii10061" unicode="&#x40c;" horiz-adv-x="709" 
d="M726 132q0 -6 -1 -16t-8.5 -35.5t-20 -45t-40 -35.5t-64.5 -16q-49 0 -83.5 26t-34.5 66q0 164 -62 234q-18 21 -34.5 26.5t-55.5 5.5h-102v-198q0 -57 14.5 -82t51.5 -28l41 -3v-31h-296v31l25 3q39 4 52 26t13 84v393q0 61 -13 83t-52 27l-25 3v31h296v-31l-41 -3
q-37 -3 -51 -27t-14 -83v-153h117q47 0 80 53t48 135q10 53 41 88.5t76 35.5q36 0 65.5 -22.5t29.5 -65.5q0 -78 -50 -78q-41 0 -54 30q-3 7 -5 17.5t-3 17t-5.5 12t-12.5 5.5q-24 0 -24 -32q0 -66 -33.5 -128t-85.5 -89q125 -14 175 -225q5 -23 9.5 -34.5t18 -21.5
t36.5 -10q20 0 31.5 17.5t12.5 34.5l2 18zM481 860q0 -37 -62 -50l-139 -29l-5 14l95 68q45 34 76 34q15 0 25 -10.5t10 -26.5z" />
    <glyph glyph-name="uni040D" unicode="&#x40d;" horiz-adv-x="800" 
d="M769 0h-280v31l25 3q39 5 52.5 27t13.5 83v302l-360 -279v-23q0 -60 13.5 -83t52.5 -27l25 -3v-31h-280v31l25 3q39 4 52 26t13 84v393q0 61 -13 83t-52 27l-25 3v31h280v-31l-25 -3q-39 -5 -52 -27t-13 -83v-307l358 279v28q0 61 -13 83t-52 27l-25 3v31h280v-31l-25 -3
q-39 -5 -52 -27t-13 -83v-393q0 -62 13 -83.5t52 -26.5l25 -3v-31zM503 795l-5 -14l-139 29q-62 13 -62 50q0 16 10 26.5t25 10.5q31 0 76 -34z" />
    <glyph glyph-name="afii10062" unicode="&#x40e;" horiz-adv-x="602" 
d="M637 650q-39 -3 -55.5 -18t-46.5 -73l-210 -406q-58 -95 -110 -131t-109 -36q-40 0 -68 23t-28 53q0 20 15.5 34.5t37.5 14.5q15 0 25.5 -6.5t29.5 -26.5q19 -19 33 -19q20 -3 54.5 32.5t56.5 72.5l-212 423q-14 35 -28.5 46.5t-51.5 16.5v31h248v-30q-54 -7 -54 -37
q0 -13 4 -20l158 -304l124 236q19 37 19 76q0 21 -14 31.5t-54 17.5v30h236v-31zM468 882q-23 -46 -68 -73.5t-97 -27.5q-55 0 -97.5 26.5t-65.5 74.5l23 18q64 -52 142 -52q37 0 75.5 14.5t64.5 37.5z" />
    <glyph glyph-name="afii10145" unicode="&#x40f;" horiz-adv-x="800" 
d="M769 0h-319v-154h-100v154h-319v31l25 3q39 4 52 26t13 84v393q0 61 -13 83t-52 27l-25 3v31h280v-31l-25 -3q-39 -5 -52 -27t-13 -83v-494h358v494q0 61 -13 83t-52 27l-25 3v31h280v-31l-25 -3q-39 -5 -52 -27t-13 -83v-393q0 -62 13 -83.5t52 -26.5l25 -3v-31z" />
    <glyph glyph-name="afii10017" unicode="&#x410;" horiz-adv-x="680" 
d="M714 0h-281v31q47 7 58 15q21 13 21 35q0 12 -11 43l-50 129h-258l-32 -86q-19 -49 -19 -74q0 -29 25 -46q14 -9 64 -16v-31h-268v31l11 2q50 10 75 44t75 163l172 441h93l212 -536q27 -69 45.5 -87.5t67.5 -26.5v-31zM433 296l-114 300l-111 -300h225z" />
    <glyph glyph-name="afii10018" unicode="&#x411;" horiz-adv-x="663" 
d="M625 200q0 -89 -68 -144.5t-182 -55.5h-332v31l25 3q39 4 52 26t13 84v394q0 60 -13.5 83t-51.5 26l-37 3v31h497l72 -171l-32 -16q-68 81 -125 113t-146 32q-19 0 -32 -7t-19 -16t-9 -24.5t-3.5 -24t-0.5 -24.5v-6v-133q51 14 134 14q104 0 181 -61.5t77 -156.5z
M523 203q0 75 -48.5 123.5t-123.5 48.5q-71 0 -118 -14v-255q0 -40 21 -52t93 -12q83 0 129.5 42t46.5 119z" />
    <glyph glyph-name="afii10019" unicode="&#x412;" horiz-adv-x="740" 
d="M702 201q0 -43 -20 -83t-55 -65q-73 -53 -231 -53h-365v31l25 3q39 5 52 27t13 83v393q0 61 -13 83t-52 27l-25 3v31h352q143 0 208 -38q34 -19 53.5 -52.5t19.5 -71.5q0 -62 -48 -98q-34 -27 -97 -42q68 -16 107 -41q76 -47 76 -137zM562 516q0 126 -206 126
q-86 0 -110.5 -15.5t-24.5 -69.5v-164h116q120 0 172.5 28.5t52.5 94.5zM589 206q0 94 -75 127q-40 17 -175 17h-118v-196q0 -64 12 -81q21 -32 118 -32q127 0 182 42q56 42 56 123z" />
    <glyph glyph-name="afii10020" unicode="&#x413;" horiz-adv-x="618" 
d="M609 510l-32 -16q-32 83 -89.5 114t-154.5 31q-73 0 -95 -22q-17 -17 -17 -76v-397q0 -61 13.5 -83.5t51.5 -26.5l33 -3v-31h-288v31l25 3q39 5 52 27t13 83v393q0 61 -13 83t-52 27l-25 3v31h541z" />
    <glyph glyph-name="afii10021" unicode="&#x414;" horiz-adv-x="780" 
d="M535 144v392q0 65 -7 83.5t-32 18.5h-125q-38 0 -38 -60q0 -89 -20.5 -219t-55.5 -253q-10 -32 -10 -42q0 -21 29 -21h227q23 0 27.5 13.5t4.5 87.5zM746 -128h-34q-16 75 -27 92q-18 31 -79 35q-16 1 -36 1h-355q-27 0 -43.5 -1t-30.5 -6t-20.5 -9t-14.5 -17
t-12.5 -23.5t-14.5 -34.5t-20 -44l-33 7l33 167q70 0 88.5 8t37.5 51q30 68 55.5 214t25.5 225q0 64 -12.5 84.5t-52.5 25.5l-25 3v31h549v-31l-25 -3q-40 -5 -52.5 -25.5t-12.5 -84.5l1 -393q0 -67 18 -86.5t71 -17.5z" />
    <glyph glyph-name="afii10022" unicode="&#x415;" horiz-adv-x="720" 
d="M705 213l-91 -213h-583v31l25 3q39 5 52 27t13 83v393q0 61 -13 83t-52 27l-25 3v31h571l69 -180l-32 -13q-69 84 -135.5 117t-168.5 33q-66 0 -90 -17.5t-24 -65.5v-170h76q64 0 87.5 24.5t33.5 102.5h34v-299h-34q-7 70 -35.5 99.5t-87.5 29.5h-74v-211q0 -43 13 -60
q24 -28 100 -28q112 0 185 39.5t155 144.5z" />
    <glyph glyph-name="afii10024" unicode="&#x416;" horiz-adv-x="971" 
d="M955 132q0 -6 -1 -16t-8.5 -35.5t-20 -45t-40 -35.5t-64.5 -16q-47 0 -79 29t-43.5 62.5t-11.5 65.5q0 99 -35.5 150t-102.5 51h-10v-198q0 -62 13 -84t52 -26l25 -3v-31h-280v31l25 3q39 4 52 26t13 84v198h-17q-67 0 -102.5 -51t-35.5 -150q0 -32 -11.5 -65.5
t-43.5 -62.5t-79 -29q-37 0 -64.5 15t-40 37t-20 44t-8.5 37l-1 15l36 10q1 -8 3.5 -19.5t16 -31t33.5 -19.5q57 0 57 66q0 101 51.5 159.5t133.5 65.5q-49 16 -83.5 81t-40.5 136q-3 32 -24 32q-11 0 -14.5 -3t-6 -13.5t-5.5 -17.5q-13 -30 -54 -30q-29 0 -48 23t-19 55
q0 70 112 70q44 0 76 -35.5t41 -88.5q14 -79 48.5 -133.5t76.5 -54.5h33v153q0 61 -13 83t-52 27l-25 3v31h280v-31l-25 -3q-39 -5 -52 -27t-13 -83v-153h26q42 0 76.5 54.5t48.5 133.5q9 52 41.5 88t75.5 36q109 0 109 -70q0 -32 -18 -55t-46 -23q-41 0 -54 30
q-3 7 -5.5 17.5t-6 13.5t-14.5 3q-21 0 -24 -32q-6 -71 -40.5 -136t-83.5 -81q82 -7 133.5 -65.5t51.5 -159.5q0 -66 57 -66q20 0 33 17.5t17 34.5l3 18z" />
    <glyph glyph-name="afii10025" unicode="&#x417;" horiz-adv-x="660" 
d="M634 202q0 -98 -81.5 -156.5t-211.5 -58.5q-143 0 -219 54.5t-76 134.5q0 28 18.5 47t47.5 19q25 0 42 -18t17 -43q0 -13 -3.5 -26.5t-3.5 -24.5q0 -42 51.5 -66.5t120.5 -24.5q78 0 132 41t54 104q0 73 -39.5 119t-122.5 46h-136v43h134q71 0 98.5 34t27.5 101
q0 55 -41.5 87t-105.5 32q-87 0 -130 -36t-85 -122l-32 12l30 181h36l12 -36q81 49 189 49q93 0 161 -50.5t68 -128.5q0 -58 -21 -92t-49 -46q46 -10 82 -57t36 -118z" />
    <glyph glyph-name="afii10026" unicode="&#x418;" horiz-adv-x="800" 
d="M769 0h-280v31l25 3q39 5 52.5 27t13.5 83v302l-359 -279v-23q0 -60 13 -83t52 -27l25 -3v-31h-280v31l25 3q39 4 52 26t13 84v393q0 61 -13 83t-52 27l-25 3v31h280v-31l-25 -3q-39 -5 -52 -27t-13 -83v-307l358 279v28q0 61 -13 83t-52 27l-25 3v31h280v-31l-25 -3
q-39 -5 -52 -27t-13 -83v-393q0 -62 13 -83.5t52 -26.5l25 -3v-31z" />
    <glyph glyph-name="afii10027" unicode="&#x419;" horiz-adv-x="800" 
d="M564 855q-23 -46 -68 -73.5t-97 -27.5q-55 0 -97.5 26.5t-65.5 74.5l23 18q64 -52 142 -52q37 0 75.5 14.5t64.5 37.5zM769 0h-280v31l25 3q39 5 52.5 27t13.5 83v302l-359 -279v-23q0 -60 13 -83t52 -27l25 -3v-31h-280v31l25 3q39 4 52 26t13 84v393q0 61 -13 83
t-52 27l-25 3v31h280v-31l-25 -3q-39 -5 -52 -27t-13 -83v-307l358 279v28q0 61 -13 83t-52 27l-25 3v31h280v-31l-25 -3q-39 -5 -52 -27t-13 -83v-393q0 -62 13 -83.5t52 -26.5l25 -3v-31z" />
    <glyph glyph-name="afii10028" unicode="&#x41a;" horiz-adv-x="709" 
d="M703 132q0 -6 -1 -16t-8.5 -35.5t-20 -45t-40 -35.5t-64.5 -16q-68 0 -104.5 52.5t-36.5 104.5q0 96 -49 148.5t-119 52.5h-40v-198q0 -60 14 -83.5t52 -26.5l41 -3v-31h-296v31l25 3q39 4 52 26t13 84v393q0 61 -13 83t-52 27l-25 3v31h296v-31l-41 -3q-38 -3 -51.5 -25
t-13.5 -85v-153h55q44 0 88 56.5t57 131.5q10 53 41 88.5t76 35.5q25 0 41.5 -2t34 -8.5t26 -21.5t8.5 -38q0 -32 -18 -53.5t-47 -21.5q-42 0 -54 27q-3 7 -5.5 17.5t-6 13.5t-14.5 3q-21 0 -24 -32q-6 -71 -40.5 -136t-83.5 -81q96 -20 149 -78t53 -147q0 -66 57 -66
q20 0 33 17.5t17 34.5l3 18z" />
    <glyph glyph-name="afii10029" unicode="&#x41b;" horiz-adv-x="758" 
d="M738 0h-280v31l25 3q39 4 52 26t13 84v392q0 65 -7 83.5t-32 18.5h-122q-38 0 -38 -60q0 -87 -19.5 -242.5t-48.5 -229.5q-20 -53 -67.5 -86.5t-96.5 -33.5q-102 0 -102 80q0 32 18 53t47 21q52 0 65 -30q2 -5 4.5 -12t4 -11t4.5 -8t8 -5.5t13 -1.5q40 0 70 158t30 307
q0 61 -13 83.5t-52 26.5l-25 3v31h549v-31l-25 -3q-39 -5 -52 -27t-13 -83v-393q0 -62 13 -84t52 -26l25 -3v-31z" />
    <glyph glyph-name="afii10030" unicode="&#x41c;" horiz-adv-x="920" 
d="M894 0h-280v31l25 3q39 5 52 27t13 83v466l-251 -610h-45l-229 622v-478q0 -61 13.5 -83.5t51.5 -26.5l35 -3v-31h-253v31l31 3q38 4 51.5 26.5t13.5 83.5v393q0 61 -13 83t-52 27l-25 3v31h233l192 -515l209 515h228v-31l-25 -3q-39 -5 -52 -27t-13 -83v-393
q0 -61 13 -83t52 -27l25 -3v-31z" />
    <glyph glyph-name="afii10031" unicode="&#x41d;" horiz-adv-x="800" 
d="M769 0h-280v31l25 3q39 5 52 27t13 83v201h-358v-201q0 -61 13 -83t52 -27l25 -3v-31h-280v31l25 3q39 5 52 27t13 83v393q0 61 -13 83t-52 27l-25 3v31h280v-31l-25 -3q-39 -5 -52 -27t-13 -83v-149h358v149q0 61 -13 83t-52 27l-25 3v31h280v-31l-25 -3q-39 -5 -52 -27
t-13 -83v-393q0 -61 13 -83t52 -27l25 -3v-31z" />
    <glyph glyph-name="afii10032" unicode="&#x41e;" horiz-adv-x="800" 
d="M758 338q0 -129 -74 -220q-50 -61 -126 -96t-158 -35q-152 0 -254 102.5t-102 253.5q0 147 104.5 249t255.5 102q154 0 254 -100.5t100 -255.5zM640 332q0 145 -64 229.5t-174 84.5q-109 0 -174.5 -83t-65.5 -221q0 -140 65 -223.5t174 -83.5t174 81t65 216z" />
    <glyph glyph-name="afii10033" unicode="&#x41f;" horiz-adv-x="780" 
d="M749 0h-280v31l25 3q39 4 52 26t13 84v494h-338v-494q0 -62 13 -84t52 -26l25 -3v-31h-280v31l25 3q39 4 52 26t13 84v393q0 61 -13 83t-52 27l-25 3v31h718v-31l-25 -3q-39 -5 -52 -27t-13 -83v-393q0 -62 13 -84t52 -26l25 -3v-31z" />
    <glyph glyph-name="afii10034" unicode="&#x420;" 
d="M613 490q0 -49 -23.5 -92.5t-62.5 -68.5q-62 -38 -165 -38h-141v-147q0 -61 13.5 -84t51.5 -26l37 -3v-31h-292v31l25 3q39 5 52 27t13 83v393q0 61 -13 83t-52 27l-25 3v31h332q116 0 183 -51.5t67 -139.5zM511 487q0 66 -38 107q-41 45 -138 45q-72 0 -93 -12t-21 -52
v-241h125q86 0 127 47q38 43 38 106z" />
    <glyph glyph-name="afii10035" unicode="&#x421;" horiz-adv-x="740" 
d="M702 159q-111 -172 -305 -172q-151 0 -252 100t-101 250q0 147 94 247q46 50 110.5 80t124.5 30q122 0 206 -64l21 42h33l48 -241h-32q-41 74 -62 105q-35 51 -87.5 80.5t-107.5 29.5q-99 0 -164.5 -87.5t-65.5 -220.5q0 -143 73 -222q32 -36 81.5 -58.5t95.5 -22.5
q86 0 165 59q43 31 82 89z" />
    <glyph glyph-name="afii10036" unicode="&#x422;" 
d="M656 505l-35 -12q-86 150 -220 150q-25 0 -33 -9t-8 -35v-455q0 -61 13.5 -84t51.5 -26l39 -3v-31h-308v31l39 3q38 3 51.5 26t13.5 84v459q0 23 -9.5 31.5t-34.5 8.5q-135 0 -220 -150l-33 12l57 176h580z" />
    <glyph glyph-name="afii10037" unicode="&#x423;" horiz-adv-x="602" 
d="M611 650q-41 -3 -58.5 -18t-43.5 -73l-184 -406q-40 -88 -91.5 -127.5t-127.5 -39.5q-40 0 -68 23t-28 53q0 20 15.5 34.5t37.5 14.5t47.5 -26t40.5 -26q63 0 111 105l-193 423q-16 35 -30 46.5t-50 16.5v31h240v-30q-54 -7 -54 -37q0 -13 4 -20l136 -304l105 236
q19 43 19 76q0 21 -14 31.5t-54 17.5v30h240v-31z" />
    <glyph glyph-name="afii10038" unicode="&#x424;" horiz-adv-x="796" 
d="M759 341q0 -52 -20 -92t-49 -63t-67.5 -37.5t-70.5 -19.5t-62 -5h-44q0 -43 13.5 -63.5t51.5 -26.5l20 -3v-31h-270v31l20 3q38 6 51.5 26.5t13.5 63.5h-44q-30 0 -62 5t-70.5 19.5t-67.5 37.5t-49 63t-20 92q0 51 20 91t49 63t67.5 37.5t70.5 19.5t62 5h44q0 42 -13 63
t-52 27l-20 3v31h270v-31l-20 -3q-39 -6 -52 -27t-13 -63h44q30 0 62 -5t70.5 -19.5t67.5 -37.5t49 -63t20 -91zM346 171v339h-38q-20 0 -41.5 -4.5t-45 -16.5t-41 -30.5t-29.5 -49t-12 -68.5q0 -48 17 -83t44.5 -53t54.5 -26t53 -8h38zM653 341q0 38 -12 68.5t-29.5 49
t-41 30.5t-45 16.5t-41.5 4.5h-38v-339h38q26 0 53 8t54.5 26t44.5 53t17 83z" />
    <glyph glyph-name="afii10039" unicode="&#x425;" horiz-adv-x="720" 
d="M755 0h-328v31q3 0 6.5 0.5t5.5 1t3 0.5q66 6 66 39q0 21 -24 53l-140 187l-153 -190q-14 -19 -14 -38q0 -50 75 -53v-31h-282v31q63 20 99 46t87 89l158 187l-172 219q-31 41 -57 57t-69 21v31h310v-31q-42 -1 -59.5 -10t-17.5 -28t18 -40l124 -162l117 150q20 27 20 47
q0 42 -70 43v31h269v-31q-59 -10 -90 -30.5t-87 -87.5l-131 -161l192 -250q36 -48 64.5 -66t79.5 -24v-31z" />
    <glyph glyph-name="afii10040" unicode="&#x426;" horiz-adv-x="834" 
d="M803 -128l-32 -16q-5 10 -16 34.5t-14 30.5t-12 22.5t-13 20t-13.5 13.5t-16.5 11.5t-19 6t-25.5 5t-30.5 0.5h-580v31l25 3q39 4 52 26t13 84v393q0 61 -13 83t-52 27l-25 3v31h280v-31l-25 -3q-39 -5 -52 -27t-13 -83v-494h358v494q0 61 -13 83t-52 27l-25 3v31h280
v-31l-25 -3q-39 -5 -52 -27t-13 -83v-393q0 -68 18.5 -87t71.5 -17z" />
    <glyph glyph-name="afii10041" unicode="&#x427;" horiz-adv-x="725" 
d="M694 0h-280v31l25 3q39 4 52 26t13 84v170q-93 -38 -167 -38q-48 0 -84 6t-68 20.5t-48.5 44t-16.5 72.5v118q0 61 -13 83t-52 27l-25 3v31h280v-31l-25 -3q-39 -5 -52 -27t-13 -83v-116q0 -101 120 -101q83 0 164 37v180q0 61 -13 83t-52 27l-25 3v31h280v-31l-25 -3
q-39 -5 -52 -27t-13 -83v-393q0 -62 13 -84t52 -26l25 -3v-31z" />
    <glyph glyph-name="afii10042" unicode="&#x428;" horiz-adv-x="1078" 
d="M1047 0h-1016v31l25 3q39 4 52 26t13 84v393q0 61 -13 83t-52 27l-25 3v31h280v-31l-25 -3q-39 -5 -52 -27t-13 -83v-494h268v494q0 61 -13 83t-52 27l-25 3v31h280v-31l-25 -3q-39 -5 -52 -27t-13 -83v-494h268v494q0 61 -13 83t-52 27l-25 3v31h280v-31l-25 -3
q-39 -5 -52 -27t-13 -83v-393q0 -62 13 -83.5t52 -26.5l25 -3v-31z" />
    <glyph glyph-name="afii10043" unicode="&#x429;" horiz-adv-x="1112" 
d="M1081 -128l-32 -16q-11 23 -25.5 56.5t-20.5 43.5t-21 24t-36 17t-57 3h-858v31l25 3q39 4 52 26t13 84v393q0 61 -13 83t-52 27l-25 3v31h280v-31l-25 -3q-39 -5 -52 -27t-13 -83v-494h268v494q0 61 -13 83t-52 27l-25 3v31h280v-31l-25 -3q-39 -5 -52 -27t-13 -83v-494
h268v494q0 61 -13 83t-52 27l-25 3v31h280v-31l-25 -3q-39 -5 -52 -27t-13 -83v-393q0 -72 17.5 -89t72.5 -15z" />
    <glyph glyph-name="afii10044" unicode="&#x42a;" horiz-adv-x="817" 
d="M787 201q0 -90 -68 -145.5t-182 -55.5h-332v31l25 3q39 4 52 26t13 84v393q0 102 -46 102q-59 0 -101.5 -16t-73.5 -43.5t-79 -85.5l-32 16l62 171h472v-31l-37 -3q-38 -3 -51.5 -26t-13.5 -84v-142q88 20 141 20q110 0 180.5 -58.5t70.5 -155.5zM685 204
q0 75 -45.5 121.5t-119.5 46.5q-21 0 -52 -5t-52 -10l-21 -5v-246q0 -40 21 -52t93 -12q83 0 129.5 42.5t46.5 119.5z" />
    <glyph glyph-name="afii10045" unicode="&#x42b;" horiz-adv-x="917" 
d="M886 0h-270v31l20 3q41 7 53 27.5t12 82.5v393q0 62 -12 82.5t-53 27.5l-20 3v31h270v-31l-20 -3q-41 -7 -53 -27.5t-12 -82.5v-393q0 -62 12 -82.5t53 -27.5l20 -3v-31zM613 201q0 -90 -68 -145.5t-182 -55.5h-332v31l25 3q39 5 52 27t13 83v393q0 61 -13 83t-52 27
l-25 3v31h292v-31l-37 -3q-38 -3 -51.5 -26t-13.5 -84v-142q88 20 141 20q110 0 180.5 -58.5t70.5 -155.5zM511 204q0 75 -45.5 121.5t-119.5 46.5q-21 0 -52 -5t-52 -10l-21 -5v-246q0 -40 21 -52t93 -12q83 0 129.5 42.5t46.5 119.5z" />
    <glyph glyph-name="afii10046" unicode="&#x42c;" horiz-adv-x="642" 
d="M613 201q0 -90 -68 -145.5t-182 -55.5h-332v31l25 3q39 5 52 27t13 83v393q0 61 -13 83t-52 27l-25 3v31h292v-31l-37 -3q-38 -3 -51.5 -26t-13.5 -84v-142q88 20 141 20q110 0 180.5 -58.5t70.5 -155.5zM511 204q0 75 -45.5 121.5t-119.5 46.5q-21 0 -52 -5t-52 -10
l-21 -5v-246q0 -40 21 -52t93 -12q83 0 129.5 42.5t46.5 119.5z" />
    <glyph glyph-name="afii10047" unicode="&#x42d;" horiz-adv-x="740" 
d="M698 337q0 -150 -101 -250t-252 -100q-81 0 -155 30t-120 100q-19 30 -19 62q0 59 61 59q28 0 43.5 -15.5t15.5 -38.5q0 -13 -9.5 -33.5t-9.5 -32.5q0 -15 14 -25q77 -58 164 -58q46 0 95.5 22.5t81.5 58.5q67 73 73 207h-312v43h311q-8 123 -72 201.5t-157 78.5
q-55 0 -107.5 -29.5t-87.5 -80.5q-21 -31 -62 -105h-32l48 241h33l21 -42q84 64 206 64q60 0 124.5 -30t110.5 -80q94 -100 94 -247z" />
    <glyph glyph-name="afii10048" unicode="&#x42e;" horiz-adv-x="1024" 
d="M993 338q0 -129 -74 -220q-107 -131 -259 -131q-150 0 -241 101t-90 257h-108v-201q0 -62 13 -84t52 -26l25 -3v-31h-280v31l25 3q39 4 52 26t13 84v393q0 61 -13 83t-52 27l-25 3v31h280v-31l-25 -3q-39 -5 -52 -27t-13 -83v-149h111q18 134 107.5 220t224.5 86
q151 0 240 -99.5t89 -256.5zM875 332q0 149 -53 231.5t-160 82.5q-106 0 -160.5 -81t-54.5 -223q0 -145 53.5 -226t160.5 -81q106 0 160 79t54 218z" />
    <glyph glyph-name="afii10049" unicode="&#x42f;" horiz-adv-x="788" 
d="M757 0h-291v31l36 3q38 4 51.5 26.5t13.5 83.5v177h-185q-38 -40 -55 -88.5t-17 -137.5q0 -55 -33.5 -83t-84.5 -28q-37 0 -64.5 15t-40 37t-20 44t-8.5 37l-1 15l36 10q0 -8 1.5 -19.5t13 -31t31.5 -19.5q23 0 36.5 10t18 21.5t9.5 34.5q10 50 36.5 106.5t63.5 86.5
q-82 12 -127.5 56.5t-45.5 121.5q0 81 56 126.5t163 45.5h407v-31l-25 -3q-39 -5 -52 -27t-13 -83v-393q0 -61 13 -83t52 -27l25 -3v-31zM567 364v217q0 20 -9.5 32.5t-31 18t-41 7t-53.5 1.5q-193 0 -193 -135q0 -141 160 -141h168z" />
    <glyph glyph-name="afii10065" unicode="&#x430;" horiz-adv-x="580" 
d="M587 30q-40 -39 -103 -39q-85 0 -112 77q-50 -42 -91.5 -59.5t-91.5 -17.5q-67 0 -110.5 35t-43.5 89q0 102 168 144q47 12 169 25v80q0 41 -31.5 65.5t-84.5 24.5q-42 0 -71.5 -15t-29.5 -37l1 -28q0 -21 -15 -36t-36 -15q-20 0 -34 13t-14 31q0 26 23 54t58 44
q68 29 137 29q75 0 135 -34q31 -17 44 -43t13 -71v-212q0 -52 9 -70q13 -28 47 -28q22 0 45 20zM372 113v136q-113 -10 -174 -42t-61 -82q0 -36 25.5 -61t61.5 -25q70 0 148 74z" />
    <glyph glyph-name="afii10066" unicode="&#x431;" horiz-adv-x="554" 
d="M520 239q0 -111 -67 -179.5t-176 -68.5q-111 0 -177 68t-66 182q0 148 33 244.5t122 142.5q32 17 65.5 23.5t67.5 7.5t37 1q61 8 75 22q11 10 11 26h40q0 -46 -25.5 -81.5t-70.5 -41.5q-16 -2 -55 -5t-63.5 -8t-43.5 -15q-60 -32 -88.5 -71.5t-42.5 -97.5q17 36 39 58.5
t47.5 32t44.5 12.5t46 3q121 0 187 -78q60 -75 60 -177zM418 234q0 103 -38.5 161.5t-105.5 58.5q-64 0 -102.5 -57.5t-38.5 -153.5q0 -101 38 -156.5t107 -55.5q66 0 103 54t37 149z" />
    <glyph glyph-name="afii10067" unicode="&#x432;" horiz-adv-x="543" 
d="M526 140q0 -140 -278 -140h-228v30l25 2q39 3 51 17.5t12 60.5v253q0 48 -12.5 67.5t-50.5 22.5l-25 2v30h215q57 0 93 -3t77.5 -13t62 -34t20.5 -62q0 -43 -41.5 -69t-103.5 -37q183 -21 183 -127zM386 365q0 85 -122 85q-43 0 -57 -8.5t-14 -46.5v-113h53
q83 0 111.5 22.5t28.5 60.5zM413 143q0 57 -41.5 79t-130.5 22h-48v-139q0 -39 19.5 -52t59.5 -13q64 0 102.5 25t38.5 78z" />
    <glyph glyph-name="afii10068" unicode="&#x433;" horiz-adv-x="475" 
d="M461 338l-31 -11q-55 113 -174 113q-28 0 -46.5 -17t-18.5 -50v-258q0 -42 14 -61t47 -22l24 -2v-30h-256v30l25 2q33 3 47 22.5t14 60.5v255q0 41 -14 60.5t-47 22.5l-25 2v30h385z" />
    <glyph glyph-name="afii10069" unicode="&#x434;" horiz-adv-x="583" 
d="M378 113v269q0 46 -7 59.5t-32 13.5h-60q-17 0 -28.5 -12.5t-11.5 -30.5q0 -109 -16.5 -192t-32.5 -122.5t-16 -42.5q0 -14 19 -14h121q39 0 51.5 14t12.5 58zM554 -109l-31 -11q-29 81 -53 100.5t-83 19.5h-204q-59 0 -83 -19.5t-53 -100.5l-31 11l22 139h14
q37 0 67 61.5t44.5 142t14.5 154.5q0 33 -14 48t-51 18l-25 1v30h465v-30l-25 -2q-39 -3 -52 -18.5t-13 -59.5v-276q0 -43 10 -56t40 -13h20z" />
    <glyph glyph-name="afii10070" unicode="&#x435;" horiz-adv-x="520" 
d="M491 116q-73 -125 -207 -125q-114 0 -181 76q-66 74 -66 180q0 108 66.5 177.5t169.5 69.5q109 0 171 -73q46 -53 47 -132h-347q0 -103 20 -150q42 -103 150 -103q92 0 144 96zM387 329q0 27 -8 51q-29 74 -110 74q-61 0 -93 -44q-20 -26 -29 -81h240z" />
    <glyph glyph-name="afii10072" unicode="&#x436;" horiz-adv-x="835" 
d="M830 93q0 -4 -2 -11t-11 -25.5t-23 -32t-42.5 -25t-65.5 -11.5q-44 0 -70 26t-29 59q-18 169 -127 169v-141q0 -43 13 -58.5t52 -18.5l25 -2v-22h-265v22l25 2q39 3 52 18.5t13 58.5v141q-109 0 -127 -169q-3 -33 -29 -59t-70 -26q-37 0 -65.5 11t-42.5 26t-23 30.5
t-11 26.5l-2 11l36 7q2 -5 5.5 -13.5t17 -22t28.5 -13.5q23 0 35.5 17t19.5 55q9 49 50.5 88.5t118.5 45.5q-50 18 -78.5 61.5t-35.5 94.5q-3 23 -19 23q-10 0 -14 -9t-4.5 -20t-11 -20t-31.5 -9q-27 0 -40.5 17t-13.5 39q0 31 27 46.5t63 15.5q45 0 68 -21.5t34 -66.5
q21 -81 37 -104q22 -32 62 -32h16v111q0 44 -13 59.5t-52 18.5l-25 2v22h265v-22l-25 -2q-39 -3 -52 -18.5t-13 -59.5v-111h16q30 0 50 19t28.5 43t18.5 64q1 7 2 10q11 45 34 66.5t68 21.5q36 0 63 -15.5t27 -46.5q0 -22 -13.5 -39t-40.5 -17q-21 0 -31.5 9t-11 20t-4.5 20
t-14 9q-16 0 -19 -23q-7 -51 -35.5 -94.5t-78.5 -61.5q77 -6 118.5 -45.5t50.5 -88.5q7 -38 19.5 -55t35.5 -17q15 0 28 12.5t18 24.5l5 12z" />
    <glyph glyph-name="afii10073" unicode="&#x437;" horiz-adv-x="486" 
d="M454 145q0 -155 -213 -155q-87 0 -149 36t-62 97q0 19 11.5 34t31.5 15q51 0 51 -43q0 -12 -3 -20.5t-3 -16.5q0 -28 37.5 -43t82.5 -15q30 0 55.5 7.5t46 31.5t20.5 62q0 51 -32 76.5t-86 25.5h-57v48h69q48 0 70 21t22 67q0 84 -116 84q-50 0 -85.5 -37t-43.5 -93h-34
l12 154h28l8 -29q45 47 121 47q98 0 149.5 -39.5t51.5 -97.5q0 -73 -60 -96q37 -8 57 -40t20 -81z" />
    <glyph glyph-name="afii10074" unicode="&#x438;" horiz-adv-x="644" 
d="M626 0h-259v30l25 2q33 3 47.5 22t14.5 60v188l-262 -186v-2q0 -41 14.5 -60t47.5 -22l25 -2v-30h-259v30l25 2q33 3 47.5 22t14.5 60v256q0 41 -14.5 60.5t-47.5 22.5l-25 2v30h259v-30l-25 -2q-33 -3 -47.5 -22.5t-14.5 -60.5v-187l262 186q0 42 -14.5 62t-47.5 22
l-25 2v30h259v-30l-25 -2q-33 -3 -47.5 -22.5t-14.5 -60.5v-256q0 -41 14.5 -60t47.5 -22l25 -2v-30z" />
    </font>
</defs>
</svg>
